G75*
G70*
%OFA0B0*%
%FSLAX24Y24*%
%IPPOS*%
%LPD*%
%AMOC8*
5,1,8,0,0,1.08239X$1,22.5*
%
%ADD10R,0.2000X0.0900*%
%ADD11C,0.0160*%
%ADD12R,0.0650X0.0650*%
%ADD13R,0.0396X0.0396*%
D10*
X004861Y002093D03*
X004861Y005573D03*
X015400Y005573D03*
X015400Y002093D03*
D11*
X004409Y001006D02*
X004409Y006459D01*
X015919Y006459D01*
X015919Y001006D01*
X004409Y001006D01*
X004409Y001011D02*
X015919Y001011D01*
X015919Y001169D02*
X004409Y001169D01*
X004409Y001328D02*
X015919Y001328D01*
X015919Y001486D02*
X004409Y001486D01*
X004409Y001645D02*
X015919Y001645D01*
X015919Y001803D02*
X004409Y001803D01*
X004409Y001962D02*
X015919Y001962D01*
X015919Y002120D02*
X004409Y002120D01*
X004409Y002279D02*
X015919Y002279D01*
X015919Y002437D02*
X004409Y002437D01*
X004409Y002596D02*
X015919Y002596D01*
X015919Y002754D02*
X004409Y002754D01*
X004409Y002913D02*
X015919Y002913D01*
X015919Y003071D02*
X004409Y003071D01*
X004409Y003230D02*
X015919Y003230D01*
X015919Y003388D02*
X004409Y003388D01*
X004409Y003547D02*
X015919Y003547D01*
X015919Y003705D02*
X004409Y003705D01*
X004409Y003864D02*
X015919Y003864D01*
X015919Y004022D02*
X004409Y004022D01*
X004409Y004181D02*
X015919Y004181D01*
X015919Y004339D02*
X004409Y004339D01*
X004409Y004498D02*
X015919Y004498D01*
X015919Y004656D02*
X004409Y004656D01*
X004409Y004815D02*
X015919Y004815D01*
X015919Y004973D02*
X004409Y004973D01*
X004409Y005132D02*
X015919Y005132D01*
X015919Y005290D02*
X004409Y005290D01*
X004409Y005449D02*
X015919Y005449D01*
X015919Y005607D02*
X004409Y005607D01*
X004409Y005766D02*
X015919Y005766D01*
X015919Y005924D02*
X004409Y005924D01*
X004409Y006083D02*
X015919Y006083D01*
X015919Y006241D02*
X004409Y006241D01*
X004409Y006400D02*
X015919Y006400D01*
D12*
X011929Y005409D03*
X011129Y005409D03*
X010329Y005409D03*
X009529Y005409D03*
X008829Y005409D03*
X008829Y002268D03*
X009538Y002268D03*
X010325Y002268D03*
X011113Y002268D03*
X011900Y002268D03*
D13*
X013142Y002888D03*
X013772Y002888D03*
X014402Y002888D03*
X014244Y004699D03*
X013693Y004699D03*
X013142Y004699D03*
X007551Y002888D03*
X006921Y002888D03*
X006292Y002888D03*
X005662Y002888D03*
X005032Y002888D03*
X004953Y004699D03*
X005583Y004699D03*
X006134Y004699D03*
X006764Y004699D03*
X007394Y004699D03*
M02*
