%
M48
M72
T01C0.0236
T02C0.0433
%
T01
X5032Y2888
X5662Y2888
X6292Y2888
X6921Y2888
X7551Y2888
X7394Y4699
X6764Y4699
X6134Y4699
X5583Y4699
X4953Y4699
X13142Y4699
X13693Y4699
X14244Y4699
X14402Y2888
X13772Y2888
X13142Y2888
T02
X11900Y2268
X11113Y2268
X10325Y2268
X9538Y2268
X8829Y2268
X8829Y5409
X9529Y5409
X10329Y5409
X11129Y5409
X11929Y5409
M30
