G75*
G70*
%OFA0B0*%
%FSLAX24Y24*%
%IPPOS*%
%LPD*%
%AMOC8*
5,1,8,0,0,1.08239X$1,22.5*
%
%ADD10C,0.0000*%
%ADD11C,0.0079*%
%ADD12C,0.0040*%
%ADD13C,0.0080*%
%ADD14C,0.0060*%
D10*
X003929Y000526D02*
X003929Y006939D01*
X016399Y006939D01*
X016399Y000526D01*
X003929Y000526D01*
X003851Y001633D02*
X003851Y006033D01*
X016410Y006033D02*
X016410Y001633D01*
D11*
X010547Y003218D02*
X010311Y003218D01*
D12*
X010162Y004538D02*
X010469Y004538D01*
X010622Y004538D02*
X010929Y004538D01*
X010776Y004538D02*
X010776Y004998D01*
X010622Y004845D01*
X010162Y004998D02*
X010162Y004538D01*
X009855Y004768D02*
X009701Y004768D01*
X009701Y004538D02*
X009701Y004998D01*
X010008Y004998D01*
D13*
X003811Y005349D02*
X003811Y002318D01*
X003811Y002003D02*
X003240Y002003D01*
X003240Y003046D01*
X002394Y003046D01*
X002099Y002751D01*
X000603Y002751D01*
X000603Y003085D01*
X000140Y003085D01*
X000140Y004581D01*
X000603Y004581D01*
X000603Y004916D01*
X002099Y004916D01*
X002394Y004621D01*
X003240Y004621D01*
X003240Y005664D01*
X003811Y005664D01*
X016449Y005664D02*
X017020Y005664D01*
X017020Y004621D01*
X017866Y004621D01*
X018162Y004916D01*
X019658Y004916D01*
X019658Y004581D01*
X020120Y004581D01*
X020120Y003085D01*
X019658Y003085D01*
X019658Y002751D01*
X018162Y002751D01*
X017866Y003046D01*
X017020Y003046D01*
X017020Y002003D01*
X016449Y002003D01*
X016449Y002318D02*
X016449Y005349D01*
D14*
X015865Y001304D02*
X015652Y001304D01*
X015545Y001197D01*
X015328Y001304D02*
X014901Y000663D01*
X015328Y000663D02*
X014901Y001304D01*
X015545Y000663D02*
X015972Y001090D01*
X015972Y001197D01*
X015865Y001304D01*
X015972Y000663D02*
X015545Y000663D01*
X005202Y006470D02*
X005095Y006363D01*
X004882Y006363D01*
X004775Y006470D01*
X004558Y006363D02*
X004131Y007004D01*
X004558Y007004D02*
X004131Y006363D01*
X004989Y006684D02*
X005095Y006684D01*
X005202Y006577D01*
X005202Y006470D01*
X005095Y006684D02*
X005202Y006790D01*
X005202Y006897D01*
X005095Y007004D01*
X004882Y007004D01*
X004775Y006897D01*
M02*
