G75*
G70*
%OFA0B0*%
%FSLAX24Y24*%
%IPPOS*%
%LPD*%
%AMOC8*
5,1,8,0,0,1.08239X$1,22.5*
%
%ADD10R,0.1400X0.0700*%
%ADD11R,0.1100X0.0300*%
%ADD12R,0.1200X0.0400*%
%ADD13R,0.0749X0.0395*%
%ADD14R,0.0474X0.0395*%
%ADD15R,0.2080X0.0530*%
%ADD16R,0.2080X0.0980*%
%ADD17R,0.0730X0.0730*%
%ADD18R,0.0476X0.0476*%
D10*
X010429Y002859D03*
X010429Y004759D03*
D11*
X011579Y003859D03*
D12*
X009229Y003809D03*
D13*
X010134Y004281D03*
D14*
X010862Y004281D03*
X010862Y003809D03*
X009996Y003809D03*
X009996Y003336D03*
X010862Y003336D03*
D15*
X015400Y003833D03*
X004861Y003833D03*
D16*
X004861Y002093D03*
X004861Y005573D03*
X015400Y005573D03*
X015400Y002093D03*
D17*
X011900Y002268D03*
X011113Y002268D03*
X010325Y002268D03*
X009538Y002268D03*
X008829Y002268D03*
X008829Y005409D03*
X009529Y005409D03*
X010329Y005409D03*
X011129Y005409D03*
X011929Y005409D03*
D18*
X013142Y004699D03*
X013693Y004699D03*
X014244Y004699D03*
X014402Y002888D03*
X013772Y002888D03*
X013142Y002888D03*
X007551Y002888D03*
X006921Y002888D03*
X006292Y002888D03*
X005662Y002888D03*
X005032Y002888D03*
X004953Y004699D03*
X005583Y004699D03*
X006134Y004699D03*
X006764Y004699D03*
X007394Y004699D03*
M02*
