G75*
G70*
%OFA0B0*%
%FSLAX24Y24*%
%IPPOS*%
%LPD*%
%AMOC8*
5,1,8,0,0,1.08239X$1,22.5*
%
%ADD10R,0.0433X0.0394*%
%ADD11R,0.0394X0.0433*%
%ADD12R,0.0354X0.0276*%
%ADD13R,0.0394X0.0591*%
%ADD14R,0.0394X0.2165*%
%ADD15C,0.0433*%
%ADD16C,0.0600*%
%ADD17R,0.2000X0.0450*%
%ADD18R,0.2000X0.0900*%
%ADD19C,0.0400*%
%ADD20C,0.0551*%
%ADD21R,0.0396X0.0396*%
%ADD22C,0.0000*%
%ADD23C,0.0001*%
%ADD24C,0.0320*%
%ADD25C,0.0276*%
%ADD26C,0.0240*%
D10*
X010216Y005500D03*
X010885Y005500D03*
X022216Y005500D03*
X022885Y005500D03*
D11*
X019651Y005665D03*
X019651Y006335D03*
X019651Y010065D03*
X019651Y010735D03*
X014285Y010900D03*
X013616Y010900D03*
X010885Y010900D03*
X010216Y010900D03*
D12*
X015451Y009456D03*
X015451Y008944D03*
X022151Y010144D03*
X022151Y010656D03*
D13*
X013941Y005513D03*
X012760Y005513D03*
D14*
X013351Y006300D03*
D15*
X013568Y006418D02*
X013134Y006418D01*
X013134Y007166D01*
X013568Y007166D01*
X013568Y006418D01*
X013568Y006850D02*
X013134Y006850D01*
D16*
X008051Y010600D02*
X008051Y011200D01*
X007051Y011200D02*
X007051Y010600D01*
D17*
X004861Y005500D03*
X027341Y005500D03*
D18*
X004861Y003760D03*
X004861Y007240D03*
X027341Y007240D03*
X027341Y003760D03*
D19*
X022951Y005500D02*
X022885Y005500D01*
X022216Y005500D02*
X022151Y005500D01*
X019651Y005500D02*
X019651Y005665D01*
X014051Y005500D02*
X013941Y005513D01*
X012760Y005513D02*
X012651Y005500D01*
X010951Y005500D02*
X010885Y005500D01*
X010216Y005500D02*
X010151Y005500D01*
X010885Y010900D02*
X011051Y010900D01*
D20*
X013451Y010900D01*
X014451Y010900D02*
X015451Y010900D01*
X019651Y010900D01*
X022151Y010900D01*
X015451Y010900D02*
X015451Y009600D01*
X015451Y008800D02*
X015451Y005500D01*
X019651Y005500D01*
X022151Y005500D01*
X022951Y005500D02*
X027341Y005500D01*
X015451Y005500D02*
X014051Y005500D01*
X012651Y005500D02*
X010951Y005500D01*
X010151Y005500D02*
X004861Y005500D01*
X008051Y010900D02*
X010051Y010900D01*
D21*
X012251Y007500D03*
X012851Y007500D03*
X013451Y007500D03*
X014051Y007500D03*
X018651Y007000D03*
X019151Y007000D03*
X019651Y007000D03*
X020151Y007000D03*
X020351Y009500D03*
X020851Y009500D03*
X021551Y009700D03*
X022051Y009700D03*
X022551Y009700D03*
X023051Y009700D03*
X019851Y009500D03*
X019351Y009500D03*
X018851Y009500D03*
X013351Y005000D03*
D22*
X013551Y004800D02*
X013151Y004800D01*
X013151Y005300D01*
X013551Y005300D01*
X013551Y004800D01*
X014351Y006500D02*
X011951Y006500D01*
X011951Y008000D01*
X014351Y008000D01*
X014351Y006500D01*
X018251Y006200D02*
X018251Y007400D01*
X020551Y007400D01*
X020551Y006200D01*
X018251Y006200D01*
X018551Y009000D02*
X018551Y010100D01*
X021151Y010100D01*
X021151Y010200D01*
X023351Y010200D01*
X023351Y009000D01*
X018551Y009000D01*
D23*
X018551Y009001D02*
X023351Y009001D01*
X023351Y009002D02*
X018551Y009002D01*
X018551Y009003D02*
X023351Y009003D01*
X023351Y009004D02*
X018551Y009004D01*
X018551Y009005D02*
X023351Y009005D01*
X023351Y009006D02*
X018551Y009006D01*
X018551Y009007D02*
X023351Y009007D01*
X023351Y009008D02*
X018551Y009008D01*
X018551Y009009D02*
X023351Y009009D01*
X023351Y009010D02*
X018551Y009010D01*
X018551Y009011D02*
X023351Y009011D01*
X023351Y009012D02*
X018551Y009012D01*
X018551Y009013D02*
X023351Y009013D01*
X023351Y009014D02*
X018551Y009014D01*
X018551Y009015D02*
X023351Y009015D01*
X023351Y009016D02*
X018551Y009016D01*
X018551Y009017D02*
X023351Y009017D01*
X023351Y009018D02*
X018551Y009018D01*
X018551Y009019D02*
X023351Y009019D01*
X023351Y009020D02*
X018551Y009020D01*
X018551Y009021D02*
X023351Y009021D01*
X023351Y009022D02*
X018551Y009022D01*
X018551Y009023D02*
X023351Y009023D01*
X023351Y009024D02*
X018551Y009024D01*
X018551Y009025D02*
X023351Y009025D01*
X023351Y009026D02*
X018551Y009026D01*
X018551Y009027D02*
X023351Y009027D01*
X023351Y009028D02*
X018551Y009028D01*
X018551Y009029D02*
X023351Y009029D01*
X023351Y009030D02*
X018551Y009030D01*
X018551Y009031D02*
X023351Y009031D01*
X023351Y009032D02*
X018551Y009032D01*
X018551Y009033D02*
X023351Y009033D01*
X023351Y009034D02*
X018551Y009034D01*
X018551Y009035D02*
X023351Y009035D01*
X023351Y009036D02*
X018551Y009036D01*
X018551Y009037D02*
X023351Y009037D01*
X023351Y009038D02*
X018551Y009038D01*
X018551Y009039D02*
X023351Y009039D01*
X023351Y009040D02*
X018551Y009040D01*
X018551Y009041D02*
X023351Y009041D01*
X023351Y009042D02*
X018551Y009042D01*
X018551Y009043D02*
X023351Y009043D01*
X023351Y009044D02*
X018551Y009044D01*
X018551Y009045D02*
X023351Y009045D01*
X023351Y009046D02*
X018551Y009046D01*
X018551Y009047D02*
X023351Y009047D01*
X023351Y009048D02*
X018551Y009048D01*
X018551Y009049D02*
X023351Y009049D01*
X023351Y009050D02*
X018551Y009050D01*
X018551Y009051D02*
X023351Y009051D01*
X023351Y009052D02*
X018551Y009052D01*
X018551Y009053D02*
X023351Y009053D01*
X023351Y009054D02*
X018551Y009054D01*
X018551Y009055D02*
X023351Y009055D01*
X023351Y009056D02*
X018551Y009056D01*
X018551Y009057D02*
X023351Y009057D01*
X023351Y009058D02*
X018551Y009058D01*
X018551Y009059D02*
X023351Y009059D01*
X023351Y009060D02*
X018551Y009060D01*
X018551Y009061D02*
X023351Y009061D01*
X023351Y009062D02*
X018551Y009062D01*
X018551Y009063D02*
X023351Y009063D01*
X023351Y009064D02*
X018551Y009064D01*
X018551Y009065D02*
X023351Y009065D01*
X023351Y009066D02*
X018551Y009066D01*
X018551Y009067D02*
X023351Y009067D01*
X023351Y009068D02*
X018551Y009068D01*
X018551Y009069D02*
X023351Y009069D01*
X023351Y009070D02*
X018551Y009070D01*
X018551Y009071D02*
X023351Y009071D01*
X023351Y009072D02*
X018551Y009072D01*
X018551Y009073D02*
X023351Y009073D01*
X023351Y009074D02*
X018551Y009074D01*
X018551Y009075D02*
X023351Y009075D01*
X023351Y009076D02*
X018551Y009076D01*
X018551Y009077D02*
X023351Y009077D01*
X023351Y009078D02*
X018551Y009078D01*
X018551Y009079D02*
X023351Y009079D01*
X023351Y009080D02*
X018551Y009080D01*
X018551Y009081D02*
X023351Y009081D01*
X023351Y009082D02*
X018551Y009082D01*
X018551Y009083D02*
X023351Y009083D01*
X023351Y009084D02*
X018551Y009084D01*
X018551Y009085D02*
X023351Y009085D01*
X023351Y009086D02*
X018551Y009086D01*
X018551Y009087D02*
X023351Y009087D01*
X023351Y009088D02*
X018551Y009088D01*
X018551Y009089D02*
X023351Y009089D01*
X023351Y009090D02*
X018551Y009090D01*
X018551Y009091D02*
X023351Y009091D01*
X023351Y009092D02*
X018551Y009092D01*
X018551Y009093D02*
X023351Y009093D01*
X023351Y009094D02*
X018551Y009094D01*
X018551Y009095D02*
X023351Y009095D01*
X023351Y009096D02*
X018551Y009096D01*
X018551Y009097D02*
X023351Y009097D01*
X023351Y009098D02*
X018551Y009098D01*
X018551Y009099D02*
X023351Y009099D01*
X023351Y009100D02*
X018551Y009100D01*
X018551Y009101D02*
X023351Y009101D01*
X023351Y009102D02*
X018551Y009102D01*
X018551Y009103D02*
X023351Y009103D01*
X023351Y009104D02*
X018551Y009104D01*
X018551Y009105D02*
X023351Y009105D01*
X023351Y009106D02*
X018551Y009106D01*
X018551Y009107D02*
X023351Y009107D01*
X023351Y009108D02*
X018551Y009108D01*
X018551Y009109D02*
X023351Y009109D01*
X023351Y009110D02*
X018551Y009110D01*
X018551Y009111D02*
X023351Y009111D01*
X023351Y009112D02*
X018551Y009112D01*
X018551Y009113D02*
X023351Y009113D01*
X023351Y009114D02*
X018551Y009114D01*
X018551Y009115D02*
X023351Y009115D01*
X023351Y009116D02*
X018551Y009116D01*
X018551Y009117D02*
X023351Y009117D01*
X023351Y009118D02*
X018551Y009118D01*
X018551Y009119D02*
X023351Y009119D01*
X023351Y009120D02*
X018551Y009120D01*
X018551Y009121D02*
X023351Y009121D01*
X023351Y009122D02*
X018551Y009122D01*
X018551Y009123D02*
X023351Y009123D01*
X023351Y009124D02*
X018551Y009124D01*
X018551Y009125D02*
X023351Y009125D01*
X023351Y009126D02*
X018551Y009126D01*
X018551Y009127D02*
X023351Y009127D01*
X023351Y009128D02*
X018551Y009128D01*
X018551Y009129D02*
X023351Y009129D01*
X023351Y009130D02*
X018551Y009130D01*
X018551Y009131D02*
X023351Y009131D01*
X023351Y009132D02*
X018551Y009132D01*
X018551Y009133D02*
X023351Y009133D01*
X023351Y009134D02*
X018551Y009134D01*
X018551Y009135D02*
X023351Y009135D01*
X023351Y009136D02*
X018551Y009136D01*
X018551Y009137D02*
X023351Y009137D01*
X023351Y009138D02*
X018551Y009138D01*
X018551Y009139D02*
X023351Y009139D01*
X023351Y009140D02*
X018551Y009140D01*
X018551Y009141D02*
X023351Y009141D01*
X023351Y009142D02*
X018551Y009142D01*
X018551Y009143D02*
X023351Y009143D01*
X023351Y009144D02*
X018551Y009144D01*
X018551Y009145D02*
X023351Y009145D01*
X023351Y009146D02*
X018551Y009146D01*
X018551Y009147D02*
X023351Y009147D01*
X023351Y009148D02*
X018551Y009148D01*
X018551Y009149D02*
X023351Y009149D01*
X023351Y009150D02*
X018551Y009150D01*
X018551Y009151D02*
X023351Y009151D01*
X023351Y009152D02*
X018551Y009152D01*
X018551Y009153D02*
X023351Y009153D01*
X023351Y009154D02*
X018551Y009154D01*
X018551Y009155D02*
X023351Y009155D01*
X023351Y009156D02*
X018551Y009156D01*
X018551Y009157D02*
X023351Y009157D01*
X023351Y009158D02*
X018551Y009158D01*
X018551Y009159D02*
X023351Y009159D01*
X023351Y009160D02*
X018551Y009160D01*
X018551Y009161D02*
X023351Y009161D01*
X023351Y009162D02*
X018551Y009162D01*
X018551Y009163D02*
X023351Y009163D01*
X023351Y009164D02*
X018551Y009164D01*
X018551Y009165D02*
X023351Y009165D01*
X023351Y009166D02*
X018551Y009166D01*
X018551Y009167D02*
X023351Y009167D01*
X023351Y009168D02*
X018551Y009168D01*
X018551Y009169D02*
X023351Y009169D01*
X023351Y009170D02*
X018551Y009170D01*
X018551Y009171D02*
X023351Y009171D01*
X023351Y009172D02*
X018551Y009172D01*
X018551Y009173D02*
X023351Y009173D01*
X023351Y009174D02*
X018551Y009174D01*
X018551Y009175D02*
X023351Y009175D01*
X023351Y009176D02*
X018551Y009176D01*
X018551Y009177D02*
X023351Y009177D01*
X023351Y009178D02*
X018551Y009178D01*
X018551Y009179D02*
X023351Y009179D01*
X023351Y009180D02*
X018551Y009180D01*
X018551Y009181D02*
X023351Y009181D01*
X023351Y009182D02*
X018551Y009182D01*
X018551Y009183D02*
X023351Y009183D01*
X023351Y009184D02*
X018551Y009184D01*
X018551Y009185D02*
X023351Y009185D01*
X023351Y009186D02*
X018551Y009186D01*
X018551Y009187D02*
X023351Y009187D01*
X023351Y009188D02*
X018551Y009188D01*
X018551Y009189D02*
X023351Y009189D01*
X023351Y009190D02*
X018551Y009190D01*
X018551Y009191D02*
X023351Y009191D01*
X023351Y009192D02*
X018551Y009192D01*
X018551Y009193D02*
X023351Y009193D01*
X023351Y009194D02*
X018551Y009194D01*
X018551Y009195D02*
X023351Y009195D01*
X023351Y009196D02*
X018551Y009196D01*
X018551Y009197D02*
X023351Y009197D01*
X023351Y009198D02*
X018551Y009198D01*
X018551Y009199D02*
X023351Y009199D01*
X023351Y009200D02*
X018551Y009200D01*
X018551Y009201D02*
X023351Y009201D01*
X023351Y009202D02*
X018551Y009202D01*
X018551Y009203D02*
X023351Y009203D01*
X023351Y009204D02*
X018551Y009204D01*
X018551Y009205D02*
X023351Y009205D01*
X023351Y009206D02*
X018551Y009206D01*
X018551Y009207D02*
X023351Y009207D01*
X023351Y009208D02*
X018551Y009208D01*
X018551Y009209D02*
X023351Y009209D01*
X023351Y009210D02*
X018551Y009210D01*
X018551Y009211D02*
X023351Y009211D01*
X023351Y009212D02*
X018551Y009212D01*
X018551Y009213D02*
X023351Y009213D01*
X023351Y009214D02*
X018551Y009214D01*
X018551Y009215D02*
X023351Y009215D01*
X023351Y009216D02*
X018551Y009216D01*
X018551Y009217D02*
X023351Y009217D01*
X023351Y009218D02*
X018551Y009218D01*
X018551Y009219D02*
X023351Y009219D01*
X023351Y009220D02*
X018551Y009220D01*
X018551Y009221D02*
X023351Y009221D01*
X023351Y009222D02*
X018551Y009222D01*
X018551Y009223D02*
X023351Y009223D01*
X023351Y009224D02*
X018551Y009224D01*
X018551Y009225D02*
X023351Y009225D01*
X023351Y009226D02*
X018551Y009226D01*
X018551Y009227D02*
X023351Y009227D01*
X023351Y009228D02*
X018551Y009228D01*
X018551Y009229D02*
X023351Y009229D01*
X023351Y009230D02*
X018551Y009230D01*
X018551Y009231D02*
X023351Y009231D01*
X023351Y009232D02*
X018551Y009232D01*
X018551Y009233D02*
X023351Y009233D01*
X023351Y009234D02*
X018551Y009234D01*
X018551Y009235D02*
X023351Y009235D01*
X023351Y009236D02*
X018551Y009236D01*
X018551Y009237D02*
X023351Y009237D01*
X023351Y009238D02*
X018551Y009238D01*
X018551Y009239D02*
X023351Y009239D01*
X023351Y009240D02*
X018551Y009240D01*
X018551Y009241D02*
X023351Y009241D01*
X023351Y009242D02*
X018551Y009242D01*
X018551Y009243D02*
X023351Y009243D01*
X023351Y009244D02*
X018551Y009244D01*
X018551Y009245D02*
X023351Y009245D01*
X023351Y009246D02*
X018551Y009246D01*
X018551Y009247D02*
X023351Y009247D01*
X023351Y009248D02*
X018551Y009248D01*
X018551Y009249D02*
X023351Y009249D01*
X023351Y009250D02*
X018551Y009250D01*
X018551Y009251D02*
X023351Y009251D01*
X023351Y009252D02*
X018551Y009252D01*
X018551Y009253D02*
X023351Y009253D01*
X023351Y009254D02*
X018551Y009254D01*
X018551Y009255D02*
X023351Y009255D01*
X023351Y009256D02*
X018551Y009256D01*
X018551Y009257D02*
X023351Y009257D01*
X023351Y009258D02*
X018551Y009258D01*
X018551Y009259D02*
X023351Y009259D01*
X023351Y009260D02*
X018551Y009260D01*
X018551Y009261D02*
X023351Y009261D01*
X023351Y009262D02*
X018551Y009262D01*
X018551Y009263D02*
X023351Y009263D01*
X023351Y009264D02*
X018551Y009264D01*
X018551Y009265D02*
X023351Y009265D01*
X023351Y009266D02*
X018551Y009266D01*
X018551Y009267D02*
X023351Y009267D01*
X023351Y009268D02*
X018551Y009268D01*
X018551Y009269D02*
X023351Y009269D01*
X023351Y009270D02*
X018551Y009270D01*
X018551Y009271D02*
X023351Y009271D01*
X023351Y009272D02*
X018551Y009272D01*
X018551Y009273D02*
X023351Y009273D01*
X023351Y009274D02*
X018551Y009274D01*
X018551Y009275D02*
X023351Y009275D01*
X023351Y009276D02*
X018551Y009276D01*
X018551Y009277D02*
X023351Y009277D01*
X023351Y009278D02*
X018551Y009278D01*
X018551Y009279D02*
X023351Y009279D01*
X023351Y009280D02*
X018551Y009280D01*
X018551Y009281D02*
X023351Y009281D01*
X023351Y009282D02*
X018551Y009282D01*
X018551Y009283D02*
X023351Y009283D01*
X023351Y009284D02*
X018551Y009284D01*
X018551Y009285D02*
X023351Y009285D01*
X023351Y009286D02*
X018551Y009286D01*
X018551Y009287D02*
X023351Y009287D01*
X023351Y009288D02*
X018551Y009288D01*
X018551Y009289D02*
X023351Y009289D01*
X023351Y009290D02*
X018551Y009290D01*
X018551Y009291D02*
X023351Y009291D01*
X023351Y009292D02*
X018551Y009292D01*
X018551Y009293D02*
X023351Y009293D01*
X023351Y009294D02*
X018551Y009294D01*
X018551Y009295D02*
X023351Y009295D01*
X023351Y009296D02*
X018551Y009296D01*
X018551Y009297D02*
X023351Y009297D01*
X023351Y009298D02*
X018551Y009298D01*
X018551Y009299D02*
X023351Y009299D01*
X023351Y009300D02*
X018551Y009300D01*
X018551Y009301D02*
X023351Y009301D01*
X023351Y009302D02*
X018551Y009302D01*
X018551Y009303D02*
X023351Y009303D01*
X023351Y009304D02*
X018551Y009304D01*
X018551Y009305D02*
X023351Y009305D01*
X023351Y009306D02*
X018551Y009306D01*
X018551Y009307D02*
X023351Y009307D01*
X023351Y009308D02*
X018551Y009308D01*
X018551Y009309D02*
X023351Y009309D01*
X023351Y009310D02*
X018551Y009310D01*
X018551Y009311D02*
X023351Y009311D01*
X023351Y009312D02*
X018551Y009312D01*
X018551Y009313D02*
X023351Y009313D01*
X023351Y009314D02*
X018551Y009314D01*
X018551Y009315D02*
X023351Y009315D01*
X023351Y009316D02*
X018551Y009316D01*
X018551Y009317D02*
X023351Y009317D01*
X023351Y009318D02*
X018551Y009318D01*
X018551Y009319D02*
X023351Y009319D01*
X023351Y009320D02*
X018551Y009320D01*
X018551Y009321D02*
X023351Y009321D01*
X023351Y009322D02*
X018551Y009322D01*
X018551Y009323D02*
X023351Y009323D01*
X023351Y009324D02*
X018551Y009324D01*
X018551Y009325D02*
X023351Y009325D01*
X023351Y009326D02*
X018551Y009326D01*
X018551Y009327D02*
X023351Y009327D01*
X023351Y009328D02*
X018551Y009328D01*
X018551Y009329D02*
X023351Y009329D01*
X023351Y009330D02*
X018551Y009330D01*
X018551Y009331D02*
X023351Y009331D01*
X023351Y009332D02*
X018551Y009332D01*
X018551Y009333D02*
X023351Y009333D01*
X018551Y009333D01*
X018551Y009334D02*
X023351Y009334D01*
X023351Y009335D02*
X018551Y009335D01*
X018551Y009336D02*
X023351Y009336D01*
X023351Y009337D02*
X018551Y009337D01*
X018551Y009338D02*
X023351Y009338D01*
X023351Y009339D02*
X018551Y009339D01*
X018551Y009340D02*
X023351Y009340D01*
X023351Y009341D02*
X018551Y009341D01*
X018551Y009342D02*
X023351Y009342D01*
X023351Y009343D02*
X018551Y009343D01*
X018551Y009344D02*
X023351Y009344D01*
X023351Y009345D02*
X018551Y009345D01*
X018551Y009346D02*
X023351Y009346D01*
X023351Y009347D02*
X018551Y009347D01*
X018551Y009348D02*
X023351Y009348D01*
X023351Y009349D02*
X018551Y009349D01*
X018551Y009350D02*
X023351Y009350D01*
X023351Y009351D02*
X018551Y009351D01*
X018551Y009352D02*
X023351Y009352D01*
X023351Y009353D02*
X018551Y009353D01*
X018551Y009354D02*
X023351Y009354D01*
X023351Y009355D02*
X018551Y009355D01*
X018551Y009356D02*
X023351Y009356D01*
X023351Y009357D02*
X018551Y009357D01*
X018551Y009358D02*
X023351Y009358D01*
X023351Y009359D02*
X018551Y009359D01*
X018551Y009360D02*
X023351Y009360D01*
X023351Y009361D02*
X018551Y009361D01*
X018551Y009362D02*
X023351Y009362D01*
X023351Y009363D02*
X018551Y009363D01*
X018551Y009364D02*
X023351Y009364D01*
X023351Y009365D02*
X018551Y009365D01*
X018551Y009366D02*
X023351Y009366D01*
X023351Y009367D02*
X018551Y009367D01*
X018551Y009368D02*
X023351Y009368D01*
X023351Y009369D02*
X018551Y009369D01*
X018551Y009370D02*
X023351Y009370D01*
X023351Y009371D02*
X018551Y009371D01*
X018551Y009372D02*
X023351Y009372D01*
X023351Y009373D02*
X018551Y009373D01*
X018551Y009374D02*
X023351Y009374D01*
X023351Y009375D02*
X018551Y009375D01*
X018551Y009376D02*
X023351Y009376D01*
X023351Y009377D02*
X018551Y009377D01*
X018551Y009378D02*
X023351Y009378D01*
X023351Y009379D02*
X018551Y009379D01*
X018551Y009380D02*
X023351Y009380D01*
X023351Y009381D02*
X018551Y009381D01*
X018551Y009382D02*
X023351Y009382D01*
X023351Y009383D02*
X018551Y009383D01*
X018551Y009384D02*
X023351Y009384D01*
X023351Y009385D02*
X018551Y009385D01*
X018551Y009386D02*
X023351Y009386D01*
X023351Y009387D02*
X018551Y009387D01*
X018551Y009388D02*
X023351Y009388D01*
X023351Y009389D02*
X018551Y009389D01*
X018551Y009390D02*
X023351Y009390D01*
X023351Y009391D02*
X018551Y009391D01*
X018551Y009392D02*
X023351Y009392D01*
X023351Y009393D02*
X018551Y009393D01*
X018551Y009394D02*
X023351Y009394D01*
X023351Y009395D02*
X018551Y009395D01*
X018551Y009396D02*
X023351Y009396D01*
X023351Y009397D02*
X018551Y009397D01*
X018551Y009398D02*
X023351Y009398D01*
X023351Y009399D02*
X018551Y009399D01*
X018551Y009400D02*
X023351Y009400D01*
X023351Y009401D02*
X018551Y009401D01*
X018551Y009402D02*
X023351Y009402D01*
X023351Y009403D02*
X018551Y009403D01*
X018551Y009404D02*
X023351Y009404D01*
X023351Y009405D02*
X018551Y009405D01*
X018551Y009406D02*
X023351Y009406D01*
X023351Y009407D02*
X018551Y009407D01*
X018551Y009408D02*
X023351Y009408D01*
X023351Y009409D02*
X018551Y009409D01*
X018551Y009410D02*
X023351Y009410D01*
X023351Y009411D02*
X018551Y009411D01*
X018551Y009412D02*
X023351Y009412D01*
X023351Y009413D02*
X018551Y009413D01*
X018551Y009414D02*
X023351Y009414D01*
X023351Y009415D02*
X018551Y009415D01*
X018551Y009416D02*
X023351Y009416D01*
X023351Y009417D02*
X018551Y009417D01*
X018551Y009418D02*
X023351Y009418D01*
X023351Y009419D02*
X018551Y009419D01*
X018551Y009420D02*
X023351Y009420D01*
X023351Y009421D02*
X018551Y009421D01*
X018551Y009422D02*
X023351Y009422D01*
X023351Y009423D02*
X018551Y009423D01*
X018551Y009424D02*
X023351Y009424D01*
X023351Y009425D02*
X018551Y009425D01*
X018551Y009426D02*
X023351Y009426D01*
X023351Y009427D02*
X018551Y009427D01*
X018551Y009428D02*
X023351Y009428D01*
X023351Y009429D02*
X018551Y009429D01*
X018551Y009430D02*
X023351Y009430D01*
X023351Y009431D02*
X018551Y009431D01*
X018551Y009432D02*
X023351Y009432D01*
X023351Y009433D02*
X018551Y009433D01*
X018551Y009434D02*
X023351Y009434D01*
X023351Y009435D02*
X018551Y009435D01*
X018551Y009436D02*
X023351Y009436D01*
X023351Y009437D02*
X018551Y009437D01*
X018551Y009438D02*
X023351Y009438D01*
X023351Y009439D02*
X018551Y009439D01*
X018551Y009440D02*
X023351Y009440D01*
X023351Y009441D02*
X018551Y009441D01*
X018551Y009442D02*
X023351Y009442D01*
X023351Y009443D02*
X018551Y009443D01*
X018551Y009444D02*
X023351Y009444D01*
X023351Y009445D02*
X018551Y009445D01*
X018551Y009446D02*
X023351Y009446D01*
X023351Y009447D02*
X018551Y009447D01*
X018551Y009448D02*
X023351Y009448D01*
X023351Y009449D02*
X018551Y009449D01*
X018551Y009450D02*
X023351Y009450D01*
X023351Y009451D02*
X018551Y009451D01*
X018551Y009452D02*
X023351Y009452D01*
X023351Y009453D02*
X018551Y009453D01*
X018551Y009454D02*
X023351Y009454D01*
X023351Y009455D02*
X018551Y009455D01*
X018551Y009456D02*
X023351Y009456D01*
X023351Y009457D02*
X018551Y009457D01*
X018551Y009458D02*
X023351Y009458D01*
X023351Y009459D02*
X018551Y009459D01*
X018551Y009460D02*
X023351Y009460D01*
X023351Y009461D02*
X018551Y009461D01*
X018551Y009462D02*
X023351Y009462D01*
X023351Y009463D02*
X018551Y009463D01*
X018551Y009464D02*
X023351Y009464D01*
X023351Y009465D02*
X018551Y009465D01*
X018551Y009466D02*
X023351Y009466D01*
X023351Y009467D02*
X018551Y009467D01*
X018551Y009468D02*
X023351Y009468D01*
X023351Y009469D02*
X018551Y009469D01*
X018551Y009470D02*
X023351Y009470D01*
X023351Y009471D02*
X018551Y009471D01*
X018551Y009472D02*
X023351Y009472D01*
X023351Y009473D02*
X018551Y009473D01*
X018551Y009474D02*
X023351Y009474D01*
X023351Y009475D02*
X018551Y009475D01*
X018551Y009476D02*
X023351Y009476D01*
X023351Y009477D02*
X018551Y009477D01*
X018551Y009478D02*
X023351Y009478D01*
X023351Y009479D02*
X018551Y009479D01*
X018551Y009480D02*
X023351Y009480D01*
X023351Y009481D02*
X018551Y009481D01*
X018551Y009482D02*
X023351Y009482D01*
X023351Y009483D02*
X018551Y009483D01*
X018551Y009484D02*
X023351Y009484D01*
X023351Y009485D02*
X018551Y009485D01*
X018551Y009486D02*
X023351Y009486D01*
X023351Y009487D02*
X018551Y009487D01*
X018551Y009488D02*
X023351Y009488D01*
X023351Y009489D02*
X018551Y009489D01*
X018551Y009490D02*
X023351Y009490D01*
X023351Y009491D02*
X018551Y009491D01*
X018551Y009492D02*
X023351Y009492D01*
X023351Y009493D02*
X018551Y009493D01*
X018551Y009494D02*
X023351Y009494D01*
X023351Y009495D02*
X018551Y009495D01*
X018551Y009496D02*
X023351Y009496D01*
X023351Y009497D02*
X018551Y009497D01*
X018551Y009498D02*
X023351Y009498D01*
X023351Y009499D02*
X018551Y009499D01*
X018551Y009500D02*
X023351Y009500D01*
X023351Y009501D02*
X018551Y009501D01*
X018551Y009502D02*
X023351Y009502D01*
X023351Y009503D02*
X018551Y009503D01*
X018551Y009504D02*
X023351Y009504D01*
X023351Y009505D02*
X018551Y009505D01*
X018551Y009506D02*
X023351Y009506D01*
X023351Y009507D02*
X018551Y009507D01*
X018551Y009508D02*
X023351Y009508D01*
X023351Y009509D02*
X018551Y009509D01*
X018551Y009510D02*
X023351Y009510D01*
X023351Y009511D02*
X018551Y009511D01*
X018551Y009512D02*
X023351Y009512D01*
X023351Y009513D02*
X018551Y009513D01*
X018551Y009514D02*
X023351Y009514D01*
X023351Y009515D02*
X018551Y009515D01*
X018551Y009516D02*
X023351Y009516D01*
X023351Y009517D02*
X018551Y009517D01*
X018551Y009518D02*
X023351Y009518D01*
X023351Y009519D02*
X018551Y009519D01*
X018551Y009520D02*
X023351Y009520D01*
X023351Y009521D02*
X018551Y009521D01*
X018551Y009522D02*
X023351Y009522D01*
X023351Y009523D02*
X018551Y009523D01*
X018551Y009524D02*
X023351Y009524D01*
X023351Y009525D02*
X018551Y009525D01*
X018551Y009526D02*
X023351Y009526D01*
X023351Y009527D02*
X018551Y009527D01*
X018551Y009528D02*
X023351Y009528D01*
X023351Y009529D02*
X018551Y009529D01*
X018551Y009530D02*
X023351Y009530D01*
X023351Y009531D02*
X018551Y009531D01*
X018551Y009532D02*
X023351Y009532D01*
X023351Y009533D02*
X018551Y009533D01*
X018551Y009534D02*
X023351Y009534D01*
X023351Y009535D02*
X018551Y009535D01*
X018551Y009536D02*
X023351Y009536D01*
X023351Y009537D02*
X018551Y009537D01*
X018551Y009538D02*
X023351Y009538D01*
X023351Y009539D02*
X018551Y009539D01*
X018551Y009540D02*
X023351Y009540D01*
X023351Y009541D02*
X018551Y009541D01*
X018551Y009542D02*
X023351Y009542D01*
X023351Y009543D02*
X018551Y009543D01*
X018551Y009544D02*
X023351Y009544D01*
X023351Y009545D02*
X018551Y009545D01*
X018551Y009546D02*
X023351Y009546D01*
X023351Y009547D02*
X018551Y009547D01*
X018551Y009548D02*
X023351Y009548D01*
X023351Y009549D02*
X018551Y009549D01*
X018551Y009550D02*
X023351Y009550D01*
X023351Y009551D02*
X018551Y009551D01*
X018551Y009552D02*
X023351Y009552D01*
X023351Y009553D02*
X018551Y009553D01*
X018551Y009554D02*
X023351Y009554D01*
X023351Y009555D02*
X018551Y009555D01*
X018551Y009556D02*
X023351Y009556D01*
X023351Y009557D02*
X018551Y009557D01*
X018551Y009558D02*
X023351Y009558D01*
X023351Y009559D02*
X018551Y009559D01*
X018551Y009560D02*
X023351Y009560D01*
X023351Y009561D02*
X018551Y009561D01*
X018551Y009562D02*
X023351Y009562D01*
X023351Y009563D02*
X018551Y009563D01*
X018551Y009564D02*
X023351Y009564D01*
X023351Y009565D02*
X018551Y009565D01*
X018551Y009566D02*
X023351Y009566D01*
X023351Y009567D02*
X018551Y009567D01*
X018551Y009568D02*
X023351Y009568D01*
X023351Y009569D02*
X018551Y009569D01*
X018551Y009570D02*
X023351Y009570D01*
X023351Y009571D02*
X018551Y009571D01*
X018551Y009572D02*
X023351Y009572D01*
X023351Y009573D02*
X018551Y009573D01*
X018551Y009574D02*
X023351Y009574D01*
X023351Y009575D02*
X018551Y009575D01*
X018551Y009576D02*
X023351Y009576D01*
X023351Y009577D02*
X018551Y009577D01*
X018551Y009578D02*
X023351Y009578D01*
X023351Y009579D02*
X018551Y009579D01*
X018551Y009580D02*
X023351Y009580D01*
X023351Y009581D02*
X018551Y009581D01*
X018551Y009582D02*
X023351Y009582D01*
X023351Y009583D02*
X018551Y009583D01*
X018551Y009584D02*
X023351Y009584D01*
X023351Y009585D02*
X018551Y009585D01*
X018551Y009586D02*
X023351Y009586D01*
X023351Y009587D02*
X018551Y009587D01*
X018551Y009588D02*
X023351Y009588D01*
X023351Y009589D02*
X018551Y009589D01*
X018551Y009590D02*
X023351Y009590D01*
X023351Y009591D02*
X018551Y009591D01*
X018551Y009592D02*
X023351Y009592D01*
X023351Y009593D02*
X018551Y009593D01*
X018551Y009594D02*
X023351Y009594D01*
X023351Y009595D02*
X018551Y009595D01*
X018551Y009596D02*
X023351Y009596D01*
X023351Y009597D02*
X018551Y009597D01*
X018551Y009598D02*
X023351Y009598D01*
X023351Y009599D02*
X018551Y009599D01*
X018551Y009600D02*
X023351Y009600D01*
X023351Y009601D02*
X018551Y009601D01*
X018551Y009602D02*
X023351Y009602D01*
X023351Y009603D02*
X018551Y009603D01*
X018551Y009604D02*
X023351Y009604D01*
X023351Y009605D02*
X018551Y009605D01*
X018551Y009606D02*
X023351Y009606D01*
X023351Y009607D02*
X018551Y009607D01*
X018551Y009608D02*
X023351Y009608D01*
X023351Y009609D02*
X018551Y009609D01*
X018551Y009610D02*
X023351Y009610D01*
X023351Y009611D02*
X018551Y009611D01*
X018551Y009612D02*
X023351Y009612D01*
X023351Y009613D02*
X018551Y009613D01*
X018551Y009614D02*
X023351Y009614D01*
X023351Y009615D02*
X018551Y009615D01*
X018551Y009616D02*
X023351Y009616D01*
X023351Y009617D02*
X018551Y009617D01*
X018551Y009618D02*
X023351Y009618D01*
X023351Y009619D02*
X018551Y009619D01*
X018551Y009620D02*
X023351Y009620D01*
X023351Y009621D02*
X018551Y009621D01*
X018551Y009622D02*
X023351Y009622D01*
X023351Y009623D02*
X018551Y009623D01*
X018551Y009624D02*
X023351Y009624D01*
X023351Y009625D02*
X018551Y009625D01*
X018551Y009626D02*
X023351Y009626D01*
X023351Y009627D02*
X018551Y009627D01*
X018551Y009628D02*
X023351Y009628D01*
X023351Y009629D02*
X018551Y009629D01*
X018551Y009630D02*
X023351Y009630D01*
X023351Y009631D02*
X018551Y009631D01*
X018551Y009632D02*
X023351Y009632D01*
X023351Y009633D02*
X018551Y009633D01*
X018551Y009634D02*
X023351Y009634D01*
X023351Y009635D02*
X018551Y009635D01*
X018551Y009636D02*
X023351Y009636D01*
X023351Y009637D02*
X018551Y009637D01*
X018551Y009638D02*
X023351Y009638D01*
X023351Y009639D02*
X018551Y009639D01*
X018551Y009640D02*
X023351Y009640D01*
X023351Y009641D02*
X018551Y009641D01*
X018551Y009642D02*
X023351Y009642D01*
X023351Y009643D02*
X018551Y009643D01*
X018551Y009644D02*
X023351Y009644D01*
X023351Y009645D02*
X018551Y009645D01*
X018551Y009646D02*
X023351Y009646D01*
X023351Y009647D02*
X018551Y009647D01*
X018551Y009648D02*
X023351Y009648D01*
X023351Y009649D02*
X018551Y009649D01*
X018551Y009650D02*
X023351Y009650D01*
X023351Y009651D02*
X018551Y009651D01*
X018551Y009652D02*
X023351Y009652D01*
X023351Y009653D02*
X018551Y009653D01*
X018551Y009654D02*
X023351Y009654D01*
X023351Y009655D02*
X018551Y009655D01*
X018551Y009656D02*
X023351Y009656D01*
X023351Y009657D02*
X018551Y009657D01*
X018551Y009658D02*
X023351Y009658D01*
X023351Y009659D02*
X018551Y009659D01*
X018551Y009660D02*
X023351Y009660D01*
X023351Y009661D02*
X018551Y009661D01*
X018551Y009662D02*
X023351Y009662D01*
X023351Y009663D02*
X018551Y009663D01*
X018551Y009664D02*
X023351Y009664D01*
X023351Y009665D02*
X018551Y009665D01*
X018551Y009666D02*
X023351Y009666D01*
X023351Y009667D02*
X018551Y009667D01*
X018551Y009668D02*
X023351Y009668D01*
X023351Y009669D02*
X018551Y009669D01*
X018551Y009670D02*
X023351Y009670D01*
X023351Y009671D02*
X018551Y009671D01*
X018551Y009672D02*
X023351Y009672D01*
X023351Y009673D02*
X018551Y009673D01*
X018551Y009674D02*
X023351Y009674D01*
X023351Y009675D02*
X018551Y009675D01*
X018551Y009676D02*
X023351Y009676D01*
X023351Y009677D02*
X018551Y009677D01*
X018551Y009678D02*
X023351Y009678D01*
X023351Y009679D02*
X018551Y009679D01*
X018551Y009680D02*
X023351Y009680D01*
X023351Y009681D02*
X018551Y009681D01*
X018551Y009682D02*
X023351Y009682D01*
X023351Y009683D02*
X018551Y009683D01*
X018551Y009684D02*
X023351Y009684D01*
X023351Y009685D02*
X018551Y009685D01*
X018551Y009686D02*
X023351Y009686D01*
X023351Y009687D02*
X018551Y009687D01*
X018551Y009688D02*
X023351Y009688D01*
X023351Y009689D02*
X018551Y009689D01*
X018551Y009690D02*
X023351Y009690D01*
X023351Y009691D02*
X018551Y009691D01*
X018551Y009692D02*
X023351Y009692D01*
X023351Y009693D02*
X018551Y009693D01*
X018551Y009694D02*
X023351Y009694D01*
X023351Y009695D02*
X018551Y009695D01*
X018551Y009696D02*
X023351Y009696D01*
X023351Y009697D02*
X018551Y009697D01*
X018551Y009698D02*
X023351Y009698D01*
X023351Y009699D02*
X018551Y009699D01*
X018551Y009700D02*
X023351Y009700D01*
X023351Y009701D02*
X018551Y009701D01*
X018551Y009702D02*
X023351Y009702D01*
X023351Y009703D02*
X018551Y009703D01*
X018551Y009704D02*
X023351Y009704D01*
X023351Y009705D02*
X018551Y009705D01*
X018551Y009706D02*
X023351Y009706D01*
X023351Y009707D02*
X018551Y009707D01*
X018551Y009708D02*
X023351Y009708D01*
X023351Y009709D02*
X018551Y009709D01*
X018551Y009710D02*
X023351Y009710D01*
X023351Y009711D02*
X018551Y009711D01*
X018551Y009712D02*
X023351Y009712D01*
X023351Y009713D02*
X018551Y009713D01*
X018551Y009714D02*
X023351Y009714D01*
X023351Y009715D02*
X018551Y009715D01*
X018551Y009716D02*
X023351Y009716D01*
X023351Y009717D02*
X018551Y009717D01*
X018551Y009718D02*
X023351Y009718D01*
X023351Y009719D02*
X018551Y009719D01*
X018551Y009720D02*
X023351Y009720D01*
X023351Y009721D02*
X018551Y009721D01*
X018551Y009722D02*
X023351Y009722D01*
X023351Y009723D02*
X018551Y009723D01*
X018551Y009724D02*
X023351Y009724D01*
X023351Y009725D02*
X018551Y009725D01*
X018551Y009726D02*
X023351Y009726D01*
X023351Y009727D02*
X018551Y009727D01*
X018551Y009728D02*
X023351Y009728D01*
X023351Y009729D02*
X018551Y009729D01*
X018551Y009730D02*
X023351Y009730D01*
X023351Y009731D02*
X018551Y009731D01*
X018551Y009732D02*
X023351Y009732D01*
X023351Y009733D02*
X018551Y009733D01*
X018551Y009734D02*
X023351Y009734D01*
X023351Y009735D02*
X018551Y009735D01*
X018551Y009736D02*
X023351Y009736D01*
X023351Y009737D02*
X018551Y009737D01*
X018551Y009738D02*
X023351Y009738D01*
X023351Y009739D02*
X018551Y009739D01*
X018551Y009740D02*
X023351Y009740D01*
X023351Y009741D02*
X018551Y009741D01*
X018551Y009742D02*
X023351Y009742D01*
X023351Y009743D02*
X018551Y009743D01*
X018551Y009744D02*
X023351Y009744D01*
X023351Y009745D02*
X018551Y009745D01*
X018551Y009746D02*
X023351Y009746D01*
X023351Y009747D02*
X018551Y009747D01*
X018551Y009748D02*
X023351Y009748D01*
X023351Y009749D02*
X018551Y009749D01*
X018551Y009750D02*
X023351Y009750D01*
X023351Y009751D02*
X018551Y009751D01*
X018551Y009752D02*
X023351Y009752D01*
X023351Y009753D02*
X018551Y009753D01*
X018551Y009754D02*
X023351Y009754D01*
X023351Y009755D02*
X018551Y009755D01*
X018551Y009756D02*
X023351Y009756D01*
X023351Y009757D02*
X018551Y009757D01*
X018551Y009758D02*
X023351Y009758D01*
X023351Y009759D02*
X018551Y009759D01*
X018551Y009760D02*
X023351Y009760D01*
X023351Y009761D02*
X018551Y009761D01*
X018551Y009762D02*
X023351Y009762D01*
X023351Y009763D02*
X018551Y009763D01*
X018551Y009764D02*
X023351Y009764D01*
X023351Y009765D02*
X018551Y009765D01*
X018551Y009766D02*
X023351Y009766D01*
X023351Y009767D02*
X018551Y009767D01*
X018551Y009768D02*
X023351Y009768D01*
X023351Y009769D02*
X018551Y009769D01*
X018551Y009770D02*
X023351Y009770D01*
X023351Y009771D02*
X018551Y009771D01*
X018551Y009772D02*
X023351Y009772D01*
X023351Y009773D02*
X018551Y009773D01*
X018551Y009774D02*
X023351Y009774D01*
X023351Y009775D02*
X018551Y009775D01*
X018551Y009776D02*
X023351Y009776D01*
X023351Y009777D02*
X018551Y009777D01*
X018551Y009778D02*
X023351Y009778D01*
X023351Y009779D02*
X018551Y009779D01*
X018551Y009780D02*
X023351Y009780D01*
X023351Y009781D02*
X018551Y009781D01*
X018551Y009782D02*
X023351Y009782D01*
X023351Y009783D02*
X018551Y009783D01*
X018551Y009784D02*
X023351Y009784D01*
X023351Y009785D02*
X018551Y009785D01*
X018551Y009786D02*
X023351Y009786D01*
X023351Y009787D02*
X018551Y009787D01*
X018551Y009788D02*
X023351Y009788D01*
X023351Y009789D02*
X018551Y009789D01*
X018551Y009790D02*
X023351Y009790D01*
X023351Y009791D02*
X018551Y009791D01*
X018551Y009792D02*
X023351Y009792D01*
X023351Y009793D02*
X018551Y009793D01*
X018551Y009794D02*
X023351Y009794D01*
X023351Y009795D02*
X018551Y009795D01*
X018551Y009796D02*
X023351Y009796D01*
X023351Y009797D02*
X018551Y009797D01*
X018551Y009798D02*
X023351Y009798D01*
X023351Y009799D02*
X018551Y009799D01*
X018551Y009800D02*
X023351Y009800D01*
X023351Y009801D02*
X018551Y009801D01*
X018551Y009802D02*
X023351Y009802D01*
X023351Y009803D02*
X018551Y009803D01*
X018551Y009804D02*
X023351Y009804D01*
X023351Y009805D02*
X018551Y009805D01*
X018551Y009806D02*
X023351Y009806D01*
X023351Y009807D02*
X018551Y009807D01*
X018551Y009808D02*
X023351Y009808D01*
X023351Y009809D02*
X018551Y009809D01*
X018551Y009810D02*
X023351Y009810D01*
X023351Y009811D02*
X018551Y009811D01*
X018551Y009812D02*
X023351Y009812D01*
X023351Y009813D02*
X018551Y009813D01*
X018551Y009814D02*
X023351Y009814D01*
X023351Y009815D02*
X018551Y009815D01*
X018551Y009816D02*
X023351Y009816D01*
X023351Y009817D02*
X018551Y009817D01*
X018551Y009818D02*
X023351Y009818D01*
X023351Y009819D02*
X018551Y009819D01*
X018551Y009820D02*
X023351Y009820D01*
X023351Y009821D02*
X018551Y009821D01*
X018551Y009822D02*
X023351Y009822D01*
X023351Y009823D02*
X018551Y009823D01*
X018551Y009824D02*
X023351Y009824D01*
X023351Y009825D02*
X018551Y009825D01*
X018551Y009826D02*
X023351Y009826D01*
X023351Y009827D02*
X018551Y009827D01*
X018551Y009828D02*
X023351Y009828D01*
X023351Y009829D02*
X018551Y009829D01*
X018551Y009830D02*
X023351Y009830D01*
X023351Y009831D02*
X018551Y009831D01*
X018551Y009832D02*
X023351Y009832D01*
X023351Y009833D02*
X018551Y009833D01*
X018551Y009834D02*
X023351Y009834D01*
X023351Y009835D02*
X018551Y009835D01*
X018551Y009836D02*
X023351Y009836D01*
X023351Y009837D02*
X018551Y009837D01*
X018551Y009838D02*
X023351Y009838D01*
X023351Y009839D02*
X018551Y009839D01*
X018551Y009840D02*
X023351Y009840D01*
X023351Y009841D02*
X018551Y009841D01*
X018551Y009842D02*
X023351Y009842D01*
X023351Y009843D02*
X018551Y009843D01*
X018551Y009844D02*
X023351Y009844D01*
X023351Y009845D02*
X018551Y009845D01*
X018551Y009846D02*
X023351Y009846D01*
X023351Y009847D02*
X018551Y009847D01*
X018551Y009848D02*
X023351Y009848D01*
X023351Y009849D02*
X018551Y009849D01*
X018551Y009850D02*
X023351Y009850D01*
X023351Y009851D02*
X018551Y009851D01*
X018551Y009852D02*
X023351Y009852D01*
X023351Y009853D02*
X018551Y009853D01*
X018551Y009854D02*
X023351Y009854D01*
X023351Y009855D02*
X018551Y009855D01*
X018551Y009856D02*
X023351Y009856D01*
X023351Y009857D02*
X018551Y009857D01*
X018551Y009858D02*
X023351Y009858D01*
X023351Y009859D02*
X018551Y009859D01*
X018551Y009860D02*
X023351Y009860D01*
X023351Y009861D02*
X018551Y009861D01*
X018551Y009862D02*
X023351Y009862D01*
X023351Y009863D02*
X018551Y009863D01*
X018551Y009864D02*
X023351Y009864D01*
X023351Y009865D02*
X018551Y009865D01*
X018551Y009866D02*
X023351Y009866D01*
X023351Y009867D02*
X018551Y009867D01*
X018551Y009868D02*
X023351Y009868D01*
X023351Y009869D02*
X018551Y009869D01*
X018551Y009870D02*
X023351Y009870D01*
X023351Y009871D02*
X018551Y009871D01*
X018551Y009872D02*
X023351Y009872D01*
X023351Y009873D02*
X018551Y009873D01*
X018551Y009874D02*
X023351Y009874D01*
X023351Y009875D02*
X018551Y009875D01*
X018551Y009876D02*
X023351Y009876D01*
X023351Y009877D02*
X018551Y009877D01*
X018551Y009878D02*
X023351Y009878D01*
X023351Y009879D02*
X018551Y009879D01*
X018551Y009880D02*
X023351Y009880D01*
X023351Y009881D02*
X018551Y009881D01*
X018551Y009882D02*
X023351Y009882D01*
X023351Y009883D02*
X018551Y009883D01*
X018551Y009884D02*
X023351Y009884D01*
X023351Y009885D02*
X018551Y009885D01*
X018551Y009886D02*
X023351Y009886D01*
X023351Y009887D02*
X018551Y009887D01*
X018551Y009888D02*
X023351Y009888D01*
X023351Y009889D02*
X018551Y009889D01*
X018551Y009890D02*
X023351Y009890D01*
X023351Y009891D02*
X018551Y009891D01*
X018551Y009892D02*
X023351Y009892D01*
X023351Y009893D02*
X018551Y009893D01*
X018551Y009894D02*
X023351Y009894D01*
X023351Y009895D02*
X018551Y009895D01*
X018551Y009896D02*
X023351Y009896D01*
X023351Y009897D02*
X018551Y009897D01*
X018551Y009898D02*
X023351Y009898D01*
X023351Y009899D02*
X018551Y009899D01*
X018551Y009900D02*
X023351Y009900D01*
X023351Y009901D02*
X018551Y009901D01*
X018551Y009902D02*
X023351Y009902D01*
X023351Y009903D02*
X018551Y009903D01*
X018551Y009904D02*
X023351Y009904D01*
X023351Y009905D02*
X018551Y009905D01*
X018551Y009906D02*
X023351Y009906D01*
X023351Y009907D02*
X018551Y009907D01*
X018551Y009908D02*
X023351Y009908D01*
X023351Y009909D02*
X018551Y009909D01*
X018551Y009910D02*
X023351Y009910D01*
X023351Y009911D02*
X018551Y009911D01*
X018551Y009912D02*
X023351Y009912D01*
X023351Y009913D02*
X018551Y009913D01*
X018551Y009914D02*
X023351Y009914D01*
X023351Y009915D02*
X018551Y009915D01*
X018551Y009916D02*
X023351Y009916D01*
X023351Y009917D02*
X018551Y009917D01*
X018551Y009918D02*
X023351Y009918D01*
X023351Y009919D02*
X018551Y009919D01*
X018551Y009920D02*
X023351Y009920D01*
X023351Y009921D02*
X018551Y009921D01*
X018551Y009922D02*
X023351Y009922D01*
X023351Y009923D02*
X018551Y009923D01*
X018551Y009924D02*
X023351Y009924D01*
X023351Y009925D02*
X018551Y009925D01*
X018551Y009926D02*
X023351Y009926D01*
X023351Y009927D02*
X018551Y009927D01*
X018551Y009928D02*
X023351Y009928D01*
X023351Y009929D02*
X018551Y009929D01*
X018551Y009930D02*
X023351Y009930D01*
X023351Y009931D02*
X018551Y009931D01*
X018551Y009932D02*
X023351Y009932D01*
X023351Y009933D02*
X018551Y009933D01*
X018551Y009934D02*
X023351Y009934D01*
X023351Y009935D02*
X018551Y009935D01*
X018551Y009936D02*
X023351Y009936D01*
X023351Y009937D02*
X018551Y009937D01*
X018551Y009938D02*
X023351Y009938D01*
X023351Y009939D02*
X018551Y009939D01*
X018551Y009940D02*
X023351Y009940D01*
X023351Y009941D02*
X018551Y009941D01*
X018551Y009942D02*
X023351Y009942D01*
X023351Y009943D02*
X018551Y009943D01*
X018551Y009944D02*
X023351Y009944D01*
X023351Y009945D02*
X018551Y009945D01*
X018551Y009946D02*
X023351Y009946D01*
X023351Y009947D02*
X018551Y009947D01*
X018551Y009948D02*
X023351Y009948D01*
X023351Y009949D02*
X018551Y009949D01*
X018551Y009950D02*
X023351Y009950D01*
X023351Y009951D02*
X018551Y009951D01*
X018551Y009952D02*
X023351Y009952D01*
X023351Y009953D02*
X018551Y009953D01*
X018551Y009954D02*
X023351Y009954D01*
X023351Y009955D02*
X018551Y009955D01*
X018551Y009956D02*
X023351Y009956D01*
X023351Y009957D02*
X018551Y009957D01*
X018551Y009958D02*
X023351Y009958D01*
X023351Y009959D02*
X018551Y009959D01*
X018551Y009960D02*
X023351Y009960D01*
X023351Y009961D02*
X018551Y009961D01*
X018551Y009962D02*
X023351Y009962D01*
X023351Y009963D02*
X018551Y009963D01*
X018551Y009964D02*
X023351Y009964D01*
X023351Y009965D02*
X018551Y009965D01*
X018551Y009966D02*
X023351Y009966D01*
X023351Y009967D02*
X018551Y009967D01*
X018551Y009968D02*
X023351Y009968D01*
X023351Y009969D02*
X018551Y009969D01*
X018551Y009970D02*
X023351Y009970D01*
X023351Y009971D02*
X018551Y009971D01*
X018551Y009972D02*
X023351Y009972D01*
X023351Y009973D02*
X018551Y009973D01*
X018551Y009974D02*
X023351Y009974D01*
X023351Y009975D02*
X018551Y009975D01*
X018551Y009976D02*
X023351Y009976D01*
X023351Y009977D02*
X018551Y009977D01*
X018551Y009978D02*
X023351Y009978D01*
X023351Y009979D02*
X018551Y009979D01*
X018551Y009980D02*
X023351Y009980D01*
X023351Y009981D02*
X018551Y009981D01*
X018551Y009982D02*
X023351Y009982D01*
X023351Y009983D02*
X018551Y009983D01*
X018551Y009984D02*
X023351Y009984D01*
X023351Y009985D02*
X018551Y009985D01*
X018551Y009986D02*
X023351Y009986D01*
X023351Y009987D02*
X018551Y009987D01*
X018551Y009988D02*
X023351Y009988D01*
X023351Y009989D02*
X018551Y009989D01*
X018551Y009990D02*
X023351Y009990D01*
X023351Y009991D02*
X018551Y009991D01*
X018551Y009992D02*
X023351Y009992D01*
X023351Y009993D02*
X018551Y009993D01*
X018551Y009994D02*
X023351Y009994D01*
X023351Y009995D02*
X018551Y009995D01*
X018551Y009996D02*
X023351Y009996D01*
X023351Y009997D02*
X018551Y009997D01*
X018551Y009998D02*
X023351Y009998D01*
X023351Y009999D02*
X018551Y009999D01*
X018551Y010000D02*
X023351Y010000D01*
X023351Y010001D02*
X018551Y010001D01*
X018551Y010002D02*
X023351Y010002D01*
X023351Y010003D02*
X018551Y010003D01*
X018551Y010004D02*
X023351Y010004D01*
X023351Y010005D02*
X018551Y010005D01*
X018551Y010006D02*
X023351Y010006D01*
X023351Y010007D02*
X018551Y010007D01*
X018551Y010008D02*
X023351Y010008D01*
X023351Y010009D02*
X018551Y010009D01*
X018551Y010010D02*
X023351Y010010D01*
X023351Y010011D02*
X018551Y010011D01*
X018551Y010012D02*
X023351Y010012D01*
X023351Y010013D02*
X018551Y010013D01*
X018551Y010014D02*
X023351Y010014D01*
X023351Y010015D02*
X018551Y010015D01*
X018551Y010016D02*
X023351Y010016D01*
X023351Y010017D02*
X018551Y010017D01*
X018551Y010018D02*
X023351Y010018D01*
X023351Y010019D02*
X018551Y010019D01*
X018551Y010020D02*
X023351Y010020D01*
X023351Y010021D02*
X018551Y010021D01*
X018551Y010022D02*
X023351Y010022D01*
X023351Y010023D02*
X018551Y010023D01*
X018551Y010024D02*
X023351Y010024D01*
X023351Y010025D02*
X018551Y010025D01*
X018551Y010026D02*
X023351Y010026D01*
X023351Y010027D02*
X018551Y010027D01*
X018551Y010028D02*
X023351Y010028D01*
X023351Y010029D02*
X018551Y010029D01*
X018551Y010030D02*
X023351Y010030D01*
X023351Y010031D02*
X018551Y010031D01*
X018551Y010032D02*
X023351Y010032D01*
X023351Y010033D02*
X018551Y010033D01*
X018551Y010034D02*
X023351Y010034D01*
X023351Y010035D02*
X018551Y010035D01*
X018551Y010036D02*
X023351Y010036D01*
X023351Y010037D02*
X018551Y010037D01*
X018551Y010038D02*
X023351Y010038D01*
X023351Y010039D02*
X018551Y010039D01*
X018551Y010040D02*
X023351Y010040D01*
X023351Y010041D02*
X018551Y010041D01*
X018551Y010042D02*
X023351Y010042D01*
X023351Y010043D02*
X018551Y010043D01*
X018551Y010044D02*
X023351Y010044D01*
X023351Y010045D02*
X018551Y010045D01*
X018551Y010046D02*
X023351Y010046D01*
X023351Y010047D02*
X018551Y010047D01*
X018551Y010048D02*
X023351Y010048D01*
X023351Y010049D02*
X018551Y010049D01*
X018551Y010050D02*
X023351Y010050D01*
X023351Y010051D02*
X018551Y010051D01*
X018551Y010052D02*
X023351Y010052D01*
X023351Y010053D02*
X018551Y010053D01*
X018551Y010054D02*
X023351Y010054D01*
X023351Y010055D02*
X018551Y010055D01*
X018551Y010056D02*
X023351Y010056D01*
X023351Y010057D02*
X018551Y010057D01*
X018551Y010058D02*
X023351Y010058D01*
X023351Y010059D02*
X018551Y010059D01*
X018551Y010060D02*
X023351Y010060D01*
X023351Y010061D02*
X018551Y010061D01*
X018551Y010062D02*
X023351Y010062D01*
X023351Y010063D02*
X018551Y010063D01*
X018551Y010064D02*
X023351Y010064D01*
X023351Y010065D02*
X018551Y010065D01*
X018551Y010066D02*
X023351Y010066D01*
X023351Y010067D02*
X018551Y010067D01*
X018551Y010068D02*
X023351Y010068D01*
X023351Y010069D02*
X018551Y010069D01*
X018551Y010070D02*
X023351Y010070D01*
X023351Y010071D02*
X018551Y010071D01*
X018551Y010072D02*
X023351Y010072D01*
X023351Y010073D02*
X018551Y010073D01*
X018551Y010074D02*
X023351Y010074D01*
X023351Y010075D02*
X018551Y010075D01*
X018551Y010076D02*
X023351Y010076D01*
X023351Y010077D02*
X018551Y010077D01*
X018551Y010078D02*
X023351Y010078D01*
X023351Y010079D02*
X018551Y010079D01*
X018551Y010080D02*
X023351Y010080D01*
X023351Y010081D02*
X018551Y010081D01*
X018551Y010082D02*
X023351Y010082D01*
X023351Y010083D02*
X018551Y010083D01*
X018551Y010084D02*
X023351Y010084D01*
X023351Y010085D02*
X018551Y010085D01*
X018551Y010086D02*
X023351Y010086D01*
X023351Y010087D02*
X018551Y010087D01*
X018551Y010088D02*
X023351Y010088D01*
X023351Y010089D02*
X018551Y010089D01*
X018551Y010090D02*
X023351Y010090D01*
X023351Y010091D02*
X018551Y010091D01*
X018551Y010092D02*
X023351Y010092D01*
X023351Y010093D02*
X018551Y010093D01*
X018551Y010094D02*
X023351Y010094D01*
X023351Y010095D02*
X018551Y010095D01*
X018551Y010096D02*
X023351Y010096D01*
X023351Y010097D02*
X018551Y010097D01*
X018551Y010098D02*
X023351Y010098D01*
X023351Y010099D02*
X018551Y010099D01*
X018551Y010100D02*
X023351Y010100D01*
X023351Y010101D02*
X021151Y010101D01*
X021151Y010102D02*
X023351Y010102D01*
X023351Y010103D02*
X021151Y010103D01*
X021151Y010104D02*
X023351Y010104D01*
X023351Y010105D02*
X021151Y010105D01*
X021151Y010106D02*
X023351Y010106D01*
X023351Y010107D02*
X021151Y010107D01*
X021151Y010108D02*
X023351Y010108D01*
X023351Y010109D02*
X021151Y010109D01*
X021151Y010110D02*
X023351Y010110D01*
X023351Y010111D02*
X021151Y010111D01*
X021151Y010112D02*
X023351Y010112D01*
X023351Y010113D02*
X021151Y010113D01*
X021151Y010114D02*
X023351Y010114D01*
X023351Y010115D02*
X021151Y010115D01*
X021151Y010116D02*
X023351Y010116D01*
X023351Y010117D02*
X021151Y010117D01*
X021151Y010118D02*
X023351Y010118D01*
X023351Y010119D02*
X021151Y010119D01*
X021151Y010120D02*
X023351Y010120D01*
X023351Y010121D02*
X021151Y010121D01*
X021151Y010122D02*
X023351Y010122D01*
X023351Y010123D02*
X021151Y010123D01*
X021151Y010124D02*
X023351Y010124D01*
X023351Y010125D02*
X021151Y010125D01*
X021151Y010126D02*
X023351Y010126D01*
X023351Y010127D02*
X021151Y010127D01*
X021151Y010128D02*
X023351Y010128D01*
X023351Y010129D02*
X021151Y010129D01*
X021151Y010130D02*
X023351Y010130D01*
X023351Y010131D02*
X021151Y010131D01*
X021151Y010132D02*
X023351Y010132D01*
X023351Y010133D02*
X021151Y010133D01*
X021151Y010134D02*
X023351Y010134D01*
X023351Y010135D02*
X021151Y010135D01*
X021151Y010136D02*
X023351Y010136D01*
X023351Y010137D02*
X021151Y010137D01*
X021151Y010138D02*
X023351Y010138D01*
X023351Y010139D02*
X021151Y010139D01*
X021151Y010140D02*
X023351Y010140D01*
X023351Y010141D02*
X021151Y010141D01*
X021151Y010142D02*
X023351Y010142D01*
X023351Y010143D02*
X021151Y010143D01*
X021151Y010144D02*
X023351Y010144D01*
X023351Y010145D02*
X021151Y010145D01*
X021151Y010146D02*
X023351Y010146D01*
X023351Y010147D02*
X021151Y010147D01*
X021151Y010148D02*
X023351Y010148D01*
X023351Y010149D02*
X021151Y010149D01*
X021151Y010150D02*
X023351Y010150D01*
X023351Y010151D02*
X021151Y010151D01*
X021151Y010152D02*
X023351Y010152D01*
X023351Y010153D02*
X021151Y010153D01*
X021151Y010154D02*
X023351Y010154D01*
X023351Y010155D02*
X021151Y010155D01*
X021151Y010156D02*
X023351Y010156D01*
X023351Y010157D02*
X021151Y010157D01*
X021151Y010158D02*
X023351Y010158D01*
X023351Y010159D02*
X021151Y010159D01*
X021151Y010160D02*
X023351Y010160D01*
X023351Y010161D02*
X021151Y010161D01*
X021151Y010162D02*
X023351Y010162D01*
X023351Y010163D02*
X021151Y010163D01*
X021151Y010164D02*
X023351Y010164D01*
X023351Y010165D02*
X021151Y010165D01*
X021151Y010166D02*
X023351Y010166D01*
X023351Y010167D02*
X021151Y010167D01*
X021151Y010168D02*
X023351Y010168D01*
X023351Y010169D02*
X021151Y010169D01*
X021151Y010170D02*
X023351Y010170D01*
X023351Y010171D02*
X021151Y010171D01*
X021151Y010172D02*
X023351Y010172D01*
X023351Y010173D02*
X021151Y010173D01*
X021151Y010174D02*
X023351Y010174D01*
X023351Y010175D02*
X021151Y010175D01*
X021151Y010176D02*
X023351Y010176D01*
X023351Y010177D02*
X021151Y010177D01*
X021151Y010178D02*
X023351Y010178D01*
X023351Y010179D02*
X021151Y010179D01*
X021151Y010180D02*
X023351Y010180D01*
X023351Y010181D02*
X021151Y010181D01*
X021151Y010182D02*
X023351Y010182D01*
X023351Y010183D02*
X021151Y010183D01*
X021151Y010184D02*
X023351Y010184D01*
X023351Y010185D02*
X021151Y010185D01*
X021151Y010186D02*
X023351Y010186D01*
X023351Y010187D02*
X021151Y010187D01*
X021151Y010188D02*
X023351Y010188D01*
X023351Y010189D02*
X021151Y010189D01*
X021151Y010190D02*
X023351Y010190D01*
X023351Y010191D02*
X021151Y010191D01*
X021151Y010192D02*
X023351Y010192D01*
X023351Y010193D02*
X021151Y010193D01*
X021151Y010194D02*
X023351Y010194D01*
X023351Y010195D02*
X021151Y010195D01*
X021151Y010196D02*
X023351Y010196D01*
X023351Y010197D02*
X021151Y010197D01*
X021151Y010198D02*
X023351Y010198D01*
X023351Y010199D02*
X021151Y010199D01*
X021151Y010200D02*
X023351Y010200D01*
X020551Y007399D02*
X018251Y007399D01*
X018251Y007398D02*
X020551Y007398D01*
X020551Y007397D02*
X018251Y007397D01*
X018251Y007396D02*
X020551Y007396D01*
X020551Y007395D02*
X018251Y007395D01*
X018251Y007394D02*
X020551Y007394D01*
X020551Y007393D02*
X018251Y007393D01*
X018251Y007392D02*
X020551Y007392D01*
X020551Y007391D02*
X018251Y007391D01*
X018251Y007390D02*
X020551Y007390D01*
X020551Y007389D02*
X018251Y007389D01*
X018251Y007388D02*
X020551Y007388D01*
X020551Y007387D02*
X018251Y007387D01*
X018251Y007386D02*
X020551Y007386D01*
X020551Y007385D02*
X018251Y007385D01*
X018251Y007384D02*
X020551Y007384D01*
X020551Y007383D02*
X018251Y007383D01*
X018251Y007382D02*
X020551Y007382D01*
X020551Y007381D02*
X018251Y007381D01*
X018251Y007380D02*
X020551Y007380D01*
X020551Y007379D02*
X018251Y007379D01*
X018251Y007378D02*
X020551Y007378D01*
X020551Y007377D02*
X018251Y007377D01*
X018251Y007376D02*
X020551Y007376D01*
X020551Y007375D02*
X018251Y007375D01*
X018251Y007374D02*
X020551Y007374D01*
X020551Y007373D02*
X018251Y007373D01*
X018251Y007372D02*
X020551Y007372D01*
X020551Y007371D02*
X018251Y007371D01*
X018251Y007370D02*
X020551Y007370D01*
X020551Y007369D02*
X018251Y007369D01*
X018251Y007368D02*
X020551Y007368D01*
X020551Y007367D02*
X018251Y007367D01*
X018251Y007366D02*
X020551Y007366D01*
X020551Y007365D02*
X018251Y007365D01*
X018251Y007364D02*
X020551Y007364D01*
X020551Y007363D02*
X018251Y007363D01*
X018251Y007362D02*
X020551Y007362D01*
X020551Y007361D02*
X018251Y007361D01*
X018251Y007360D02*
X020551Y007360D01*
X020551Y007359D02*
X018251Y007359D01*
X018251Y007358D02*
X020551Y007358D01*
X020551Y007357D02*
X018251Y007357D01*
X018251Y007356D02*
X020551Y007356D01*
X020551Y007355D02*
X018251Y007355D01*
X018251Y007354D02*
X020551Y007354D01*
X020551Y007353D02*
X018251Y007353D01*
X018251Y007352D02*
X020551Y007352D01*
X020551Y007351D02*
X018251Y007351D01*
X018251Y007350D02*
X020551Y007350D01*
X020551Y007349D02*
X018251Y007349D01*
X018251Y007348D02*
X020551Y007348D01*
X020551Y007347D02*
X018251Y007347D01*
X018251Y007346D02*
X020551Y007346D01*
X020551Y007345D02*
X018251Y007345D01*
X018251Y007344D02*
X020551Y007344D01*
X020551Y007343D02*
X018251Y007343D01*
X018251Y007342D02*
X020551Y007342D01*
X020551Y007341D02*
X018251Y007341D01*
X018251Y007340D02*
X020551Y007340D01*
X020551Y007339D02*
X018251Y007339D01*
X018251Y007338D02*
X020551Y007338D01*
X020551Y007337D02*
X018251Y007337D01*
X018251Y007336D02*
X020551Y007336D01*
X020551Y007335D02*
X018251Y007335D01*
X018251Y007334D02*
X020551Y007334D01*
X020551Y007333D02*
X018251Y007333D01*
X018251Y007332D02*
X020551Y007332D01*
X020551Y007331D02*
X018251Y007331D01*
X018251Y007330D02*
X020551Y007330D01*
X020551Y007329D02*
X018251Y007329D01*
X018251Y007328D02*
X020551Y007328D01*
X020551Y007327D02*
X018251Y007327D01*
X018251Y007326D02*
X020551Y007326D01*
X020551Y007325D02*
X018251Y007325D01*
X018251Y007324D02*
X020551Y007324D01*
X020551Y007323D02*
X018251Y007323D01*
X018251Y007322D02*
X020551Y007322D01*
X020551Y007321D02*
X018251Y007321D01*
X018251Y007320D02*
X020551Y007320D01*
X020551Y007319D02*
X018251Y007319D01*
X018251Y007318D02*
X020551Y007318D01*
X020551Y007317D02*
X018251Y007317D01*
X018251Y007316D02*
X020551Y007316D01*
X020551Y007315D02*
X018251Y007315D01*
X018251Y007314D02*
X020551Y007314D01*
X020551Y007313D02*
X018251Y007313D01*
X018251Y007312D02*
X020551Y007312D01*
X020551Y007311D02*
X018251Y007311D01*
X018251Y007310D02*
X020551Y007310D01*
X020551Y007309D02*
X018251Y007309D01*
X018251Y007308D02*
X020551Y007308D01*
X020551Y007307D02*
X018251Y007307D01*
X018251Y007306D02*
X020551Y007306D01*
X020551Y007305D02*
X018251Y007305D01*
X018251Y007304D02*
X020551Y007304D01*
X020551Y007303D02*
X018251Y007303D01*
X020551Y007303D01*
X020551Y007302D02*
X018251Y007302D01*
X018251Y007301D02*
X020551Y007301D01*
X020551Y007300D02*
X018251Y007300D01*
X018251Y007299D02*
X020551Y007299D01*
X020551Y007298D02*
X018251Y007298D01*
X018251Y007297D02*
X020551Y007297D01*
X020551Y007296D02*
X018251Y007296D01*
X018251Y007295D02*
X020551Y007295D01*
X020551Y007294D02*
X018251Y007294D01*
X018251Y007293D02*
X020551Y007293D01*
X020551Y007292D02*
X018251Y007292D01*
X018251Y007291D02*
X020551Y007291D01*
X020551Y007290D02*
X018251Y007290D01*
X018251Y007289D02*
X020551Y007289D01*
X020551Y007288D02*
X018251Y007288D01*
X018251Y007287D02*
X020551Y007287D01*
X020551Y007286D02*
X018251Y007286D01*
X018251Y007285D02*
X020551Y007285D01*
X020551Y007284D02*
X018251Y007284D01*
X018251Y007283D02*
X020551Y007283D01*
X020551Y007282D02*
X018251Y007282D01*
X018251Y007281D02*
X020551Y007281D01*
X020551Y007280D02*
X018251Y007280D01*
X018251Y007279D02*
X020551Y007279D01*
X020551Y007278D02*
X018251Y007278D01*
X018251Y007277D02*
X020551Y007277D01*
X020551Y007276D02*
X018251Y007276D01*
X018251Y007275D02*
X020551Y007275D01*
X020551Y007274D02*
X018251Y007274D01*
X018251Y007273D02*
X020551Y007273D01*
X020551Y007272D02*
X018251Y007272D01*
X018251Y007271D02*
X020551Y007271D01*
X020551Y007270D02*
X018251Y007270D01*
X018251Y007269D02*
X020551Y007269D01*
X020551Y007268D02*
X018251Y007268D01*
X018251Y007267D02*
X020551Y007267D01*
X020551Y007266D02*
X018251Y007266D01*
X018251Y007265D02*
X020551Y007265D01*
X020551Y007264D02*
X018251Y007264D01*
X018251Y007263D02*
X020551Y007263D01*
X020551Y007262D02*
X018251Y007262D01*
X018251Y007261D02*
X020551Y007261D01*
X020551Y007260D02*
X018251Y007260D01*
X018251Y007259D02*
X020551Y007259D01*
X020551Y007258D02*
X018251Y007258D01*
X018251Y007257D02*
X020551Y007257D01*
X020551Y007256D02*
X018251Y007256D01*
X018251Y007255D02*
X020551Y007255D01*
X020551Y007254D02*
X018251Y007254D01*
X018251Y007253D02*
X020551Y007253D01*
X020551Y007252D02*
X018251Y007252D01*
X018251Y007251D02*
X020551Y007251D01*
X020551Y007250D02*
X018251Y007250D01*
X018251Y007249D02*
X020551Y007249D01*
X020551Y007248D02*
X018251Y007248D01*
X018251Y007247D02*
X020551Y007247D01*
X020551Y007246D02*
X018251Y007246D01*
X018251Y007245D02*
X020551Y007245D01*
X020551Y007244D02*
X018251Y007244D01*
X018251Y007243D02*
X020551Y007243D01*
X020551Y007242D02*
X018251Y007242D01*
X018251Y007241D02*
X020551Y007241D01*
X020551Y007240D02*
X018251Y007240D01*
X018251Y007239D02*
X020551Y007239D01*
X020551Y007238D02*
X018251Y007238D01*
X018251Y007237D02*
X020551Y007237D01*
X020551Y007236D02*
X018251Y007236D01*
X018251Y007235D02*
X020551Y007235D01*
X020551Y007234D02*
X018251Y007234D01*
X018251Y007233D02*
X020551Y007233D01*
X020551Y007232D02*
X018251Y007232D01*
X018251Y007231D02*
X020551Y007231D01*
X020551Y007230D02*
X018251Y007230D01*
X018251Y007229D02*
X020551Y007229D01*
X020551Y007228D02*
X018251Y007228D01*
X018251Y007227D02*
X020551Y007227D01*
X020551Y007226D02*
X018251Y007226D01*
X018251Y007225D02*
X020551Y007225D01*
X020551Y007224D02*
X018251Y007224D01*
X018251Y007223D02*
X020551Y007223D01*
X020551Y007222D02*
X018251Y007222D01*
X018251Y007221D02*
X020551Y007221D01*
X020551Y007220D02*
X018251Y007220D01*
X018251Y007219D02*
X020551Y007219D01*
X020551Y007218D02*
X018251Y007218D01*
X018251Y007217D02*
X020551Y007217D01*
X020551Y007216D02*
X018251Y007216D01*
X018251Y007215D02*
X020551Y007215D01*
X020551Y007214D02*
X018251Y007214D01*
X018251Y007213D02*
X020551Y007213D01*
X020551Y007212D02*
X018251Y007212D01*
X018251Y007211D02*
X020551Y007211D01*
X020551Y007210D02*
X018251Y007210D01*
X018251Y007209D02*
X020551Y007209D01*
X020551Y007208D02*
X018251Y007208D01*
X018251Y007207D02*
X020551Y007207D01*
X020551Y007206D02*
X018251Y007206D01*
X018251Y007205D02*
X020551Y007205D01*
X020551Y007204D02*
X018251Y007204D01*
X018251Y007203D02*
X020551Y007203D01*
X020551Y007202D02*
X018251Y007202D01*
X018251Y007201D02*
X020551Y007201D01*
X020551Y007200D02*
X018251Y007200D01*
X018251Y007199D02*
X020551Y007199D01*
X020551Y007198D02*
X018251Y007198D01*
X018251Y007197D02*
X020551Y007197D01*
X020551Y007196D02*
X018251Y007196D01*
X018251Y007195D02*
X020551Y007195D01*
X020551Y007194D02*
X018251Y007194D01*
X018251Y007193D02*
X020551Y007193D01*
X020551Y007192D02*
X018251Y007192D01*
X018251Y007191D02*
X020551Y007191D01*
X020551Y007190D02*
X018251Y007190D01*
X018251Y007189D02*
X020551Y007189D01*
X020551Y007188D02*
X018251Y007188D01*
X018251Y007187D02*
X020551Y007187D01*
X020551Y007186D02*
X018251Y007186D01*
X018251Y007185D02*
X020551Y007185D01*
X020551Y007184D02*
X018251Y007184D01*
X018251Y007183D02*
X020551Y007183D01*
X020551Y007182D02*
X018251Y007182D01*
X018251Y007181D02*
X020551Y007181D01*
X020551Y007180D02*
X018251Y007180D01*
X018251Y007179D02*
X020551Y007179D01*
X020551Y007178D02*
X018251Y007178D01*
X018251Y007177D02*
X020551Y007177D01*
X020551Y007176D02*
X018251Y007176D01*
X018251Y007175D02*
X020551Y007175D01*
X020551Y007174D02*
X018251Y007174D01*
X018251Y007173D02*
X020551Y007173D01*
X020551Y007172D02*
X018251Y007172D01*
X018251Y007171D02*
X020551Y007171D01*
X020551Y007170D02*
X018251Y007170D01*
X018251Y007169D02*
X020551Y007169D01*
X020551Y007168D02*
X018251Y007168D01*
X018251Y007167D02*
X020551Y007167D01*
X020551Y007166D02*
X018251Y007166D01*
X018251Y007165D02*
X020551Y007165D01*
X020551Y007164D02*
X018251Y007164D01*
X018251Y007163D02*
X020551Y007163D01*
X020551Y007162D02*
X018251Y007162D01*
X018251Y007161D02*
X020551Y007161D01*
X020551Y007160D02*
X018251Y007160D01*
X018251Y007159D02*
X020551Y007159D01*
X020551Y007158D02*
X018251Y007158D01*
X018251Y007157D02*
X020551Y007157D01*
X020551Y007156D02*
X018251Y007156D01*
X018251Y007155D02*
X020551Y007155D01*
X020551Y007154D02*
X018251Y007154D01*
X018251Y007153D02*
X020551Y007153D01*
X020551Y007152D02*
X018251Y007152D01*
X018251Y007151D02*
X020551Y007151D01*
X020551Y007150D02*
X018251Y007150D01*
X018251Y007149D02*
X020551Y007149D01*
X020551Y007148D02*
X018251Y007148D01*
X018251Y007147D02*
X020551Y007147D01*
X020551Y007146D02*
X018251Y007146D01*
X018251Y007145D02*
X020551Y007145D01*
X020551Y007144D02*
X018251Y007144D01*
X018251Y007143D02*
X020551Y007143D01*
X020551Y007142D02*
X018251Y007142D01*
X018251Y007141D02*
X020551Y007141D01*
X020551Y007140D02*
X018251Y007140D01*
X018251Y007139D02*
X020551Y007139D01*
X020551Y007138D02*
X018251Y007138D01*
X018251Y007137D02*
X020551Y007137D01*
X020551Y007136D02*
X018251Y007136D01*
X018251Y007135D02*
X020551Y007135D01*
X020551Y007134D02*
X018251Y007134D01*
X018251Y007133D02*
X020551Y007133D01*
X020551Y007132D02*
X018251Y007132D01*
X018251Y007131D02*
X020551Y007131D01*
X020551Y007130D02*
X018251Y007130D01*
X018251Y007129D02*
X020551Y007129D01*
X020551Y007128D02*
X018251Y007128D01*
X018251Y007127D02*
X020551Y007127D01*
X020551Y007126D02*
X018251Y007126D01*
X018251Y007125D02*
X020551Y007125D01*
X020551Y007124D02*
X018251Y007124D01*
X018251Y007123D02*
X020551Y007123D01*
X020551Y007122D02*
X018251Y007122D01*
X018251Y007121D02*
X020551Y007121D01*
X020551Y007120D02*
X018251Y007120D01*
X018251Y007119D02*
X020551Y007119D01*
X020551Y007118D02*
X018251Y007118D01*
X018251Y007117D02*
X020551Y007117D01*
X020551Y007116D02*
X018251Y007116D01*
X018251Y007115D02*
X020551Y007115D01*
X020551Y007114D02*
X018251Y007114D01*
X018251Y007113D02*
X020551Y007113D01*
X020551Y007112D02*
X018251Y007112D01*
X018251Y007111D02*
X020551Y007111D01*
X020551Y007110D02*
X018251Y007110D01*
X018251Y007109D02*
X020551Y007109D01*
X020551Y007108D02*
X018251Y007108D01*
X018251Y007107D02*
X020551Y007107D01*
X020551Y007106D02*
X018251Y007106D01*
X018251Y007105D02*
X020551Y007105D01*
X020551Y007104D02*
X018251Y007104D01*
X018251Y007103D02*
X020551Y007103D01*
X020551Y007102D02*
X018251Y007102D01*
X018251Y007101D02*
X020551Y007101D01*
X020551Y007100D02*
X018251Y007100D01*
X018251Y007099D02*
X020551Y007099D01*
X020551Y007098D02*
X018251Y007098D01*
X018251Y007097D02*
X020551Y007097D01*
X020551Y007096D02*
X018251Y007096D01*
X018251Y007095D02*
X020551Y007095D01*
X020551Y007094D02*
X018251Y007094D01*
X018251Y007093D02*
X020551Y007093D01*
X020551Y007092D02*
X018251Y007092D01*
X018251Y007091D02*
X020551Y007091D01*
X020551Y007090D02*
X018251Y007090D01*
X018251Y007089D02*
X020551Y007089D01*
X020551Y007088D02*
X018251Y007088D01*
X018251Y007087D02*
X020551Y007087D01*
X020551Y007086D02*
X018251Y007086D01*
X018251Y007085D02*
X020551Y007085D01*
X020551Y007084D02*
X018251Y007084D01*
X018251Y007083D02*
X020551Y007083D01*
X020551Y007082D02*
X018251Y007082D01*
X018251Y007081D02*
X020551Y007081D01*
X020551Y007080D02*
X018251Y007080D01*
X018251Y007079D02*
X020551Y007079D01*
X020551Y007078D02*
X018251Y007078D01*
X018251Y007077D02*
X020551Y007077D01*
X020551Y007076D02*
X018251Y007076D01*
X018251Y007075D02*
X020551Y007075D01*
X020551Y007074D02*
X018251Y007074D01*
X018251Y007073D02*
X020551Y007073D01*
X020551Y007072D02*
X018251Y007072D01*
X018251Y007071D02*
X020551Y007071D01*
X020551Y007070D02*
X018251Y007070D01*
X018251Y007069D02*
X020551Y007069D01*
X020551Y007068D02*
X018251Y007068D01*
X018251Y007067D02*
X020551Y007067D01*
X020551Y007066D02*
X018251Y007066D01*
X018251Y007065D02*
X020551Y007065D01*
X020551Y007064D02*
X018251Y007064D01*
X018251Y007063D02*
X020551Y007063D01*
X020551Y007062D02*
X018251Y007062D01*
X018251Y007061D02*
X020551Y007061D01*
X020551Y007060D02*
X018251Y007060D01*
X018251Y007059D02*
X020551Y007059D01*
X020551Y007058D02*
X018251Y007058D01*
X018251Y007057D02*
X020551Y007057D01*
X020551Y007056D02*
X018251Y007056D01*
X018251Y007055D02*
X020551Y007055D01*
X020551Y007054D02*
X018251Y007054D01*
X018251Y007053D02*
X020551Y007053D01*
X020551Y007052D02*
X018251Y007052D01*
X018251Y007051D02*
X020551Y007051D01*
X020551Y007050D02*
X018251Y007050D01*
X018251Y007049D02*
X020551Y007049D01*
X020551Y007048D02*
X018251Y007048D01*
X018251Y007047D02*
X020551Y007047D01*
X020551Y007046D02*
X018251Y007046D01*
X018251Y007045D02*
X020551Y007045D01*
X020551Y007044D02*
X018251Y007044D01*
X018251Y007043D02*
X020551Y007043D01*
X020551Y007042D02*
X018251Y007042D01*
X018251Y007041D02*
X020551Y007041D01*
X020551Y007040D02*
X018251Y007040D01*
X018251Y007039D02*
X020551Y007039D01*
X020551Y007038D02*
X018251Y007038D01*
X018251Y007037D02*
X020551Y007037D01*
X020551Y007036D02*
X018251Y007036D01*
X018251Y007035D02*
X020551Y007035D01*
X020551Y007034D02*
X018251Y007034D01*
X018251Y007033D02*
X020551Y007033D01*
X020551Y007032D02*
X018251Y007032D01*
X018251Y007031D02*
X020551Y007031D01*
X020551Y007030D02*
X018251Y007030D01*
X018251Y007029D02*
X020551Y007029D01*
X020551Y007028D02*
X018251Y007028D01*
X018251Y007027D02*
X020551Y007027D01*
X020551Y007026D02*
X018251Y007026D01*
X018251Y007025D02*
X020551Y007025D01*
X020551Y007024D02*
X018251Y007024D01*
X018251Y007023D02*
X020551Y007023D01*
X020551Y007022D02*
X018251Y007022D01*
X018251Y007021D02*
X020551Y007021D01*
X020551Y007020D02*
X018251Y007020D01*
X018251Y007019D02*
X020551Y007019D01*
X020551Y007018D02*
X018251Y007018D01*
X018251Y007017D02*
X020551Y007017D01*
X020551Y007016D02*
X018251Y007016D01*
X018251Y007015D02*
X020551Y007015D01*
X020551Y007014D02*
X018251Y007014D01*
X018251Y007013D02*
X020551Y007013D01*
X020551Y007012D02*
X018251Y007012D01*
X018251Y007011D02*
X020551Y007011D01*
X020551Y007010D02*
X018251Y007010D01*
X018251Y007009D02*
X020551Y007009D01*
X020551Y007008D02*
X018251Y007008D01*
X018251Y007007D02*
X020551Y007007D01*
X020551Y007006D02*
X018251Y007006D01*
X018251Y007005D02*
X020551Y007005D01*
X020551Y007004D02*
X018251Y007004D01*
X018251Y007003D02*
X020551Y007003D01*
X020551Y007002D02*
X018251Y007002D01*
X018251Y007001D02*
X020551Y007001D01*
X020551Y007000D02*
X018251Y007000D01*
X018251Y006999D02*
X020551Y006999D01*
X020551Y006998D02*
X018251Y006998D01*
X018251Y006997D02*
X020551Y006997D01*
X020551Y006996D02*
X018251Y006996D01*
X018251Y006995D02*
X020551Y006995D01*
X020551Y006994D02*
X018251Y006994D01*
X018251Y006993D02*
X020551Y006993D01*
X020551Y006992D02*
X018251Y006992D01*
X018251Y006991D02*
X020551Y006991D01*
X020551Y006990D02*
X018251Y006990D01*
X018251Y006989D02*
X020551Y006989D01*
X020551Y006988D02*
X018251Y006988D01*
X018251Y006987D02*
X020551Y006987D01*
X020551Y006986D02*
X018251Y006986D01*
X018251Y006985D02*
X020551Y006985D01*
X020551Y006984D02*
X018251Y006984D01*
X018251Y006983D02*
X020551Y006983D01*
X020551Y006982D02*
X018251Y006982D01*
X018251Y006981D02*
X020551Y006981D01*
X020551Y006980D02*
X018251Y006980D01*
X018251Y006979D02*
X020551Y006979D01*
X020551Y006978D02*
X018251Y006978D01*
X018251Y006977D02*
X020551Y006977D01*
X020551Y006976D02*
X018251Y006976D01*
X018251Y006975D02*
X020551Y006975D01*
X020551Y006974D02*
X018251Y006974D01*
X018251Y006973D02*
X020551Y006973D01*
X020551Y006972D02*
X018251Y006972D01*
X018251Y006971D02*
X020551Y006971D01*
X020551Y006970D02*
X018251Y006970D01*
X018251Y006969D02*
X020551Y006969D01*
X020551Y006968D02*
X018251Y006968D01*
X018251Y006967D02*
X020551Y006967D01*
X020551Y006966D02*
X018251Y006966D01*
X018251Y006965D02*
X020551Y006965D01*
X020551Y006964D02*
X018251Y006964D01*
X018251Y006963D02*
X020551Y006963D01*
X020551Y006962D02*
X018251Y006962D01*
X018251Y006961D02*
X020551Y006961D01*
X020551Y006960D02*
X018251Y006960D01*
X018251Y006959D02*
X020551Y006959D01*
X020551Y006958D02*
X018251Y006958D01*
X018251Y006957D02*
X020551Y006957D01*
X020551Y006956D02*
X018251Y006956D01*
X018251Y006955D02*
X020551Y006955D01*
X020551Y006954D02*
X018251Y006954D01*
X018251Y006953D02*
X020551Y006953D01*
X020551Y006952D02*
X018251Y006952D01*
X018251Y006951D02*
X020551Y006951D01*
X020551Y006950D02*
X018251Y006950D01*
X018251Y006949D02*
X020551Y006949D01*
X020551Y006948D02*
X018251Y006948D01*
X018251Y006947D02*
X020551Y006947D01*
X020551Y006946D02*
X018251Y006946D01*
X018251Y006945D02*
X020551Y006945D01*
X020551Y006944D02*
X018251Y006944D01*
X018251Y006943D02*
X020551Y006943D01*
X020551Y006942D02*
X018251Y006942D01*
X018251Y006941D02*
X020551Y006941D01*
X020551Y006940D02*
X018251Y006940D01*
X018251Y006939D02*
X020551Y006939D01*
X020551Y006938D02*
X018251Y006938D01*
X018251Y006937D02*
X020551Y006937D01*
X020551Y006936D02*
X018251Y006936D01*
X018251Y006935D02*
X020551Y006935D01*
X020551Y006934D02*
X018251Y006934D01*
X018251Y006933D02*
X020551Y006933D01*
X020551Y006932D02*
X018251Y006932D01*
X018251Y006931D02*
X020551Y006931D01*
X020551Y006930D02*
X018251Y006930D01*
X018251Y006929D02*
X020551Y006929D01*
X020551Y006928D02*
X018251Y006928D01*
X018251Y006927D02*
X020551Y006927D01*
X020551Y006926D02*
X018251Y006926D01*
X018251Y006925D02*
X020551Y006925D01*
X020551Y006924D02*
X018251Y006924D01*
X018251Y006923D02*
X020551Y006923D01*
X020551Y006922D02*
X018251Y006922D01*
X018251Y006921D02*
X020551Y006921D01*
X020551Y006920D02*
X018251Y006920D01*
X018251Y006919D02*
X020551Y006919D01*
X020551Y006918D02*
X018251Y006918D01*
X018251Y006917D02*
X020551Y006917D01*
X020551Y006916D02*
X018251Y006916D01*
X018251Y006915D02*
X020551Y006915D01*
X020551Y006914D02*
X018251Y006914D01*
X018251Y006913D02*
X020551Y006913D01*
X020551Y006912D02*
X018251Y006912D01*
X018251Y006911D02*
X020551Y006911D01*
X020551Y006910D02*
X018251Y006910D01*
X018251Y006909D02*
X020551Y006909D01*
X020551Y006908D02*
X018251Y006908D01*
X018251Y006907D02*
X020551Y006907D01*
X020551Y006906D02*
X018251Y006906D01*
X018251Y006905D02*
X020551Y006905D01*
X020551Y006904D02*
X018251Y006904D01*
X018251Y006903D02*
X020551Y006903D01*
X020551Y006902D02*
X018251Y006902D01*
X018251Y006901D02*
X020551Y006901D01*
X020551Y006900D02*
X018251Y006900D01*
X018251Y006899D02*
X020551Y006899D01*
X020551Y006898D02*
X018251Y006898D01*
X018251Y006897D02*
X020551Y006897D01*
X020551Y006896D02*
X018251Y006896D01*
X018251Y006895D02*
X020551Y006895D01*
X020551Y006894D02*
X018251Y006894D01*
X018251Y006893D02*
X020551Y006893D01*
X020551Y006892D02*
X018251Y006892D01*
X018251Y006891D02*
X020551Y006891D01*
X020551Y006890D02*
X018251Y006890D01*
X018251Y006889D02*
X020551Y006889D01*
X020551Y006888D02*
X018251Y006888D01*
X018251Y006887D02*
X020551Y006887D01*
X020551Y006886D02*
X018251Y006886D01*
X018251Y006885D02*
X020551Y006885D01*
X020551Y006884D02*
X018251Y006884D01*
X018251Y006883D02*
X020551Y006883D01*
X020551Y006882D02*
X018251Y006882D01*
X018251Y006881D02*
X020551Y006881D01*
X020551Y006880D02*
X018251Y006880D01*
X018251Y006879D02*
X020551Y006879D01*
X020551Y006878D02*
X018251Y006878D01*
X018251Y006877D02*
X020551Y006877D01*
X020551Y006876D02*
X018251Y006876D01*
X018251Y006875D02*
X020551Y006875D01*
X020551Y006874D02*
X018251Y006874D01*
X018251Y006873D02*
X020551Y006873D01*
X020551Y006872D02*
X018251Y006872D01*
X018251Y006871D02*
X020551Y006871D01*
X020551Y006870D02*
X018251Y006870D01*
X018251Y006869D02*
X020551Y006869D01*
X020551Y006868D02*
X018251Y006868D01*
X018251Y006867D02*
X020551Y006867D01*
X020551Y006866D02*
X018251Y006866D01*
X018251Y006865D02*
X020551Y006865D01*
X020551Y006864D02*
X018251Y006864D01*
X018251Y006863D02*
X020551Y006863D01*
X020551Y006862D02*
X018251Y006862D01*
X018251Y006861D02*
X020551Y006861D01*
X020551Y006860D02*
X018251Y006860D01*
X018251Y006859D02*
X020551Y006859D01*
X020551Y006858D02*
X018251Y006858D01*
X018251Y006857D02*
X020551Y006857D01*
X020551Y006856D02*
X018251Y006856D01*
X018251Y006855D02*
X020551Y006855D01*
X020551Y006854D02*
X018251Y006854D01*
X018251Y006853D02*
X020551Y006853D01*
X020551Y006852D02*
X018251Y006852D01*
X018251Y006851D02*
X020551Y006851D01*
X020551Y006850D02*
X018251Y006850D01*
X018251Y006849D02*
X020551Y006849D01*
X020551Y006848D02*
X018251Y006848D01*
X018251Y006847D02*
X020551Y006847D01*
X020551Y006846D02*
X018251Y006846D01*
X018251Y006845D02*
X020551Y006845D01*
X020551Y006844D02*
X018251Y006844D01*
X018251Y006843D02*
X020551Y006843D01*
X020551Y006842D02*
X018251Y006842D01*
X018251Y006841D02*
X020551Y006841D01*
X020551Y006840D02*
X018251Y006840D01*
X018251Y006839D02*
X020551Y006839D01*
X020551Y006838D02*
X018251Y006838D01*
X018251Y006837D02*
X020551Y006837D01*
X020551Y006836D02*
X018251Y006836D01*
X018251Y006835D02*
X020551Y006835D01*
X020551Y006834D02*
X018251Y006834D01*
X018251Y006833D02*
X020551Y006833D01*
X020551Y006832D02*
X018251Y006832D01*
X018251Y006831D02*
X020551Y006831D01*
X020551Y006830D02*
X018251Y006830D01*
X018251Y006829D02*
X020551Y006829D01*
X020551Y006828D02*
X018251Y006828D01*
X018251Y006827D02*
X020551Y006827D01*
X020551Y006826D02*
X018251Y006826D01*
X018251Y006825D02*
X020551Y006825D01*
X020551Y006824D02*
X018251Y006824D01*
X018251Y006823D02*
X020551Y006823D01*
X020551Y006822D02*
X018251Y006822D01*
X018251Y006821D02*
X020551Y006821D01*
X020551Y006820D02*
X018251Y006820D01*
X018251Y006819D02*
X020551Y006819D01*
X020551Y006818D02*
X018251Y006818D01*
X018251Y006817D02*
X020551Y006817D01*
X020551Y006816D02*
X018251Y006816D01*
X018251Y006815D02*
X020551Y006815D01*
X020551Y006814D02*
X018251Y006814D01*
X018251Y006813D02*
X020551Y006813D01*
X020551Y006812D02*
X018251Y006812D01*
X018251Y006811D02*
X020551Y006811D01*
X020551Y006810D02*
X018251Y006810D01*
X018251Y006809D02*
X020551Y006809D01*
X020551Y006808D02*
X018251Y006808D01*
X018251Y006807D02*
X020551Y006807D01*
X020551Y006806D02*
X018251Y006806D01*
X018251Y006805D02*
X020551Y006805D01*
X020551Y006804D02*
X018251Y006804D01*
X018251Y006803D02*
X020551Y006803D01*
X020551Y006802D02*
X018251Y006802D01*
X018251Y006801D02*
X020551Y006801D01*
X020551Y006800D02*
X018251Y006800D01*
X018251Y006799D02*
X020551Y006799D01*
X020551Y006798D02*
X018251Y006798D01*
X018251Y006797D02*
X020551Y006797D01*
X020551Y006796D02*
X018251Y006796D01*
X018251Y006795D02*
X020551Y006795D01*
X020551Y006794D02*
X018251Y006794D01*
X018251Y006793D02*
X020551Y006793D01*
X020551Y006792D02*
X018251Y006792D01*
X018251Y006791D02*
X020551Y006791D01*
X020551Y006790D02*
X018251Y006790D01*
X018251Y006789D02*
X020551Y006789D01*
X020551Y006788D02*
X018251Y006788D01*
X018251Y006787D02*
X020551Y006787D01*
X020551Y006786D02*
X018251Y006786D01*
X018251Y006785D02*
X020551Y006785D01*
X020551Y006784D02*
X018251Y006784D01*
X018251Y006783D02*
X020551Y006783D01*
X020551Y006782D02*
X018251Y006782D01*
X018251Y006781D02*
X020551Y006781D01*
X020551Y006780D02*
X018251Y006780D01*
X018251Y006779D02*
X020551Y006779D01*
X020551Y006778D02*
X018251Y006778D01*
X018251Y006777D02*
X020551Y006777D01*
X020551Y006776D02*
X018251Y006776D01*
X018251Y006775D02*
X020551Y006775D01*
X020551Y006774D02*
X018251Y006774D01*
X018251Y006773D02*
X020551Y006773D01*
X020551Y006772D02*
X018251Y006772D01*
X018251Y006771D02*
X020551Y006771D01*
X020551Y006770D02*
X018251Y006770D01*
X018251Y006769D02*
X020551Y006769D01*
X020551Y006768D02*
X018251Y006768D01*
X018251Y006767D02*
X020551Y006767D01*
X020551Y006766D02*
X018251Y006766D01*
X018251Y006765D02*
X020551Y006765D01*
X020551Y006764D02*
X018251Y006764D01*
X018251Y006763D02*
X020551Y006763D01*
X020551Y006762D02*
X018251Y006762D01*
X018251Y006761D02*
X020551Y006761D01*
X020551Y006760D02*
X018251Y006760D01*
X018251Y006759D02*
X020551Y006759D01*
X020551Y006758D02*
X018251Y006758D01*
X018251Y006757D02*
X020551Y006757D01*
X020551Y006756D02*
X018251Y006756D01*
X018251Y006755D02*
X020551Y006755D01*
X020551Y006754D02*
X018251Y006754D01*
X018251Y006753D02*
X020551Y006753D01*
X020551Y006752D02*
X018251Y006752D01*
X018251Y006751D02*
X020551Y006751D01*
X020551Y006750D02*
X018251Y006750D01*
X018251Y006749D02*
X020551Y006749D01*
X020551Y006748D02*
X018251Y006748D01*
X018251Y006747D02*
X020551Y006747D01*
X020551Y006746D02*
X018251Y006746D01*
X018251Y006745D02*
X020551Y006745D01*
X020551Y006744D02*
X018251Y006744D01*
X018251Y006743D02*
X020551Y006743D01*
X020551Y006742D02*
X018251Y006742D01*
X018251Y006741D02*
X020551Y006741D01*
X020551Y006740D02*
X018251Y006740D01*
X018251Y006739D02*
X020551Y006739D01*
X020551Y006738D02*
X018251Y006738D01*
X018251Y006737D02*
X020551Y006737D01*
X020551Y006736D02*
X018251Y006736D01*
X018251Y006735D02*
X020551Y006735D01*
X020551Y006734D02*
X018251Y006734D01*
X018251Y006733D02*
X020551Y006733D01*
X020551Y006732D02*
X018251Y006732D01*
X018251Y006731D02*
X020551Y006731D01*
X020551Y006730D02*
X018251Y006730D01*
X018251Y006729D02*
X020551Y006729D01*
X020551Y006728D02*
X018251Y006728D01*
X018251Y006727D02*
X020551Y006727D01*
X020551Y006726D02*
X018251Y006726D01*
X018251Y006725D02*
X020551Y006725D01*
X020551Y006724D02*
X018251Y006724D01*
X018251Y006723D02*
X020551Y006723D01*
X020551Y006722D02*
X018251Y006722D01*
X018251Y006721D02*
X020551Y006721D01*
X020551Y006720D02*
X018251Y006720D01*
X018251Y006719D02*
X020551Y006719D01*
X020551Y006718D02*
X018251Y006718D01*
X018251Y006717D02*
X020551Y006717D01*
X020551Y006716D02*
X018251Y006716D01*
X018251Y006715D02*
X020551Y006715D01*
X020551Y006714D02*
X018251Y006714D01*
X018251Y006713D02*
X020551Y006713D01*
X020551Y006712D02*
X018251Y006712D01*
X018251Y006711D02*
X020551Y006711D01*
X020551Y006710D02*
X018251Y006710D01*
X018251Y006709D02*
X020551Y006709D01*
X020551Y006708D02*
X018251Y006708D01*
X018251Y006707D02*
X020551Y006707D01*
X020551Y006706D02*
X018251Y006706D01*
X018251Y006705D02*
X020551Y006705D01*
X020551Y006704D02*
X018251Y006704D01*
X018251Y006703D02*
X020551Y006703D01*
X020551Y006702D02*
X018251Y006702D01*
X018251Y006701D02*
X020551Y006701D01*
X020551Y006700D02*
X018251Y006700D01*
X018251Y006699D02*
X020551Y006699D01*
X020551Y006698D02*
X018251Y006698D01*
X018251Y006697D02*
X020551Y006697D01*
X020551Y006696D02*
X018251Y006696D01*
X018251Y006695D02*
X020551Y006695D01*
X020551Y006694D02*
X018251Y006694D01*
X018251Y006693D02*
X020551Y006693D01*
X020551Y006692D02*
X018251Y006692D01*
X018251Y006691D02*
X020551Y006691D01*
X020551Y006690D02*
X018251Y006690D01*
X018251Y006689D02*
X020551Y006689D01*
X020551Y006688D02*
X018251Y006688D01*
X018251Y006687D02*
X020551Y006687D01*
X020551Y006686D02*
X018251Y006686D01*
X018251Y006685D02*
X020551Y006685D01*
X020551Y006684D02*
X018251Y006684D01*
X018251Y006683D02*
X020551Y006683D01*
X020551Y006682D02*
X018251Y006682D01*
X018251Y006681D02*
X020551Y006681D01*
X020551Y006680D02*
X018251Y006680D01*
X018251Y006679D02*
X020551Y006679D01*
X020551Y006678D02*
X018251Y006678D01*
X018251Y006677D02*
X020551Y006677D01*
X020551Y006676D02*
X018251Y006676D01*
X018251Y006675D02*
X020551Y006675D01*
X020551Y006674D02*
X018251Y006674D01*
X018251Y006673D02*
X020551Y006673D01*
X020551Y006672D02*
X018251Y006672D01*
X018251Y006671D02*
X020551Y006671D01*
X020551Y006670D02*
X018251Y006670D01*
X018251Y006669D02*
X020551Y006669D01*
X020551Y006668D02*
X018251Y006668D01*
X018251Y006667D02*
X020551Y006667D01*
X020551Y006666D02*
X018251Y006666D01*
X018251Y006665D02*
X020551Y006665D01*
X020551Y006664D02*
X018251Y006664D01*
X018251Y006663D02*
X020551Y006663D01*
X020551Y006662D02*
X018251Y006662D01*
X018251Y006661D02*
X020551Y006661D01*
X020551Y006660D02*
X018251Y006660D01*
X018251Y006659D02*
X020551Y006659D01*
X020551Y006658D02*
X018251Y006658D01*
X018251Y006657D02*
X020551Y006657D01*
X020551Y006656D02*
X018251Y006656D01*
X018251Y006655D02*
X020551Y006655D01*
X020551Y006654D02*
X018251Y006654D01*
X018251Y006653D02*
X020551Y006653D01*
X020551Y006652D02*
X018251Y006652D01*
X018251Y006651D02*
X020551Y006651D01*
X020551Y006650D02*
X018251Y006650D01*
X018251Y006649D02*
X020551Y006649D01*
X020551Y006648D02*
X018251Y006648D01*
X018251Y006647D02*
X020551Y006647D01*
X020551Y006646D02*
X018251Y006646D01*
X018251Y006645D02*
X020551Y006645D01*
X020551Y006644D02*
X018251Y006644D01*
X018251Y006643D02*
X020551Y006643D01*
X020551Y006642D02*
X018251Y006642D01*
X018251Y006641D02*
X020551Y006641D01*
X020551Y006640D02*
X018251Y006640D01*
X018251Y006639D02*
X020551Y006639D01*
X020551Y006638D02*
X018251Y006638D01*
X018251Y006637D02*
X020551Y006637D01*
X020551Y006636D02*
X018251Y006636D01*
X018251Y006635D02*
X020551Y006635D01*
X020551Y006634D02*
X018251Y006634D01*
X018251Y006633D02*
X020551Y006633D01*
X020551Y006632D02*
X018251Y006632D01*
X018251Y006631D02*
X020551Y006631D01*
X020551Y006630D02*
X018251Y006630D01*
X018251Y006629D02*
X020551Y006629D01*
X020551Y006628D02*
X018251Y006628D01*
X018251Y006627D02*
X020551Y006627D01*
X020551Y006626D02*
X018251Y006626D01*
X018251Y006625D02*
X020551Y006625D01*
X020551Y006624D02*
X018251Y006624D01*
X018251Y006623D02*
X020551Y006623D01*
X020551Y006622D02*
X018251Y006622D01*
X018251Y006621D02*
X020551Y006621D01*
X020551Y006620D02*
X018251Y006620D01*
X018251Y006619D02*
X020551Y006619D01*
X020551Y006618D02*
X018251Y006618D01*
X018251Y006617D02*
X020551Y006617D01*
X020551Y006616D02*
X018251Y006616D01*
X018251Y006615D02*
X020551Y006615D01*
X020551Y006614D02*
X018251Y006614D01*
X018251Y006613D02*
X020551Y006613D01*
X020551Y006612D02*
X018251Y006612D01*
X018251Y006611D02*
X020551Y006611D01*
X020551Y006610D02*
X018251Y006610D01*
X018251Y006609D02*
X020551Y006609D01*
X020551Y006608D02*
X018251Y006608D01*
X018251Y006607D02*
X020551Y006607D01*
X020551Y006606D02*
X018251Y006606D01*
X018251Y006605D02*
X020551Y006605D01*
X020551Y006604D02*
X018251Y006604D01*
X018251Y006603D02*
X020551Y006603D01*
X020551Y006602D02*
X018251Y006602D01*
X018251Y006601D02*
X020551Y006601D01*
X020551Y006600D02*
X018251Y006600D01*
X018251Y006599D02*
X020551Y006599D01*
X020551Y006598D02*
X018251Y006598D01*
X018251Y006597D02*
X020551Y006597D01*
X020551Y006596D02*
X018251Y006596D01*
X018251Y006595D02*
X020551Y006595D01*
X020551Y006594D02*
X018251Y006594D01*
X018251Y006593D02*
X020551Y006593D01*
X020551Y006592D02*
X018251Y006592D01*
X018251Y006591D02*
X020551Y006591D01*
X020551Y006590D02*
X018251Y006590D01*
X018251Y006589D02*
X020551Y006589D01*
X020551Y006588D02*
X018251Y006588D01*
X018251Y006587D02*
X020551Y006587D01*
X020551Y006586D02*
X018251Y006586D01*
X018251Y006585D02*
X020551Y006585D01*
X020551Y006584D02*
X018251Y006584D01*
X018251Y006583D02*
X020551Y006583D01*
X020551Y006582D02*
X018251Y006582D01*
X018251Y006581D02*
X020551Y006581D01*
X020551Y006580D02*
X018251Y006580D01*
X018251Y006579D02*
X020551Y006579D01*
X020551Y006578D02*
X018251Y006578D01*
X018251Y006577D02*
X020551Y006577D01*
X020551Y006576D02*
X018251Y006576D01*
X018251Y006575D02*
X020551Y006575D01*
X020551Y006574D02*
X018251Y006574D01*
X018251Y006573D02*
X020551Y006573D01*
X020551Y006572D02*
X018251Y006572D01*
X018251Y006571D02*
X020551Y006571D01*
X020551Y006570D02*
X018251Y006570D01*
X018251Y006569D02*
X020551Y006569D01*
X020551Y006568D02*
X018251Y006568D01*
X018251Y006567D02*
X020551Y006567D01*
X020551Y006566D02*
X018251Y006566D01*
X018251Y006565D02*
X020551Y006565D01*
X020551Y006564D02*
X018251Y006564D01*
X018251Y006563D02*
X020551Y006563D01*
X020551Y006562D02*
X018251Y006562D01*
X018251Y006561D02*
X020551Y006561D01*
X020551Y006560D02*
X018251Y006560D01*
X018251Y006559D02*
X020551Y006559D01*
X020551Y006558D02*
X018251Y006558D01*
X018251Y006557D02*
X020551Y006557D01*
X020551Y006556D02*
X018251Y006556D01*
X018251Y006555D02*
X020551Y006555D01*
X020551Y006554D02*
X018251Y006554D01*
X018251Y006553D02*
X020551Y006553D01*
X020551Y006552D02*
X018251Y006552D01*
X018251Y006551D02*
X020551Y006551D01*
X020551Y006550D02*
X018251Y006550D01*
X018251Y006549D02*
X020551Y006549D01*
X020551Y006548D02*
X018251Y006548D01*
X018251Y006547D02*
X020551Y006547D01*
X020551Y006546D02*
X018251Y006546D01*
X018251Y006545D02*
X020551Y006545D01*
X020551Y006544D02*
X018251Y006544D01*
X018251Y006543D02*
X020551Y006543D01*
X020551Y006542D02*
X018251Y006542D01*
X018251Y006541D02*
X020551Y006541D01*
X020551Y006540D02*
X018251Y006540D01*
X018251Y006539D02*
X020551Y006539D01*
X020551Y006538D02*
X018251Y006538D01*
X018251Y006537D02*
X020551Y006537D01*
X020551Y006536D02*
X018251Y006536D01*
X018251Y006535D02*
X020551Y006535D01*
X020551Y006534D02*
X018251Y006534D01*
X018251Y006533D02*
X020551Y006533D01*
X020551Y006532D02*
X018251Y006532D01*
X018251Y006531D02*
X020551Y006531D01*
X020551Y006530D02*
X018251Y006530D01*
X018251Y006529D02*
X020551Y006529D01*
X020551Y006528D02*
X018251Y006528D01*
X018251Y006527D02*
X020551Y006527D01*
X020551Y006526D02*
X018251Y006526D01*
X018251Y006525D02*
X020551Y006525D01*
X020551Y006524D02*
X018251Y006524D01*
X018251Y006523D02*
X020551Y006523D01*
X020551Y006522D02*
X018251Y006522D01*
X018251Y006521D02*
X020551Y006521D01*
X020551Y006520D02*
X018251Y006520D01*
X018251Y006519D02*
X020551Y006519D01*
X020551Y006518D02*
X018251Y006518D01*
X018251Y006517D02*
X020551Y006517D01*
X020551Y006516D02*
X018251Y006516D01*
X018251Y006515D02*
X020551Y006515D01*
X020551Y006514D02*
X018251Y006514D01*
X018251Y006513D02*
X020551Y006513D01*
X020551Y006512D02*
X018251Y006512D01*
X018251Y006511D02*
X020551Y006511D01*
X020551Y006510D02*
X018251Y006510D01*
X018251Y006509D02*
X020551Y006509D01*
X020551Y006508D02*
X018251Y006508D01*
X018251Y006507D02*
X020551Y006507D01*
X020551Y006506D02*
X018251Y006506D01*
X018251Y006505D02*
X020551Y006505D01*
X020551Y006504D02*
X018251Y006504D01*
X018251Y006503D02*
X020551Y006503D01*
X020551Y006502D02*
X018251Y006502D01*
X018251Y006501D02*
X020551Y006501D01*
X020551Y006500D02*
X018251Y006500D01*
X018251Y006499D02*
X020551Y006499D01*
X020551Y006498D02*
X018251Y006498D01*
X018251Y006497D02*
X020551Y006497D01*
X020551Y006496D02*
X018251Y006496D01*
X018251Y006495D02*
X020551Y006495D01*
X020551Y006494D02*
X018251Y006494D01*
X018251Y006493D02*
X020551Y006493D01*
X020551Y006492D02*
X018251Y006492D01*
X018251Y006491D02*
X020551Y006491D01*
X020551Y006490D02*
X018251Y006490D01*
X018251Y006489D02*
X020551Y006489D01*
X020551Y006488D02*
X018251Y006488D01*
X018251Y006487D02*
X020551Y006487D01*
X020551Y006486D02*
X018251Y006486D01*
X018251Y006485D02*
X020551Y006485D01*
X020551Y006484D02*
X018251Y006484D01*
X018251Y006483D02*
X020551Y006483D01*
X020551Y006482D02*
X018251Y006482D01*
X018251Y006481D02*
X020551Y006481D01*
X020551Y006480D02*
X018251Y006480D01*
X018251Y006479D02*
X020551Y006479D01*
X020551Y006478D02*
X018251Y006478D01*
X018251Y006477D02*
X020551Y006477D01*
X020551Y006476D02*
X018251Y006476D01*
X018251Y006475D02*
X020551Y006475D01*
X020551Y006474D02*
X018251Y006474D01*
X018251Y006473D02*
X020551Y006473D01*
X020551Y006472D02*
X018251Y006472D01*
X018251Y006471D02*
X020551Y006471D01*
X020551Y006470D02*
X018251Y006470D01*
X018251Y006469D02*
X020551Y006469D01*
X020551Y006468D02*
X018251Y006468D01*
X018251Y006467D02*
X020551Y006467D01*
X020551Y006466D02*
X018251Y006466D01*
X018251Y006465D02*
X020551Y006465D01*
X020551Y006464D02*
X018251Y006464D01*
X018251Y006463D02*
X020551Y006463D01*
X020551Y006462D02*
X018251Y006462D01*
X018251Y006461D02*
X020551Y006461D01*
X020551Y006460D02*
X018251Y006460D01*
X018251Y006459D02*
X020551Y006459D01*
X020551Y006458D02*
X018251Y006458D01*
X018251Y006457D02*
X020551Y006457D01*
X020551Y006456D02*
X018251Y006456D01*
X018251Y006455D02*
X020551Y006455D01*
X020551Y006454D02*
X018251Y006454D01*
X018251Y006453D02*
X020551Y006453D01*
X020551Y006452D02*
X018251Y006452D01*
X018251Y006451D02*
X020551Y006451D01*
X020551Y006450D02*
X018251Y006450D01*
X018251Y006449D02*
X020551Y006449D01*
X020551Y006448D02*
X018251Y006448D01*
X018251Y006447D02*
X020551Y006447D01*
X020551Y006446D02*
X018251Y006446D01*
X018251Y006445D02*
X020551Y006445D01*
X020551Y006444D02*
X018251Y006444D01*
X018251Y006443D02*
X020551Y006443D01*
X020551Y006442D02*
X018251Y006442D01*
X018251Y006441D02*
X020551Y006441D01*
X020551Y006440D02*
X018251Y006440D01*
X018251Y006439D02*
X020551Y006439D01*
X020551Y006438D02*
X018251Y006438D01*
X018251Y006437D02*
X020551Y006437D01*
X020551Y006436D02*
X018251Y006436D01*
X018251Y006435D02*
X020551Y006435D01*
X020551Y006434D02*
X018251Y006434D01*
X018251Y006433D02*
X020551Y006433D01*
X020551Y006432D02*
X018251Y006432D01*
X018251Y006431D02*
X020551Y006431D01*
X020551Y006430D02*
X018251Y006430D01*
X018251Y006429D02*
X020551Y006429D01*
X020551Y006428D02*
X018251Y006428D01*
X018251Y006427D02*
X020551Y006427D01*
X020551Y006426D02*
X018251Y006426D01*
X018251Y006425D02*
X020551Y006425D01*
X020551Y006424D02*
X018251Y006424D01*
X018251Y006423D02*
X020551Y006423D01*
X020551Y006422D02*
X018251Y006422D01*
X018251Y006421D02*
X020551Y006421D01*
X020551Y006420D02*
X018251Y006420D01*
X018251Y006419D02*
X020551Y006419D01*
X020551Y006418D02*
X018251Y006418D01*
X018251Y006417D02*
X020551Y006417D01*
X020551Y006416D02*
X018251Y006416D01*
X018251Y006415D02*
X020551Y006415D01*
X020551Y006414D02*
X018251Y006414D01*
X018251Y006413D02*
X020551Y006413D01*
X020551Y006412D02*
X018251Y006412D01*
X018251Y006411D02*
X020551Y006411D01*
X020551Y006410D02*
X018251Y006410D01*
X018251Y006409D02*
X020551Y006409D01*
X020551Y006408D02*
X018251Y006408D01*
X018251Y006407D02*
X020551Y006407D01*
X020551Y006406D02*
X018251Y006406D01*
X018251Y006405D02*
X020551Y006405D01*
X020551Y006404D02*
X018251Y006404D01*
X018251Y006403D02*
X020551Y006403D01*
X020551Y006402D02*
X018251Y006402D01*
X018251Y006401D02*
X020551Y006401D01*
X020551Y006400D02*
X018251Y006400D01*
X018251Y006399D02*
X020551Y006399D01*
X020551Y006398D02*
X018251Y006398D01*
X018251Y006397D02*
X020551Y006397D01*
X020551Y006396D02*
X018251Y006396D01*
X018251Y006395D02*
X020551Y006395D01*
X020551Y006394D02*
X018251Y006394D01*
X018251Y006393D02*
X020551Y006393D01*
X020551Y006392D02*
X018251Y006392D01*
X018251Y006391D02*
X020551Y006391D01*
X020551Y006390D02*
X018251Y006390D01*
X018251Y006389D02*
X020551Y006389D01*
X020551Y006388D02*
X018251Y006388D01*
X018251Y006387D02*
X020551Y006387D01*
X020551Y006386D02*
X018251Y006386D01*
X018251Y006385D02*
X020551Y006385D01*
X020551Y006384D02*
X018251Y006384D01*
X018251Y006383D02*
X020551Y006383D01*
X020551Y006382D02*
X018251Y006382D01*
X018251Y006381D02*
X020551Y006381D01*
X020551Y006380D02*
X018251Y006380D01*
X018251Y006379D02*
X020551Y006379D01*
X020551Y006378D02*
X018251Y006378D01*
X018251Y006377D02*
X020551Y006377D01*
X020551Y006376D02*
X018251Y006376D01*
X018251Y006375D02*
X020551Y006375D01*
X020551Y006374D02*
X018251Y006374D01*
X018251Y006373D02*
X020551Y006373D01*
X020551Y006372D02*
X018251Y006372D01*
X018251Y006371D02*
X020551Y006371D01*
X020551Y006370D02*
X018251Y006370D01*
X018251Y006369D02*
X020551Y006369D01*
X020551Y006368D02*
X018251Y006368D01*
X018251Y006367D02*
X020551Y006367D01*
X020551Y006366D02*
X018251Y006366D01*
X018251Y006365D02*
X020551Y006365D01*
X020551Y006364D02*
X018251Y006364D01*
X018251Y006363D02*
X020551Y006363D01*
X020551Y006362D02*
X018251Y006362D01*
X018251Y006361D02*
X020551Y006361D01*
X020551Y006360D02*
X018251Y006360D01*
X018251Y006359D02*
X020551Y006359D01*
X020551Y006358D02*
X018251Y006358D01*
X018251Y006357D02*
X020551Y006357D01*
X020551Y006356D02*
X018251Y006356D01*
X018251Y006355D02*
X020551Y006355D01*
X020551Y006354D02*
X018251Y006354D01*
X018251Y006353D02*
X020551Y006353D01*
X020551Y006352D02*
X018251Y006352D01*
X018251Y006351D02*
X020551Y006351D01*
X020551Y006350D02*
X018251Y006350D01*
X018251Y006349D02*
X020551Y006349D01*
X020551Y006348D02*
X018251Y006348D01*
X018251Y006347D02*
X020551Y006347D01*
X020551Y006346D02*
X018251Y006346D01*
X018251Y006345D02*
X020551Y006345D01*
X020551Y006344D02*
X018251Y006344D01*
X018251Y006343D02*
X020551Y006343D01*
X020551Y006342D02*
X018251Y006342D01*
X018251Y006341D02*
X020551Y006341D01*
X020551Y006340D02*
X018251Y006340D01*
X018251Y006339D02*
X020551Y006339D01*
X020551Y006338D02*
X018251Y006338D01*
X018251Y006337D02*
X020551Y006337D01*
X020551Y006336D02*
X018251Y006336D01*
X018251Y006335D02*
X020551Y006335D01*
X020551Y006334D02*
X018251Y006334D01*
X018251Y006333D02*
X020551Y006333D01*
X020551Y006332D02*
X018251Y006332D01*
X018251Y006331D02*
X020551Y006331D01*
X020551Y006330D02*
X018251Y006330D01*
X018251Y006329D02*
X020551Y006329D01*
X020551Y006328D02*
X018251Y006328D01*
X018251Y006327D02*
X020551Y006327D01*
X020551Y006326D02*
X018251Y006326D01*
X018251Y006325D02*
X020551Y006325D01*
X020551Y006324D02*
X018251Y006324D01*
X018251Y006323D02*
X020551Y006323D01*
X020551Y006322D02*
X018251Y006322D01*
X018251Y006321D02*
X020551Y006321D01*
X020551Y006320D02*
X018251Y006320D01*
X018251Y006319D02*
X020551Y006319D01*
X020551Y006318D02*
X018251Y006318D01*
X018251Y006317D02*
X020551Y006317D01*
X020551Y006316D02*
X018251Y006316D01*
X018251Y006315D02*
X020551Y006315D01*
X020551Y006314D02*
X018251Y006314D01*
X018251Y006313D02*
X020551Y006313D01*
X020551Y006312D02*
X018251Y006312D01*
X018251Y006311D02*
X020551Y006311D01*
X020551Y006310D02*
X018251Y006310D01*
X018251Y006309D02*
X020551Y006309D01*
X020551Y006308D02*
X018251Y006308D01*
X018251Y006307D02*
X020551Y006307D01*
X020551Y006306D02*
X018251Y006306D01*
X018251Y006305D02*
X020551Y006305D01*
X020551Y006304D02*
X018251Y006304D01*
X018251Y006303D02*
X020551Y006303D01*
X020551Y006302D02*
X018251Y006302D01*
X018251Y006301D02*
X020551Y006301D01*
X020551Y006300D02*
X018251Y006300D01*
X018251Y006299D02*
X020551Y006299D01*
X020551Y006298D02*
X018251Y006298D01*
X018251Y006297D02*
X020551Y006297D01*
X020551Y006296D02*
X018251Y006296D01*
X018251Y006295D02*
X020551Y006295D01*
X020551Y006294D02*
X018251Y006294D01*
X018251Y006293D02*
X020551Y006293D01*
X020551Y006292D02*
X018251Y006292D01*
X018251Y006291D02*
X020551Y006291D01*
X020551Y006290D02*
X018251Y006290D01*
X018251Y006289D02*
X020551Y006289D01*
X020551Y006288D02*
X018251Y006288D01*
X020551Y006288D01*
X020551Y006287D02*
X018251Y006287D01*
X018251Y006286D02*
X020551Y006286D01*
X020551Y006285D02*
X018251Y006285D01*
X018251Y006284D02*
X020551Y006284D01*
X020551Y006283D02*
X018251Y006283D01*
X018251Y006282D02*
X020551Y006282D01*
X020551Y006281D02*
X018251Y006281D01*
X018251Y006280D02*
X020551Y006280D01*
X020551Y006279D02*
X018251Y006279D01*
X018251Y006278D02*
X020551Y006278D01*
X020551Y006277D02*
X018251Y006277D01*
X018251Y006276D02*
X020551Y006276D01*
X020551Y006275D02*
X018251Y006275D01*
X018251Y006274D02*
X020551Y006274D01*
X020551Y006273D02*
X018251Y006273D01*
X018251Y006272D02*
X020551Y006272D01*
X020551Y006271D02*
X018251Y006271D01*
X018251Y006270D02*
X020551Y006270D01*
X020551Y006269D02*
X018251Y006269D01*
X018251Y006268D02*
X020551Y006268D01*
X020551Y006267D02*
X018251Y006267D01*
X018251Y006266D02*
X020551Y006266D01*
X020551Y006265D02*
X018251Y006265D01*
X018251Y006264D02*
X020551Y006264D01*
X020551Y006263D02*
X018251Y006263D01*
X018251Y006262D02*
X020551Y006262D01*
X020551Y006261D02*
X018251Y006261D01*
X018251Y006260D02*
X020551Y006260D01*
X020551Y006259D02*
X018251Y006259D01*
X018251Y006258D02*
X020551Y006258D01*
X020551Y006257D02*
X018251Y006257D01*
X018251Y006256D02*
X020551Y006256D01*
X020551Y006255D02*
X018251Y006255D01*
X018251Y006254D02*
X020551Y006254D01*
X020551Y006253D02*
X018251Y006253D01*
X018251Y006252D02*
X020551Y006252D01*
X020551Y006251D02*
X018251Y006251D01*
X018251Y006250D02*
X020551Y006250D01*
X020551Y006249D02*
X018251Y006249D01*
X018251Y006248D02*
X020551Y006248D01*
X020551Y006247D02*
X018251Y006247D01*
X018251Y006246D02*
X020551Y006246D01*
X020551Y006245D02*
X018251Y006245D01*
X018251Y006244D02*
X020551Y006244D01*
X020551Y006243D02*
X018251Y006243D01*
X018251Y006242D02*
X020551Y006242D01*
X020551Y006241D02*
X018251Y006241D01*
X018251Y006240D02*
X020551Y006240D01*
X020551Y006239D02*
X018251Y006239D01*
X018251Y006238D02*
X020551Y006238D01*
X020551Y006237D02*
X018251Y006237D01*
X018251Y006236D02*
X020551Y006236D01*
X020551Y006235D02*
X018251Y006235D01*
X018251Y006234D02*
X020551Y006234D01*
X020551Y006233D02*
X018251Y006233D01*
X018251Y006232D02*
X020551Y006232D01*
X020551Y006231D02*
X018251Y006231D01*
X018251Y006230D02*
X020551Y006230D01*
X020551Y006229D02*
X018251Y006229D01*
X018251Y006228D02*
X020551Y006228D01*
X020551Y006227D02*
X018251Y006227D01*
X018251Y006226D02*
X020551Y006226D01*
X020551Y006225D02*
X018251Y006225D01*
X018251Y006224D02*
X020551Y006224D01*
X020551Y006223D02*
X018251Y006223D01*
X018251Y006222D02*
X020551Y006222D01*
X020551Y006221D02*
X018251Y006221D01*
X018251Y006220D02*
X020551Y006220D01*
X020551Y006219D02*
X018251Y006219D01*
X018251Y006218D02*
X020551Y006218D01*
X020551Y006217D02*
X018251Y006217D01*
X018251Y006216D02*
X020551Y006216D01*
X020551Y006215D02*
X018251Y006215D01*
X018251Y006214D02*
X020551Y006214D01*
X020551Y006213D02*
X018251Y006213D01*
X018251Y006212D02*
X020551Y006212D01*
X020551Y006211D02*
X018251Y006211D01*
X018251Y006210D02*
X020551Y006210D01*
X020551Y006209D02*
X018251Y006209D01*
X018251Y006208D02*
X020551Y006208D01*
X020551Y006207D02*
X018251Y006207D01*
X018251Y006206D02*
X020551Y006206D01*
X020551Y006205D02*
X018251Y006205D01*
X018251Y006204D02*
X020551Y006204D01*
X020551Y006203D02*
X018251Y006203D01*
X018251Y006202D02*
X020551Y006202D01*
X020551Y006201D02*
X018251Y006201D01*
X014351Y006500D02*
X011951Y006500D01*
X011951Y006501D02*
X014351Y006501D01*
X014351Y006502D02*
X011951Y006502D01*
X011951Y006503D02*
X014351Y006503D01*
X014351Y006504D02*
X011951Y006504D01*
X011951Y006505D02*
X014351Y006505D01*
X014351Y006506D02*
X011951Y006506D01*
X011951Y006507D02*
X014351Y006507D01*
X014351Y006508D02*
X011951Y006508D01*
X011951Y006509D02*
X014351Y006509D01*
X014351Y006510D02*
X011951Y006510D01*
X011951Y006511D02*
X014351Y006511D01*
X014351Y006512D02*
X011951Y006512D01*
X011951Y006513D02*
X014351Y006513D01*
X014351Y006514D02*
X011951Y006514D01*
X011951Y006515D02*
X014351Y006515D01*
X014351Y006516D02*
X011951Y006516D01*
X011951Y006517D02*
X014351Y006517D01*
X014351Y006518D02*
X011951Y006518D01*
X011951Y006519D02*
X014351Y006519D01*
X014351Y006520D02*
X011951Y006520D01*
X011951Y006521D02*
X014351Y006521D01*
X014351Y006522D02*
X011951Y006522D01*
X011951Y006523D02*
X014351Y006523D01*
X014351Y006524D02*
X011951Y006524D01*
X011951Y006525D02*
X014351Y006525D01*
X014351Y006526D02*
X011951Y006526D01*
X011951Y006527D02*
X014351Y006527D01*
X014351Y006528D02*
X011951Y006528D01*
X011951Y006529D02*
X014351Y006529D01*
X014351Y006530D02*
X011951Y006530D01*
X011951Y006531D02*
X014351Y006531D01*
X014351Y006532D02*
X011951Y006532D01*
X011951Y006533D02*
X014351Y006533D01*
X014351Y006534D02*
X011951Y006534D01*
X011951Y006535D02*
X014351Y006535D01*
X014351Y006536D02*
X011951Y006536D01*
X011951Y006537D02*
X014351Y006537D01*
X014351Y006538D02*
X011951Y006538D01*
X011951Y006539D02*
X014351Y006539D01*
X014351Y006540D02*
X011951Y006540D01*
X011951Y006541D02*
X014351Y006541D01*
X014351Y006542D02*
X011951Y006542D01*
X011951Y006543D02*
X014351Y006543D01*
X014351Y006544D02*
X011951Y006544D01*
X011951Y006545D02*
X014351Y006545D01*
X014351Y006546D02*
X011951Y006546D01*
X011951Y006547D02*
X014351Y006547D01*
X014351Y006548D02*
X011951Y006548D01*
X011951Y006549D02*
X014351Y006549D01*
X014351Y006550D02*
X011951Y006550D01*
X011951Y006551D02*
X014351Y006551D01*
X014351Y006552D02*
X011951Y006552D01*
X011951Y006553D02*
X014351Y006553D01*
X014351Y006554D02*
X011951Y006554D01*
X011951Y006555D02*
X014351Y006555D01*
X014351Y006556D02*
X011951Y006556D01*
X011951Y006557D02*
X014351Y006557D01*
X014351Y006558D02*
X011951Y006558D01*
X011951Y006559D02*
X014351Y006559D01*
X014351Y006560D02*
X011951Y006560D01*
X011951Y006561D02*
X014351Y006561D01*
X014351Y006562D02*
X011951Y006562D01*
X011951Y006563D02*
X014351Y006563D01*
X014351Y006564D02*
X011951Y006564D01*
X011951Y006565D02*
X014351Y006565D01*
X014351Y006566D02*
X011951Y006566D01*
X011951Y006567D02*
X014351Y006567D01*
X014351Y006568D02*
X011951Y006568D01*
X011951Y006569D02*
X014351Y006569D01*
X014351Y006570D02*
X011951Y006570D01*
X011951Y006571D02*
X014351Y006571D01*
X014351Y006572D02*
X011951Y006572D01*
X011951Y006573D02*
X014351Y006573D01*
X014351Y006574D02*
X011951Y006574D01*
X011951Y006575D02*
X014351Y006575D01*
X014351Y006576D02*
X011951Y006576D01*
X011951Y006577D02*
X014351Y006577D01*
X014351Y006578D02*
X011951Y006578D01*
X011951Y006579D02*
X014351Y006579D01*
X014351Y006580D02*
X011951Y006580D01*
X011951Y006581D02*
X014351Y006581D01*
X014351Y006582D02*
X011951Y006582D01*
X011951Y006583D02*
X014351Y006583D01*
X014351Y006584D02*
X011951Y006584D01*
X011951Y006585D02*
X014351Y006585D01*
X014351Y006586D02*
X011951Y006586D01*
X011951Y006587D02*
X014351Y006587D01*
X014351Y006588D02*
X011951Y006588D01*
X011951Y006589D02*
X014351Y006589D01*
X014351Y006590D02*
X011951Y006590D01*
X011951Y006591D02*
X014351Y006591D01*
X014351Y006592D02*
X011951Y006592D01*
X011951Y006593D02*
X014351Y006593D01*
X014351Y006594D02*
X011951Y006594D01*
X011951Y006595D02*
X014351Y006595D01*
X014351Y006596D02*
X011951Y006596D01*
X011951Y006597D02*
X014351Y006597D01*
X014351Y006598D02*
X011951Y006598D01*
X011951Y006599D02*
X014351Y006599D01*
X014351Y006600D02*
X011951Y006600D01*
X011951Y006601D02*
X014351Y006601D01*
X014351Y006602D02*
X011951Y006602D01*
X011951Y006603D02*
X014351Y006603D01*
X014351Y006604D02*
X011951Y006604D01*
X011951Y006605D02*
X014351Y006605D01*
X014351Y006606D02*
X011951Y006606D01*
X011951Y006607D02*
X014351Y006607D01*
X014351Y006608D02*
X011951Y006608D01*
X011951Y006609D02*
X014351Y006609D01*
X014351Y006610D02*
X011951Y006610D01*
X011951Y006611D02*
X014351Y006611D01*
X014351Y006612D02*
X011951Y006612D01*
X011951Y006613D02*
X014351Y006613D01*
X014351Y006614D02*
X011951Y006614D01*
X011951Y006615D02*
X014351Y006615D01*
X014351Y006616D02*
X011951Y006616D01*
X011951Y006617D02*
X014351Y006617D01*
X014351Y006618D02*
X011951Y006618D01*
X011951Y006619D02*
X014351Y006619D01*
X014351Y006620D02*
X011951Y006620D01*
X011951Y006621D02*
X014351Y006621D01*
X014351Y006622D02*
X011951Y006622D01*
X011951Y006623D02*
X014351Y006623D01*
X014351Y006624D02*
X011951Y006624D01*
X011951Y006625D02*
X014351Y006625D01*
X014351Y006626D02*
X011951Y006626D01*
X011951Y006627D02*
X014351Y006627D01*
X014351Y006628D02*
X011951Y006628D01*
X011951Y006629D02*
X014351Y006629D01*
X014351Y006630D02*
X011951Y006630D01*
X011951Y006631D02*
X014351Y006631D01*
X014351Y006632D02*
X011951Y006632D01*
X011951Y006633D02*
X014351Y006633D01*
X014351Y006634D02*
X011951Y006634D01*
X011951Y006635D02*
X014351Y006635D01*
X014351Y006636D02*
X011951Y006636D01*
X011951Y006637D02*
X014351Y006637D01*
X014351Y006638D02*
X011951Y006638D01*
X011951Y006639D02*
X014351Y006639D01*
X014351Y006640D02*
X011951Y006640D01*
X011951Y006641D02*
X014351Y006641D01*
X014351Y006642D02*
X011951Y006642D01*
X011951Y006643D02*
X014351Y006643D01*
X014351Y006644D02*
X011951Y006644D01*
X011951Y006645D02*
X014351Y006645D01*
X014351Y006646D02*
X011951Y006646D01*
X011951Y006647D02*
X014351Y006647D01*
X014351Y006648D02*
X011951Y006648D01*
X011951Y006649D02*
X014351Y006649D01*
X014351Y006650D02*
X011951Y006650D01*
X011951Y006651D02*
X014351Y006651D01*
X014351Y006652D02*
X011951Y006652D01*
X011951Y006653D02*
X014351Y006653D01*
X014351Y006654D02*
X011951Y006654D01*
X011951Y006655D02*
X014351Y006655D01*
X014351Y006656D02*
X011951Y006656D01*
X011951Y006657D02*
X014351Y006657D01*
X014351Y006658D02*
X011951Y006658D01*
X011951Y006659D02*
X014351Y006659D01*
X014351Y006660D02*
X011951Y006660D01*
X011951Y006661D02*
X014351Y006661D01*
X014351Y006662D02*
X011951Y006662D01*
X011951Y006663D02*
X014351Y006663D01*
X014351Y006664D02*
X011951Y006664D01*
X011951Y006665D02*
X014351Y006665D01*
X014351Y006666D02*
X011951Y006666D01*
X011951Y006667D02*
X014351Y006667D01*
X014351Y006668D02*
X011951Y006668D01*
X011951Y006669D02*
X014351Y006669D01*
X014351Y006670D02*
X011951Y006670D01*
X011951Y006671D02*
X014351Y006671D01*
X014351Y006672D02*
X011951Y006672D01*
X011951Y006673D02*
X014351Y006673D01*
X014351Y006674D02*
X011951Y006674D01*
X011951Y006675D02*
X014351Y006675D01*
X014351Y006676D02*
X011951Y006676D01*
X011951Y006677D02*
X014351Y006677D01*
X014351Y006678D02*
X011951Y006678D01*
X011951Y006679D02*
X014351Y006679D01*
X014351Y006680D02*
X011951Y006680D01*
X011951Y006681D02*
X014351Y006681D01*
X014351Y006682D02*
X011951Y006682D01*
X011951Y006683D02*
X014351Y006683D01*
X014351Y006684D02*
X011951Y006684D01*
X011951Y006685D02*
X014351Y006685D01*
X014351Y006686D02*
X011951Y006686D01*
X011951Y006687D02*
X014351Y006687D01*
X014351Y006688D02*
X011951Y006688D01*
X011951Y006689D02*
X014351Y006689D01*
X014351Y006690D02*
X011951Y006690D01*
X011951Y006691D02*
X014351Y006691D01*
X014351Y006692D02*
X011951Y006692D01*
X011951Y006693D02*
X014351Y006693D01*
X014351Y006694D02*
X011951Y006694D01*
X011951Y006695D02*
X014351Y006695D01*
X014351Y006696D02*
X011951Y006696D01*
X011951Y006697D02*
X014351Y006697D01*
X014351Y006698D02*
X011951Y006698D01*
X011951Y006699D02*
X014351Y006699D01*
X014351Y006700D02*
X011951Y006700D01*
X011951Y006701D02*
X014351Y006701D01*
X014351Y006702D02*
X011951Y006702D01*
X011951Y006703D02*
X014351Y006703D01*
X014351Y006704D02*
X011951Y006704D01*
X011951Y006705D02*
X014351Y006705D01*
X014351Y006706D02*
X011951Y006706D01*
X011951Y006707D02*
X014351Y006707D01*
X014351Y006708D02*
X011951Y006708D01*
X011951Y006709D02*
X014351Y006709D01*
X014351Y006710D02*
X011951Y006710D01*
X011951Y006711D02*
X014351Y006711D01*
X014351Y006712D02*
X011951Y006712D01*
X011951Y006713D02*
X014351Y006713D01*
X014351Y006714D02*
X011951Y006714D01*
X011951Y006715D02*
X014351Y006715D01*
X014351Y006716D02*
X011951Y006716D01*
X011951Y006717D02*
X014351Y006717D01*
X014351Y006718D02*
X011951Y006718D01*
X011951Y006719D02*
X014351Y006719D01*
X014351Y006720D02*
X011951Y006720D01*
X011951Y006721D02*
X014351Y006721D01*
X014351Y006722D02*
X011951Y006722D01*
X011951Y006723D02*
X014351Y006723D01*
X014351Y006724D02*
X011951Y006724D01*
X011951Y006725D02*
X014351Y006725D01*
X014351Y006726D02*
X011951Y006726D01*
X011951Y006727D02*
X014351Y006727D01*
X014351Y006728D02*
X011951Y006728D01*
X011951Y006729D02*
X014351Y006729D01*
X014351Y006730D02*
X011951Y006730D01*
X011951Y006731D02*
X014351Y006731D01*
X014351Y006732D02*
X011951Y006732D01*
X011951Y006733D02*
X014351Y006733D01*
X014351Y006734D02*
X011951Y006734D01*
X011951Y006735D02*
X014351Y006735D01*
X014351Y006736D02*
X011951Y006736D01*
X011951Y006737D02*
X014351Y006737D01*
X014351Y006738D02*
X011951Y006738D01*
X011951Y006739D02*
X014351Y006739D01*
X014351Y006740D02*
X011951Y006740D01*
X011951Y006741D02*
X014351Y006741D01*
X014351Y006742D02*
X011951Y006742D01*
X011951Y006743D02*
X014351Y006743D01*
X014351Y006744D02*
X011951Y006744D01*
X011951Y006745D02*
X014351Y006745D01*
X014351Y006746D02*
X011951Y006746D01*
X011951Y006747D02*
X014351Y006747D01*
X014351Y006748D02*
X011951Y006748D01*
X011951Y006749D02*
X014351Y006749D01*
X014351Y006750D02*
X011951Y006750D01*
X011951Y006751D02*
X014351Y006751D01*
X014351Y006752D02*
X011951Y006752D01*
X011951Y006753D02*
X014351Y006753D01*
X014351Y006754D02*
X011951Y006754D01*
X011951Y006755D02*
X014351Y006755D01*
X014351Y006756D02*
X011951Y006756D01*
X011951Y006757D02*
X014351Y006757D01*
X014351Y006758D02*
X011951Y006758D01*
X011951Y006759D02*
X014351Y006759D01*
X014351Y006760D02*
X011951Y006760D01*
X011951Y006761D02*
X014351Y006761D01*
X014351Y006762D02*
X011951Y006762D01*
X011951Y006763D02*
X014351Y006763D01*
X014351Y006764D02*
X011951Y006764D01*
X011951Y006765D02*
X014351Y006765D01*
X014351Y006766D02*
X011951Y006766D01*
X011951Y006767D02*
X014351Y006767D01*
X014351Y006768D02*
X011951Y006768D01*
X011951Y006769D02*
X014351Y006769D01*
X014351Y006770D02*
X011951Y006770D01*
X011951Y006771D02*
X014351Y006771D01*
X014351Y006772D02*
X011951Y006772D01*
X011951Y006773D02*
X014351Y006773D01*
X014351Y006774D02*
X011951Y006774D01*
X011951Y006775D02*
X014351Y006775D01*
X014351Y006776D02*
X011951Y006776D01*
X011951Y006777D02*
X014351Y006777D01*
X014351Y006778D02*
X011951Y006778D01*
X011951Y006779D02*
X014351Y006779D01*
X014351Y006780D02*
X011951Y006780D01*
X011951Y006781D02*
X014351Y006781D01*
X014351Y006782D02*
X011951Y006782D01*
X011951Y006783D02*
X014351Y006783D01*
X014351Y006784D02*
X011951Y006784D01*
X011951Y006785D02*
X014351Y006785D01*
X014351Y006786D02*
X011951Y006786D01*
X011951Y006787D02*
X014351Y006787D01*
X014351Y006788D02*
X011951Y006788D01*
X011951Y006789D02*
X014351Y006789D01*
X014351Y006790D02*
X011951Y006790D01*
X011951Y006791D02*
X014351Y006791D01*
X014351Y006792D02*
X011951Y006792D01*
X011951Y006793D02*
X014351Y006793D01*
X014351Y006794D02*
X011951Y006794D01*
X011951Y006795D02*
X014351Y006795D01*
X014351Y006796D02*
X011951Y006796D01*
X011951Y006797D02*
X014351Y006797D01*
X014351Y006798D02*
X011951Y006798D01*
X011951Y006799D02*
X014351Y006799D01*
X014351Y006800D02*
X011951Y006800D01*
X011951Y006801D02*
X014351Y006801D01*
X014351Y006802D02*
X011951Y006802D01*
X011951Y006803D02*
X014351Y006803D01*
X014351Y006804D02*
X011951Y006804D01*
X011951Y006805D02*
X014351Y006805D01*
X014351Y006806D02*
X011951Y006806D01*
X011951Y006807D02*
X014351Y006807D01*
X014351Y006808D02*
X011951Y006808D01*
X011951Y006809D02*
X014351Y006809D01*
X014351Y006810D02*
X011951Y006810D01*
X011951Y006811D02*
X014351Y006811D01*
X014351Y006812D02*
X011951Y006812D01*
X011951Y006813D02*
X014351Y006813D01*
X014351Y006814D02*
X011951Y006814D01*
X011951Y006815D02*
X014351Y006815D01*
X014351Y006816D02*
X011951Y006816D01*
X011951Y006817D02*
X014351Y006817D01*
X014351Y006818D02*
X011951Y006818D01*
X011951Y006819D02*
X014351Y006819D01*
X014351Y006820D02*
X011951Y006820D01*
X011951Y006821D02*
X014351Y006821D01*
X014351Y006822D02*
X011951Y006822D01*
X011951Y006823D02*
X014351Y006823D01*
X014351Y006824D02*
X011951Y006824D01*
X011951Y006825D02*
X014351Y006825D01*
X014351Y006826D02*
X011951Y006826D01*
X011951Y006827D02*
X014351Y006827D01*
X014351Y006828D02*
X011951Y006828D01*
X011951Y006829D02*
X014351Y006829D01*
X014351Y006830D02*
X011951Y006830D01*
X011951Y006831D02*
X014351Y006831D01*
X014351Y006832D02*
X011951Y006832D01*
X011951Y006833D02*
X014351Y006833D01*
X014351Y006834D02*
X011951Y006834D01*
X011951Y006835D02*
X014351Y006835D01*
X014351Y006836D02*
X011951Y006836D01*
X011951Y006837D02*
X014351Y006837D01*
X014351Y006838D02*
X011951Y006838D01*
X011951Y006839D02*
X014351Y006839D01*
X014351Y006840D02*
X011951Y006840D01*
X011951Y006841D02*
X014351Y006841D01*
X014351Y006842D02*
X011951Y006842D01*
X011951Y006843D02*
X014351Y006843D01*
X014351Y006844D02*
X011951Y006844D01*
X011951Y006845D02*
X014351Y006845D01*
X014351Y006846D02*
X011951Y006846D01*
X011951Y006847D02*
X014351Y006847D01*
X014351Y006848D02*
X011951Y006848D01*
X011951Y006849D02*
X014351Y006849D01*
X014351Y006850D02*
X011951Y006850D01*
X011951Y006851D02*
X014351Y006851D01*
X014351Y006852D02*
X011951Y006852D01*
X011951Y006853D02*
X014351Y006853D01*
X014351Y006854D02*
X011951Y006854D01*
X011951Y006855D02*
X014351Y006855D01*
X014351Y006856D02*
X011951Y006856D01*
X011951Y006857D02*
X014351Y006857D01*
X014351Y006858D02*
X011951Y006858D01*
X011951Y006859D02*
X014351Y006859D01*
X014351Y006860D02*
X011951Y006860D01*
X011951Y006861D02*
X014351Y006861D01*
X014351Y006862D02*
X011951Y006862D01*
X011951Y006863D02*
X014351Y006863D01*
X014351Y006864D02*
X011951Y006864D01*
X011951Y006865D02*
X014351Y006865D01*
X014351Y006866D02*
X011951Y006866D01*
X011951Y006867D02*
X014351Y006867D01*
X014351Y006868D02*
X011951Y006868D01*
X011951Y006869D02*
X014351Y006869D01*
X014351Y006870D02*
X011951Y006870D01*
X011951Y006871D02*
X014351Y006871D01*
X014351Y006872D02*
X011951Y006872D01*
X011951Y006873D02*
X014351Y006873D01*
X014351Y006874D02*
X011951Y006874D01*
X011951Y006875D02*
X014351Y006875D01*
X014351Y006876D02*
X011951Y006876D01*
X011951Y006877D02*
X014351Y006877D01*
X014351Y006878D02*
X011951Y006878D01*
X011951Y006879D02*
X014351Y006879D01*
X014351Y006880D02*
X011951Y006880D01*
X011951Y006881D02*
X014351Y006881D01*
X014351Y006882D02*
X011951Y006882D01*
X011951Y006883D02*
X014351Y006883D01*
X014351Y006884D02*
X011951Y006884D01*
X011951Y006885D02*
X014351Y006885D01*
X014351Y006886D02*
X011951Y006886D01*
X011951Y006887D02*
X014351Y006887D01*
X014351Y006888D02*
X011951Y006888D01*
X011951Y006889D02*
X014351Y006889D01*
X014351Y006890D02*
X011951Y006890D01*
X011951Y006891D02*
X014351Y006891D01*
X014351Y006892D02*
X011951Y006892D01*
X011951Y006893D02*
X014351Y006893D01*
X014351Y006894D02*
X011951Y006894D01*
X011951Y006895D02*
X014351Y006895D01*
X014351Y006896D02*
X011951Y006896D01*
X011951Y006897D02*
X014351Y006897D01*
X014351Y006898D02*
X011951Y006898D01*
X011951Y006899D02*
X014351Y006899D01*
X014351Y006900D02*
X011951Y006900D01*
X011951Y006901D02*
X014351Y006901D01*
X014351Y006902D02*
X011951Y006902D01*
X011951Y006903D02*
X014351Y006903D01*
X014351Y006904D02*
X011951Y006904D01*
X011951Y006905D02*
X014351Y006905D01*
X014351Y006906D02*
X011951Y006906D01*
X011951Y006907D02*
X014351Y006907D01*
X014351Y006908D02*
X011951Y006908D01*
X011951Y006909D02*
X014351Y006909D01*
X014351Y006910D02*
X011951Y006910D01*
X011951Y006911D02*
X014351Y006911D01*
X014351Y006912D02*
X011951Y006912D01*
X011951Y006913D02*
X014351Y006913D01*
X014351Y006914D02*
X011951Y006914D01*
X011951Y006915D02*
X014351Y006915D01*
X014351Y006916D02*
X011951Y006916D01*
X011951Y006917D02*
X014351Y006917D01*
X014351Y006918D02*
X011951Y006918D01*
X011951Y006919D02*
X014351Y006919D01*
X014351Y006920D02*
X011951Y006920D01*
X011951Y006921D02*
X014351Y006921D01*
X014351Y006922D02*
X011951Y006922D01*
X011951Y006923D02*
X014351Y006923D01*
X014351Y006924D02*
X011951Y006924D01*
X011951Y006925D02*
X014351Y006925D01*
X014351Y006926D02*
X011951Y006926D01*
X011951Y006927D02*
X014351Y006927D01*
X014351Y006928D02*
X011951Y006928D01*
X011951Y006929D02*
X014351Y006929D01*
X014351Y006930D02*
X011951Y006930D01*
X011951Y006931D02*
X014351Y006931D01*
X014351Y006932D02*
X011951Y006932D01*
X011951Y006933D02*
X014351Y006933D01*
X014351Y006934D02*
X011951Y006934D01*
X011951Y006935D02*
X014351Y006935D01*
X014351Y006936D02*
X011951Y006936D01*
X011951Y006937D02*
X014351Y006937D01*
X014351Y006938D02*
X011951Y006938D01*
X011951Y006939D02*
X014351Y006939D01*
X014351Y006940D02*
X011951Y006940D01*
X011951Y006941D02*
X014351Y006941D01*
X014351Y006942D02*
X011951Y006942D01*
X011951Y006943D02*
X014351Y006943D01*
X014351Y006944D02*
X011951Y006944D01*
X011951Y006945D02*
X014351Y006945D01*
X014351Y006946D02*
X011951Y006946D01*
X011951Y006947D02*
X014351Y006947D01*
X014351Y006948D02*
X011951Y006948D01*
X011951Y006949D02*
X014351Y006949D01*
X014351Y006950D02*
X011951Y006950D01*
X011951Y006951D02*
X014351Y006951D01*
X014351Y006952D02*
X011951Y006952D01*
X011951Y006953D02*
X014351Y006953D01*
X014351Y006954D02*
X011951Y006954D01*
X011951Y006955D02*
X014351Y006955D01*
X014351Y006956D02*
X011951Y006956D01*
X011951Y006957D02*
X014351Y006957D01*
X014351Y006958D02*
X011951Y006958D01*
X011951Y006959D02*
X014351Y006959D01*
X014351Y006960D02*
X011951Y006960D01*
X011951Y006961D02*
X014351Y006961D01*
X014351Y006962D02*
X011951Y006962D01*
X011951Y006963D02*
X014351Y006963D01*
X014351Y006964D02*
X011951Y006964D01*
X011951Y006965D02*
X014351Y006965D01*
X014351Y006966D02*
X011951Y006966D01*
X011951Y006967D02*
X014351Y006967D01*
X014351Y006968D02*
X011951Y006968D01*
X011951Y006969D02*
X014351Y006969D01*
X014351Y006970D02*
X011951Y006970D01*
X011951Y006971D02*
X014351Y006971D01*
X014351Y006972D02*
X011951Y006972D01*
X011951Y006973D02*
X014351Y006973D01*
X014351Y006974D02*
X011951Y006974D01*
X011951Y006975D02*
X014351Y006975D01*
X014351Y006976D02*
X011951Y006976D01*
X011951Y006977D02*
X014351Y006977D01*
X014351Y006978D02*
X011951Y006978D01*
X011951Y006979D02*
X014351Y006979D01*
X014351Y006980D02*
X011951Y006980D01*
X011951Y006981D02*
X014351Y006981D01*
X014351Y006982D02*
X011951Y006982D01*
X011951Y006983D02*
X014351Y006983D01*
X014351Y006984D02*
X011951Y006984D01*
X011951Y006985D02*
X014351Y006985D01*
X014351Y006986D02*
X011951Y006986D01*
X011951Y006987D02*
X014351Y006987D01*
X014351Y006988D02*
X011951Y006988D01*
X011951Y006989D02*
X014351Y006989D01*
X014351Y006990D02*
X011951Y006990D01*
X011951Y006991D02*
X014351Y006991D01*
X014351Y006992D02*
X011951Y006992D01*
X011951Y006993D02*
X014351Y006993D01*
X014351Y006994D02*
X011951Y006994D01*
X011951Y006995D02*
X014351Y006995D01*
X014351Y006996D02*
X011951Y006996D01*
X011951Y006997D02*
X014351Y006997D01*
X014351Y006998D02*
X011951Y006998D01*
X011951Y006999D02*
X014351Y006999D01*
X014351Y007000D02*
X011951Y007000D01*
X011951Y007001D02*
X014351Y007001D01*
X014351Y007002D02*
X011951Y007002D01*
X011951Y007003D02*
X014351Y007003D01*
X014351Y007004D02*
X011951Y007004D01*
X011951Y007005D02*
X014351Y007005D01*
X014351Y007006D02*
X011951Y007006D01*
X011951Y007007D02*
X014351Y007007D01*
X014351Y007008D02*
X011951Y007008D01*
X011951Y007009D02*
X014351Y007009D01*
X014351Y007010D02*
X011951Y007010D01*
X011951Y007011D02*
X014351Y007011D01*
X014351Y007012D02*
X011951Y007012D01*
X011951Y007013D02*
X014351Y007013D01*
X014351Y007014D02*
X011951Y007014D01*
X011951Y007015D02*
X014351Y007015D01*
X014351Y007016D02*
X011951Y007016D01*
X011951Y007017D02*
X014351Y007017D01*
X014351Y007018D02*
X011951Y007018D01*
X011951Y007019D02*
X014351Y007019D01*
X014351Y007020D02*
X011951Y007020D01*
X011951Y007021D02*
X014351Y007021D01*
X014351Y007022D02*
X011951Y007022D01*
X011951Y007023D02*
X014351Y007023D01*
X014351Y007024D02*
X011951Y007024D01*
X011951Y007025D02*
X014351Y007025D01*
X014351Y007026D02*
X011951Y007026D01*
X011951Y007027D02*
X014351Y007027D01*
X014351Y007028D02*
X011951Y007028D01*
X011951Y007029D02*
X014351Y007029D01*
X014351Y007030D02*
X011951Y007030D01*
X011951Y007031D02*
X014351Y007031D01*
X014351Y007032D02*
X011951Y007032D01*
X011951Y007033D02*
X014351Y007033D01*
X014351Y007034D02*
X011951Y007034D01*
X011951Y007035D02*
X014351Y007035D01*
X014351Y007036D02*
X011951Y007036D01*
X011951Y007037D02*
X014351Y007037D01*
X014351Y007038D02*
X011951Y007038D01*
X011951Y007039D02*
X014351Y007039D01*
X014351Y007040D02*
X011951Y007040D01*
X011951Y007041D02*
X014351Y007041D01*
X014351Y007042D02*
X011951Y007042D01*
X011951Y007043D02*
X014351Y007043D01*
X014351Y007044D02*
X011951Y007044D01*
X011951Y007045D02*
X014351Y007045D01*
X014351Y007046D02*
X011951Y007046D01*
X011951Y007047D02*
X014351Y007047D01*
X014351Y007048D02*
X011951Y007048D01*
X011951Y007049D02*
X014351Y007049D01*
X014351Y007050D02*
X011951Y007050D01*
X011951Y007051D02*
X014351Y007051D01*
X014351Y007052D02*
X011951Y007052D01*
X011951Y007053D02*
X014351Y007053D01*
X014351Y007054D02*
X011951Y007054D01*
X011951Y007055D02*
X014351Y007055D01*
X014351Y007056D02*
X011951Y007056D01*
X011951Y007057D02*
X014351Y007057D01*
X014351Y007058D02*
X011951Y007058D01*
X011951Y007059D02*
X014351Y007059D01*
X014351Y007060D02*
X011951Y007060D01*
X011951Y007061D02*
X014351Y007061D01*
X014351Y007062D02*
X011951Y007062D01*
X011951Y007063D02*
X014351Y007063D01*
X014351Y007064D02*
X011951Y007064D01*
X011951Y007065D02*
X014351Y007065D01*
X014351Y007066D02*
X011951Y007066D01*
X011951Y007067D02*
X014351Y007067D01*
X014351Y007068D02*
X011951Y007068D01*
X011951Y007069D02*
X014351Y007069D01*
X014351Y007070D02*
X011951Y007070D01*
X011951Y007071D02*
X014351Y007071D01*
X014351Y007072D02*
X011951Y007072D01*
X011951Y007073D02*
X014351Y007073D01*
X014351Y007074D02*
X011951Y007074D01*
X011951Y007075D02*
X014351Y007075D01*
X014351Y007076D02*
X011951Y007076D01*
X011951Y007077D02*
X014351Y007077D01*
X014351Y007078D02*
X011951Y007078D01*
X011951Y007079D02*
X014351Y007079D01*
X014351Y007080D02*
X011951Y007080D01*
X011951Y007081D02*
X014351Y007081D01*
X014351Y007082D02*
X011951Y007082D01*
X011951Y007083D02*
X014351Y007083D01*
X014351Y007084D02*
X011951Y007084D01*
X011951Y007085D02*
X014351Y007085D01*
X014351Y007086D02*
X011951Y007086D01*
X011951Y007087D02*
X014351Y007087D01*
X014351Y007088D02*
X011951Y007088D01*
X011951Y007089D02*
X014351Y007089D01*
X014351Y007090D02*
X011951Y007090D01*
X011951Y007091D02*
X014351Y007091D01*
X014351Y007092D02*
X011951Y007092D01*
X011951Y007093D02*
X014351Y007093D01*
X014351Y007094D02*
X011951Y007094D01*
X011951Y007095D02*
X014351Y007095D01*
X014351Y007096D02*
X011951Y007096D01*
X011951Y007097D02*
X014351Y007097D01*
X014351Y007098D02*
X011951Y007098D01*
X011951Y007099D02*
X014351Y007099D01*
X014351Y007100D02*
X011951Y007100D01*
X011951Y007101D02*
X014351Y007101D01*
X014351Y007102D02*
X011951Y007102D01*
X011951Y007103D02*
X014351Y007103D01*
X014351Y007104D02*
X011951Y007104D01*
X011951Y007105D02*
X014351Y007105D01*
X014351Y007106D02*
X011951Y007106D01*
X011951Y007107D02*
X014351Y007107D01*
X014351Y007108D02*
X011951Y007108D01*
X011951Y007109D02*
X014351Y007109D01*
X014351Y007110D02*
X011951Y007110D01*
X011951Y007111D02*
X014351Y007111D01*
X014351Y007112D02*
X011951Y007112D01*
X011951Y007113D02*
X014351Y007113D01*
X014351Y007114D02*
X011951Y007114D01*
X011951Y007115D02*
X014351Y007115D01*
X014351Y007116D02*
X011951Y007116D01*
X011951Y007117D02*
X014351Y007117D01*
X014351Y007118D02*
X011951Y007118D01*
X011951Y007119D02*
X014351Y007119D01*
X014351Y007120D02*
X011951Y007120D01*
X011951Y007121D02*
X014351Y007121D01*
X014351Y007122D02*
X011951Y007122D01*
X011951Y007123D02*
X014351Y007123D01*
X014351Y007124D02*
X011951Y007124D01*
X011951Y007125D02*
X014351Y007125D01*
X014351Y007126D02*
X011951Y007126D01*
X011951Y007127D02*
X014351Y007127D01*
X014351Y007128D02*
X011951Y007128D01*
X011951Y007129D02*
X014351Y007129D01*
X014351Y007130D02*
X011951Y007130D01*
X011951Y007131D02*
X014351Y007131D01*
X014351Y007132D02*
X011951Y007132D01*
X011951Y007133D02*
X014351Y007133D01*
X014351Y007134D02*
X011951Y007134D01*
X011951Y007135D02*
X014351Y007135D01*
X014351Y007136D02*
X011951Y007136D01*
X011951Y007137D02*
X014351Y007137D01*
X014351Y007138D02*
X011951Y007138D01*
X011951Y007139D02*
X014351Y007139D01*
X014351Y007140D02*
X011951Y007140D01*
X011951Y007141D02*
X014351Y007141D01*
X014351Y007142D02*
X011951Y007142D01*
X011951Y007143D02*
X014351Y007143D01*
X014351Y007144D02*
X011951Y007144D01*
X011951Y007145D02*
X014351Y007145D01*
X014351Y007146D02*
X011951Y007146D01*
X011951Y007147D02*
X014351Y007147D01*
X014351Y007148D02*
X011951Y007148D01*
X011951Y007149D02*
X014351Y007149D01*
X014351Y007150D02*
X011951Y007150D01*
X011951Y007151D02*
X014351Y007151D01*
X014351Y007152D02*
X011951Y007152D01*
X011951Y007153D02*
X014351Y007153D01*
X014351Y007154D02*
X011951Y007154D01*
X011951Y007155D02*
X014351Y007155D01*
X014351Y007156D02*
X011951Y007156D01*
X011951Y007157D02*
X014351Y007157D01*
X014351Y007158D02*
X011951Y007158D01*
X011951Y007159D02*
X014351Y007159D01*
X014351Y007160D02*
X011951Y007160D01*
X011951Y007161D02*
X014351Y007161D01*
X014351Y007162D02*
X011951Y007162D01*
X011951Y007163D02*
X014351Y007163D01*
X014351Y007164D02*
X011951Y007164D01*
X011951Y007165D02*
X014351Y007165D01*
X014351Y007166D02*
X011951Y007166D01*
X011951Y007167D02*
X014351Y007167D01*
X014351Y007168D02*
X011951Y007168D01*
X011951Y007169D02*
X014351Y007169D01*
X014351Y007170D02*
X011951Y007170D01*
X011951Y007171D02*
X014351Y007171D01*
X014351Y007172D02*
X011951Y007172D01*
X011951Y007173D02*
X014351Y007173D01*
X014351Y007174D02*
X011951Y007174D01*
X011951Y007175D02*
X014351Y007175D01*
X014351Y007176D02*
X011951Y007176D01*
X011951Y007177D02*
X014351Y007177D01*
X014351Y007178D02*
X011951Y007178D01*
X011951Y007179D02*
X014351Y007179D01*
X014351Y007180D02*
X011951Y007180D01*
X011951Y007181D02*
X014351Y007181D01*
X014351Y007182D02*
X011951Y007182D01*
X011951Y007183D02*
X014351Y007183D01*
X014351Y007184D02*
X011951Y007184D01*
X011951Y007185D02*
X014351Y007185D01*
X014351Y007186D02*
X011951Y007186D01*
X011951Y007187D02*
X014351Y007187D01*
X014351Y007188D02*
X011951Y007188D01*
X011951Y007189D02*
X014351Y007189D01*
X014351Y007190D02*
X011951Y007190D01*
X011951Y007191D02*
X014351Y007191D01*
X014351Y007192D02*
X011951Y007192D01*
X011951Y007193D02*
X014351Y007193D01*
X014351Y007194D02*
X011951Y007194D01*
X011951Y007195D02*
X014351Y007195D01*
X014351Y007196D02*
X011951Y007196D01*
X011951Y007197D02*
X014351Y007197D01*
X014351Y007198D02*
X011951Y007198D01*
X011951Y007199D02*
X014351Y007199D01*
X014351Y007200D02*
X011951Y007200D01*
X011951Y007201D02*
X014351Y007201D01*
X014351Y007202D02*
X011951Y007202D01*
X011951Y007203D02*
X014351Y007203D01*
X014351Y007204D02*
X011951Y007204D01*
X011951Y007205D02*
X014351Y007205D01*
X014351Y007206D02*
X011951Y007206D01*
X011951Y007207D02*
X014351Y007207D01*
X014351Y007208D02*
X011951Y007208D01*
X011951Y007209D02*
X014351Y007209D01*
X014351Y007210D02*
X011951Y007210D01*
X011951Y007211D02*
X014351Y007211D01*
X014351Y007212D02*
X011951Y007212D01*
X011951Y007213D02*
X014351Y007213D01*
X014351Y007214D02*
X011951Y007214D01*
X011951Y007215D02*
X014351Y007215D01*
X014351Y007216D02*
X011951Y007216D01*
X011951Y007217D02*
X014351Y007217D01*
X014351Y007218D02*
X011951Y007218D01*
X011951Y007219D02*
X014351Y007219D01*
X014351Y007220D02*
X011951Y007220D01*
X011951Y007221D02*
X014351Y007221D01*
X014351Y007222D02*
X011951Y007222D01*
X011951Y007223D02*
X014351Y007223D01*
X014351Y007224D02*
X011951Y007224D01*
X011951Y007225D02*
X014351Y007225D01*
X014351Y007226D02*
X011951Y007226D01*
X011951Y007227D02*
X014351Y007227D01*
X014351Y007228D02*
X011951Y007228D01*
X011951Y007229D02*
X014351Y007229D01*
X014351Y007230D02*
X011951Y007230D01*
X011951Y007231D02*
X014351Y007231D01*
X014351Y007232D02*
X011951Y007232D01*
X011951Y007233D02*
X014351Y007233D01*
X014351Y007234D02*
X011951Y007234D01*
X011951Y007235D02*
X014351Y007235D01*
X014351Y007236D02*
X011951Y007236D01*
X011951Y007237D02*
X014351Y007237D01*
X014351Y007238D02*
X011951Y007238D01*
X011951Y007239D02*
X014351Y007239D01*
X014351Y007240D02*
X011951Y007240D01*
X011951Y007241D02*
X014351Y007241D01*
X014351Y007242D02*
X011951Y007242D01*
X011951Y007243D02*
X014351Y007243D01*
X014351Y007244D02*
X011951Y007244D01*
X011951Y007245D02*
X014351Y007245D01*
X014351Y007246D02*
X011951Y007246D01*
X011951Y007247D02*
X014351Y007247D01*
X014351Y007248D02*
X011951Y007248D01*
X011951Y007249D02*
X014351Y007249D01*
X014351Y007250D02*
X011951Y007250D01*
X011951Y007251D02*
X014351Y007251D01*
X014351Y007252D02*
X011951Y007252D01*
X011951Y007253D02*
X014351Y007253D01*
X014351Y007254D02*
X011951Y007254D01*
X011951Y007255D02*
X014351Y007255D01*
X014351Y007256D02*
X011951Y007256D01*
X011951Y007257D02*
X014351Y007257D01*
X014351Y007258D02*
X011951Y007258D01*
X011951Y007259D02*
X014351Y007259D01*
X014351Y007260D02*
X011951Y007260D01*
X011951Y007261D02*
X014351Y007261D01*
X014351Y007262D02*
X011951Y007262D01*
X011951Y007263D02*
X014351Y007263D01*
X014351Y007264D02*
X011951Y007264D01*
X011951Y007265D02*
X014351Y007265D01*
X014351Y007266D02*
X011951Y007266D01*
X011951Y007267D02*
X014351Y007267D01*
X014351Y007268D02*
X011951Y007268D01*
X011951Y007269D02*
X014351Y007269D01*
X014351Y007270D02*
X011951Y007270D01*
X011951Y007271D02*
X014351Y007271D01*
X014351Y007272D02*
X011951Y007272D01*
X011951Y007273D02*
X014351Y007273D01*
X014351Y007274D02*
X011951Y007274D01*
X011951Y007275D02*
X014351Y007275D01*
X014351Y007276D02*
X011951Y007276D01*
X011951Y007277D02*
X014351Y007277D01*
X014351Y007278D02*
X011951Y007278D01*
X011951Y007279D02*
X014351Y007279D01*
X014351Y007280D02*
X011951Y007280D01*
X011951Y007281D02*
X014351Y007281D01*
X014351Y007282D02*
X011951Y007282D01*
X011951Y007283D02*
X014351Y007283D01*
X014351Y007284D02*
X011951Y007284D01*
X011951Y007285D02*
X014351Y007285D01*
X014351Y007286D02*
X011951Y007286D01*
X011951Y007287D02*
X014351Y007287D01*
X014351Y007288D02*
X011951Y007288D01*
X011951Y007289D02*
X014351Y007289D01*
X014351Y007290D02*
X011951Y007290D01*
X011951Y007291D02*
X014351Y007291D01*
X014351Y007292D02*
X011951Y007292D01*
X011951Y007293D02*
X014351Y007293D01*
X014351Y007294D02*
X011951Y007294D01*
X011951Y007295D02*
X014351Y007295D01*
X014351Y007296D02*
X011951Y007296D01*
X011951Y007297D02*
X014351Y007297D01*
X014351Y007298D02*
X011951Y007298D01*
X011951Y007299D02*
X014351Y007299D01*
X014351Y007300D02*
X011951Y007300D01*
X011951Y007301D02*
X014351Y007301D01*
X014351Y007302D02*
X011951Y007302D01*
X011951Y007303D02*
X014351Y007303D01*
X011951Y007303D01*
X011951Y007304D02*
X014351Y007304D01*
X014351Y007305D02*
X011951Y007305D01*
X011951Y007306D02*
X014351Y007306D01*
X014351Y007307D02*
X011951Y007307D01*
X011951Y007308D02*
X014351Y007308D01*
X014351Y007309D02*
X011951Y007309D01*
X011951Y007310D02*
X014351Y007310D01*
X014351Y007311D02*
X011951Y007311D01*
X011951Y007312D02*
X014351Y007312D01*
X014351Y007313D02*
X011951Y007313D01*
X011951Y007314D02*
X014351Y007314D01*
X014351Y007315D02*
X011951Y007315D01*
X011951Y007316D02*
X014351Y007316D01*
X014351Y007317D02*
X011951Y007317D01*
X011951Y007318D02*
X014351Y007318D01*
X014351Y007319D02*
X011951Y007319D01*
X011951Y007320D02*
X014351Y007320D01*
X014351Y007321D02*
X011951Y007321D01*
X011951Y007322D02*
X014351Y007322D01*
X014351Y007323D02*
X011951Y007323D01*
X011951Y007324D02*
X014351Y007324D01*
X014351Y007325D02*
X011951Y007325D01*
X011951Y007326D02*
X014351Y007326D01*
X014351Y007327D02*
X011951Y007327D01*
X011951Y007328D02*
X014351Y007328D01*
X014351Y007329D02*
X011951Y007329D01*
X011951Y007330D02*
X014351Y007330D01*
X014351Y007331D02*
X011951Y007331D01*
X011951Y007332D02*
X014351Y007332D01*
X014351Y007333D02*
X011951Y007333D01*
X011951Y007334D02*
X014351Y007334D01*
X014351Y007335D02*
X011951Y007335D01*
X011951Y007336D02*
X014351Y007336D01*
X014351Y007337D02*
X011951Y007337D01*
X011951Y007338D02*
X014351Y007338D01*
X014351Y007339D02*
X011951Y007339D01*
X011951Y007340D02*
X014351Y007340D01*
X014351Y007341D02*
X011951Y007341D01*
X011951Y007342D02*
X014351Y007342D01*
X014351Y007343D02*
X011951Y007343D01*
X011951Y007344D02*
X014351Y007344D01*
X014351Y007345D02*
X011951Y007345D01*
X011951Y007346D02*
X014351Y007346D01*
X014351Y007347D02*
X011951Y007347D01*
X011951Y007348D02*
X014351Y007348D01*
X014351Y007349D02*
X011951Y007349D01*
X011951Y007350D02*
X014351Y007350D01*
X014351Y007351D02*
X011951Y007351D01*
X011951Y007352D02*
X014351Y007352D01*
X014351Y007353D02*
X011951Y007353D01*
X011951Y007354D02*
X014351Y007354D01*
X014351Y007355D02*
X011951Y007355D01*
X011951Y007356D02*
X014351Y007356D01*
X014351Y007357D02*
X011951Y007357D01*
X011951Y007358D02*
X014351Y007358D01*
X014351Y007359D02*
X011951Y007359D01*
X011951Y007360D02*
X014351Y007360D01*
X014351Y007361D02*
X011951Y007361D01*
X011951Y007362D02*
X014351Y007362D01*
X014351Y007363D02*
X011951Y007363D01*
X011951Y007364D02*
X014351Y007364D01*
X014351Y007365D02*
X011951Y007365D01*
X011951Y007366D02*
X014351Y007366D01*
X014351Y007367D02*
X011951Y007367D01*
X011951Y007368D02*
X014351Y007368D01*
X014351Y007369D02*
X011951Y007369D01*
X011951Y007370D02*
X014351Y007370D01*
X014351Y007371D02*
X011951Y007371D01*
X011951Y007372D02*
X014351Y007372D01*
X014351Y007373D02*
X011951Y007373D01*
X011951Y007374D02*
X014351Y007374D01*
X014351Y007375D02*
X011951Y007375D01*
X011951Y007376D02*
X014351Y007376D01*
X014351Y007377D02*
X011951Y007377D01*
X011951Y007378D02*
X014351Y007378D01*
X014351Y007379D02*
X011951Y007379D01*
X011951Y007380D02*
X014351Y007380D01*
X014351Y007381D02*
X011951Y007381D01*
X011951Y007382D02*
X014351Y007382D01*
X014351Y007383D02*
X011951Y007383D01*
X011951Y007384D02*
X014351Y007384D01*
X014351Y007385D02*
X011951Y007385D01*
X011951Y007386D02*
X014351Y007386D01*
X014351Y007387D02*
X011951Y007387D01*
X011951Y007388D02*
X014351Y007388D01*
X014351Y007389D02*
X011951Y007389D01*
X011951Y007390D02*
X014351Y007390D01*
X014351Y007391D02*
X011951Y007391D01*
X011951Y007392D02*
X014351Y007392D01*
X014351Y007393D02*
X011951Y007393D01*
X011951Y007394D02*
X014351Y007394D01*
X014351Y007395D02*
X011951Y007395D01*
X011951Y007396D02*
X014351Y007396D01*
X014351Y007397D02*
X011951Y007397D01*
X011951Y007398D02*
X014351Y007398D01*
X014351Y007399D02*
X011951Y007399D01*
X011951Y007400D02*
X014351Y007400D01*
X014351Y007401D02*
X011951Y007401D01*
X011951Y007402D02*
X014351Y007402D01*
X014351Y007403D02*
X011951Y007403D01*
X011951Y007404D02*
X014351Y007404D01*
X014351Y007405D02*
X011951Y007405D01*
X011951Y007406D02*
X014351Y007406D01*
X014351Y007407D02*
X011951Y007407D01*
X011951Y007408D02*
X014351Y007408D01*
X014351Y007409D02*
X011951Y007409D01*
X011951Y007410D02*
X014351Y007410D01*
X014351Y007411D02*
X011951Y007411D01*
X011951Y007412D02*
X014351Y007412D01*
X014351Y007413D02*
X011951Y007413D01*
X011951Y007414D02*
X014351Y007414D01*
X014351Y007415D02*
X011951Y007415D01*
X011951Y007416D02*
X014351Y007416D01*
X014351Y007417D02*
X011951Y007417D01*
X011951Y007418D02*
X014351Y007418D01*
X014351Y007419D02*
X011951Y007419D01*
X011951Y007420D02*
X014351Y007420D01*
X014351Y007421D02*
X011951Y007421D01*
X011951Y007422D02*
X014351Y007422D01*
X014351Y007423D02*
X011951Y007423D01*
X011951Y007424D02*
X014351Y007424D01*
X014351Y007425D02*
X011951Y007425D01*
X011951Y007426D02*
X014351Y007426D01*
X014351Y007427D02*
X011951Y007427D01*
X011951Y007428D02*
X014351Y007428D01*
X014351Y007429D02*
X011951Y007429D01*
X011951Y007430D02*
X014351Y007430D01*
X014351Y007431D02*
X011951Y007431D01*
X011951Y007432D02*
X014351Y007432D01*
X014351Y007433D02*
X011951Y007433D01*
X011951Y007434D02*
X014351Y007434D01*
X014351Y007435D02*
X011951Y007435D01*
X011951Y007436D02*
X014351Y007436D01*
X014351Y007437D02*
X011951Y007437D01*
X011951Y007438D02*
X014351Y007438D01*
X014351Y007439D02*
X011951Y007439D01*
X011951Y007440D02*
X014351Y007440D01*
X014351Y007441D02*
X011951Y007441D01*
X011951Y007442D02*
X014351Y007442D01*
X014351Y007443D02*
X011951Y007443D01*
X011951Y007444D02*
X014351Y007444D01*
X014351Y007445D02*
X011951Y007445D01*
X011951Y007446D02*
X014351Y007446D01*
X014351Y007447D02*
X011951Y007447D01*
X011951Y007448D02*
X014351Y007448D01*
X014351Y007449D02*
X011951Y007449D01*
X011951Y007450D02*
X014351Y007450D01*
X014351Y007451D02*
X011951Y007451D01*
X011951Y007452D02*
X014351Y007452D01*
X014351Y007453D02*
X011951Y007453D01*
X011951Y007454D02*
X014351Y007454D01*
X014351Y007455D02*
X011951Y007455D01*
X011951Y007456D02*
X014351Y007456D01*
X014351Y007457D02*
X011951Y007457D01*
X011951Y007458D02*
X014351Y007458D01*
X014351Y007459D02*
X011951Y007459D01*
X011951Y007460D02*
X014351Y007460D01*
X014351Y007461D02*
X011951Y007461D01*
X011951Y007462D02*
X014351Y007462D01*
X014351Y007463D02*
X011951Y007463D01*
X011951Y007464D02*
X014351Y007464D01*
X014351Y007465D02*
X011951Y007465D01*
X011951Y007466D02*
X014351Y007466D01*
X014351Y007467D02*
X011951Y007467D01*
X011951Y007468D02*
X014351Y007468D01*
X014351Y007469D02*
X011951Y007469D01*
X011951Y007470D02*
X014351Y007470D01*
X014351Y007471D02*
X011951Y007471D01*
X011951Y007472D02*
X014351Y007472D01*
X014351Y007473D02*
X011951Y007473D01*
X011951Y007474D02*
X014351Y007474D01*
X014351Y007475D02*
X011951Y007475D01*
X011951Y007476D02*
X014351Y007476D01*
X014351Y007477D02*
X011951Y007477D01*
X011951Y007478D02*
X014351Y007478D01*
X014351Y007479D02*
X011951Y007479D01*
X011951Y007480D02*
X014351Y007480D01*
X014351Y007481D02*
X011951Y007481D01*
X011951Y007482D02*
X014351Y007482D01*
X014351Y007483D02*
X011951Y007483D01*
X011951Y007484D02*
X014351Y007484D01*
X014351Y007485D02*
X011951Y007485D01*
X011951Y007486D02*
X014351Y007486D01*
X014351Y007487D02*
X011951Y007487D01*
X011951Y007488D02*
X014351Y007488D01*
X014351Y007489D02*
X011951Y007489D01*
X011951Y007490D02*
X014351Y007490D01*
X014351Y007491D02*
X011951Y007491D01*
X011951Y007492D02*
X014351Y007492D01*
X014351Y007493D02*
X011951Y007493D01*
X011951Y007494D02*
X014351Y007494D01*
X014351Y007495D02*
X011951Y007495D01*
X011951Y007496D02*
X014351Y007496D01*
X014351Y007497D02*
X011951Y007497D01*
X011951Y007498D02*
X014351Y007498D01*
X014351Y007499D02*
X011951Y007499D01*
X011951Y007500D02*
X014351Y007500D01*
X014351Y007501D02*
X011951Y007501D01*
X011951Y007502D02*
X014351Y007502D01*
X014351Y007503D02*
X011951Y007503D01*
X011951Y007504D02*
X014351Y007504D01*
X014351Y007505D02*
X011951Y007505D01*
X011951Y007506D02*
X014351Y007506D01*
X014351Y007507D02*
X011951Y007507D01*
X011951Y007508D02*
X014351Y007508D01*
X014351Y007509D02*
X011951Y007509D01*
X011951Y007510D02*
X014351Y007510D01*
X014351Y007511D02*
X011951Y007511D01*
X011951Y007512D02*
X014351Y007512D01*
X014351Y007513D02*
X011951Y007513D01*
X011951Y007514D02*
X014351Y007514D01*
X014351Y007515D02*
X011951Y007515D01*
X011951Y007516D02*
X014351Y007516D01*
X014351Y007517D02*
X011951Y007517D01*
X011951Y007518D02*
X014351Y007518D01*
X014351Y007519D02*
X011951Y007519D01*
X011951Y007520D02*
X014351Y007520D01*
X014351Y007521D02*
X011951Y007521D01*
X011951Y007522D02*
X014351Y007522D01*
X014351Y007523D02*
X011951Y007523D01*
X011951Y007524D02*
X014351Y007524D01*
X014351Y007525D02*
X011951Y007525D01*
X011951Y007526D02*
X014351Y007526D01*
X014351Y007527D02*
X011951Y007527D01*
X011951Y007528D02*
X014351Y007528D01*
X014351Y007529D02*
X011951Y007529D01*
X011951Y007530D02*
X014351Y007530D01*
X014351Y007531D02*
X011951Y007531D01*
X011951Y007532D02*
X014351Y007532D01*
X014351Y007533D02*
X011951Y007533D01*
X011951Y007534D02*
X014351Y007534D01*
X014351Y007535D02*
X011951Y007535D01*
X011951Y007536D02*
X014351Y007536D01*
X014351Y007537D02*
X011951Y007537D01*
X011951Y007538D02*
X014351Y007538D01*
X014351Y007539D02*
X011951Y007539D01*
X011951Y007540D02*
X014351Y007540D01*
X014351Y007541D02*
X011951Y007541D01*
X011951Y007542D02*
X014351Y007542D01*
X014351Y007543D02*
X011951Y007543D01*
X011951Y007544D02*
X014351Y007544D01*
X014351Y007545D02*
X011951Y007545D01*
X011951Y007546D02*
X014351Y007546D01*
X014351Y007547D02*
X011951Y007547D01*
X011951Y007548D02*
X014351Y007548D01*
X014351Y007549D02*
X011951Y007549D01*
X011951Y007550D02*
X014351Y007550D01*
X014351Y007551D02*
X011951Y007551D01*
X011951Y007552D02*
X014351Y007552D01*
X014351Y007553D02*
X011951Y007553D01*
X011951Y007554D02*
X014351Y007554D01*
X014351Y007555D02*
X011951Y007555D01*
X011951Y007556D02*
X014351Y007556D01*
X014351Y007557D02*
X011951Y007557D01*
X011951Y007558D02*
X014351Y007558D01*
X014351Y007559D02*
X011951Y007559D01*
X011951Y007560D02*
X014351Y007560D01*
X014351Y007561D02*
X011951Y007561D01*
X011951Y007562D02*
X014351Y007562D01*
X014351Y007563D02*
X011951Y007563D01*
X011951Y007564D02*
X014351Y007564D01*
X014351Y007565D02*
X011951Y007565D01*
X011951Y007566D02*
X014351Y007566D01*
X014351Y007567D02*
X011951Y007567D01*
X011951Y007568D02*
X014351Y007568D01*
X014351Y007569D02*
X011951Y007569D01*
X011951Y007570D02*
X014351Y007570D01*
X014351Y007571D02*
X011951Y007571D01*
X011951Y007572D02*
X014351Y007572D01*
X014351Y007573D02*
X011951Y007573D01*
X011951Y007574D02*
X014351Y007574D01*
X014351Y007575D02*
X011951Y007575D01*
X011951Y007576D02*
X014351Y007576D01*
X014351Y007577D02*
X011951Y007577D01*
X011951Y007578D02*
X014351Y007578D01*
X014351Y007579D02*
X011951Y007579D01*
X011951Y007580D02*
X014351Y007580D01*
X014351Y007581D02*
X011951Y007581D01*
X011951Y007582D02*
X014351Y007582D01*
X014351Y007583D02*
X011951Y007583D01*
X011951Y007584D02*
X014351Y007584D01*
X014351Y007585D02*
X011951Y007585D01*
X011951Y007586D02*
X014351Y007586D01*
X014351Y007587D02*
X011951Y007587D01*
X011951Y007588D02*
X014351Y007588D01*
X014351Y007589D02*
X011951Y007589D01*
X011951Y007590D02*
X014351Y007590D01*
X014351Y007591D02*
X011951Y007591D01*
X011951Y007592D02*
X014351Y007592D01*
X014351Y007593D02*
X011951Y007593D01*
X011951Y007594D02*
X014351Y007594D01*
X014351Y007595D02*
X011951Y007595D01*
X011951Y007596D02*
X014351Y007596D01*
X014351Y007597D02*
X011951Y007597D01*
X011951Y007598D02*
X014351Y007598D01*
X014351Y007599D02*
X011951Y007599D01*
X011951Y007600D02*
X014351Y007600D01*
X014351Y007601D02*
X011951Y007601D01*
X011951Y007602D02*
X014351Y007602D01*
X014351Y007603D02*
X011951Y007603D01*
X011951Y007604D02*
X014351Y007604D01*
X014351Y007605D02*
X011951Y007605D01*
X011951Y007606D02*
X014351Y007606D01*
X014351Y007607D02*
X011951Y007607D01*
X011951Y007608D02*
X014351Y007608D01*
X014351Y007609D02*
X011951Y007609D01*
X011951Y007610D02*
X014351Y007610D01*
X014351Y007611D02*
X011951Y007611D01*
X011951Y007612D02*
X014351Y007612D01*
X014351Y007613D02*
X011951Y007613D01*
X011951Y007614D02*
X014351Y007614D01*
X014351Y007615D02*
X011951Y007615D01*
X011951Y007616D02*
X014351Y007616D01*
X014351Y007617D02*
X011951Y007617D01*
X011951Y007618D02*
X014351Y007618D01*
X014351Y007619D02*
X011951Y007619D01*
X011951Y007620D02*
X014351Y007620D01*
X014351Y007621D02*
X011951Y007621D01*
X011951Y007622D02*
X014351Y007622D01*
X014351Y007623D02*
X011951Y007623D01*
X011951Y007624D02*
X014351Y007624D01*
X014351Y007625D02*
X011951Y007625D01*
X011951Y007626D02*
X014351Y007626D01*
X014351Y007627D02*
X011951Y007627D01*
X011951Y007628D02*
X014351Y007628D01*
X014351Y007629D02*
X011951Y007629D01*
X011951Y007630D02*
X014351Y007630D01*
X014351Y007631D02*
X011951Y007631D01*
X011951Y007632D02*
X014351Y007632D01*
X014351Y007633D02*
X011951Y007633D01*
X011951Y007634D02*
X014351Y007634D01*
X014351Y007635D02*
X011951Y007635D01*
X011951Y007636D02*
X014351Y007636D01*
X014351Y007637D02*
X011951Y007637D01*
X011951Y007638D02*
X014351Y007638D01*
X014351Y007639D02*
X011951Y007639D01*
X011951Y007640D02*
X014351Y007640D01*
X014351Y007641D02*
X011951Y007641D01*
X011951Y007642D02*
X014351Y007642D01*
X014351Y007643D02*
X011951Y007643D01*
X011951Y007644D02*
X014351Y007644D01*
X014351Y007645D02*
X011951Y007645D01*
X011951Y007646D02*
X014351Y007646D01*
X014351Y007647D02*
X011951Y007647D01*
X011951Y007648D02*
X014351Y007648D01*
X014351Y007649D02*
X011951Y007649D01*
X011951Y007650D02*
X014351Y007650D01*
X014351Y007651D02*
X011951Y007651D01*
X011951Y007652D02*
X014351Y007652D01*
X014351Y007653D02*
X011951Y007653D01*
X011951Y007654D02*
X014351Y007654D01*
X014351Y007655D02*
X011951Y007655D01*
X011951Y007656D02*
X014351Y007656D01*
X014351Y007657D02*
X011951Y007657D01*
X011951Y007658D02*
X014351Y007658D01*
X014351Y007659D02*
X011951Y007659D01*
X011951Y007660D02*
X014351Y007660D01*
X014351Y007661D02*
X011951Y007661D01*
X011951Y007662D02*
X014351Y007662D01*
X014351Y007663D02*
X011951Y007663D01*
X011951Y007664D02*
X014351Y007664D01*
X014351Y007665D02*
X011951Y007665D01*
X011951Y007666D02*
X014351Y007666D01*
X014351Y007667D02*
X011951Y007667D01*
X011951Y007668D02*
X014351Y007668D01*
X014351Y007669D02*
X011951Y007669D01*
X011951Y007670D02*
X014351Y007670D01*
X014351Y007671D02*
X011951Y007671D01*
X011951Y007672D02*
X014351Y007672D01*
X014351Y007673D02*
X011951Y007673D01*
X011951Y007674D02*
X014351Y007674D01*
X014351Y007675D02*
X011951Y007675D01*
X011951Y007676D02*
X014351Y007676D01*
X014351Y007677D02*
X011951Y007677D01*
X011951Y007678D02*
X014351Y007678D01*
X014351Y007679D02*
X011951Y007679D01*
X011951Y007680D02*
X014351Y007680D01*
X014351Y007681D02*
X011951Y007681D01*
X011951Y007682D02*
X014351Y007682D01*
X014351Y007683D02*
X011951Y007683D01*
X011951Y007684D02*
X014351Y007684D01*
X014351Y007685D02*
X011951Y007685D01*
X011951Y007686D02*
X014351Y007686D01*
X014351Y007687D02*
X011951Y007687D01*
X011951Y007688D02*
X014351Y007688D01*
X014351Y007689D02*
X011951Y007689D01*
X011951Y007690D02*
X014351Y007690D01*
X014351Y007691D02*
X011951Y007691D01*
X011951Y007692D02*
X014351Y007692D01*
X014351Y007693D02*
X011951Y007693D01*
X011951Y007694D02*
X014351Y007694D01*
X014351Y007695D02*
X011951Y007695D01*
X011951Y007696D02*
X014351Y007696D01*
X014351Y007697D02*
X011951Y007697D01*
X011951Y007698D02*
X014351Y007698D01*
X014351Y007699D02*
X011951Y007699D01*
X011951Y007700D02*
X014351Y007700D01*
X014351Y007701D02*
X011951Y007701D01*
X011951Y007702D02*
X014351Y007702D01*
X014351Y007703D02*
X011951Y007703D01*
X011951Y007704D02*
X014351Y007704D01*
X014351Y007705D02*
X011951Y007705D01*
X011951Y007706D02*
X014351Y007706D01*
X014351Y007707D02*
X011951Y007707D01*
X011951Y007708D02*
X014351Y007708D01*
X014351Y007709D02*
X011951Y007709D01*
X011951Y007710D02*
X014351Y007710D01*
X014351Y007711D02*
X011951Y007711D01*
X011951Y007712D02*
X014351Y007712D01*
X014351Y007713D02*
X011951Y007713D01*
X011951Y007714D02*
X014351Y007714D01*
X014351Y007715D02*
X011951Y007715D01*
X011951Y007716D02*
X014351Y007716D01*
X014351Y007717D02*
X011951Y007717D01*
X011951Y007718D02*
X014351Y007718D01*
X014351Y007719D02*
X011951Y007719D01*
X011951Y007720D02*
X014351Y007720D01*
X014351Y007721D02*
X011951Y007721D01*
X011951Y007722D02*
X014351Y007722D01*
X014351Y007723D02*
X011951Y007723D01*
X011951Y007724D02*
X014351Y007724D01*
X014351Y007725D02*
X011951Y007725D01*
X011951Y007726D02*
X014351Y007726D01*
X014351Y007727D02*
X011951Y007727D01*
X011951Y007728D02*
X014351Y007728D01*
X014351Y007729D02*
X011951Y007729D01*
X011951Y007730D02*
X014351Y007730D01*
X014351Y007731D02*
X011951Y007731D01*
X011951Y007732D02*
X014351Y007732D01*
X014351Y007733D02*
X011951Y007733D01*
X011951Y007734D02*
X014351Y007734D01*
X014351Y007735D02*
X011951Y007735D01*
X011951Y007736D02*
X014351Y007736D01*
X014351Y007737D02*
X011951Y007737D01*
X011951Y007738D02*
X014351Y007738D01*
X014351Y007739D02*
X011951Y007739D01*
X011951Y007740D02*
X014351Y007740D01*
X014351Y007741D02*
X011951Y007741D01*
X011951Y007742D02*
X014351Y007742D01*
X014351Y007743D02*
X011951Y007743D01*
X011951Y007744D02*
X014351Y007744D01*
X014351Y007745D02*
X011951Y007745D01*
X011951Y007746D02*
X014351Y007746D01*
X014351Y007747D02*
X011951Y007747D01*
X011951Y007748D02*
X014351Y007748D01*
X014351Y007749D02*
X011951Y007749D01*
X011951Y007750D02*
X014351Y007750D01*
X014351Y007751D02*
X011951Y007751D01*
X011951Y007752D02*
X014351Y007752D01*
X014351Y007753D02*
X011951Y007753D01*
X011951Y007754D02*
X014351Y007754D01*
X014351Y007755D02*
X011951Y007755D01*
X011951Y007756D02*
X014351Y007756D01*
X014351Y007757D02*
X011951Y007757D01*
X011951Y007758D02*
X014351Y007758D01*
X014351Y007759D02*
X011951Y007759D01*
X011951Y007760D02*
X014351Y007760D01*
X014351Y007761D02*
X011951Y007761D01*
X011951Y007762D02*
X014351Y007762D01*
X014351Y007763D02*
X011951Y007763D01*
X011951Y007764D02*
X014351Y007764D01*
X014351Y007765D02*
X011951Y007765D01*
X011951Y007766D02*
X014351Y007766D01*
X014351Y007767D02*
X011951Y007767D01*
X011951Y007768D02*
X014351Y007768D01*
X014351Y007769D02*
X011951Y007769D01*
X011951Y007770D02*
X014351Y007770D01*
X014351Y007771D02*
X011951Y007771D01*
X011951Y007772D02*
X014351Y007772D01*
X014351Y007773D02*
X011951Y007773D01*
X011951Y007774D02*
X014351Y007774D01*
X014351Y007775D02*
X011951Y007775D01*
X011951Y007776D02*
X014351Y007776D01*
X014351Y007777D02*
X011951Y007777D01*
X011951Y007778D02*
X014351Y007778D01*
X014351Y007779D02*
X011951Y007779D01*
X011951Y007780D02*
X014351Y007780D01*
X014351Y007781D02*
X011951Y007781D01*
X011951Y007782D02*
X014351Y007782D01*
X014351Y007783D02*
X011951Y007783D01*
X011951Y007784D02*
X014351Y007784D01*
X014351Y007785D02*
X011951Y007785D01*
X011951Y007786D02*
X014351Y007786D01*
X014351Y007787D02*
X011951Y007787D01*
X011951Y007788D02*
X014351Y007788D01*
X014351Y007789D02*
X011951Y007789D01*
X011951Y007790D02*
X014351Y007790D01*
X014351Y007791D02*
X011951Y007791D01*
X011951Y007792D02*
X014351Y007792D01*
X014351Y007793D02*
X011951Y007793D01*
X011951Y007794D02*
X014351Y007794D01*
X014351Y007795D02*
X011951Y007795D01*
X011951Y007796D02*
X014351Y007796D01*
X014351Y007797D02*
X011951Y007797D01*
X011951Y007798D02*
X014351Y007798D01*
X014351Y007799D02*
X011951Y007799D01*
X011951Y007800D02*
X014351Y007800D01*
X014351Y007801D02*
X011951Y007801D01*
X011951Y007802D02*
X014351Y007802D01*
X014351Y007803D02*
X011951Y007803D01*
X011951Y007804D02*
X014351Y007804D01*
X014351Y007805D02*
X011951Y007805D01*
X011951Y007806D02*
X014351Y007806D01*
X014351Y007807D02*
X011951Y007807D01*
X011951Y007808D02*
X014351Y007808D01*
X014351Y007809D02*
X011951Y007809D01*
X011951Y007810D02*
X014351Y007810D01*
X014351Y007811D02*
X011951Y007811D01*
X011951Y007812D02*
X014351Y007812D01*
X014351Y007813D02*
X011951Y007813D01*
X011951Y007814D02*
X014351Y007814D01*
X014351Y007815D02*
X011951Y007815D01*
X011951Y007816D02*
X014351Y007816D01*
X014351Y007817D02*
X011951Y007817D01*
X011951Y007818D02*
X014351Y007818D01*
X014351Y007819D02*
X011951Y007819D01*
X011951Y007820D02*
X014351Y007820D01*
X014351Y007821D02*
X011951Y007821D01*
X011951Y007822D02*
X014351Y007822D01*
X014351Y007823D02*
X011951Y007823D01*
X011951Y007824D02*
X014351Y007824D01*
X014351Y007825D02*
X011951Y007825D01*
X011951Y007826D02*
X014351Y007826D01*
X014351Y007827D02*
X011951Y007827D01*
X011951Y007828D02*
X014351Y007828D01*
X014351Y007829D02*
X011951Y007829D01*
X011951Y007830D02*
X014351Y007830D01*
X014351Y007831D02*
X011951Y007831D01*
X011951Y007832D02*
X014351Y007832D01*
X014351Y007833D02*
X011951Y007833D01*
X011951Y007834D02*
X014351Y007834D01*
X014351Y007835D02*
X011951Y007835D01*
X011951Y007836D02*
X014351Y007836D01*
X014351Y007837D02*
X011951Y007837D01*
X011951Y007838D02*
X014351Y007838D01*
X014351Y007839D02*
X011951Y007839D01*
X011951Y007840D02*
X014351Y007840D01*
X014351Y007841D02*
X011951Y007841D01*
X011951Y007842D02*
X014351Y007842D01*
X014351Y007843D02*
X011951Y007843D01*
X011951Y007844D02*
X014351Y007844D01*
X014351Y007845D02*
X011951Y007845D01*
X011951Y007846D02*
X014351Y007846D01*
X014351Y007847D02*
X011951Y007847D01*
X011951Y007848D02*
X014351Y007848D01*
X014351Y007849D02*
X011951Y007849D01*
X011951Y007850D02*
X014351Y007850D01*
X014351Y007851D02*
X011951Y007851D01*
X011951Y007852D02*
X014351Y007852D01*
X014351Y007853D02*
X011951Y007853D01*
X011951Y007854D02*
X014351Y007854D01*
X014351Y007855D02*
X011951Y007855D01*
X011951Y007856D02*
X014351Y007856D01*
X014351Y007857D02*
X011951Y007857D01*
X011951Y007858D02*
X014351Y007858D01*
X014351Y007859D02*
X011951Y007859D01*
X011951Y007860D02*
X014351Y007860D01*
X014351Y007861D02*
X011951Y007861D01*
X011951Y007862D02*
X014351Y007862D01*
X014351Y007863D02*
X011951Y007863D01*
X011951Y007864D02*
X014351Y007864D01*
X014351Y007865D02*
X011951Y007865D01*
X011951Y007866D02*
X014351Y007866D01*
X014351Y007867D02*
X011951Y007867D01*
X011951Y007868D02*
X014351Y007868D01*
X014351Y007869D02*
X011951Y007869D01*
X011951Y007870D02*
X014351Y007870D01*
X014351Y007871D02*
X011951Y007871D01*
X011951Y007872D02*
X014351Y007872D01*
X014351Y007873D02*
X011951Y007873D01*
X011951Y007874D02*
X014351Y007874D01*
X014351Y007875D02*
X011951Y007875D01*
X011951Y007876D02*
X014351Y007876D01*
X014351Y007877D02*
X011951Y007877D01*
X011951Y007878D02*
X014351Y007878D01*
X014351Y007879D02*
X011951Y007879D01*
X011951Y007880D02*
X014351Y007880D01*
X014351Y007881D02*
X011951Y007881D01*
X011951Y007882D02*
X014351Y007882D01*
X014351Y007883D02*
X011951Y007883D01*
X011951Y007884D02*
X014351Y007884D01*
X014351Y007885D02*
X011951Y007885D01*
X011951Y007886D02*
X014351Y007886D01*
X014351Y007887D02*
X011951Y007887D01*
X011951Y007888D02*
X014351Y007888D01*
X014351Y007889D02*
X011951Y007889D01*
X011951Y007890D02*
X014351Y007890D01*
X014351Y007891D02*
X011951Y007891D01*
X011951Y007892D02*
X014351Y007892D01*
X014351Y007893D02*
X011951Y007893D01*
X011951Y007894D02*
X014351Y007894D01*
X014351Y007895D02*
X011951Y007895D01*
X011951Y007896D02*
X014351Y007896D01*
X014351Y007897D02*
X011951Y007897D01*
X011951Y007898D02*
X014351Y007898D01*
X014351Y007899D02*
X011951Y007899D01*
X011951Y007900D02*
X014351Y007900D01*
X014351Y007901D02*
X011951Y007901D01*
X011951Y007902D02*
X014351Y007902D01*
X014351Y007903D02*
X011951Y007903D01*
X011951Y007904D02*
X014351Y007904D01*
X014351Y007905D02*
X011951Y007905D01*
X011951Y007906D02*
X014351Y007906D01*
X014351Y007907D02*
X011951Y007907D01*
X011951Y007908D02*
X014351Y007908D01*
X014351Y007909D02*
X011951Y007909D01*
X011951Y007910D02*
X014351Y007910D01*
X014351Y007911D02*
X011951Y007911D01*
X011951Y007912D02*
X014351Y007912D01*
X014351Y007913D02*
X011951Y007913D01*
X011951Y007914D02*
X014351Y007914D01*
X014351Y007915D02*
X011951Y007915D01*
X011951Y007916D02*
X014351Y007916D01*
X014351Y007917D02*
X011951Y007917D01*
X011951Y007918D02*
X014351Y007918D01*
X014351Y007919D02*
X011951Y007919D01*
X011951Y007920D02*
X014351Y007920D01*
X014351Y007921D02*
X011951Y007921D01*
X011951Y007922D02*
X014351Y007922D01*
X014351Y007923D02*
X011951Y007923D01*
X011951Y007924D02*
X014351Y007924D01*
X014351Y007925D02*
X011951Y007925D01*
X011951Y007926D02*
X014351Y007926D01*
X014351Y007927D02*
X011951Y007927D01*
X011951Y007928D02*
X014351Y007928D01*
X014351Y007929D02*
X011951Y007929D01*
X011951Y007930D02*
X014351Y007930D01*
X014351Y007931D02*
X011951Y007931D01*
X011951Y007932D02*
X014351Y007932D01*
X014351Y007933D02*
X011951Y007933D01*
X011951Y007934D02*
X014351Y007934D01*
X014351Y007935D02*
X011951Y007935D01*
X011951Y007936D02*
X014351Y007936D01*
X014351Y007937D02*
X011951Y007937D01*
X011951Y007938D02*
X014351Y007938D01*
X014351Y007939D02*
X011951Y007939D01*
X011951Y007940D02*
X014351Y007940D01*
X014351Y007941D02*
X011951Y007941D01*
X011951Y007942D02*
X014351Y007942D01*
X014351Y007943D02*
X011951Y007943D01*
X011951Y007944D02*
X014351Y007944D01*
X014351Y007945D02*
X011951Y007945D01*
X011951Y007946D02*
X014351Y007946D01*
X014351Y007947D02*
X011951Y007947D01*
X011951Y007948D02*
X014351Y007948D01*
X014351Y007949D02*
X011951Y007949D01*
X011951Y007950D02*
X014351Y007950D01*
X014351Y007951D02*
X011951Y007951D01*
X011951Y007952D02*
X014351Y007952D01*
X014351Y007953D02*
X011951Y007953D01*
X011951Y007954D02*
X014351Y007954D01*
X014351Y007955D02*
X011951Y007955D01*
X011951Y007956D02*
X014351Y007956D01*
X014351Y007957D02*
X011951Y007957D01*
X011951Y007958D02*
X014351Y007958D01*
X014351Y007959D02*
X011951Y007959D01*
X011951Y007960D02*
X014351Y007960D01*
X014351Y007961D02*
X011951Y007961D01*
X011951Y007962D02*
X014351Y007962D01*
X014351Y007963D02*
X011951Y007963D01*
X011951Y007964D02*
X014351Y007964D01*
X014351Y007965D02*
X011951Y007965D01*
X011951Y007966D02*
X014351Y007966D01*
X014351Y007967D02*
X011951Y007967D01*
X011951Y007968D02*
X014351Y007968D01*
X014351Y007969D02*
X011951Y007969D01*
X011951Y007970D02*
X014351Y007970D01*
X014351Y007971D02*
X011951Y007971D01*
X011951Y007972D02*
X014351Y007972D01*
X014351Y007973D02*
X011951Y007973D01*
X011951Y007974D02*
X014351Y007974D01*
X014351Y007975D02*
X011951Y007975D01*
X011951Y007976D02*
X014351Y007976D01*
X014351Y007977D02*
X011951Y007977D01*
X011951Y007978D02*
X014351Y007978D01*
X014351Y007979D02*
X011951Y007979D01*
X011951Y007980D02*
X014351Y007980D01*
X014351Y007981D02*
X011951Y007981D01*
X011951Y007982D02*
X014351Y007982D01*
X014351Y007983D02*
X011951Y007983D01*
X011951Y007984D02*
X014351Y007984D01*
X014351Y007985D02*
X011951Y007985D01*
X011951Y007986D02*
X014351Y007986D01*
X014351Y007987D02*
X011951Y007987D01*
X011951Y007988D02*
X014351Y007988D01*
X014351Y007989D02*
X011951Y007989D01*
X011951Y007990D02*
X014351Y007990D01*
X014351Y007991D02*
X011951Y007991D01*
X011951Y007992D02*
X014351Y007992D01*
X014351Y007993D02*
X011951Y007993D01*
X011951Y007994D02*
X014351Y007994D01*
X014351Y007995D02*
X011951Y007995D01*
X011951Y007996D02*
X014351Y007996D01*
X014351Y007997D02*
X011951Y007997D01*
X011951Y007998D02*
X014351Y007998D01*
X014351Y007999D02*
X011951Y007999D01*
X011951Y008000D02*
X014351Y008000D01*
X013551Y005299D02*
X013151Y005299D01*
X013151Y005298D02*
X013551Y005298D01*
X013551Y005297D02*
X013151Y005297D01*
X013151Y005296D02*
X013551Y005296D01*
X013551Y005295D02*
X013151Y005295D01*
X013151Y005294D02*
X013551Y005294D01*
X013551Y005293D02*
X013151Y005293D01*
X013151Y005292D02*
X013551Y005292D01*
X013551Y005291D02*
X013151Y005291D01*
X013151Y005290D02*
X013551Y005290D01*
X013551Y005289D02*
X013151Y005289D01*
X013151Y005288D02*
X013551Y005288D01*
X013551Y005287D02*
X013151Y005287D01*
X013151Y005286D02*
X013551Y005286D01*
X013551Y005285D02*
X013151Y005285D01*
X013151Y005284D02*
X013551Y005284D01*
X013551Y005283D02*
X013151Y005283D01*
X013151Y005282D02*
X013551Y005282D01*
X013551Y005281D02*
X013151Y005281D01*
X013151Y005280D02*
X013551Y005280D01*
X013551Y005279D02*
X013151Y005279D01*
X013151Y005278D02*
X013551Y005278D01*
X013551Y005277D02*
X013151Y005277D01*
X013151Y005276D02*
X013551Y005276D01*
X013551Y005275D02*
X013151Y005275D01*
X013151Y005274D02*
X013551Y005274D01*
X013551Y005273D02*
X013151Y005273D01*
X013551Y005273D01*
X013551Y005272D02*
X013151Y005272D01*
X013151Y005271D02*
X013551Y005271D01*
X013551Y005270D02*
X013151Y005270D01*
X013151Y005269D02*
X013551Y005269D01*
X013551Y005268D02*
X013151Y005268D01*
X013151Y005267D02*
X013551Y005267D01*
X013551Y005266D02*
X013151Y005266D01*
X013151Y005265D02*
X013551Y005265D01*
X013551Y005264D02*
X013151Y005264D01*
X013151Y005263D02*
X013551Y005263D01*
X013551Y005262D02*
X013151Y005262D01*
X013151Y005261D02*
X013551Y005261D01*
X013551Y005260D02*
X013151Y005260D01*
X013151Y005259D02*
X013551Y005259D01*
X013551Y005258D02*
X013151Y005258D01*
X013151Y005257D02*
X013551Y005257D01*
X013551Y005256D02*
X013151Y005256D01*
X013151Y005255D02*
X013551Y005255D01*
X013551Y005254D02*
X013151Y005254D01*
X013151Y005253D02*
X013551Y005253D01*
X013551Y005252D02*
X013151Y005252D01*
X013151Y005251D02*
X013551Y005251D01*
X013551Y005250D02*
X013151Y005250D01*
X013151Y005249D02*
X013551Y005249D01*
X013551Y005248D02*
X013151Y005248D01*
X013151Y005247D02*
X013551Y005247D01*
X013551Y005246D02*
X013151Y005246D01*
X013151Y005245D02*
X013551Y005245D01*
X013551Y005244D02*
X013151Y005244D01*
X013151Y005243D02*
X013551Y005243D01*
X013551Y005242D02*
X013151Y005242D01*
X013151Y005241D02*
X013551Y005241D01*
X013551Y005240D02*
X013151Y005240D01*
X013151Y005239D02*
X013551Y005239D01*
X013551Y005238D02*
X013151Y005238D01*
X013151Y005237D02*
X013551Y005237D01*
X013551Y005236D02*
X013151Y005236D01*
X013151Y005235D02*
X013551Y005235D01*
X013551Y005234D02*
X013151Y005234D01*
X013151Y005233D02*
X013551Y005233D01*
X013551Y005232D02*
X013151Y005232D01*
X013151Y005231D02*
X013551Y005231D01*
X013551Y005230D02*
X013151Y005230D01*
X013151Y005229D02*
X013551Y005229D01*
X013551Y005228D02*
X013151Y005228D01*
X013151Y005227D02*
X013551Y005227D01*
X013551Y005226D02*
X013151Y005226D01*
X013151Y005225D02*
X013551Y005225D01*
X013551Y005224D02*
X013151Y005224D01*
X013151Y005223D02*
X013551Y005223D01*
X013551Y005222D02*
X013151Y005222D01*
X013151Y005221D02*
X013551Y005221D01*
X013551Y005220D02*
X013151Y005220D01*
X013151Y005219D02*
X013551Y005219D01*
X013551Y005218D02*
X013151Y005218D01*
X013151Y005217D02*
X013551Y005217D01*
X013551Y005216D02*
X013151Y005216D01*
X013151Y005215D02*
X013551Y005215D01*
X013551Y005214D02*
X013151Y005214D01*
X013151Y005213D02*
X013551Y005213D01*
X013551Y005212D02*
X013151Y005212D01*
X013151Y005211D02*
X013551Y005211D01*
X013551Y005210D02*
X013151Y005210D01*
X013151Y005209D02*
X013551Y005209D01*
X013551Y005208D02*
X013151Y005208D01*
X013151Y005207D02*
X013551Y005207D01*
X013551Y005206D02*
X013151Y005206D01*
X013151Y005205D02*
X013551Y005205D01*
X013551Y005204D02*
X013151Y005204D01*
X013151Y005203D02*
X013551Y005203D01*
X013551Y005202D02*
X013151Y005202D01*
X013151Y005201D02*
X013551Y005201D01*
X013551Y005200D02*
X013151Y005200D01*
X013151Y005199D02*
X013551Y005199D01*
X013551Y005198D02*
X013151Y005198D01*
X013151Y005197D02*
X013551Y005197D01*
X013551Y005196D02*
X013151Y005196D01*
X013151Y005195D02*
X013551Y005195D01*
X013551Y005194D02*
X013151Y005194D01*
X013151Y005193D02*
X013551Y005193D01*
X013551Y005192D02*
X013151Y005192D01*
X013151Y005191D02*
X013551Y005191D01*
X013551Y005190D02*
X013151Y005190D01*
X013151Y005189D02*
X013551Y005189D01*
X013551Y005188D02*
X013151Y005188D01*
X013151Y005187D02*
X013551Y005187D01*
X013551Y005186D02*
X013151Y005186D01*
X013151Y005185D02*
X013551Y005185D01*
X013551Y005184D02*
X013151Y005184D01*
X013151Y005183D02*
X013551Y005183D01*
X013551Y005182D02*
X013151Y005182D01*
X013151Y005181D02*
X013551Y005181D01*
X013551Y005180D02*
X013151Y005180D01*
X013151Y005179D02*
X013551Y005179D01*
X013551Y005178D02*
X013151Y005178D01*
X013151Y005177D02*
X013551Y005177D01*
X013551Y005176D02*
X013151Y005176D01*
X013151Y005175D02*
X013551Y005175D01*
X013551Y005174D02*
X013151Y005174D01*
X013151Y005173D02*
X013551Y005173D01*
X013551Y005172D02*
X013151Y005172D01*
X013151Y005171D02*
X013551Y005171D01*
X013551Y005170D02*
X013151Y005170D01*
X013151Y005169D02*
X013551Y005169D01*
X013551Y005168D02*
X013151Y005168D01*
X013151Y005167D02*
X013551Y005167D01*
X013551Y005166D02*
X013151Y005166D01*
X013151Y005165D02*
X013551Y005165D01*
X013551Y005164D02*
X013151Y005164D01*
X013151Y005163D02*
X013551Y005163D01*
X013551Y005162D02*
X013151Y005162D01*
X013151Y005161D02*
X013551Y005161D01*
X013551Y005160D02*
X013151Y005160D01*
X013151Y005159D02*
X013551Y005159D01*
X013551Y005158D02*
X013151Y005158D01*
X013151Y005157D02*
X013551Y005157D01*
X013551Y005156D02*
X013151Y005156D01*
X013151Y005155D02*
X013551Y005155D01*
X013551Y005154D02*
X013151Y005154D01*
X013151Y005153D02*
X013551Y005153D01*
X013551Y005152D02*
X013151Y005152D01*
X013151Y005151D02*
X013551Y005151D01*
X013551Y005150D02*
X013151Y005150D01*
X013151Y005149D02*
X013551Y005149D01*
X013551Y005148D02*
X013151Y005148D01*
X013151Y005147D02*
X013551Y005147D01*
X013551Y005146D02*
X013151Y005146D01*
X013151Y005145D02*
X013551Y005145D01*
X013551Y005144D02*
X013151Y005144D01*
X013151Y005143D02*
X013551Y005143D01*
X013551Y005142D02*
X013151Y005142D01*
X013151Y005141D02*
X013551Y005141D01*
X013551Y005140D02*
X013151Y005140D01*
X013151Y005139D02*
X013551Y005139D01*
X013551Y005138D02*
X013151Y005138D01*
X013151Y005137D02*
X013551Y005137D01*
X013551Y005136D02*
X013151Y005136D01*
X013151Y005135D02*
X013551Y005135D01*
X013551Y005134D02*
X013151Y005134D01*
X013151Y005133D02*
X013551Y005133D01*
X013551Y005132D02*
X013151Y005132D01*
X013151Y005131D02*
X013551Y005131D01*
X013551Y005130D02*
X013151Y005130D01*
X013151Y005129D02*
X013551Y005129D01*
X013551Y005128D02*
X013151Y005128D01*
X013151Y005127D02*
X013551Y005127D01*
X013551Y005126D02*
X013151Y005126D01*
X013151Y005125D02*
X013551Y005125D01*
X013551Y005124D02*
X013151Y005124D01*
X013151Y005123D02*
X013551Y005123D01*
X013551Y005122D02*
X013151Y005122D01*
X013151Y005121D02*
X013551Y005121D01*
X013551Y005120D02*
X013151Y005120D01*
X013151Y005119D02*
X013551Y005119D01*
X013551Y005118D02*
X013151Y005118D01*
X013151Y005117D02*
X013551Y005117D01*
X013551Y005116D02*
X013151Y005116D01*
X013151Y005115D02*
X013551Y005115D01*
X013551Y005114D02*
X013151Y005114D01*
X013151Y005113D02*
X013551Y005113D01*
X013551Y005112D02*
X013151Y005112D01*
X013151Y005111D02*
X013551Y005111D01*
X013551Y005110D02*
X013151Y005110D01*
X013151Y005109D02*
X013551Y005109D01*
X013551Y005108D02*
X013151Y005108D01*
X013151Y005107D02*
X013551Y005107D01*
X013551Y005106D02*
X013151Y005106D01*
X013151Y005105D02*
X013551Y005105D01*
X013551Y005104D02*
X013151Y005104D01*
X013151Y005103D02*
X013551Y005103D01*
X013551Y005102D02*
X013151Y005102D01*
X013151Y005101D02*
X013551Y005101D01*
X013551Y005100D02*
X013151Y005100D01*
X013151Y005099D02*
X013551Y005099D01*
X013551Y005098D02*
X013151Y005098D01*
X013151Y005097D02*
X013551Y005097D01*
X013551Y005096D02*
X013151Y005096D01*
X013151Y005095D02*
X013551Y005095D01*
X013551Y005094D02*
X013151Y005094D01*
X013151Y005093D02*
X013551Y005093D01*
X013551Y005092D02*
X013151Y005092D01*
X013151Y005091D02*
X013551Y005091D01*
X013551Y005090D02*
X013151Y005090D01*
X013151Y005089D02*
X013551Y005089D01*
X013551Y005088D02*
X013151Y005088D01*
X013151Y005087D02*
X013551Y005087D01*
X013551Y005086D02*
X013151Y005086D01*
X013151Y005085D02*
X013551Y005085D01*
X013551Y005084D02*
X013151Y005084D01*
X013151Y005083D02*
X013551Y005083D01*
X013551Y005082D02*
X013151Y005082D01*
X013151Y005081D02*
X013551Y005081D01*
X013551Y005080D02*
X013151Y005080D01*
X013151Y005079D02*
X013551Y005079D01*
X013551Y005078D02*
X013151Y005078D01*
X013151Y005077D02*
X013551Y005077D01*
X013551Y005076D02*
X013151Y005076D01*
X013151Y005075D02*
X013551Y005075D01*
X013551Y005074D02*
X013151Y005074D01*
X013151Y005073D02*
X013551Y005073D01*
X013551Y005072D02*
X013151Y005072D01*
X013151Y005071D02*
X013551Y005071D01*
X013551Y005070D02*
X013151Y005070D01*
X013151Y005069D02*
X013551Y005069D01*
X013551Y005068D02*
X013151Y005068D01*
X013151Y005067D02*
X013551Y005067D01*
X013551Y005066D02*
X013151Y005066D01*
X013151Y005065D02*
X013551Y005065D01*
X013551Y005064D02*
X013151Y005064D01*
X013151Y005063D02*
X013551Y005063D01*
X013551Y005062D02*
X013151Y005062D01*
X013151Y005061D02*
X013551Y005061D01*
X013551Y005060D02*
X013151Y005060D01*
X013151Y005059D02*
X013551Y005059D01*
X013551Y005058D02*
X013151Y005058D01*
X013151Y005057D02*
X013551Y005057D01*
X013551Y005056D02*
X013151Y005056D01*
X013151Y005055D02*
X013551Y005055D01*
X013551Y005054D02*
X013151Y005054D01*
X013151Y005053D02*
X013551Y005053D01*
X013551Y005052D02*
X013151Y005052D01*
X013151Y005051D02*
X013551Y005051D01*
X013551Y005050D02*
X013151Y005050D01*
X013151Y005049D02*
X013551Y005049D01*
X013551Y005048D02*
X013151Y005048D01*
X013151Y005047D02*
X013551Y005047D01*
X013551Y005046D02*
X013151Y005046D01*
X013151Y005045D02*
X013551Y005045D01*
X013551Y005044D02*
X013151Y005044D01*
X013151Y005043D02*
X013551Y005043D01*
X013551Y005042D02*
X013151Y005042D01*
X013151Y005041D02*
X013551Y005041D01*
X013551Y005040D02*
X013151Y005040D01*
X013151Y005039D02*
X013551Y005039D01*
X013551Y005038D02*
X013151Y005038D01*
X013151Y005037D02*
X013551Y005037D01*
X013551Y005036D02*
X013151Y005036D01*
X013151Y005035D02*
X013551Y005035D01*
X013551Y005034D02*
X013151Y005034D01*
X013151Y005033D02*
X013551Y005033D01*
X013551Y005032D02*
X013151Y005032D01*
X013151Y005031D02*
X013551Y005031D01*
X013551Y005030D02*
X013151Y005030D01*
X013151Y005029D02*
X013551Y005029D01*
X013551Y005028D02*
X013151Y005028D01*
X013151Y005027D02*
X013551Y005027D01*
X013551Y005026D02*
X013151Y005026D01*
X013151Y005025D02*
X013551Y005025D01*
X013551Y005024D02*
X013151Y005024D01*
X013151Y005023D02*
X013551Y005023D01*
X013551Y005022D02*
X013151Y005022D01*
X013151Y005021D02*
X013551Y005021D01*
X013551Y005020D02*
X013151Y005020D01*
X013151Y005019D02*
X013551Y005019D01*
X013551Y005018D02*
X013151Y005018D01*
X013151Y005017D02*
X013551Y005017D01*
X013551Y005016D02*
X013151Y005016D01*
X013151Y005015D02*
X013551Y005015D01*
X013551Y005014D02*
X013151Y005014D01*
X013151Y005013D02*
X013551Y005013D01*
X013551Y005012D02*
X013151Y005012D01*
X013151Y005011D02*
X013551Y005011D01*
X013551Y005010D02*
X013151Y005010D01*
X013151Y005009D02*
X013551Y005009D01*
X013551Y005008D02*
X013151Y005008D01*
X013151Y005007D02*
X013551Y005007D01*
X013551Y005006D02*
X013151Y005006D01*
X013151Y005005D02*
X013551Y005005D01*
X013551Y005004D02*
X013151Y005004D01*
X013151Y005003D02*
X013551Y005003D01*
X013551Y005002D02*
X013151Y005002D01*
X013151Y005001D02*
X013551Y005001D01*
X013551Y005000D02*
X013151Y005000D01*
X013151Y004999D02*
X013551Y004999D01*
X013551Y004998D02*
X013151Y004998D01*
X013151Y004997D02*
X013551Y004997D01*
X013551Y004996D02*
X013151Y004996D01*
X013151Y004995D02*
X013551Y004995D01*
X013551Y004994D02*
X013151Y004994D01*
X013151Y004993D02*
X013551Y004993D01*
X013551Y004992D02*
X013151Y004992D01*
X013151Y004991D02*
X013551Y004991D01*
X013551Y004990D02*
X013151Y004990D01*
X013151Y004989D02*
X013551Y004989D01*
X013551Y004988D02*
X013151Y004988D01*
X013151Y004987D02*
X013551Y004987D01*
X013551Y004986D02*
X013151Y004986D01*
X013151Y004985D02*
X013551Y004985D01*
X013551Y004984D02*
X013151Y004984D01*
X013151Y004983D02*
X013551Y004983D01*
X013551Y004982D02*
X013151Y004982D01*
X013151Y004981D02*
X013551Y004981D01*
X013551Y004980D02*
X013151Y004980D01*
X013151Y004979D02*
X013551Y004979D01*
X013551Y004978D02*
X013151Y004978D01*
X013151Y004977D02*
X013551Y004977D01*
X013551Y004976D02*
X013151Y004976D01*
X013151Y004975D02*
X013551Y004975D01*
X013551Y004974D02*
X013151Y004974D01*
X013151Y004973D02*
X013551Y004973D01*
X013551Y004972D02*
X013151Y004972D01*
X013151Y004971D02*
X013551Y004971D01*
X013551Y004970D02*
X013151Y004970D01*
X013151Y004969D02*
X013551Y004969D01*
X013551Y004968D02*
X013151Y004968D01*
X013151Y004967D02*
X013551Y004967D01*
X013551Y004966D02*
X013151Y004966D01*
X013151Y004965D02*
X013551Y004965D01*
X013551Y004964D02*
X013151Y004964D01*
X013151Y004963D02*
X013551Y004963D01*
X013551Y004962D02*
X013151Y004962D01*
X013151Y004961D02*
X013551Y004961D01*
X013551Y004960D02*
X013151Y004960D01*
X013151Y004959D02*
X013551Y004959D01*
X013551Y004958D02*
X013151Y004958D01*
X013151Y004957D02*
X013551Y004957D01*
X013551Y004956D02*
X013151Y004956D01*
X013151Y004955D02*
X013551Y004955D01*
X013551Y004954D02*
X013151Y004954D01*
X013151Y004953D02*
X013551Y004953D01*
X013551Y004952D02*
X013151Y004952D01*
X013151Y004951D02*
X013551Y004951D01*
X013551Y004950D02*
X013151Y004950D01*
X013151Y004949D02*
X013551Y004949D01*
X013551Y004948D02*
X013151Y004948D01*
X013151Y004947D02*
X013551Y004947D01*
X013551Y004946D02*
X013151Y004946D01*
X013151Y004945D02*
X013551Y004945D01*
X013551Y004944D02*
X013151Y004944D01*
X013151Y004943D02*
X013551Y004943D01*
X013551Y004942D02*
X013151Y004942D01*
X013151Y004941D02*
X013551Y004941D01*
X013551Y004940D02*
X013151Y004940D01*
X013151Y004939D02*
X013551Y004939D01*
X013551Y004938D02*
X013151Y004938D01*
X013151Y004937D02*
X013551Y004937D01*
X013551Y004936D02*
X013151Y004936D01*
X013151Y004935D02*
X013551Y004935D01*
X013551Y004934D02*
X013151Y004934D01*
X013151Y004933D02*
X013551Y004933D01*
X013551Y004932D02*
X013151Y004932D01*
X013151Y004931D02*
X013551Y004931D01*
X013551Y004930D02*
X013151Y004930D01*
X013151Y004929D02*
X013551Y004929D01*
X013551Y004928D02*
X013151Y004928D01*
X013151Y004927D02*
X013551Y004927D01*
X013551Y004926D02*
X013151Y004926D01*
X013151Y004925D02*
X013551Y004925D01*
X013551Y004924D02*
X013151Y004924D01*
X013151Y004923D02*
X013551Y004923D01*
X013551Y004922D02*
X013151Y004922D01*
X013151Y004921D02*
X013551Y004921D01*
X013551Y004920D02*
X013151Y004920D01*
X013151Y004919D02*
X013551Y004919D01*
X013551Y004918D02*
X013151Y004918D01*
X013151Y004917D02*
X013551Y004917D01*
X013551Y004916D02*
X013151Y004916D01*
X013151Y004915D02*
X013551Y004915D01*
X013551Y004914D02*
X013151Y004914D01*
X013151Y004913D02*
X013551Y004913D01*
X013551Y004912D02*
X013151Y004912D01*
X013151Y004911D02*
X013551Y004911D01*
X013551Y004910D02*
X013151Y004910D01*
X013151Y004909D02*
X013551Y004909D01*
X013551Y004908D02*
X013151Y004908D01*
X013151Y004907D02*
X013551Y004907D01*
X013551Y004906D02*
X013151Y004906D01*
X013151Y004905D02*
X013551Y004905D01*
X013551Y004904D02*
X013151Y004904D01*
X013151Y004903D02*
X013551Y004903D01*
X013551Y004902D02*
X013151Y004902D01*
X013151Y004901D02*
X013551Y004901D01*
X013551Y004900D02*
X013151Y004900D01*
X013151Y004899D02*
X013551Y004899D01*
X013551Y004898D02*
X013151Y004898D01*
X013151Y004897D02*
X013551Y004897D01*
X013551Y004896D02*
X013151Y004896D01*
X013151Y004895D02*
X013551Y004895D01*
X013551Y004894D02*
X013151Y004894D01*
X013151Y004893D02*
X013551Y004893D01*
X013551Y004892D02*
X013151Y004892D01*
X013151Y004891D02*
X013551Y004891D01*
X013551Y004890D02*
X013151Y004890D01*
X013151Y004889D02*
X013551Y004889D01*
X013551Y004888D02*
X013151Y004888D01*
X013151Y004887D02*
X013551Y004887D01*
X013551Y004886D02*
X013151Y004886D01*
X013151Y004885D02*
X013551Y004885D01*
X013551Y004884D02*
X013151Y004884D01*
X013151Y004883D02*
X013551Y004883D01*
X013551Y004882D02*
X013151Y004882D01*
X013151Y004881D02*
X013551Y004881D01*
X013551Y004880D02*
X013151Y004880D01*
X013151Y004879D02*
X013551Y004879D01*
X013551Y004878D02*
X013151Y004878D01*
X013151Y004877D02*
X013551Y004877D01*
X013551Y004876D02*
X013151Y004876D01*
X013151Y004875D02*
X013551Y004875D01*
X013551Y004874D02*
X013151Y004874D01*
X013151Y004873D02*
X013551Y004873D01*
X013551Y004872D02*
X013151Y004872D01*
X013151Y004871D02*
X013551Y004871D01*
X013551Y004870D02*
X013151Y004870D01*
X013151Y004869D02*
X013551Y004869D01*
X013551Y004868D02*
X013151Y004868D01*
X013151Y004867D02*
X013551Y004867D01*
X013551Y004866D02*
X013151Y004866D01*
X013151Y004865D02*
X013551Y004865D01*
X013551Y004864D02*
X013151Y004864D01*
X013151Y004863D02*
X013551Y004863D01*
X013551Y004862D02*
X013151Y004862D01*
X013151Y004861D02*
X013551Y004861D01*
X013551Y004860D02*
X013151Y004860D01*
X013151Y004859D02*
X013551Y004859D01*
X013551Y004858D02*
X013151Y004858D01*
X013151Y004857D02*
X013551Y004857D01*
X013551Y004856D02*
X013151Y004856D01*
X013151Y004855D02*
X013551Y004855D01*
X013551Y004854D02*
X013151Y004854D01*
X013151Y004853D02*
X013551Y004853D01*
X013551Y004852D02*
X013151Y004852D01*
X013151Y004851D02*
X013551Y004851D01*
X013551Y004850D02*
X013151Y004850D01*
X013151Y004849D02*
X013551Y004849D01*
X013551Y004848D02*
X013151Y004848D01*
X013151Y004847D02*
X013551Y004847D01*
X013551Y004846D02*
X013151Y004846D01*
X013151Y004845D02*
X013551Y004845D01*
X013551Y004844D02*
X013151Y004844D01*
X013151Y004843D02*
X013551Y004843D01*
X013551Y004842D02*
X013151Y004842D01*
X013151Y004841D02*
X013551Y004841D01*
X013551Y004840D02*
X013151Y004840D01*
X013151Y004839D02*
X013551Y004839D01*
X013551Y004838D02*
X013151Y004838D01*
X013151Y004837D02*
X013551Y004837D01*
X013551Y004836D02*
X013151Y004836D01*
X013151Y004835D02*
X013551Y004835D01*
X013551Y004834D02*
X013151Y004834D01*
X013151Y004833D02*
X013551Y004833D01*
X013551Y004832D02*
X013151Y004832D01*
X013151Y004831D02*
X013551Y004831D01*
X013551Y004830D02*
X013151Y004830D01*
X013151Y004829D02*
X013551Y004829D01*
X013551Y004828D02*
X013151Y004828D01*
X013151Y004827D02*
X013551Y004827D01*
X013551Y004826D02*
X013151Y004826D01*
X013151Y004825D02*
X013551Y004825D01*
X013551Y004824D02*
X013151Y004824D01*
X013151Y004823D02*
X013551Y004823D01*
X013551Y004822D02*
X013151Y004822D01*
X013151Y004821D02*
X013551Y004821D01*
X013551Y004820D02*
X013151Y004820D01*
X013151Y004819D02*
X013551Y004819D01*
X013551Y004818D02*
X013151Y004818D01*
X013151Y004817D02*
X013551Y004817D01*
X013551Y004816D02*
X013151Y004816D01*
X013151Y004815D02*
X013551Y004815D01*
X013551Y004814D02*
X013151Y004814D01*
X013151Y004813D02*
X013551Y004813D01*
X013551Y004812D02*
X013151Y004812D01*
X013151Y004811D02*
X013551Y004811D01*
X013551Y004810D02*
X013151Y004810D01*
X013151Y004809D02*
X013551Y004809D01*
X013551Y004808D02*
X013151Y004808D01*
X013151Y004807D02*
X013551Y004807D01*
X013551Y004806D02*
X013151Y004806D01*
X013151Y004805D02*
X013551Y004805D01*
X013551Y004804D02*
X013151Y004804D01*
X013151Y004803D02*
X013551Y004803D01*
X013551Y004802D02*
X013151Y004802D01*
X013151Y004801D02*
X013551Y004801D01*
D24*
X022151Y010656D02*
X022151Y010900D01*
X019651Y010900D02*
X019651Y010735D01*
X010216Y010900D02*
X010051Y010900D01*
D25*
X013451Y010900D02*
X013616Y010900D01*
X014285Y010900D02*
X014451Y010900D01*
X015451Y009600D02*
X015451Y009456D01*
D26*
X015451Y008944D02*
X015451Y008800D01*
M02*
