%
M48
M72
T01C0.0236
T02C0.0400
%
T01
X13351Y5000
X18651Y7000
X19151Y7000
X19651Y7000
X20151Y7000
X20351Y9500
X20851Y9500
X21551Y9700
X22051Y9700
X22551Y9700
X23051Y9700
X19851Y9500
X19351Y9500
X18851Y9500
X14051Y7500
X13451Y7500
X12851Y7500
X12251Y7500
T02
X8051Y10900
X7051Y10900
M30
