G75*
G70*
%OFA0B0*%
%FSLAX24Y24*%
%IPPOS*%
%LPD*%
%AMOC8*
5,1,8,0,0,1.08239X$1,22.5*
%
%ADD10C,0.0600*%
%ADD11R,0.2000X0.0900*%
%ADD12C,0.0400*%
%ADD13R,0.0396X0.0396*%
D10*
X007051Y010600D02*
X007051Y011200D01*
X008051Y011200D02*
X008051Y010600D01*
D11*
X004861Y007240D03*
X004861Y003760D03*
X027341Y003760D03*
X027341Y007240D03*
D12*
X004451Y013596D02*
X004451Y000700D01*
X027721Y000700D01*
X027721Y013596D01*
X004451Y013596D01*
X004451Y013525D02*
X027721Y013525D01*
X027721Y013127D02*
X004451Y013127D01*
X004451Y012728D02*
X027721Y012728D01*
X027721Y012330D02*
X004451Y012330D01*
X004451Y011931D02*
X027721Y011931D01*
X027721Y011533D02*
X008538Y011533D01*
X008542Y011529D02*
X008379Y011692D01*
X008166Y011780D01*
X007935Y011780D01*
X007722Y011692D01*
X007559Y011529D01*
X007471Y011315D01*
X007471Y010485D01*
X007559Y010271D01*
X007722Y010108D01*
X007935Y010020D01*
X008166Y010020D01*
X008379Y010108D01*
X008542Y010271D01*
X008631Y010485D01*
X008631Y011315D01*
X008542Y011529D01*
X008631Y011134D02*
X027721Y011134D01*
X027721Y010736D02*
X008631Y010736D01*
X008569Y010337D02*
X027721Y010337D01*
X027721Y009939D02*
X004451Y009939D01*
X004451Y010337D02*
X007532Y010337D01*
X007471Y010736D02*
X004451Y010736D01*
X004451Y011134D02*
X007471Y011134D01*
X007563Y011533D02*
X004451Y011533D01*
X004451Y009540D02*
X027721Y009540D01*
X027721Y009142D02*
X004451Y009142D01*
X004451Y008743D02*
X027721Y008743D01*
X027721Y008345D02*
X004451Y008345D01*
X004451Y007946D02*
X027721Y007946D01*
X027721Y007548D02*
X004451Y007548D01*
X004451Y007149D02*
X027721Y007149D01*
X027721Y006751D02*
X004451Y006751D01*
X004451Y006352D02*
X027721Y006352D01*
X027721Y005954D02*
X004451Y005954D01*
X004451Y005555D02*
X027721Y005555D01*
X027721Y005157D02*
X004451Y005157D01*
X004451Y004758D02*
X027721Y004758D01*
X027721Y004360D02*
X004451Y004360D01*
X004451Y003961D02*
X027721Y003961D01*
X027721Y003563D02*
X004451Y003563D01*
X004451Y003164D02*
X027721Y003164D01*
X027721Y002766D02*
X004451Y002766D01*
X004451Y002367D02*
X027721Y002367D01*
X027721Y001969D02*
X004451Y001969D01*
X004451Y001570D02*
X027721Y001570D01*
X027721Y001172D02*
X004451Y001172D01*
X004451Y000773D02*
X027721Y000773D01*
D13*
X020151Y007000D03*
X019651Y007000D03*
X019151Y007000D03*
X018651Y007000D03*
X014051Y007500D03*
X013451Y007500D03*
X012851Y007500D03*
X012251Y007500D03*
X013351Y005000D03*
X018851Y009500D03*
X019351Y009500D03*
X019851Y009500D03*
X020351Y009500D03*
X020851Y009500D03*
X021551Y009700D03*
X022051Y009700D03*
X022551Y009700D03*
X023051Y009700D03*
M02*
