G75*
G70*
%OFA0B0*%
%FSLAX24Y24*%
%IPPOS*%
%LPD*%
%AMOC8*
5,1,8,0,0,1.08239X$1,22.5*
%
%ADD10R,0.0513X0.0474*%
%ADD11R,0.0474X0.0513*%
%ADD12R,0.0434X0.0356*%
%ADD13R,0.0474X0.0671*%
%ADD14R,0.0474X0.2245*%
%ADD15C,0.0473*%
%ADD16C,0.0680*%
%ADD17R,0.2080X0.0530*%
%ADD18R,0.2080X0.0980*%
%ADD19R,0.0476X0.0476*%
D10*
X010216Y005500D03*
X010885Y005500D03*
X022216Y005500D03*
X022885Y005500D03*
D11*
X019651Y005665D03*
X019651Y006335D03*
X019651Y010065D03*
X019651Y010735D03*
X014285Y010900D03*
X013616Y010900D03*
X010885Y010900D03*
X010216Y010900D03*
D12*
X015451Y009456D03*
X015451Y008944D03*
X022151Y010144D03*
X022151Y010656D03*
D13*
X013941Y005513D03*
X012760Y005513D03*
D14*
X013351Y006300D03*
D15*
X013588Y006398D02*
X013114Y006398D01*
X013114Y007186D01*
X013588Y007186D01*
X013588Y006398D01*
X013588Y006870D02*
X013114Y006870D01*
D16*
X008051Y010600D02*
X008051Y011200D01*
X007051Y011200D02*
X007051Y010600D01*
D17*
X004861Y005500D03*
X027341Y005500D03*
D18*
X004861Y003760D03*
X004861Y007240D03*
X027341Y007240D03*
X027341Y003760D03*
D19*
X020151Y007000D03*
X019651Y007000D03*
X019151Y007000D03*
X018651Y007000D03*
X014051Y007500D03*
X013451Y007500D03*
X012851Y007500D03*
X012251Y007500D03*
X013351Y005000D03*
X018851Y009500D03*
X019351Y009500D03*
X019851Y009500D03*
X020351Y009500D03*
X020851Y009500D03*
X021551Y009700D03*
X022051Y009700D03*
X022551Y009700D03*
X023051Y009700D03*
M02*
