G75*
G70*
%OFA0B0*%
%FSLAX24Y24*%
%IPPOS*%
%LPD*%
%AMOC8*
5,1,8,0,0,1.08239X$1,22.5*
%
%ADD10R,0.0493X0.0505*%
%ADD11C,0.0680*%
%ADD12R,0.0513X0.0474*%
%ADD13C,0.0032*%
%ADD14R,0.0182X0.0268*%
%ADD15R,0.2080X0.0530*%
%ADD16R,0.2080X0.0980*%
%ADD17R,0.0730X0.0730*%
D10*
X007859Y005070D03*
X008548Y005070D03*
X013439Y007390D03*
X014128Y007390D03*
X014128Y008390D03*
X013439Y008390D03*
X013439Y009390D03*
X014128Y009390D03*
X015510Y005076D03*
X016199Y005076D03*
D11*
X008797Y009094D02*
X008797Y009694D01*
X007797Y009694D02*
X007797Y009094D01*
D12*
X013273Y005915D03*
X013273Y005245D03*
D13*
X011583Y004852D02*
X011583Y004568D01*
X011583Y004852D02*
X012103Y004852D01*
X012103Y004568D01*
X011583Y004568D01*
X011583Y004599D02*
X012103Y004599D01*
X012103Y004630D02*
X011583Y004630D01*
X011583Y004661D02*
X012103Y004661D01*
X012103Y004692D02*
X011583Y004692D01*
X011583Y004723D02*
X012103Y004723D01*
X012103Y004754D02*
X011583Y004754D01*
X011583Y004785D02*
X012103Y004785D01*
X012103Y004816D02*
X011583Y004816D01*
X011583Y004847D02*
X012103Y004847D01*
D14*
X012139Y005060D03*
X011942Y005060D03*
X011745Y005060D03*
X011548Y005060D03*
X011548Y004360D03*
X011745Y004360D03*
X011942Y004360D03*
X012139Y004360D03*
D15*
X004861Y005067D03*
X020091Y005069D03*
D16*
X004861Y003327D03*
X004861Y006807D03*
X020091Y006809D03*
X020091Y003329D03*
D17*
X014883Y007290D03*
X014883Y007990D03*
X014883Y008690D03*
X014883Y009390D03*
X011943Y006557D03*
M02*
