G75*
G70*
%OFA0B0*%
%FSLAX24Y24*%
%IPPOS*%
%LPD*%
%AMOC8*
5,1,8,0,0,1.08239X$1,22.5*
%
%ADD10C,0.0600*%
%ADD11R,0.2000X0.0900*%
%ADD12R,0.0650X0.0650*%
%ADD13C,0.0394*%
D10*
X007797Y009094D02*
X007797Y009694D01*
X008797Y009694D02*
X008797Y009094D01*
D11*
X004861Y006807D03*
X004861Y003327D03*
X020091Y003329D03*
X020091Y006809D03*
D12*
X014883Y007290D03*
X014883Y007990D03*
X014883Y008690D03*
X014883Y009390D03*
X011943Y006557D03*
D13*
X004380Y002586D02*
X004380Y000697D01*
X020557Y000697D01*
X020557Y002622D01*
X020504Y002750D01*
X020504Y007387D01*
X020557Y007515D01*
X020557Y011729D01*
X004380Y011729D01*
X004380Y007548D01*
X004447Y007386D01*
X004447Y002748D01*
X004380Y002586D01*
X004380Y002452D02*
X020557Y002452D01*
X020557Y002060D02*
X004380Y002060D01*
X004380Y001667D02*
X020557Y001667D01*
X020557Y001275D02*
X004380Y001275D01*
X004380Y000883D02*
X020557Y000883D01*
X020504Y002844D02*
X004447Y002844D01*
X004447Y003236D02*
X020504Y003236D01*
X020504Y003628D02*
X004447Y003628D01*
X004447Y004021D02*
X020504Y004021D01*
X020504Y004413D02*
X004447Y004413D01*
X004447Y004805D02*
X020504Y004805D01*
X020504Y005197D02*
X004447Y005197D01*
X004447Y005589D02*
X020504Y005589D01*
X020504Y005982D02*
X004447Y005982D01*
X004447Y006374D02*
X020504Y006374D01*
X020504Y006766D02*
X004447Y006766D01*
X004447Y007158D02*
X020504Y007158D01*
X020557Y007550D02*
X004380Y007550D01*
X004380Y007943D02*
X020557Y007943D01*
X020557Y008335D02*
X004380Y008335D01*
X004380Y008727D02*
X008348Y008727D01*
X008308Y008767D02*
X008471Y008605D01*
X008683Y008517D01*
X008912Y008517D01*
X009124Y008605D01*
X009286Y008767D01*
X009374Y008979D01*
X009374Y009808D01*
X009286Y010020D01*
X009124Y010183D01*
X008912Y010270D01*
X008683Y010270D01*
X008471Y010183D01*
X008308Y010020D01*
X008220Y009808D01*
X008220Y008979D01*
X008308Y008767D01*
X008220Y009119D02*
X004380Y009119D01*
X004380Y009511D02*
X008220Y009511D01*
X008260Y009904D02*
X004380Y009904D01*
X004380Y010296D02*
X020557Y010296D01*
X020557Y009904D02*
X009335Y009904D01*
X009374Y009511D02*
X020557Y009511D01*
X020557Y009119D02*
X009374Y009119D01*
X009247Y008727D02*
X020557Y008727D01*
X020557Y010688D02*
X004380Y010688D01*
X004380Y011080D02*
X020557Y011080D01*
X020557Y011472D02*
X004380Y011472D01*
M02*
