G75*
G70*
%OFA0B0*%
%FSLAX24Y24*%
%IPPOS*%
%LPD*%
%AMOC8*
5,1,8,0,0,1.08239X$1,22.5*
%
%ADD10C,0.0000*%
%ADD11C,0.0030*%
%ADD12C,0.0060*%
%ADD13C,0.0050*%
%ADD14C,0.0040*%
%ADD15C,0.0080*%
D10*
X003783Y000100D02*
X003783Y012326D01*
X021154Y012326D01*
X021154Y000100D01*
X003783Y000100D01*
X003851Y002867D02*
X003851Y007267D01*
X021101Y007269D02*
X021101Y002869D01*
D11*
X016108Y005347D02*
X016108Y005717D01*
X015923Y005532D01*
X016170Y005532D01*
X015801Y005655D02*
X015740Y005717D01*
X015616Y005717D01*
X015555Y005655D01*
X015555Y005409D01*
X015616Y005347D01*
X015740Y005347D01*
X015801Y005409D01*
X014099Y007661D02*
X013852Y007661D01*
X014099Y007908D01*
X014099Y007970D01*
X014037Y008031D01*
X013914Y008031D01*
X013852Y007970D01*
X013730Y007970D02*
X013669Y008031D01*
X013545Y008031D01*
X013484Y007970D01*
X013484Y007723D01*
X013545Y007661D01*
X013669Y007661D01*
X013730Y007723D01*
X013669Y008661D02*
X013730Y008723D01*
X013669Y008661D02*
X013545Y008661D01*
X013484Y008723D01*
X013484Y008970D01*
X013545Y009031D01*
X013669Y009031D01*
X013730Y008970D01*
X013852Y008970D02*
X013914Y009031D01*
X014037Y009031D01*
X014099Y008970D01*
X014099Y008908D01*
X014037Y008846D01*
X014099Y008784D01*
X014099Y008723D01*
X014037Y008661D01*
X013914Y008661D01*
X013852Y008723D01*
X013975Y008846D02*
X014037Y008846D01*
X014099Y009661D02*
X013852Y009661D01*
X013975Y009661D02*
X013975Y010031D01*
X013852Y009908D01*
X013730Y009970D02*
X013669Y010031D01*
X013545Y010031D01*
X013484Y009970D01*
X013484Y009723D01*
X013545Y009661D01*
X013669Y009661D01*
X013730Y009723D01*
X008519Y005711D02*
X008272Y005711D01*
X008272Y005526D01*
X008395Y005588D01*
X008457Y005588D01*
X008519Y005526D01*
X008519Y005403D01*
X008457Y005341D01*
X008334Y005341D01*
X008272Y005403D01*
X008150Y005403D02*
X008089Y005341D01*
X007965Y005341D01*
X007904Y005403D01*
X007904Y005650D01*
X007965Y005711D01*
X008089Y005711D01*
X008150Y005650D01*
D12*
X005202Y007597D02*
X004775Y007597D01*
X004989Y007597D02*
X004989Y008238D01*
X004775Y008024D01*
X004558Y008238D02*
X004131Y007597D01*
X004558Y007597D02*
X004131Y008238D01*
X007297Y009144D02*
X007547Y008894D01*
X008047Y008894D01*
X008297Y009144D01*
X008547Y008894D01*
X009047Y008894D01*
X009297Y009144D01*
X009297Y009644D01*
X009047Y009894D01*
X008547Y009894D01*
X008297Y009644D01*
X008297Y009144D01*
X008297Y009644D02*
X008047Y009894D01*
X007547Y009894D01*
X007297Y009644D01*
X007297Y009144D01*
X019592Y002539D02*
X020019Y001899D01*
X020236Y001899D02*
X020663Y002326D01*
X020663Y002433D01*
X020556Y002539D01*
X020343Y002539D01*
X020236Y002433D01*
X020019Y002539D02*
X019592Y001899D01*
X020236Y001899D02*
X020663Y001899D01*
D13*
X008513Y010139D02*
X008213Y010139D01*
X008363Y010139D02*
X008363Y010589D01*
X008213Y010439D01*
X008053Y010514D02*
X008053Y010364D01*
X007978Y010289D01*
X007753Y010289D01*
X007753Y010139D02*
X007753Y010589D01*
X007978Y010589D01*
X008053Y010514D01*
X007593Y010589D02*
X007442Y010589D01*
X007518Y010589D02*
X007518Y010214D01*
X007442Y010139D01*
X007367Y010139D01*
X007292Y010214D01*
D14*
X014253Y005697D02*
X014253Y005390D01*
X014253Y005543D02*
X013793Y005543D01*
X013947Y005390D01*
X014253Y005236D02*
X014253Y004929D01*
X013793Y004929D01*
D15*
X021140Y003553D02*
X021140Y006584D01*
X021140Y006899D02*
X021711Y006899D01*
X021711Y005856D01*
X022557Y005856D01*
X022853Y006151D01*
X024349Y006151D01*
X024349Y005817D01*
X024811Y005817D01*
X024811Y004321D01*
X024349Y004321D01*
X024349Y003986D01*
X022853Y003986D01*
X022557Y004281D01*
X021711Y004281D01*
X021711Y003238D01*
X021140Y003238D01*
X003811Y003236D02*
X003240Y003236D01*
X003240Y004280D01*
X002394Y004280D01*
X002099Y003984D01*
X000603Y003984D01*
X000603Y004319D01*
X000140Y004319D01*
X000140Y005815D01*
X000603Y005815D01*
X000603Y006150D01*
X002099Y006150D01*
X002394Y005854D01*
X003240Y005854D01*
X003240Y006898D01*
X003811Y006898D01*
X003811Y006583D02*
X003811Y003551D01*
M02*
