G75*
G70*
%OFA0B0*%
%FSLAX24Y24*%
%IPPOS*%
%LPD*%
%AMOC8*
5,1,8,0,0,1.08239X$1,22.5*
%
%ADD10R,0.0513X0.0474*%
%ADD11R,0.0592X0.0671*%
%ADD12R,0.0316X0.0434*%
%ADD13R,0.2080X0.0530*%
%ADD14R,0.2080X0.0980*%
%ADD15C,0.0867*%
%ADD16C,0.0476*%
D10*
X012546Y003500D03*
X013215Y003500D03*
X015776Y006490D03*
X016445Y006490D03*
X008685Y007380D03*
X008016Y007380D03*
D11*
X012527Y004920D03*
X013275Y004920D03*
D12*
X012905Y006487D03*
X012531Y006487D03*
X012157Y006487D03*
X012157Y007393D03*
X012531Y007393D03*
X012905Y007393D03*
D13*
X018611Y006500D03*
X004861Y007380D03*
D14*
X004861Y005640D03*
X004861Y009120D03*
X018611Y008240D03*
X018611Y004760D03*
D15*
X013511Y001804D02*
X013511Y001016D01*
X012511Y001016D02*
X012511Y001804D01*
X012531Y008646D02*
X012531Y009434D01*
X011531Y009434D02*
X011531Y008646D01*
D16*
X005451Y008280D03*
X004891Y008280D03*
X004341Y008300D03*
X004351Y006400D03*
X004851Y006390D03*
X005381Y006390D03*
X014281Y005130D03*
X014281Y004480D03*
X014281Y003810D03*
X014301Y003160D03*
X018151Y005380D03*
X018651Y005380D03*
X019151Y005380D03*
X019151Y007480D03*
X018651Y007480D03*
X018151Y007480D03*
M02*
