%
M48
M72
T01C0.0236
T02C0.0433
%
T01
X4351Y6400
X4851Y6390
X5381Y6390
X5451Y8280
X4891Y8280
X4341Y8300
X14281Y5130
X14281Y4480
X14281Y3810
X14301Y3160
X18151Y5380
X18651Y5380
X19151Y5380
X19151Y7480
X18651Y7480
X18151Y7480
T02
X12511Y1410
X13511Y1410
X12531Y9040
X11531Y9040
M30
