G75*
G70*
%OFA0B0*%
%FSLAX24Y24*%
%IPPOS*%
%LPD*%
%AMOC8*
5,1,8,0,0,1.08239X$1,22.5*
%
%ADD10R,0.0316X0.0434*%
%ADD11R,0.0592X0.0671*%
%ADD12R,0.0671X0.0592*%
%ADD13R,0.0474X0.0513*%
%ADD14R,0.2080X0.0530*%
%ADD15R,0.2080X0.0980*%
%ADD16R,0.0530X0.2080*%
%ADD17R,0.0980X0.2080*%
%ADD18C,0.0680*%
%ADD19C,0.0476*%
D10*
X013537Y004978D03*
X013911Y004978D03*
X014285Y004978D03*
X014285Y005883D03*
X013911Y005883D03*
X013537Y005883D03*
D11*
X009125Y004981D03*
X008377Y004981D03*
X018097Y004991D03*
X018845Y004991D03*
D12*
X013921Y007783D03*
X013921Y008531D03*
D13*
X010946Y007271D03*
X010277Y007271D03*
X017017Y007123D03*
X017686Y007123D03*
D14*
X022691Y004981D03*
X004861Y005001D03*
D15*
X004861Y003261D03*
X004861Y006741D03*
X022691Y006721D03*
X022691Y003241D03*
D16*
X013917Y010640D03*
D17*
X012177Y010640D03*
X015657Y010640D03*
D18*
X018672Y009444D02*
X018672Y008844D01*
X019672Y008844D02*
X019672Y009444D01*
X009129Y009239D02*
X009129Y008639D01*
X008129Y008639D02*
X008129Y009239D01*
D19*
X005412Y006002D03*
X004755Y006002D03*
X004133Y006002D03*
X004125Y004006D03*
X004739Y004006D03*
X005389Y003999D03*
X012779Y003727D03*
X013345Y003735D03*
X013889Y003743D03*
X014440Y003751D03*
X015007Y003743D03*
X022086Y004113D03*
X022684Y004101D03*
X023271Y004097D03*
X023294Y006026D03*
X022708Y006026D03*
X022086Y006022D03*
M02*
