%
M48
M72
T01C0.0236
T02C0.0400
%
T01
X4125Y4006
X4739Y4006
X5389Y3999
X5412Y6002
X4755Y6002
X4133Y6002
X12779Y3727
X13345Y3735
X13889Y3743
X14440Y3751
X15007Y3743
X22086Y4113
X22684Y4101
X23271Y4097
X23294Y6026
X22708Y6026
X22086Y6022
T02
X19672Y9144
X18672Y9144
X9129Y8939
X8129Y8939
M30
