G75*
G70*
%OFA0B0*%
%FSLAX24Y24*%
%IPPOS*%
%LPD*%
%AMOC8*
5,1,8,0,0,1.08239X$1,22.5*
%
%ADD10R,0.0512X0.0591*%
%ADD11R,0.0591X0.0512*%
%ADD12R,0.0283X0.0118*%
%ADD13R,0.0118X0.0283*%
%ADD14R,0.0846X0.0846*%
%ADD15R,0.0394X0.0433*%
%ADD16R,0.0709X0.0630*%
%ADD17R,0.0630X0.0709*%
%ADD18R,0.0650X0.0299*%
%ADD19R,0.2000X0.0450*%
%ADD20R,0.2000X0.0900*%
%ADD21R,0.0138X0.0394*%
%ADD22R,0.0433X0.0394*%
%ADD23R,0.0450X0.2000*%
%ADD24R,0.0900X0.2000*%
%ADD25OC8,0.0600*%
%ADD26C,0.0160*%
%ADD27C,0.0560*%
%ADD28C,0.0000*%
%ADD29C,0.0001*%
%ADD30C,0.0100*%
%ADD31C,0.0240*%
%ADD32C,0.0396*%
%ADD33C,0.0120*%
D10*
X012815Y009353D03*
X013563Y009353D03*
X013563Y010373D03*
X012815Y010373D03*
D11*
X015906Y012117D03*
X016949Y012117D03*
X016949Y012865D03*
X015906Y012865D03*
D12*
X015327Y010355D03*
X015327Y010099D03*
X015327Y009843D03*
X015327Y009587D03*
X016752Y009587D03*
X016752Y009843D03*
X016752Y010099D03*
X016752Y010355D03*
D13*
X016423Y010684D03*
X016168Y010684D03*
X015912Y010684D03*
X015656Y010684D03*
X015656Y009259D03*
X015912Y009259D03*
X016168Y009259D03*
X016423Y009259D03*
D14*
X016040Y009971D03*
D15*
X015099Y008633D03*
X015099Y007963D03*
X011410Y009526D03*
X011410Y010196D03*
D16*
X015969Y008456D03*
X015969Y007353D03*
D17*
X019705Y012408D03*
X020807Y012408D03*
D18*
X010146Y010393D03*
X010146Y009893D03*
X010146Y009393D03*
X008894Y009393D03*
X008894Y010393D03*
D19*
X004861Y010393D03*
X025612Y010302D03*
D20*
X025612Y012042D03*
X025612Y008562D03*
X004861Y008653D03*
X004861Y012133D03*
D21*
X019453Y010294D03*
X019709Y010294D03*
X019965Y010294D03*
X019965Y009586D03*
X019709Y009586D03*
X019453Y009586D03*
D22*
X018217Y009589D03*
X018217Y008920D03*
X017378Y009007D03*
X017378Y008337D03*
X014264Y008664D03*
X014264Y007995D03*
X018217Y010334D03*
X018217Y011003D03*
X021315Y010302D03*
X021984Y010302D03*
D23*
X015902Y016056D03*
D24*
X017642Y016056D03*
X014162Y016056D03*
D25*
X019244Y004231D03*
X016213Y004070D03*
D26*
X018634Y006893D02*
X018634Y006912D01*
X018319Y006912D01*
X018319Y006971D01*
X016168Y008611D02*
X016168Y009259D01*
X016431Y009587D02*
X016252Y009767D01*
X016431Y009587D02*
X016752Y009587D01*
X016752Y009843D02*
X016754Y009845D01*
X017256Y009845D01*
X017512Y009589D01*
X018217Y009589D01*
X017488Y010334D02*
X017256Y010101D01*
X016754Y010101D01*
X016752Y010099D01*
X016752Y010355D02*
X016449Y010355D01*
X016423Y010381D01*
X016423Y010684D01*
X016168Y010684D02*
X016168Y011336D01*
X016949Y012117D01*
X017925Y012145D02*
X019343Y012145D01*
X019343Y012303D02*
X017925Y012303D01*
X017925Y012462D02*
X019343Y012462D01*
X019343Y012620D02*
X017925Y012620D01*
X017925Y012739D02*
X019343Y012739D01*
X019343Y011499D01*
X017925Y011499D01*
X017925Y012739D01*
X017925Y011986D02*
X019343Y011986D01*
X019343Y011828D02*
X017925Y011828D01*
X017925Y011669D02*
X019343Y011669D01*
X019343Y011511D02*
X017925Y011511D01*
X019705Y012408D02*
X019709Y012404D01*
X019709Y010294D01*
X019453Y010294D02*
X019410Y010337D01*
X019244Y010337D01*
X018217Y010334D02*
X017488Y010334D01*
X016449Y010355D02*
X016388Y010355D01*
X016233Y010200D01*
X015819Y010200D02*
X015656Y010363D01*
X015656Y010684D01*
X015912Y010684D02*
X015918Y010690D01*
X015918Y012105D01*
X015906Y012117D01*
X016949Y012865D02*
X016949Y013735D01*
X016921Y013763D01*
X020807Y012408D02*
X021721Y012369D01*
X021764Y012424D01*
X024658Y012462D02*
X026429Y012462D01*
X026429Y012503D02*
X026429Y011125D01*
X024658Y011125D01*
X024658Y012503D01*
X026429Y012503D01*
X026429Y012303D02*
X024658Y012303D01*
X024658Y012145D02*
X026429Y012145D01*
X026429Y011986D02*
X024658Y011986D01*
X024658Y011828D02*
X026429Y011828D01*
X026429Y011669D02*
X024658Y011669D01*
X024658Y011511D02*
X026429Y011511D01*
X026429Y011352D02*
X024658Y011352D01*
X024658Y011194D02*
X026429Y011194D01*
X026429Y009550D02*
X024658Y009550D01*
X024658Y008172D01*
X026429Y008172D01*
X026429Y009550D01*
X026429Y009450D02*
X024658Y009450D01*
X024658Y009292D02*
X026429Y009292D01*
X026429Y009133D02*
X024658Y009133D01*
X024658Y008975D02*
X026429Y008975D01*
X026429Y008816D02*
X024658Y008816D01*
X024658Y008658D02*
X026429Y008658D01*
X026429Y008499D02*
X024658Y008499D01*
X024658Y008341D02*
X026429Y008341D01*
X026429Y008182D02*
X024658Y008182D01*
X019709Y008932D02*
X019697Y008920D01*
X019709Y008932D02*
X019709Y009586D01*
X019453Y009586D02*
X019449Y009589D01*
X015327Y009843D02*
X015309Y009826D01*
X014756Y009826D01*
X014284Y009353D01*
X013563Y009353D01*
X014504Y010373D02*
X014756Y010121D01*
X015305Y010121D01*
X015327Y010099D01*
X014504Y010373D02*
X013563Y010373D01*
X005760Y009747D02*
X005760Y008369D01*
X003988Y008369D01*
X003988Y009747D01*
X005760Y009747D01*
X005760Y009609D02*
X003988Y009609D01*
X003988Y009450D02*
X005760Y009450D01*
X005760Y009292D02*
X003988Y009292D01*
X003988Y009133D02*
X005760Y009133D01*
X005760Y008975D02*
X003988Y008975D01*
X003988Y008816D02*
X005760Y008816D01*
X005760Y008658D02*
X003988Y008658D01*
X003988Y008499D02*
X005760Y008499D01*
X005760Y011125D02*
X003988Y011125D01*
X003988Y012700D01*
X005760Y012700D01*
X005760Y011125D01*
X005760Y011194D02*
X003988Y011194D01*
X003988Y011352D02*
X005760Y011352D01*
X005760Y011511D02*
X003988Y011511D01*
X003988Y011669D02*
X005760Y011669D01*
X005760Y011828D02*
X003988Y011828D01*
X003988Y011986D02*
X005760Y011986D01*
X005760Y012145D02*
X003988Y012145D01*
X003988Y012303D02*
X005760Y012303D01*
X005760Y012462D02*
X003988Y012462D01*
X003988Y012620D02*
X005760Y012620D01*
D27*
X004861Y010393D02*
X008894Y010393D01*
X011016Y009353D02*
X012815Y009353D01*
X012815Y010373D02*
X011429Y010373D01*
X011272Y010373D01*
X011272Y010357D01*
X015902Y012869D02*
X015906Y012865D01*
X015902Y012869D02*
X015902Y016056D01*
X018953Y012408D02*
X018890Y012345D01*
X018890Y012326D01*
X018217Y011652D01*
X018953Y012408D02*
X019705Y012408D01*
X021984Y010302D02*
X025612Y010302D01*
D28*
X019421Y007818D02*
X017827Y007818D01*
X017827Y006440D01*
X019421Y006440D01*
X019421Y007818D01*
X011213Y009078D02*
X010189Y009235D01*
X010189Y009550D01*
X011213Y009629D01*
X011213Y009078D01*
X011252Y010082D02*
X010347Y010239D01*
X010347Y010554D01*
X011252Y010652D01*
X011252Y010082D01*
D29*
X011249Y010082D01*
X011252Y010083D02*
X011243Y010083D01*
X011237Y010084D02*
X011252Y010084D01*
X011252Y010085D02*
X011232Y010085D01*
X011226Y010086D02*
X011252Y010086D01*
X011252Y010087D02*
X011220Y010087D01*
X011214Y010088D02*
X011252Y010088D01*
X011252Y010089D02*
X011209Y010089D01*
X011203Y010090D02*
X011252Y010090D01*
X011252Y010091D02*
X011197Y010091D01*
X011192Y010092D02*
X011252Y010092D01*
X011252Y010093D02*
X011186Y010093D01*
X011180Y010094D02*
X011252Y010094D01*
X011252Y010095D02*
X011174Y010095D01*
X011169Y010096D02*
X011252Y010096D01*
X011252Y010097D02*
X011163Y010097D01*
X011157Y010098D02*
X011252Y010098D01*
X011252Y010099D02*
X011151Y010099D01*
X011146Y010100D02*
X011252Y010100D01*
X011252Y010101D02*
X011140Y010101D01*
X011134Y010102D02*
X011252Y010102D01*
X011252Y010103D02*
X011128Y010103D01*
X011123Y010104D02*
X011252Y010104D01*
X011252Y010105D02*
X011117Y010105D01*
X011111Y010106D02*
X011252Y010106D01*
X011252Y010107D02*
X011105Y010107D01*
X011100Y010108D02*
X011252Y010108D01*
X011252Y010109D02*
X011094Y010109D01*
X011088Y010110D02*
X011252Y010110D01*
X011252Y010111D02*
X011082Y010111D01*
X011077Y010112D02*
X011252Y010112D01*
X011252Y010113D02*
X011071Y010113D01*
X011065Y010114D02*
X011252Y010114D01*
X011252Y010115D02*
X011059Y010115D01*
X011054Y010116D02*
X011252Y010116D01*
X011252Y010117D02*
X011048Y010117D01*
X011042Y010118D02*
X011252Y010118D01*
X011252Y010119D02*
X011036Y010119D01*
X011031Y010120D02*
X011252Y010120D01*
X011252Y010121D02*
X011025Y010121D01*
X011019Y010122D02*
X011252Y010122D01*
X011252Y010123D02*
X011013Y010123D01*
X011008Y010124D02*
X011252Y010124D01*
X011252Y010125D02*
X011002Y010125D01*
X010996Y010126D02*
X011252Y010126D01*
X011252Y010127D02*
X010990Y010127D01*
X010985Y010128D02*
X011252Y010128D01*
X011252Y010129D02*
X010979Y010129D01*
X010973Y010130D02*
X011252Y010130D01*
X011252Y010131D02*
X010967Y010131D01*
X010962Y010132D02*
X011252Y010132D01*
X011252Y010133D02*
X010956Y010133D01*
X010950Y010134D02*
X011252Y010134D01*
X011252Y010135D02*
X010945Y010135D01*
X010939Y010136D02*
X011252Y010136D01*
X011252Y010137D02*
X010933Y010137D01*
X010927Y010138D02*
X011252Y010138D01*
X011252Y010139D02*
X010922Y010139D01*
X010916Y010140D02*
X011252Y010140D01*
X011252Y010141D02*
X010910Y010141D01*
X010904Y010142D02*
X011252Y010142D01*
X011252Y010143D02*
X010899Y010143D01*
X010893Y010144D02*
X011252Y010144D01*
X011252Y010145D02*
X010887Y010145D01*
X010881Y010146D02*
X011252Y010146D01*
X011252Y010147D02*
X010876Y010147D01*
X010870Y010148D02*
X011252Y010148D01*
X011252Y010149D02*
X010864Y010149D01*
X010858Y010150D02*
X011252Y010150D01*
X011252Y010151D02*
X010853Y010151D01*
X010847Y010152D02*
X011252Y010152D01*
X011252Y010153D02*
X010841Y010153D01*
X010835Y010154D02*
X011252Y010154D01*
X011252Y010155D02*
X010830Y010155D01*
X010824Y010156D02*
X011252Y010156D01*
X011252Y010157D02*
X010818Y010157D01*
X010812Y010158D02*
X011252Y010158D01*
X011252Y010159D02*
X010807Y010159D01*
X010801Y010160D02*
X011252Y010160D01*
X011252Y010161D02*
X010795Y010161D01*
X010789Y010162D02*
X011252Y010162D01*
X011252Y010163D02*
X010784Y010163D01*
X010778Y010164D02*
X011252Y010164D01*
X011252Y010165D02*
X010772Y010165D01*
X010766Y010166D02*
X011252Y010166D01*
X011252Y010167D02*
X010761Y010167D01*
X010755Y010168D02*
X011252Y010168D01*
X011252Y010169D02*
X010749Y010169D01*
X010743Y010170D02*
X011252Y010170D01*
X011252Y010171D02*
X010738Y010171D01*
X010732Y010172D02*
X011252Y010172D01*
X011252Y010173D02*
X010726Y010173D01*
X010720Y010174D02*
X011252Y010174D01*
X011252Y010175D02*
X010715Y010175D01*
X010709Y010176D02*
X011252Y010176D01*
X011252Y010177D02*
X010703Y010177D01*
X010697Y010178D02*
X011252Y010178D01*
X011252Y010179D02*
X010692Y010179D01*
X010686Y010180D02*
X011252Y010180D01*
X011252Y010181D02*
X010680Y010181D01*
X010675Y010182D02*
X011252Y010182D01*
X011252Y010183D02*
X010669Y010183D01*
X010663Y010184D02*
X011252Y010184D01*
X011252Y010185D02*
X010657Y010185D01*
X010652Y010186D02*
X011252Y010186D01*
X011252Y010187D02*
X010646Y010187D01*
X010640Y010188D02*
X011252Y010188D01*
X011252Y010189D02*
X010634Y010189D01*
X010629Y010190D02*
X011252Y010190D01*
X011252Y010191D02*
X010623Y010191D01*
X010617Y010192D02*
X011252Y010192D01*
X011252Y010193D02*
X010611Y010193D01*
X010606Y010194D02*
X011252Y010194D01*
X011252Y010195D02*
X010600Y010195D01*
X010594Y010196D02*
X011252Y010196D01*
X011252Y010197D02*
X010588Y010197D01*
X010583Y010198D02*
X011252Y010198D01*
X011252Y010199D02*
X010577Y010199D01*
X010571Y010200D02*
X011252Y010200D01*
X011252Y010201D02*
X010565Y010201D01*
X010560Y010202D02*
X011252Y010202D01*
X011252Y010203D02*
X010554Y010203D01*
X010548Y010204D02*
X011252Y010204D01*
X011252Y010205D02*
X010542Y010205D01*
X010537Y010206D02*
X011252Y010206D01*
X011252Y010207D02*
X010531Y010207D01*
X010525Y010208D02*
X011252Y010208D01*
X011252Y010209D02*
X010519Y010209D01*
X010514Y010210D02*
X011252Y010210D01*
X011252Y010211D02*
X010508Y010211D01*
X010502Y010212D02*
X011252Y010212D01*
X011252Y010213D02*
X010496Y010213D01*
X010491Y010214D02*
X011252Y010214D01*
X011252Y010215D02*
X010485Y010215D01*
X010479Y010216D02*
X011252Y010216D01*
X011252Y010217D02*
X010473Y010217D01*
X010468Y010218D02*
X011252Y010218D01*
X011252Y010219D02*
X010462Y010219D01*
X010456Y010220D02*
X011252Y010220D01*
X011252Y010221D02*
X010450Y010221D01*
X010445Y010222D02*
X011252Y010222D01*
X011252Y010223D02*
X010439Y010223D01*
X010433Y010224D02*
X011252Y010224D01*
X011252Y010225D02*
X010428Y010225D01*
X010422Y010226D02*
X011252Y010226D01*
X011252Y010227D02*
X010416Y010227D01*
X010410Y010228D02*
X011252Y010228D01*
X011252Y010229D02*
X010405Y010229D01*
X010399Y010230D02*
X011252Y010230D01*
X011252Y010231D02*
X010393Y010231D01*
X010387Y010232D02*
X011252Y010232D01*
X011252Y010233D02*
X010382Y010233D01*
X010376Y010234D02*
X011252Y010234D01*
X011252Y010235D02*
X010370Y010235D01*
X010364Y010236D02*
X011252Y010236D01*
X011252Y010237D02*
X010359Y010237D01*
X010353Y010238D02*
X011252Y010238D01*
X011252Y010239D02*
X010347Y010239D01*
X010347Y010240D02*
X011252Y010240D01*
X011252Y010241D02*
X010347Y010241D01*
X010347Y010242D02*
X011252Y010242D01*
X011252Y010243D02*
X010347Y010243D01*
X010347Y010244D02*
X011252Y010244D01*
X011252Y010245D02*
X010347Y010245D01*
X010347Y010246D02*
X011252Y010246D01*
X011252Y010247D02*
X010347Y010247D01*
X010347Y010248D02*
X011252Y010248D01*
X011252Y010249D02*
X010347Y010249D01*
X010347Y010250D02*
X011252Y010250D01*
X011252Y010251D02*
X010347Y010251D01*
X010347Y010252D02*
X011252Y010252D01*
X011252Y010253D02*
X010347Y010253D01*
X010347Y010254D02*
X011252Y010254D01*
X011252Y010255D02*
X010347Y010255D01*
X010347Y010256D02*
X011252Y010256D01*
X011252Y010257D02*
X010347Y010257D01*
X010347Y010258D02*
X011252Y010258D01*
X011252Y010259D02*
X010347Y010259D01*
X010347Y010260D02*
X011252Y010260D01*
X011252Y010261D02*
X010347Y010261D01*
X010347Y010262D02*
X011252Y010262D01*
X011252Y010263D02*
X010347Y010263D01*
X010347Y010264D02*
X011252Y010264D01*
X011252Y010265D02*
X010347Y010265D01*
X010347Y010266D02*
X011252Y010266D01*
X011252Y010267D02*
X010347Y010267D01*
X010347Y010268D02*
X011252Y010268D01*
X011252Y010269D02*
X010347Y010269D01*
X010347Y010270D02*
X011252Y010270D01*
X011252Y010271D02*
X010347Y010271D01*
X010347Y010272D02*
X011252Y010272D01*
X011252Y010273D02*
X010347Y010273D01*
X010347Y010274D02*
X011252Y010274D01*
X011252Y010275D02*
X010347Y010275D01*
X010347Y010276D02*
X011252Y010276D01*
X011252Y010277D02*
X010347Y010277D01*
X010347Y010278D02*
X011252Y010278D01*
X011252Y010279D02*
X010347Y010279D01*
X010347Y010280D02*
X011252Y010280D01*
X011252Y010281D02*
X010347Y010281D01*
X010347Y010282D02*
X011252Y010282D01*
X011252Y010283D02*
X010347Y010283D01*
X010347Y010284D02*
X011252Y010284D01*
X011252Y010285D02*
X010347Y010285D01*
X010347Y010286D02*
X011252Y010286D01*
X011252Y010287D02*
X010347Y010287D01*
X010347Y010288D02*
X011252Y010288D01*
X011252Y010289D02*
X010347Y010289D01*
X010347Y010290D02*
X011252Y010290D01*
X011252Y010291D02*
X010347Y010291D01*
X010347Y010292D02*
X011252Y010292D01*
X011252Y010293D02*
X010347Y010293D01*
X010347Y010294D02*
X011252Y010294D01*
X011252Y010295D02*
X010347Y010295D01*
X010347Y010296D02*
X011252Y010296D01*
X011252Y010297D02*
X010347Y010297D01*
X010347Y010298D02*
X011252Y010298D01*
X011252Y010299D02*
X010347Y010299D01*
X010347Y010300D02*
X011252Y010300D01*
X011252Y010301D02*
X010347Y010301D01*
X010347Y010302D02*
X011252Y010302D01*
X011252Y010303D02*
X010347Y010303D01*
X010347Y010304D02*
X011252Y010304D01*
X011252Y010305D02*
X010347Y010305D01*
X010347Y010306D02*
X011252Y010306D01*
X011252Y010307D02*
X010347Y010307D01*
X010347Y010308D02*
X011252Y010308D01*
X011252Y010309D02*
X010347Y010309D01*
X010347Y010310D02*
X011252Y010310D01*
X011252Y010311D02*
X010347Y010311D01*
X010347Y010312D02*
X011252Y010312D01*
X011252Y010313D02*
X010347Y010313D01*
X010347Y010314D02*
X011252Y010314D01*
X011252Y010315D02*
X010347Y010315D01*
X010347Y010316D02*
X011252Y010316D01*
X011252Y010317D02*
X010347Y010317D01*
X010347Y010318D02*
X011252Y010318D01*
X011252Y010319D02*
X010347Y010319D01*
X010347Y010320D02*
X011252Y010320D01*
X011252Y010321D02*
X010347Y010321D01*
X010347Y010322D02*
X011252Y010322D01*
X011252Y010323D02*
X010347Y010323D01*
X010347Y010324D02*
X011252Y010324D01*
X011252Y010325D02*
X010347Y010325D01*
X010347Y010326D02*
X011252Y010326D01*
X011252Y010327D02*
X010347Y010327D01*
X010347Y010328D02*
X011252Y010328D01*
X011252Y010329D02*
X010347Y010329D01*
X010347Y010330D02*
X011252Y010330D01*
X011252Y010331D02*
X010347Y010331D01*
X010347Y010332D02*
X011252Y010332D01*
X011252Y010333D02*
X010347Y010333D01*
X010347Y010334D02*
X011252Y010334D01*
X011252Y010335D02*
X010347Y010335D01*
X010347Y010336D02*
X011252Y010336D01*
X011252Y010337D02*
X010347Y010337D01*
X010347Y010338D02*
X011252Y010338D01*
X011252Y010339D02*
X010347Y010339D01*
X010347Y010340D02*
X011252Y010340D01*
X011252Y010341D02*
X010347Y010341D01*
X010347Y010342D02*
X011252Y010342D01*
X011252Y010343D02*
X010347Y010343D01*
X010347Y010344D02*
X011252Y010344D01*
X011252Y010345D02*
X010347Y010345D01*
X010347Y010346D02*
X011252Y010346D01*
X011252Y010347D02*
X010347Y010347D01*
X010347Y010348D02*
X011252Y010348D01*
X011252Y010349D02*
X010347Y010349D01*
X010347Y010350D02*
X011252Y010350D01*
X011252Y010351D02*
X010347Y010351D01*
X010347Y010352D02*
X011252Y010352D01*
X011252Y010353D02*
X010347Y010353D01*
X010347Y010354D02*
X011252Y010354D01*
X011252Y010355D02*
X010347Y010355D01*
X010347Y010356D02*
X011252Y010356D01*
X011252Y010357D02*
X010347Y010357D01*
X010347Y010358D02*
X011252Y010358D01*
X011252Y010359D02*
X010347Y010359D01*
X010347Y010360D02*
X011252Y010360D01*
X011252Y010361D02*
X010347Y010361D01*
X010347Y010362D02*
X011252Y010362D01*
X011252Y010363D02*
X010347Y010363D01*
X010347Y010364D02*
X011252Y010364D01*
X011252Y010365D02*
X010347Y010365D01*
X010347Y010366D02*
X011252Y010366D01*
X011252Y010367D02*
X010347Y010367D01*
X010347Y010368D02*
X011252Y010368D01*
X011252Y010369D02*
X010347Y010369D01*
X010347Y010370D02*
X011252Y010370D01*
X011252Y010371D02*
X010347Y010371D01*
X010347Y010372D02*
X011252Y010372D01*
X011252Y010373D02*
X010347Y010373D01*
X010347Y010374D02*
X011252Y010374D01*
X011252Y010375D02*
X010347Y010375D01*
X010347Y010376D02*
X011252Y010376D01*
X011252Y010377D02*
X010347Y010377D01*
X010347Y010378D02*
X011252Y010378D01*
X011252Y010379D02*
X010347Y010379D01*
X010347Y010380D02*
X011252Y010380D01*
X011252Y010381D02*
X010347Y010381D01*
X010347Y010382D02*
X011252Y010382D01*
X011252Y010383D02*
X010347Y010383D01*
X010347Y010384D02*
X011252Y010384D01*
X011252Y010385D02*
X010347Y010385D01*
X010347Y010386D02*
X011252Y010386D01*
X011252Y010387D02*
X010347Y010387D01*
X010347Y010388D02*
X011252Y010388D01*
X011252Y010389D02*
X010347Y010389D01*
X010347Y010390D02*
X011252Y010390D01*
X011252Y010391D02*
X010347Y010391D01*
X010347Y010392D02*
X011252Y010392D01*
X011252Y010393D02*
X010347Y010393D01*
X010347Y010394D02*
X011252Y010394D01*
X011252Y010395D02*
X010347Y010395D01*
X010347Y010396D02*
X011252Y010396D01*
X011252Y010397D02*
X010347Y010397D01*
X010347Y010398D02*
X011252Y010398D01*
X011252Y010399D02*
X010347Y010399D01*
X010347Y010400D02*
X011252Y010400D01*
X011252Y010401D02*
X010347Y010401D01*
X010347Y010402D02*
X011252Y010402D01*
X011252Y010403D02*
X010347Y010403D01*
X010347Y010404D02*
X011252Y010404D01*
X011252Y010405D02*
X010347Y010405D01*
X010347Y010406D02*
X011252Y010406D01*
X011252Y010407D02*
X010347Y010407D01*
X010347Y010408D02*
X011252Y010408D01*
X011252Y010409D02*
X010347Y010409D01*
X010347Y010410D02*
X011252Y010410D01*
X011252Y010411D02*
X010347Y010411D01*
X010347Y010412D02*
X011252Y010412D01*
X011252Y010413D02*
X010347Y010413D01*
X010347Y010414D02*
X011252Y010414D01*
X011252Y010415D02*
X010347Y010415D01*
X010347Y010416D02*
X011252Y010416D01*
X011252Y010417D02*
X010347Y010417D01*
X010347Y010418D02*
X011252Y010418D01*
X011252Y010419D02*
X010347Y010419D01*
X010347Y010420D02*
X011252Y010420D01*
X011252Y010421D02*
X010347Y010421D01*
X010347Y010422D02*
X011252Y010422D01*
X011252Y010423D02*
X010347Y010423D01*
X010347Y010424D02*
X011252Y010424D01*
X011252Y010425D02*
X010347Y010425D01*
X010347Y010426D02*
X011252Y010426D01*
X011252Y010427D02*
X010347Y010427D01*
X010347Y010428D02*
X011252Y010428D01*
X011252Y010429D02*
X010347Y010429D01*
X010347Y010430D02*
X011252Y010430D01*
X011252Y010431D02*
X010347Y010431D01*
X010347Y010432D02*
X011252Y010432D01*
X011252Y010433D02*
X010347Y010433D01*
X010347Y010434D02*
X011252Y010434D01*
X011252Y010435D02*
X010347Y010435D01*
X010347Y010436D02*
X011252Y010436D01*
X011252Y010437D02*
X010347Y010437D01*
X010347Y010438D02*
X011252Y010438D01*
X011252Y010439D02*
X010347Y010439D01*
X010347Y010440D02*
X011252Y010440D01*
X011252Y010441D02*
X010347Y010441D01*
X010347Y010442D02*
X011252Y010442D01*
X011252Y010443D02*
X010347Y010443D01*
X010347Y010444D02*
X011252Y010444D01*
X011252Y010445D02*
X010347Y010445D01*
X010347Y010446D02*
X011252Y010446D01*
X011252Y010447D02*
X010347Y010447D01*
X010347Y010448D02*
X011252Y010448D01*
X011252Y010449D02*
X010347Y010449D01*
X010347Y010450D02*
X011252Y010450D01*
X011252Y010451D02*
X010347Y010451D01*
X010347Y010452D02*
X011252Y010452D01*
X011252Y010453D02*
X010347Y010453D01*
X010347Y010454D02*
X011252Y010454D01*
X011252Y010455D02*
X010347Y010455D01*
X010347Y010456D02*
X011252Y010456D01*
X011252Y010457D02*
X010347Y010457D01*
X010347Y010458D02*
X011252Y010458D01*
X011252Y010459D02*
X010347Y010459D01*
X010347Y010460D02*
X011252Y010460D01*
X011252Y010461D02*
X010347Y010461D01*
X010347Y010462D02*
X011252Y010462D01*
X011252Y010463D02*
X010347Y010463D01*
X010347Y010464D02*
X011252Y010464D01*
X011252Y010465D02*
X010347Y010465D01*
X010347Y010466D02*
X011252Y010466D01*
X011252Y010467D02*
X010347Y010467D01*
X010347Y010468D02*
X011252Y010468D01*
X011252Y010469D02*
X010347Y010469D01*
X010347Y010470D02*
X011252Y010470D01*
X011252Y010471D02*
X010347Y010471D01*
X010347Y010472D02*
X011252Y010472D01*
X011252Y010473D02*
X010347Y010473D01*
X010347Y010474D02*
X011252Y010474D01*
X011252Y010475D02*
X010347Y010475D01*
X010347Y010476D02*
X011252Y010476D01*
X011252Y010477D02*
X010347Y010477D01*
X010347Y010478D02*
X011252Y010478D01*
X011252Y010479D02*
X010347Y010479D01*
X010347Y010480D02*
X011252Y010480D01*
X011252Y010481D02*
X010347Y010481D01*
X010347Y010482D02*
X011252Y010482D01*
X011252Y010483D02*
X010347Y010483D01*
X010347Y010484D02*
X011252Y010484D01*
X011252Y010485D02*
X010347Y010485D01*
X010347Y010486D02*
X011252Y010486D01*
X011252Y010487D02*
X010347Y010487D01*
X010347Y010488D02*
X011252Y010488D01*
X011252Y010489D02*
X010347Y010489D01*
X010347Y010490D02*
X011252Y010490D01*
X011252Y010491D02*
X010347Y010491D01*
X010347Y010492D02*
X011252Y010492D01*
X011252Y010493D02*
X010347Y010493D01*
X010347Y010494D02*
X011252Y010494D01*
X011252Y010495D02*
X010347Y010495D01*
X010347Y010496D02*
X011252Y010496D01*
X011252Y010497D02*
X010347Y010497D01*
X010347Y010498D02*
X011252Y010498D01*
X011252Y010499D02*
X010347Y010499D01*
X010347Y010500D02*
X011252Y010500D01*
X011252Y010501D02*
X010347Y010501D01*
X010347Y010502D02*
X011252Y010502D01*
X011252Y010503D02*
X010347Y010503D01*
X010347Y010504D02*
X011252Y010504D01*
X011252Y010505D02*
X010347Y010505D01*
X010347Y010506D02*
X011252Y010506D01*
X011252Y010507D02*
X010347Y010507D01*
X010347Y010508D02*
X011252Y010508D01*
X011252Y010509D02*
X010347Y010509D01*
X010347Y010510D02*
X011252Y010510D01*
X011252Y010511D02*
X010347Y010511D01*
X010347Y010512D02*
X011252Y010512D01*
X011252Y010513D02*
X010347Y010513D01*
X010347Y010514D02*
X011252Y010514D01*
X011252Y010515D02*
X010347Y010515D01*
X010347Y010516D02*
X011252Y010516D01*
X011252Y010517D02*
X010347Y010517D01*
X010347Y010518D02*
X011252Y010518D01*
X011252Y010519D02*
X010347Y010519D01*
X010347Y010520D02*
X011252Y010520D01*
X011252Y010521D02*
X010347Y010521D01*
X010347Y010522D02*
X011252Y010522D01*
X011252Y010523D02*
X010347Y010523D01*
X010347Y010524D02*
X011252Y010524D01*
X011252Y010525D02*
X010347Y010525D01*
X010347Y010526D02*
X011252Y010526D01*
X011252Y010527D02*
X010347Y010527D01*
X010347Y010528D02*
X011252Y010528D01*
X011252Y010529D02*
X010347Y010529D01*
X010347Y010530D02*
X011252Y010530D01*
X011252Y010531D02*
X010347Y010531D01*
X010347Y010532D02*
X011252Y010532D01*
X011252Y010533D02*
X010347Y010533D01*
X010347Y010534D02*
X011252Y010534D01*
X011252Y010535D02*
X010347Y010535D01*
X010347Y010536D02*
X011252Y010536D01*
X011252Y010537D02*
X010347Y010537D01*
X010347Y010538D02*
X011252Y010538D01*
X011252Y010539D02*
X010347Y010539D01*
X010347Y010540D02*
X011252Y010540D01*
X011252Y010541D02*
X010347Y010541D01*
X010347Y010542D02*
X011252Y010542D01*
X011252Y010543D02*
X010347Y010543D01*
X010347Y010544D02*
X011252Y010544D01*
X011252Y010545D02*
X010347Y010545D01*
X010347Y010546D02*
X011252Y010546D01*
X011252Y010547D02*
X010347Y010547D01*
X010347Y010548D02*
X011252Y010548D01*
X011252Y010549D02*
X010347Y010549D01*
X010347Y010550D02*
X011252Y010550D01*
X011252Y010551D02*
X010347Y010551D01*
X010347Y010552D02*
X011252Y010552D01*
X011252Y010553D02*
X010347Y010553D01*
X010347Y010554D02*
X011252Y010554D01*
X011252Y010555D02*
X010353Y010555D01*
X010362Y010556D02*
X011252Y010556D01*
X011252Y010557D02*
X010371Y010557D01*
X010380Y010558D02*
X011252Y010558D01*
X011252Y010559D02*
X010390Y010559D01*
X010399Y010560D02*
X011252Y010560D01*
X011252Y010561D02*
X010408Y010561D01*
X010417Y010562D02*
X011252Y010562D01*
X011252Y010563D02*
X010426Y010563D01*
X010435Y010564D02*
X011252Y010564D01*
X011252Y010565D02*
X010445Y010565D01*
X010454Y010566D02*
X011252Y010566D01*
X011252Y010567D02*
X010463Y010567D01*
X010472Y010568D02*
X011252Y010568D01*
X011252Y010569D02*
X010481Y010569D01*
X010491Y010570D02*
X011252Y010570D01*
X011252Y010571D02*
X010500Y010571D01*
X010509Y010572D02*
X011252Y010572D01*
X011252Y010573D02*
X010518Y010573D01*
X010527Y010574D02*
X011252Y010574D01*
X011252Y010575D02*
X010537Y010575D01*
X010546Y010576D02*
X011252Y010576D01*
X011252Y010577D02*
X010555Y010577D01*
X010564Y010578D02*
X011252Y010578D01*
X011252Y010579D02*
X010573Y010579D01*
X010583Y010580D02*
X011252Y010580D01*
X011252Y010581D02*
X010592Y010581D01*
X010601Y010582D02*
X011252Y010582D01*
X011252Y010583D02*
X010610Y010583D01*
X010619Y010584D02*
X011252Y010584D01*
X011252Y010585D02*
X010628Y010585D01*
X010638Y010586D02*
X011252Y010586D01*
X011252Y010587D02*
X010647Y010587D01*
X010656Y010588D02*
X011252Y010588D01*
X011252Y010589D02*
X010665Y010589D01*
X010674Y010590D02*
X011252Y010590D01*
X011252Y010591D02*
X010684Y010591D01*
X010693Y010592D02*
X011252Y010592D01*
X011252Y010593D02*
X010702Y010593D01*
X010711Y010594D02*
X011252Y010594D01*
X011252Y010595D02*
X010720Y010595D01*
X010730Y010596D02*
X011252Y010596D01*
X011252Y010597D02*
X010739Y010597D01*
X010748Y010598D02*
X011252Y010598D01*
X011252Y010599D02*
X010757Y010599D01*
X010766Y010600D02*
X011252Y010600D01*
X011252Y010601D02*
X010776Y010601D01*
X010785Y010602D02*
X011252Y010602D01*
X011252Y010603D02*
X010794Y010603D01*
X010803Y010604D02*
X011252Y010604D01*
X011252Y010605D02*
X010812Y010605D01*
X010821Y010606D02*
X011252Y010606D01*
X011252Y010607D02*
X010831Y010607D01*
X010840Y010608D02*
X011252Y010608D01*
X011252Y010609D02*
X010849Y010609D01*
X010858Y010610D02*
X011252Y010610D01*
X011252Y010611D02*
X010867Y010611D01*
X010877Y010612D02*
X011252Y010612D01*
X011252Y010613D02*
X010886Y010613D01*
X010895Y010614D02*
X011252Y010614D01*
X011252Y010615D02*
X010904Y010615D01*
X010913Y010616D02*
X011252Y010616D01*
X011252Y010617D02*
X010923Y010617D01*
X010932Y010618D02*
X011252Y010618D01*
X011252Y010619D02*
X010941Y010619D01*
X010950Y010620D02*
X011252Y010620D01*
X011252Y010621D02*
X010959Y010621D01*
X010969Y010622D02*
X011252Y010622D01*
X011252Y010623D02*
X010978Y010623D01*
X010987Y010624D02*
X011252Y010624D01*
X011252Y010625D02*
X010996Y010625D01*
X011005Y010626D02*
X011252Y010626D01*
X011252Y010627D02*
X011015Y010627D01*
X011024Y010628D02*
X011252Y010628D01*
X011252Y010629D02*
X011033Y010629D01*
X011042Y010630D02*
X011252Y010630D01*
X011252Y010631D02*
X011051Y010631D01*
X011060Y010632D02*
X011252Y010632D01*
X011252Y010633D02*
X011070Y010633D01*
X011079Y010634D02*
X011252Y010634D01*
X011252Y010635D02*
X011088Y010635D01*
X011097Y010636D02*
X011252Y010636D01*
X011252Y010637D02*
X011106Y010637D01*
X011116Y010638D02*
X011252Y010638D01*
X011252Y010639D02*
X011125Y010639D01*
X011134Y010640D02*
X011252Y010640D01*
X011252Y010641D02*
X011143Y010641D01*
X011152Y010642D02*
X011252Y010642D01*
X011252Y010643D02*
X011162Y010643D01*
X011171Y010644D02*
X011252Y010644D01*
X011252Y010645D02*
X011180Y010645D01*
X011189Y010646D02*
X011252Y010646D01*
X011252Y010647D02*
X011198Y010647D01*
X011208Y010648D02*
X011252Y010648D01*
X011252Y010649D02*
X011217Y010649D01*
X011226Y010650D02*
X011252Y010650D01*
X011252Y010651D02*
X011235Y010651D01*
X011244Y010652D02*
X011252Y010652D01*
X011210Y009629D02*
X011213Y009629D01*
X011213Y009628D02*
X011197Y009628D01*
X011184Y009627D02*
X011213Y009627D01*
X011213Y009626D02*
X011171Y009626D01*
X011158Y009625D02*
X011213Y009625D01*
X011213Y009624D02*
X011145Y009624D01*
X011132Y009623D02*
X011213Y009623D01*
X011213Y009622D02*
X011119Y009622D01*
X011106Y009621D02*
X011213Y009621D01*
X011213Y009620D02*
X011093Y009620D01*
X011080Y009619D02*
X011213Y009619D01*
X011213Y009618D02*
X011067Y009618D01*
X011054Y009617D02*
X011213Y009617D01*
X011213Y009616D02*
X011041Y009616D01*
X011028Y009615D02*
X011213Y009615D01*
X011213Y009614D02*
X011015Y009614D01*
X011002Y009613D02*
X011213Y009613D01*
X011213Y009612D02*
X010989Y009612D01*
X010976Y009611D02*
X011213Y009611D01*
X011213Y009610D02*
X010963Y009610D01*
X010950Y009609D02*
X011213Y009609D01*
X011213Y009608D02*
X010937Y009608D01*
X010924Y009607D02*
X011213Y009607D01*
X011213Y009606D02*
X010911Y009606D01*
X010898Y009605D02*
X011213Y009605D01*
X011213Y009604D02*
X010885Y009604D01*
X010872Y009603D02*
X011213Y009603D01*
X011213Y009602D02*
X010859Y009602D01*
X010846Y009601D02*
X011213Y009601D01*
X011213Y009600D02*
X010833Y009600D01*
X010820Y009599D02*
X011213Y009599D01*
X011213Y009598D02*
X010807Y009598D01*
X010794Y009597D02*
X011213Y009597D01*
X011213Y009596D02*
X010781Y009596D01*
X010768Y009595D02*
X011213Y009595D01*
X011213Y009594D02*
X010755Y009594D01*
X010742Y009593D02*
X011213Y009593D01*
X011213Y009592D02*
X010729Y009592D01*
X010716Y009591D02*
X011213Y009591D01*
X011213Y009590D02*
X010703Y009590D01*
X010690Y009589D02*
X011213Y009589D01*
X011213Y009588D02*
X010677Y009588D01*
X010664Y009587D02*
X011213Y009587D01*
X011213Y009586D02*
X010651Y009586D01*
X010638Y009585D02*
X011213Y009585D01*
X011213Y009584D02*
X010625Y009584D01*
X010612Y009583D02*
X011213Y009583D01*
X011213Y009582D02*
X010599Y009582D01*
X010586Y009581D02*
X011213Y009581D01*
X011213Y009580D02*
X010573Y009580D01*
X010560Y009579D02*
X011213Y009579D01*
X011213Y009578D02*
X010547Y009578D01*
X010534Y009577D02*
X011213Y009577D01*
X011213Y009576D02*
X010522Y009576D01*
X010509Y009575D02*
X011213Y009575D01*
X011213Y009574D02*
X010496Y009574D01*
X010483Y009573D02*
X011213Y009573D01*
X011213Y009572D02*
X010470Y009572D01*
X010457Y009571D02*
X011213Y009571D01*
X011213Y009570D02*
X010444Y009570D01*
X010431Y009569D02*
X011213Y009569D01*
X011213Y009568D02*
X010418Y009568D01*
X010405Y009567D02*
X011213Y009567D01*
X011213Y009566D02*
X010392Y009566D01*
X010379Y009565D02*
X011213Y009565D01*
X011213Y009564D02*
X010366Y009564D01*
X010353Y009563D02*
X011213Y009563D01*
X011213Y009562D02*
X010340Y009562D01*
X010327Y009561D02*
X011213Y009561D01*
X011213Y009560D02*
X010314Y009560D01*
X010301Y009559D02*
X011213Y009559D01*
X011213Y009558D02*
X010288Y009558D01*
X010275Y009557D02*
X011213Y009557D01*
X011213Y009556D02*
X010262Y009556D01*
X010249Y009555D02*
X011213Y009555D01*
X011213Y009554D02*
X010236Y009554D01*
X010223Y009553D02*
X011213Y009553D01*
X011213Y009552D02*
X010210Y009552D01*
X010197Y009551D02*
X011213Y009551D01*
X011213Y009550D02*
X010189Y009550D01*
X010189Y009549D02*
X011213Y009549D01*
X011213Y009548D02*
X010189Y009548D01*
X010189Y009547D02*
X011213Y009547D01*
X011213Y009546D02*
X010189Y009546D01*
X010189Y009545D02*
X011213Y009545D01*
X011213Y009544D02*
X010189Y009544D01*
X010189Y009543D02*
X011213Y009543D01*
X011213Y009542D02*
X010189Y009542D01*
X010189Y009541D02*
X011213Y009541D01*
X011213Y009540D02*
X010189Y009540D01*
X010189Y009539D02*
X011213Y009539D01*
X011213Y009538D02*
X010189Y009538D01*
X010189Y009537D02*
X011213Y009537D01*
X011213Y009536D02*
X010189Y009536D01*
X010189Y009535D02*
X011213Y009535D01*
X011213Y009534D02*
X010189Y009534D01*
X010189Y009533D02*
X011213Y009533D01*
X011213Y009532D02*
X010189Y009532D01*
X010189Y009531D02*
X011213Y009531D01*
X011213Y009530D02*
X010189Y009530D01*
X010189Y009529D02*
X011213Y009529D01*
X011213Y009528D02*
X010189Y009528D01*
X010189Y009527D02*
X011213Y009527D01*
X011213Y009526D02*
X010189Y009526D01*
X010189Y009525D02*
X011213Y009525D01*
X011213Y009524D02*
X010189Y009524D01*
X010189Y009523D02*
X011213Y009523D01*
X011213Y009522D02*
X010189Y009522D01*
X010189Y009521D02*
X011213Y009521D01*
X011213Y009520D02*
X010189Y009520D01*
X010189Y009519D02*
X011213Y009519D01*
X011213Y009518D02*
X010189Y009518D01*
X010189Y009517D02*
X011213Y009517D01*
X011213Y009516D02*
X010189Y009516D01*
X010189Y009515D02*
X011213Y009515D01*
X011213Y009514D02*
X010189Y009514D01*
X010189Y009513D02*
X011213Y009513D01*
X011213Y009512D02*
X010189Y009512D01*
X010189Y009511D02*
X011213Y009511D01*
X011213Y009510D02*
X010189Y009510D01*
X010189Y009509D02*
X011213Y009509D01*
X011213Y009508D02*
X010189Y009508D01*
X010189Y009507D02*
X011213Y009507D01*
X011213Y009506D02*
X010189Y009506D01*
X010189Y009505D02*
X011213Y009505D01*
X011213Y009504D02*
X010189Y009504D01*
X010189Y009503D02*
X011213Y009503D01*
X011213Y009502D02*
X010189Y009502D01*
X010189Y009501D02*
X011213Y009501D01*
X011213Y009500D02*
X010189Y009500D01*
X010189Y009499D02*
X011213Y009499D01*
X011213Y009498D02*
X010189Y009498D01*
X010189Y009497D02*
X011213Y009497D01*
X011213Y009496D02*
X010189Y009496D01*
X010189Y009495D02*
X011213Y009495D01*
X011213Y009494D02*
X010189Y009494D01*
X010189Y009493D02*
X011213Y009493D01*
X011213Y009492D02*
X010189Y009492D01*
X010189Y009491D02*
X011213Y009491D01*
X011213Y009490D02*
X010189Y009490D01*
X010189Y009489D02*
X011213Y009489D01*
X011213Y009488D02*
X010189Y009488D01*
X010189Y009487D02*
X011213Y009487D01*
X011213Y009486D02*
X010189Y009486D01*
X010189Y009485D02*
X011213Y009485D01*
X011213Y009484D02*
X010189Y009484D01*
X010189Y009483D02*
X011213Y009483D01*
X011213Y009482D02*
X010189Y009482D01*
X010189Y009481D02*
X011213Y009481D01*
X011213Y009480D02*
X010189Y009480D01*
X010189Y009479D02*
X011213Y009479D01*
X011213Y009478D02*
X010189Y009478D01*
X010189Y009477D02*
X011213Y009477D01*
X011213Y009476D02*
X010189Y009476D01*
X010189Y009475D02*
X011213Y009475D01*
X011213Y009474D02*
X010189Y009474D01*
X010189Y009473D02*
X011213Y009473D01*
X011213Y009472D02*
X010189Y009472D01*
X010189Y009471D02*
X011213Y009471D01*
X011213Y009470D02*
X010189Y009470D01*
X010189Y009469D02*
X011213Y009469D01*
X011213Y009468D02*
X010189Y009468D01*
X010189Y009467D02*
X011213Y009467D01*
X011213Y009466D02*
X010189Y009466D01*
X010189Y009465D02*
X011213Y009465D01*
X011213Y009464D02*
X010189Y009464D01*
X010189Y009463D02*
X011213Y009463D01*
X011213Y009462D02*
X010189Y009462D01*
X010189Y009461D02*
X011213Y009461D01*
X011213Y009460D02*
X010189Y009460D01*
X010189Y009459D02*
X011213Y009459D01*
X011213Y009458D02*
X010189Y009458D01*
X010189Y009457D02*
X011213Y009457D01*
X011213Y009456D02*
X010189Y009456D01*
X010189Y009455D02*
X011213Y009455D01*
X011213Y009454D02*
X010189Y009454D01*
X010189Y009453D02*
X011213Y009453D01*
X011213Y009452D02*
X010189Y009452D01*
X010189Y009451D02*
X011213Y009451D01*
X011213Y009450D02*
X010189Y009450D01*
X010189Y009449D02*
X011213Y009449D01*
X011213Y009448D02*
X010189Y009448D01*
X010189Y009447D02*
X011213Y009447D01*
X011213Y009446D02*
X010189Y009446D01*
X010189Y009445D02*
X011213Y009445D01*
X011213Y009444D02*
X010189Y009444D01*
X010189Y009443D02*
X011213Y009443D01*
X011213Y009442D02*
X010189Y009442D01*
X010189Y009441D02*
X011213Y009441D01*
X011213Y009440D02*
X010189Y009440D01*
X010189Y009439D02*
X011213Y009439D01*
X011213Y009438D02*
X010189Y009438D01*
X010189Y009437D02*
X011213Y009437D01*
X011213Y009436D02*
X010189Y009436D01*
X010189Y009435D02*
X011213Y009435D01*
X011213Y009434D02*
X010189Y009434D01*
X010189Y009433D02*
X011213Y009433D01*
X011213Y009432D02*
X010189Y009432D01*
X010189Y009431D02*
X011213Y009431D01*
X011213Y009430D02*
X010189Y009430D01*
X010189Y009429D02*
X011213Y009429D01*
X011213Y009428D02*
X010189Y009428D01*
X010189Y009427D02*
X011213Y009427D01*
X011213Y009426D02*
X010189Y009426D01*
X010189Y009425D02*
X011213Y009425D01*
X011213Y009424D02*
X010189Y009424D01*
X010189Y009423D02*
X011213Y009423D01*
X011213Y009422D02*
X010189Y009422D01*
X010189Y009421D02*
X011213Y009421D01*
X011213Y009420D02*
X010189Y009420D01*
X010189Y009419D02*
X011213Y009419D01*
X011213Y009418D02*
X010189Y009418D01*
X010189Y009417D02*
X011213Y009417D01*
X011213Y009416D02*
X010189Y009416D01*
X010189Y009415D02*
X011213Y009415D01*
X011213Y009414D02*
X010189Y009414D01*
X010189Y009413D02*
X011213Y009413D01*
X011213Y009412D02*
X010189Y009412D01*
X010189Y009411D02*
X011213Y009411D01*
X011213Y009410D02*
X010189Y009410D01*
X010189Y009409D02*
X011213Y009409D01*
X011213Y009408D02*
X010189Y009408D01*
X010189Y009407D02*
X011213Y009407D01*
X011213Y009406D02*
X010189Y009406D01*
X010189Y009405D02*
X011213Y009405D01*
X011213Y009404D02*
X010189Y009404D01*
X010189Y009403D02*
X011213Y009403D01*
X011213Y009402D02*
X010189Y009402D01*
X010189Y009401D02*
X011213Y009401D01*
X011213Y009400D02*
X010189Y009400D01*
X010189Y009399D02*
X011213Y009399D01*
X011213Y009398D02*
X010189Y009398D01*
X010189Y009397D02*
X011213Y009397D01*
X011213Y009396D02*
X010189Y009396D01*
X010189Y009395D02*
X011213Y009395D01*
X011213Y009394D02*
X010189Y009394D01*
X010189Y009393D02*
X011213Y009393D01*
X011213Y009392D02*
X010189Y009392D01*
X010189Y009391D02*
X011213Y009391D01*
X011213Y009390D02*
X010189Y009390D01*
X010189Y009389D02*
X011213Y009389D01*
X011213Y009388D02*
X010189Y009388D01*
X010189Y009387D02*
X011213Y009387D01*
X011213Y009386D02*
X010189Y009386D01*
X010189Y009385D02*
X011213Y009385D01*
X011213Y009384D02*
X010189Y009384D01*
X010189Y009383D02*
X011213Y009383D01*
X011213Y009382D02*
X010189Y009382D01*
X010189Y009381D02*
X011213Y009381D01*
X011213Y009380D02*
X010189Y009380D01*
X010189Y009379D02*
X011213Y009379D01*
X011213Y009378D02*
X010189Y009378D01*
X010189Y009377D02*
X011213Y009377D01*
X011213Y009376D02*
X010189Y009376D01*
X010189Y009375D02*
X011213Y009375D01*
X011213Y009374D02*
X010189Y009374D01*
X010189Y009373D02*
X011213Y009373D01*
X011213Y009372D02*
X010189Y009372D01*
X010189Y009371D02*
X011213Y009371D01*
X011213Y009370D02*
X010189Y009370D01*
X010189Y009369D02*
X011213Y009369D01*
X011213Y009368D02*
X010189Y009368D01*
X010189Y009367D02*
X011213Y009367D01*
X011213Y009366D02*
X010189Y009366D01*
X010189Y009365D02*
X011213Y009365D01*
X011213Y009364D02*
X010189Y009364D01*
X010189Y009363D02*
X011213Y009363D01*
X011213Y009362D02*
X010189Y009362D01*
X010189Y009361D02*
X011213Y009361D01*
X011213Y009360D02*
X010189Y009360D01*
X010189Y009359D02*
X011213Y009359D01*
X011213Y009358D02*
X010189Y009358D01*
X010189Y009357D02*
X011213Y009357D01*
X011213Y009356D02*
X010189Y009356D01*
X010189Y009355D02*
X011213Y009355D01*
X011213Y009354D02*
X010189Y009354D01*
X010189Y009353D02*
X011213Y009353D01*
X011213Y009352D02*
X010189Y009352D01*
X010189Y009351D02*
X011213Y009351D01*
X011213Y009350D02*
X010189Y009350D01*
X010189Y009349D02*
X011213Y009349D01*
X011213Y009348D02*
X010189Y009348D01*
X010189Y009347D02*
X011213Y009347D01*
X011213Y009346D02*
X010189Y009346D01*
X010189Y009345D02*
X011213Y009345D01*
X011213Y009344D02*
X010189Y009344D01*
X010189Y009343D02*
X011213Y009343D01*
X011213Y009342D02*
X010189Y009342D01*
X010189Y009341D02*
X011213Y009341D01*
X011213Y009340D02*
X010189Y009340D01*
X010189Y009339D02*
X011213Y009339D01*
X011213Y009338D02*
X010189Y009338D01*
X010189Y009337D02*
X011213Y009337D01*
X011213Y009336D02*
X010189Y009336D01*
X010189Y009335D02*
X011213Y009335D01*
X011213Y009334D02*
X010189Y009334D01*
X010189Y009333D02*
X011213Y009333D01*
X011213Y009332D02*
X010189Y009332D01*
X010189Y009331D02*
X011213Y009331D01*
X011213Y009330D02*
X010189Y009330D01*
X010189Y009329D02*
X011213Y009329D01*
X011213Y009328D02*
X010189Y009328D01*
X010189Y009327D02*
X011213Y009327D01*
X011213Y009326D02*
X010189Y009326D01*
X010189Y009325D02*
X011213Y009325D01*
X011213Y009324D02*
X010189Y009324D01*
X010189Y009323D02*
X011213Y009323D01*
X011213Y009322D02*
X010189Y009322D01*
X010189Y009321D02*
X011213Y009321D01*
X011213Y009320D02*
X010189Y009320D01*
X010189Y009319D02*
X011213Y009319D01*
X011213Y009318D02*
X010189Y009318D01*
X010189Y009317D02*
X011213Y009317D01*
X011213Y009316D02*
X010189Y009316D01*
X010189Y009315D02*
X011213Y009315D01*
X011213Y009314D02*
X010189Y009314D01*
X010189Y009313D02*
X011213Y009313D01*
X011213Y009312D02*
X010189Y009312D01*
X010189Y009311D02*
X011213Y009311D01*
X011213Y009310D02*
X010189Y009310D01*
X010189Y009309D02*
X011213Y009309D01*
X011213Y009308D02*
X010189Y009308D01*
X010189Y009307D02*
X011213Y009307D01*
X011213Y009306D02*
X010189Y009306D01*
X010189Y009305D02*
X011213Y009305D01*
X011213Y009304D02*
X010189Y009304D01*
X010189Y009303D02*
X011213Y009303D01*
X011213Y009302D02*
X010189Y009302D01*
X010189Y009301D02*
X011213Y009301D01*
X011213Y009300D02*
X010189Y009300D01*
X010189Y009299D02*
X011213Y009299D01*
X011213Y009298D02*
X010189Y009298D01*
X010189Y009297D02*
X011213Y009297D01*
X011213Y009296D02*
X010189Y009296D01*
X010189Y009295D02*
X011213Y009295D01*
X011213Y009294D02*
X010189Y009294D01*
X010189Y009293D02*
X011213Y009293D01*
X011213Y009292D02*
X010189Y009292D01*
X010189Y009291D02*
X011213Y009291D01*
X011213Y009290D02*
X010189Y009290D01*
X010189Y009289D02*
X011213Y009289D01*
X011213Y009288D02*
X010189Y009288D01*
X010189Y009287D02*
X011213Y009287D01*
X011213Y009286D02*
X010189Y009286D01*
X010189Y009285D02*
X011213Y009285D01*
X011213Y009284D02*
X010189Y009284D01*
X010189Y009283D02*
X011213Y009283D01*
X011213Y009282D02*
X010189Y009282D01*
X010189Y009281D02*
X011213Y009281D01*
X011213Y009280D02*
X010189Y009280D01*
X010189Y009279D02*
X011213Y009279D01*
X011213Y009278D02*
X010189Y009278D01*
X010189Y009277D02*
X011213Y009277D01*
X011213Y009276D02*
X010189Y009276D01*
X010189Y009275D02*
X011213Y009275D01*
X011213Y009274D02*
X010189Y009274D01*
X010189Y009273D02*
X011213Y009273D01*
X011213Y009272D02*
X010189Y009272D01*
X010189Y009271D02*
X011213Y009271D01*
X011213Y009270D02*
X010189Y009270D01*
X010189Y009269D02*
X011213Y009269D01*
X011213Y009268D02*
X010189Y009268D01*
X010189Y009267D02*
X011213Y009267D01*
X011213Y009266D02*
X010189Y009266D01*
X010189Y009265D02*
X011213Y009265D01*
X011213Y009264D02*
X010189Y009264D01*
X010189Y009263D02*
X011213Y009263D01*
X011213Y009262D02*
X010189Y009262D01*
X010189Y009261D02*
X011213Y009261D01*
X011213Y009260D02*
X010189Y009260D01*
X010189Y009259D02*
X011213Y009259D01*
X011213Y009258D02*
X010189Y009258D01*
X010189Y009257D02*
X011213Y009257D01*
X011213Y009256D02*
X010189Y009256D01*
X010189Y009255D02*
X011213Y009255D01*
X011213Y009254D02*
X010189Y009254D01*
X010189Y009253D02*
X011213Y009253D01*
X011213Y009252D02*
X010189Y009252D01*
X010189Y009251D02*
X011213Y009251D01*
X011213Y009250D02*
X010189Y009250D01*
X010189Y009249D02*
X011213Y009249D01*
X011213Y009248D02*
X010189Y009248D01*
X010189Y009247D02*
X011213Y009247D01*
X011213Y009246D02*
X010189Y009246D01*
X010189Y009245D02*
X011213Y009245D01*
X011213Y009244D02*
X010189Y009244D01*
X010189Y009243D02*
X011213Y009243D01*
X011213Y009242D02*
X010189Y009242D01*
X010189Y009241D02*
X011213Y009241D01*
X011213Y009240D02*
X010189Y009240D01*
X010189Y009239D02*
X011213Y009239D01*
X011213Y009238D02*
X010189Y009238D01*
X010189Y009237D02*
X011213Y009237D01*
X011213Y009236D02*
X010189Y009236D01*
X010190Y009235D02*
X011213Y009235D01*
X011213Y009234D02*
X010197Y009234D01*
X010203Y009233D02*
X011213Y009233D01*
X011213Y009232D02*
X010210Y009232D01*
X010216Y009231D02*
X011213Y009231D01*
X011213Y009230D02*
X010223Y009230D01*
X010229Y009229D02*
X011213Y009229D01*
X011213Y009228D02*
X010236Y009228D01*
X010242Y009227D02*
X011213Y009227D01*
X011213Y009226D02*
X010249Y009226D01*
X010255Y009225D02*
X011213Y009225D01*
X011213Y009224D02*
X010262Y009224D01*
X010268Y009223D02*
X011213Y009223D01*
X011213Y009222D02*
X010275Y009222D01*
X010281Y009221D02*
X011213Y009221D01*
X011213Y009220D02*
X010288Y009220D01*
X010294Y009219D02*
X011213Y009219D01*
X011213Y009218D02*
X010301Y009218D01*
X010307Y009217D02*
X011213Y009217D01*
X011213Y009216D02*
X010314Y009216D01*
X010320Y009215D02*
X011213Y009215D01*
X011213Y009214D02*
X010327Y009214D01*
X010333Y009213D02*
X011213Y009213D01*
X011213Y009212D02*
X010339Y009212D01*
X010346Y009211D02*
X011213Y009211D01*
X011213Y009210D02*
X010352Y009210D01*
X010359Y009209D02*
X011213Y009209D01*
X011213Y009208D02*
X010365Y009208D01*
X010372Y009207D02*
X011213Y009207D01*
X011213Y009206D02*
X010378Y009206D01*
X010385Y009205D02*
X011213Y009205D01*
X011213Y009204D02*
X010391Y009204D01*
X010398Y009203D02*
X011213Y009203D01*
X011213Y009202D02*
X010404Y009202D01*
X010411Y009201D02*
X011213Y009201D01*
X011213Y009200D02*
X010417Y009200D01*
X010424Y009199D02*
X011213Y009199D01*
X011213Y009198D02*
X010430Y009198D01*
X010437Y009197D02*
X011213Y009197D01*
X011213Y009196D02*
X010443Y009196D01*
X010450Y009195D02*
X011213Y009195D01*
X011213Y009194D02*
X010456Y009194D01*
X010463Y009193D02*
X011213Y009193D01*
X011213Y009192D02*
X010469Y009192D01*
X010476Y009191D02*
X011213Y009191D01*
X011213Y009190D02*
X010482Y009190D01*
X010489Y009189D02*
X011213Y009189D01*
X011213Y009188D02*
X010495Y009188D01*
X010502Y009187D02*
X011213Y009187D01*
X011213Y009186D02*
X010508Y009186D01*
X010515Y009185D02*
X011213Y009185D01*
X011213Y009184D02*
X010521Y009184D01*
X010528Y009183D02*
X011213Y009183D01*
X011213Y009182D02*
X010534Y009182D01*
X010541Y009181D02*
X011213Y009181D01*
X011213Y009180D02*
X010547Y009180D01*
X010554Y009179D02*
X011213Y009179D01*
X011213Y009178D02*
X010560Y009178D01*
X010567Y009177D02*
X011213Y009177D01*
X011213Y009176D02*
X010573Y009176D01*
X010580Y009175D02*
X011213Y009175D01*
X011213Y009174D02*
X010586Y009174D01*
X010593Y009173D02*
X011213Y009173D01*
X011213Y009172D02*
X010599Y009172D01*
X010606Y009171D02*
X011213Y009171D01*
X011213Y009170D02*
X010612Y009170D01*
X010619Y009169D02*
X011213Y009169D01*
X011213Y009168D02*
X010625Y009168D01*
X010632Y009167D02*
X011213Y009167D01*
X011213Y009166D02*
X010638Y009166D01*
X010645Y009165D02*
X011213Y009165D01*
X011213Y009164D02*
X010651Y009164D01*
X010658Y009163D02*
X011213Y009163D01*
X011213Y009162D02*
X010664Y009162D01*
X010671Y009161D02*
X011213Y009161D01*
X011213Y009160D02*
X010677Y009160D01*
X010684Y009159D02*
X011213Y009159D01*
X011213Y009158D02*
X010690Y009158D01*
X010697Y009157D02*
X011213Y009157D01*
X011213Y009156D02*
X010703Y009156D01*
X010710Y009155D02*
X011213Y009155D01*
X011213Y009154D02*
X010716Y009154D01*
X010723Y009153D02*
X011213Y009153D01*
X011213Y009152D02*
X010729Y009152D01*
X010736Y009151D02*
X011213Y009151D01*
X011213Y009150D02*
X010742Y009150D01*
X010749Y009149D02*
X011213Y009149D01*
X011213Y009148D02*
X010755Y009148D01*
X010762Y009147D02*
X011213Y009147D01*
X011213Y009146D02*
X010768Y009146D01*
X010775Y009145D02*
X011213Y009145D01*
X011213Y009144D02*
X010781Y009144D01*
X010788Y009143D02*
X011213Y009143D01*
X011213Y009142D02*
X010794Y009142D01*
X010801Y009141D02*
X011213Y009141D01*
X011213Y009140D02*
X010807Y009140D01*
X010814Y009139D02*
X011213Y009139D01*
X011213Y009138D02*
X010820Y009138D01*
X010827Y009137D02*
X011213Y009137D01*
X011213Y009136D02*
X010833Y009136D01*
X010840Y009135D02*
X011213Y009135D01*
X011213Y009134D02*
X010846Y009134D01*
X010852Y009133D02*
X011213Y009133D01*
X011213Y009132D02*
X010859Y009132D01*
X010865Y009131D02*
X011213Y009131D01*
X011213Y009130D02*
X010872Y009130D01*
X010878Y009129D02*
X011213Y009129D01*
X011213Y009128D02*
X010885Y009128D01*
X010891Y009127D02*
X011213Y009127D01*
X011213Y009126D02*
X010898Y009126D01*
X010904Y009125D02*
X011213Y009125D01*
X011213Y009124D02*
X010911Y009124D01*
X010917Y009123D02*
X011213Y009123D01*
X011213Y009122D02*
X010924Y009122D01*
X010930Y009121D02*
X011213Y009121D01*
X011213Y009120D02*
X010937Y009120D01*
X010943Y009119D02*
X011213Y009119D01*
X011213Y009118D02*
X010950Y009118D01*
X010956Y009117D02*
X011213Y009117D01*
X011213Y009116D02*
X010963Y009116D01*
X010969Y009115D02*
X011213Y009115D01*
X011213Y009114D02*
X010976Y009114D01*
X010982Y009113D02*
X011213Y009113D01*
X011213Y009112D02*
X010989Y009112D01*
X010995Y009111D02*
X011213Y009111D01*
X011213Y009110D02*
X011002Y009110D01*
X011008Y009109D02*
X011213Y009109D01*
X011213Y009108D02*
X011015Y009108D01*
X011021Y009107D02*
X011213Y009107D01*
X011213Y009106D02*
X011028Y009106D01*
X011034Y009105D02*
X011213Y009105D01*
X011213Y009104D02*
X011041Y009104D01*
X011047Y009103D02*
X011213Y009103D01*
X011213Y009102D02*
X011054Y009102D01*
X011060Y009101D02*
X011213Y009101D01*
X011213Y009100D02*
X011067Y009100D01*
X011073Y009099D02*
X011213Y009099D01*
X011213Y009098D02*
X011080Y009098D01*
X011086Y009097D02*
X011213Y009097D01*
X011213Y009096D02*
X011093Y009096D01*
X011099Y009095D02*
X011213Y009095D01*
X011213Y009094D02*
X011106Y009094D01*
X011112Y009093D02*
X011213Y009093D01*
X011213Y009092D02*
X011119Y009092D01*
X011125Y009091D02*
X011213Y009091D01*
X011213Y009090D02*
X011132Y009090D01*
X011138Y009089D02*
X011213Y009089D01*
X011213Y009088D02*
X011145Y009088D01*
X011151Y009087D02*
X011213Y009087D01*
X011213Y009086D02*
X011158Y009086D01*
X011164Y009085D02*
X011213Y009085D01*
X011213Y009084D02*
X011171Y009084D01*
X011177Y009083D02*
X011213Y009083D01*
X011213Y009082D02*
X011184Y009082D01*
X011190Y009081D02*
X011213Y009081D01*
X011213Y009080D02*
X011197Y009080D01*
X011203Y009079D02*
X011213Y009079D01*
X011213Y009078D02*
X011210Y009078D01*
X017827Y007817D02*
X019421Y007817D01*
X019421Y007816D02*
X017827Y007816D01*
X017827Y007815D02*
X019421Y007815D01*
X019421Y007814D02*
X017827Y007814D01*
X017827Y007813D02*
X019421Y007813D01*
X019421Y007812D02*
X017827Y007812D01*
X017827Y007811D02*
X019421Y007811D01*
X019421Y007810D02*
X017827Y007810D01*
X017827Y007809D02*
X019421Y007809D01*
X019421Y007808D02*
X017827Y007808D01*
X017827Y007807D02*
X019421Y007807D01*
X019421Y007806D02*
X017827Y007806D01*
X017827Y007805D02*
X019421Y007805D01*
X019421Y007804D02*
X017827Y007804D01*
X017827Y007803D02*
X019421Y007803D01*
X019421Y007802D02*
X017827Y007802D01*
X017827Y007801D02*
X019421Y007801D01*
X019421Y007800D02*
X017827Y007800D01*
X017827Y007799D02*
X019421Y007799D01*
X019421Y007798D02*
X017827Y007798D01*
X017827Y007797D02*
X019421Y007797D01*
X019421Y007796D02*
X017827Y007796D01*
X017827Y007795D02*
X019421Y007795D01*
X019421Y007794D02*
X017827Y007794D01*
X017827Y007793D02*
X019421Y007793D01*
X019421Y007792D02*
X017827Y007792D01*
X017827Y007791D02*
X019421Y007791D01*
X019421Y007790D02*
X017827Y007790D01*
X017827Y007789D02*
X019421Y007789D01*
X019421Y007788D02*
X017827Y007788D01*
X017827Y007787D02*
X019421Y007787D01*
X019421Y007786D02*
X017827Y007786D01*
X017827Y007785D02*
X019421Y007785D01*
X019421Y007784D02*
X017827Y007784D01*
X017827Y007783D02*
X019421Y007783D01*
X019421Y007782D02*
X017827Y007782D01*
X017827Y007781D02*
X019421Y007781D01*
X019421Y007780D02*
X017827Y007780D01*
X017827Y007779D02*
X019421Y007779D01*
X019421Y007778D02*
X017827Y007778D01*
X017827Y007777D02*
X019421Y007777D01*
X019421Y007776D02*
X017827Y007776D01*
X017827Y007775D02*
X019421Y007775D01*
X019421Y007774D02*
X017827Y007774D01*
X017827Y007773D02*
X019421Y007773D01*
X019421Y007772D02*
X017827Y007772D01*
X017827Y007771D02*
X019421Y007771D01*
X019421Y007770D02*
X017827Y007770D01*
X017827Y007769D02*
X019421Y007769D01*
X019421Y007768D02*
X017827Y007768D01*
X017827Y007767D02*
X019421Y007767D01*
X019421Y007766D02*
X017827Y007766D01*
X017827Y007765D02*
X019421Y007765D01*
X019421Y007764D02*
X017827Y007764D01*
X017827Y007763D02*
X019421Y007763D01*
X019421Y007762D02*
X017827Y007762D01*
X017827Y007761D02*
X019421Y007761D01*
X019421Y007760D02*
X017827Y007760D01*
X017827Y007759D02*
X019421Y007759D01*
X019421Y007758D02*
X017827Y007758D01*
X017827Y007757D02*
X019421Y007757D01*
X019421Y007756D02*
X017827Y007756D01*
X017827Y007755D02*
X019421Y007755D01*
X019421Y007754D02*
X017827Y007754D01*
X017827Y007753D02*
X019421Y007753D01*
X019421Y007752D02*
X017827Y007752D01*
X017827Y007751D02*
X019421Y007751D01*
X019421Y007750D02*
X017827Y007750D01*
X017827Y007749D02*
X019421Y007749D01*
X019421Y007748D02*
X017827Y007748D01*
X017827Y007747D02*
X019421Y007747D01*
X019421Y007746D02*
X017827Y007746D01*
X017827Y007745D02*
X019421Y007745D01*
X019421Y007744D02*
X017827Y007744D01*
X017827Y007743D02*
X019421Y007743D01*
X019421Y007742D02*
X017827Y007742D01*
X017827Y007741D02*
X019421Y007741D01*
X019421Y007740D02*
X017827Y007740D01*
X017827Y007739D02*
X019421Y007739D01*
X019421Y007738D02*
X017827Y007738D01*
X017827Y007737D02*
X019421Y007737D01*
X019421Y007736D02*
X017827Y007736D01*
X017827Y007735D02*
X019421Y007735D01*
X019421Y007734D02*
X017827Y007734D01*
X017827Y007733D02*
X019421Y007733D01*
X019421Y007732D02*
X017827Y007732D01*
X017827Y007731D02*
X019421Y007731D01*
X019421Y007730D02*
X017827Y007730D01*
X017827Y007729D02*
X019421Y007729D01*
X019421Y007728D02*
X017827Y007728D01*
X017827Y007727D02*
X019421Y007727D01*
X019421Y007726D02*
X017827Y007726D01*
X017827Y007725D02*
X019421Y007725D01*
X019421Y007724D02*
X017827Y007724D01*
X017827Y007723D02*
X019421Y007723D01*
X019421Y007722D02*
X017827Y007722D01*
X017827Y007721D02*
X019421Y007721D01*
X019421Y007720D02*
X017827Y007720D01*
X017827Y007719D02*
X019421Y007719D01*
X019421Y007718D02*
X017827Y007718D01*
X017827Y007717D02*
X019421Y007717D01*
X019421Y007716D02*
X017827Y007716D01*
X017827Y007715D02*
X019421Y007715D01*
X019421Y007714D02*
X017827Y007714D01*
X017827Y007713D02*
X019421Y007713D01*
X019421Y007712D02*
X017827Y007712D01*
X017827Y007711D02*
X019421Y007711D01*
X019421Y007710D02*
X017827Y007710D01*
X017827Y007709D02*
X019421Y007709D01*
X019421Y007708D02*
X017827Y007708D01*
X017827Y007707D02*
X019421Y007707D01*
X019421Y007706D02*
X017827Y007706D01*
X017827Y007705D02*
X019421Y007705D01*
X019421Y007704D02*
X017827Y007704D01*
X017827Y007703D02*
X019421Y007703D01*
X019421Y007702D02*
X017827Y007702D01*
X017827Y007701D02*
X019421Y007701D01*
X019421Y007700D02*
X017827Y007700D01*
X017827Y007699D02*
X019421Y007699D01*
X019421Y007698D02*
X017827Y007698D01*
X017827Y007697D02*
X019421Y007697D01*
X019421Y007696D02*
X017827Y007696D01*
X017827Y007695D02*
X019421Y007695D01*
X019421Y007694D02*
X017827Y007694D01*
X017827Y007693D02*
X019421Y007693D01*
X019421Y007692D02*
X017827Y007692D01*
X017827Y007691D02*
X019421Y007691D01*
X019421Y007690D02*
X017827Y007690D01*
X017827Y007689D02*
X019421Y007689D01*
X019421Y007688D02*
X017827Y007688D01*
X019421Y007688D01*
X019421Y007687D02*
X017827Y007687D01*
X017827Y007686D02*
X019421Y007686D01*
X019421Y007685D02*
X017827Y007685D01*
X017827Y007684D02*
X019421Y007684D01*
X019421Y007683D02*
X017827Y007683D01*
X017827Y007682D02*
X019421Y007682D01*
X019421Y007681D02*
X017827Y007681D01*
X017827Y007680D02*
X019421Y007680D01*
X019421Y007679D02*
X017827Y007679D01*
X017827Y007678D02*
X019421Y007678D01*
X019421Y007677D02*
X017827Y007677D01*
X017827Y007676D02*
X019421Y007676D01*
X019421Y007675D02*
X017827Y007675D01*
X017827Y007674D02*
X019421Y007674D01*
X019421Y007673D02*
X017827Y007673D01*
X017827Y007672D02*
X019421Y007672D01*
X019421Y007671D02*
X017827Y007671D01*
X017827Y007670D02*
X019421Y007670D01*
X019421Y007669D02*
X017827Y007669D01*
X017827Y007668D02*
X019421Y007668D01*
X019421Y007667D02*
X017827Y007667D01*
X017827Y007666D02*
X019421Y007666D01*
X019421Y007665D02*
X017827Y007665D01*
X017827Y007664D02*
X019421Y007664D01*
X019421Y007663D02*
X017827Y007663D01*
X017827Y007662D02*
X019421Y007662D01*
X019421Y007661D02*
X017827Y007661D01*
X017827Y007660D02*
X019421Y007660D01*
X019421Y007659D02*
X017827Y007659D01*
X017827Y007658D02*
X019421Y007658D01*
X019421Y007657D02*
X017827Y007657D01*
X017827Y007656D02*
X019421Y007656D01*
X019421Y007655D02*
X017827Y007655D01*
X017827Y007654D02*
X019421Y007654D01*
X019421Y007653D02*
X017827Y007653D01*
X017827Y007652D02*
X019421Y007652D01*
X019421Y007651D02*
X017827Y007651D01*
X017827Y007650D02*
X019421Y007650D01*
X019421Y007649D02*
X017827Y007649D01*
X017827Y007648D02*
X019421Y007648D01*
X019421Y007647D02*
X017827Y007647D01*
X017827Y007646D02*
X019421Y007646D01*
X019421Y007645D02*
X017827Y007645D01*
X017827Y007644D02*
X019421Y007644D01*
X019421Y007643D02*
X017827Y007643D01*
X017827Y007642D02*
X019421Y007642D01*
X019421Y007641D02*
X017827Y007641D01*
X017827Y007640D02*
X019421Y007640D01*
X019421Y007639D02*
X017827Y007639D01*
X017827Y007638D02*
X019421Y007638D01*
X019421Y007637D02*
X017827Y007637D01*
X017827Y007636D02*
X019421Y007636D01*
X019421Y007635D02*
X017827Y007635D01*
X017827Y007634D02*
X019421Y007634D01*
X019421Y007633D02*
X017827Y007633D01*
X017827Y007632D02*
X019421Y007632D01*
X019421Y007631D02*
X017827Y007631D01*
X017827Y007630D02*
X019421Y007630D01*
X019421Y007629D02*
X017827Y007629D01*
X017827Y007628D02*
X019421Y007628D01*
X019421Y007627D02*
X017827Y007627D01*
X017827Y007626D02*
X019421Y007626D01*
X019421Y007625D02*
X017827Y007625D01*
X017827Y007624D02*
X019421Y007624D01*
X019421Y007623D02*
X017827Y007623D01*
X017827Y007622D02*
X019421Y007622D01*
X019421Y007621D02*
X017827Y007621D01*
X017827Y007620D02*
X019421Y007620D01*
X019421Y007619D02*
X017827Y007619D01*
X017827Y007618D02*
X019421Y007618D01*
X019421Y007617D02*
X017827Y007617D01*
X017827Y007616D02*
X019421Y007616D01*
X019421Y007615D02*
X017827Y007615D01*
X017827Y007614D02*
X019421Y007614D01*
X019421Y007613D02*
X017827Y007613D01*
X017827Y007612D02*
X019421Y007612D01*
X019421Y007611D02*
X017827Y007611D01*
X017827Y007610D02*
X019421Y007610D01*
X019421Y007609D02*
X017827Y007609D01*
X017827Y007608D02*
X019421Y007608D01*
X019421Y007607D02*
X017827Y007607D01*
X017827Y007606D02*
X019421Y007606D01*
X019421Y007605D02*
X017827Y007605D01*
X017827Y007604D02*
X019421Y007604D01*
X019421Y007603D02*
X017827Y007603D01*
X017827Y007602D02*
X019421Y007602D01*
X019421Y007601D02*
X017827Y007601D01*
X017827Y007600D02*
X019421Y007600D01*
X019421Y007599D02*
X017827Y007599D01*
X017827Y007598D02*
X019421Y007598D01*
X019421Y007597D02*
X017827Y007597D01*
X017827Y007596D02*
X019421Y007596D01*
X019421Y007595D02*
X017827Y007595D01*
X017827Y007594D02*
X019421Y007594D01*
X019421Y007593D02*
X017827Y007593D01*
X017827Y007592D02*
X019421Y007592D01*
X019421Y007591D02*
X017827Y007591D01*
X017827Y007590D02*
X019421Y007590D01*
X019421Y007589D02*
X017827Y007589D01*
X017827Y007588D02*
X019421Y007588D01*
X019421Y007587D02*
X017827Y007587D01*
X017827Y007586D02*
X019421Y007586D01*
X019421Y007585D02*
X017827Y007585D01*
X017827Y007584D02*
X019421Y007584D01*
X019421Y007583D02*
X017827Y007583D01*
X017827Y007582D02*
X019421Y007582D01*
X019421Y007581D02*
X017827Y007581D01*
X017827Y007580D02*
X019421Y007580D01*
X019421Y007579D02*
X017827Y007579D01*
X017827Y007578D02*
X019421Y007578D01*
X019421Y007577D02*
X017827Y007577D01*
X017827Y007576D02*
X019421Y007576D01*
X019421Y007575D02*
X017827Y007575D01*
X017827Y007574D02*
X019421Y007574D01*
X019421Y007573D02*
X017827Y007573D01*
X017827Y007572D02*
X019421Y007572D01*
X019421Y007571D02*
X017827Y007571D01*
X017827Y007570D02*
X019421Y007570D01*
X019421Y007569D02*
X017827Y007569D01*
X017827Y007568D02*
X019421Y007568D01*
X019421Y007567D02*
X017827Y007567D01*
X017827Y007566D02*
X019421Y007566D01*
X019421Y007565D02*
X017827Y007565D01*
X017827Y007564D02*
X019421Y007564D01*
X019421Y007563D02*
X017827Y007563D01*
X017827Y007562D02*
X019421Y007562D01*
X019421Y007561D02*
X017827Y007561D01*
X017827Y007560D02*
X019421Y007560D01*
X019421Y007559D02*
X017827Y007559D01*
X017827Y007558D02*
X019421Y007558D01*
X019421Y007557D02*
X017827Y007557D01*
X017827Y007556D02*
X019421Y007556D01*
X019421Y007555D02*
X017827Y007555D01*
X017827Y007554D02*
X019421Y007554D01*
X019421Y007553D02*
X017827Y007553D01*
X017827Y007552D02*
X019421Y007552D01*
X019421Y007551D02*
X017827Y007551D01*
X017827Y007550D02*
X019421Y007550D01*
X019421Y007549D02*
X017827Y007549D01*
X017827Y007548D02*
X019421Y007548D01*
X019421Y007547D02*
X017827Y007547D01*
X017827Y007546D02*
X019421Y007546D01*
X019421Y007545D02*
X017827Y007545D01*
X017827Y007544D02*
X019421Y007544D01*
X019421Y007543D02*
X017827Y007543D01*
X017827Y007542D02*
X019421Y007542D01*
X019421Y007541D02*
X017827Y007541D01*
X017827Y007540D02*
X019421Y007540D01*
X019421Y007539D02*
X017827Y007539D01*
X017827Y007538D02*
X019421Y007538D01*
X019421Y007537D02*
X017827Y007537D01*
X017827Y007536D02*
X019421Y007536D01*
X019421Y007535D02*
X017827Y007535D01*
X017827Y007534D02*
X019421Y007534D01*
X019421Y007533D02*
X017827Y007533D01*
X017827Y007532D02*
X019421Y007532D01*
X019421Y007531D02*
X017827Y007531D01*
X017827Y007530D02*
X019421Y007530D01*
X019421Y007529D02*
X017827Y007529D01*
X017827Y007528D02*
X019421Y007528D01*
X019421Y007527D02*
X017827Y007527D01*
X017827Y007526D02*
X019421Y007526D01*
X019421Y007525D02*
X017827Y007525D01*
X017827Y007524D02*
X019421Y007524D01*
X019421Y007523D02*
X017827Y007523D01*
X017827Y007522D02*
X019421Y007522D01*
X019421Y007521D02*
X017827Y007521D01*
X017827Y007520D02*
X019421Y007520D01*
X019421Y007519D02*
X017827Y007519D01*
X017827Y007518D02*
X019421Y007518D01*
X019421Y007517D02*
X017827Y007517D01*
X017827Y007516D02*
X019421Y007516D01*
X019421Y007515D02*
X017827Y007515D01*
X017827Y007514D02*
X019421Y007514D01*
X019421Y007513D02*
X017827Y007513D01*
X017827Y007512D02*
X019421Y007512D01*
X019421Y007511D02*
X017827Y007511D01*
X017827Y007510D02*
X019421Y007510D01*
X019421Y007509D02*
X017827Y007509D01*
X017827Y007508D02*
X019421Y007508D01*
X019421Y007507D02*
X017827Y007507D01*
X017827Y007506D02*
X019421Y007506D01*
X019421Y007505D02*
X017827Y007505D01*
X017827Y007504D02*
X019421Y007504D01*
X019421Y007503D02*
X017827Y007503D01*
X017827Y007502D02*
X019421Y007502D01*
X019421Y007501D02*
X017827Y007501D01*
X017827Y007500D02*
X019421Y007500D01*
X019421Y007499D02*
X017827Y007499D01*
X017827Y007498D02*
X019421Y007498D01*
X019421Y007497D02*
X017827Y007497D01*
X017827Y007496D02*
X019421Y007496D01*
X019421Y007495D02*
X017827Y007495D01*
X017827Y007494D02*
X019421Y007494D01*
X019421Y007493D02*
X017827Y007493D01*
X017827Y007492D02*
X019421Y007492D01*
X019421Y007491D02*
X017827Y007491D01*
X017827Y007490D02*
X019421Y007490D01*
X019421Y007489D02*
X017827Y007489D01*
X017827Y007488D02*
X019421Y007488D01*
X019421Y007487D02*
X017827Y007487D01*
X017827Y007486D02*
X019421Y007486D01*
X019421Y007485D02*
X017827Y007485D01*
X017827Y007484D02*
X019421Y007484D01*
X019421Y007483D02*
X017827Y007483D01*
X017827Y007482D02*
X019421Y007482D01*
X019421Y007481D02*
X017827Y007481D01*
X017827Y007480D02*
X019421Y007480D01*
X019421Y007479D02*
X017827Y007479D01*
X017827Y007478D02*
X019421Y007478D01*
X019421Y007477D02*
X017827Y007477D01*
X017827Y007476D02*
X019421Y007476D01*
X019421Y007475D02*
X017827Y007475D01*
X017827Y007474D02*
X019421Y007474D01*
X019421Y007473D02*
X017827Y007473D01*
X017827Y007472D02*
X019421Y007472D01*
X019421Y007471D02*
X017827Y007471D01*
X017827Y007470D02*
X019421Y007470D01*
X019421Y007469D02*
X017827Y007469D01*
X017827Y007468D02*
X019421Y007468D01*
X019421Y007467D02*
X017827Y007467D01*
X017827Y007466D02*
X019421Y007466D01*
X019421Y007465D02*
X017827Y007465D01*
X017827Y007464D02*
X019421Y007464D01*
X019421Y007463D02*
X017827Y007463D01*
X017827Y007462D02*
X019421Y007462D01*
X019421Y007461D02*
X017827Y007461D01*
X017827Y007460D02*
X019421Y007460D01*
X019421Y007459D02*
X017827Y007459D01*
X017827Y007458D02*
X019421Y007458D01*
X019421Y007457D02*
X017827Y007457D01*
X017827Y007456D02*
X019421Y007456D01*
X019421Y007455D02*
X017827Y007455D01*
X017827Y007454D02*
X019421Y007454D01*
X019421Y007453D02*
X017827Y007453D01*
X017827Y007452D02*
X019421Y007452D01*
X019421Y007451D02*
X017827Y007451D01*
X017827Y007450D02*
X019421Y007450D01*
X019421Y007449D02*
X017827Y007449D01*
X017827Y007448D02*
X019421Y007448D01*
X019421Y007447D02*
X017827Y007447D01*
X017827Y007446D02*
X019421Y007446D01*
X019421Y007445D02*
X017827Y007445D01*
X017827Y007444D02*
X019421Y007444D01*
X019421Y007443D02*
X017827Y007443D01*
X017827Y007442D02*
X019421Y007442D01*
X019421Y007441D02*
X017827Y007441D01*
X017827Y007440D02*
X019421Y007440D01*
X019421Y007439D02*
X017827Y007439D01*
X017827Y007438D02*
X019421Y007438D01*
X019421Y007437D02*
X017827Y007437D01*
X017827Y007436D02*
X019421Y007436D01*
X019421Y007435D02*
X017827Y007435D01*
X017827Y007434D02*
X019421Y007434D01*
X019421Y007433D02*
X017827Y007433D01*
X017827Y007432D02*
X019421Y007432D01*
X019421Y007431D02*
X017827Y007431D01*
X017827Y007430D02*
X019421Y007430D01*
X019421Y007429D02*
X017827Y007429D01*
X017827Y007428D02*
X019421Y007428D01*
X019421Y007427D02*
X017827Y007427D01*
X017827Y007426D02*
X019421Y007426D01*
X019421Y007425D02*
X017827Y007425D01*
X017827Y007424D02*
X019421Y007424D01*
X019421Y007423D02*
X017827Y007423D01*
X017827Y007422D02*
X019421Y007422D01*
X019421Y007421D02*
X017827Y007421D01*
X017827Y007420D02*
X019421Y007420D01*
X019421Y007419D02*
X017827Y007419D01*
X017827Y007418D02*
X019421Y007418D01*
X019421Y007417D02*
X017827Y007417D01*
X017827Y007416D02*
X019421Y007416D01*
X019421Y007415D02*
X017827Y007415D01*
X017827Y007414D02*
X019421Y007414D01*
X019421Y007413D02*
X017827Y007413D01*
X017827Y007412D02*
X019421Y007412D01*
X019421Y007411D02*
X017827Y007411D01*
X017827Y007410D02*
X019421Y007410D01*
X019421Y007409D02*
X017827Y007409D01*
X017827Y007408D02*
X019421Y007408D01*
X019421Y007407D02*
X017827Y007407D01*
X017827Y007406D02*
X019421Y007406D01*
X019421Y007405D02*
X017827Y007405D01*
X017827Y007404D02*
X019421Y007404D01*
X019421Y007403D02*
X017827Y007403D01*
X017827Y007402D02*
X019421Y007402D01*
X019421Y007401D02*
X017827Y007401D01*
X017827Y007400D02*
X019421Y007400D01*
X019421Y007399D02*
X017827Y007399D01*
X017827Y007398D02*
X019421Y007398D01*
X019421Y007397D02*
X017827Y007397D01*
X017827Y007396D02*
X019421Y007396D01*
X019421Y007395D02*
X017827Y007395D01*
X017827Y007394D02*
X019421Y007394D01*
X019421Y007393D02*
X017827Y007393D01*
X017827Y007392D02*
X019421Y007392D01*
X019421Y007391D02*
X017827Y007391D01*
X017827Y007390D02*
X019421Y007390D01*
X019421Y007389D02*
X017827Y007389D01*
X017827Y007388D02*
X019421Y007388D01*
X019421Y007387D02*
X017827Y007387D01*
X017827Y007386D02*
X019421Y007386D01*
X019421Y007385D02*
X017827Y007385D01*
X017827Y007384D02*
X019421Y007384D01*
X019421Y007383D02*
X017827Y007383D01*
X017827Y007382D02*
X019421Y007382D01*
X019421Y007381D02*
X017827Y007381D01*
X017827Y007380D02*
X019421Y007380D01*
X019421Y007379D02*
X017827Y007379D01*
X017827Y007378D02*
X019421Y007378D01*
X019421Y007377D02*
X017827Y007377D01*
X017827Y007376D02*
X019421Y007376D01*
X019421Y007375D02*
X017827Y007375D01*
X017827Y007374D02*
X019421Y007374D01*
X019421Y007373D02*
X017827Y007373D01*
X017827Y007372D02*
X019421Y007372D01*
X019421Y007371D02*
X017827Y007371D01*
X017827Y007370D02*
X019421Y007370D01*
X019421Y007369D02*
X017827Y007369D01*
X017827Y007368D02*
X019421Y007368D01*
X019421Y007367D02*
X017827Y007367D01*
X017827Y007366D02*
X019421Y007366D01*
X019421Y007365D02*
X017827Y007365D01*
X017827Y007364D02*
X019421Y007364D01*
X019421Y007363D02*
X017827Y007363D01*
X017827Y007362D02*
X019421Y007362D01*
X019421Y007361D02*
X017827Y007361D01*
X017827Y007360D02*
X019421Y007360D01*
X019421Y007359D02*
X017827Y007359D01*
X017827Y007358D02*
X019421Y007358D01*
X019421Y007357D02*
X017827Y007357D01*
X017827Y007356D02*
X019421Y007356D01*
X019421Y007355D02*
X017827Y007355D01*
X017827Y007354D02*
X019421Y007354D01*
X019421Y007353D02*
X017827Y007353D01*
X017827Y007352D02*
X019421Y007352D01*
X019421Y007351D02*
X017827Y007351D01*
X017827Y007350D02*
X019421Y007350D01*
X019421Y007349D02*
X017827Y007349D01*
X017827Y007348D02*
X019421Y007348D01*
X019421Y007347D02*
X017827Y007347D01*
X017827Y007346D02*
X019421Y007346D01*
X019421Y007345D02*
X017827Y007345D01*
X017827Y007344D02*
X019421Y007344D01*
X019421Y007343D02*
X017827Y007343D01*
X017827Y007342D02*
X019421Y007342D01*
X019421Y007341D02*
X017827Y007341D01*
X017827Y007340D02*
X019421Y007340D01*
X019421Y007339D02*
X017827Y007339D01*
X017827Y007338D02*
X019421Y007338D01*
X019421Y007337D02*
X017827Y007337D01*
X017827Y007336D02*
X019421Y007336D01*
X019421Y007335D02*
X017827Y007335D01*
X017827Y007334D02*
X019421Y007334D01*
X019421Y007333D02*
X017827Y007333D01*
X017827Y007332D02*
X019421Y007332D01*
X019421Y007331D02*
X017827Y007331D01*
X017827Y007330D02*
X019421Y007330D01*
X019421Y007329D02*
X017827Y007329D01*
X017827Y007328D02*
X019421Y007328D01*
X019421Y007327D02*
X017827Y007327D01*
X017827Y007326D02*
X019421Y007326D01*
X019421Y007325D02*
X017827Y007325D01*
X017827Y007324D02*
X019421Y007324D01*
X019421Y007323D02*
X017827Y007323D01*
X017827Y007322D02*
X019421Y007322D01*
X019421Y007321D02*
X017827Y007321D01*
X017827Y007320D02*
X019421Y007320D01*
X019421Y007319D02*
X017827Y007319D01*
X017827Y007318D02*
X019421Y007318D01*
X019421Y007317D02*
X017827Y007317D01*
X017827Y007316D02*
X019421Y007316D01*
X019421Y007315D02*
X017827Y007315D01*
X017827Y007314D02*
X019421Y007314D01*
X019421Y007313D02*
X017827Y007313D01*
X017827Y007312D02*
X019421Y007312D01*
X019421Y007311D02*
X017827Y007311D01*
X017827Y007310D02*
X019421Y007310D01*
X019421Y007309D02*
X017827Y007309D01*
X017827Y007308D02*
X019421Y007308D01*
X019421Y007307D02*
X017827Y007307D01*
X017827Y007306D02*
X019421Y007306D01*
X019421Y007305D02*
X017827Y007305D01*
X017827Y007304D02*
X019421Y007304D01*
X019421Y007303D02*
X017827Y007303D01*
X017827Y007302D02*
X019421Y007302D01*
X019421Y007301D02*
X017827Y007301D01*
X017827Y007300D02*
X019421Y007300D01*
X019421Y007299D02*
X017827Y007299D01*
X017827Y007298D02*
X019421Y007298D01*
X019421Y007297D02*
X017827Y007297D01*
X017827Y007296D02*
X019421Y007296D01*
X019421Y007295D02*
X017827Y007295D01*
X017827Y007294D02*
X019421Y007294D01*
X019421Y007293D02*
X017827Y007293D01*
X017827Y007292D02*
X019421Y007292D01*
X019421Y007291D02*
X017827Y007291D01*
X017827Y007290D02*
X019421Y007290D01*
X019421Y007289D02*
X017827Y007289D01*
X017827Y007288D02*
X019421Y007288D01*
X019421Y007287D02*
X017827Y007287D01*
X017827Y007286D02*
X019421Y007286D01*
X019421Y007285D02*
X017827Y007285D01*
X017827Y007284D02*
X019421Y007284D01*
X019421Y007283D02*
X017827Y007283D01*
X017827Y007282D02*
X019421Y007282D01*
X019421Y007281D02*
X017827Y007281D01*
X017827Y007280D02*
X019421Y007280D01*
X019421Y007279D02*
X017827Y007279D01*
X017827Y007278D02*
X019421Y007278D01*
X019421Y007277D02*
X017827Y007277D01*
X017827Y007276D02*
X019421Y007276D01*
X019421Y007275D02*
X017827Y007275D01*
X017827Y007274D02*
X019421Y007274D01*
X019421Y007273D02*
X017827Y007273D01*
X017827Y007272D02*
X019421Y007272D01*
X019421Y007271D02*
X017827Y007271D01*
X017827Y007270D02*
X019421Y007270D01*
X019421Y007269D02*
X017827Y007269D01*
X017827Y007268D02*
X019421Y007268D01*
X019421Y007267D02*
X017827Y007267D01*
X017827Y007266D02*
X019421Y007266D01*
X019421Y007265D02*
X017827Y007265D01*
X017827Y007264D02*
X019421Y007264D01*
X019421Y007263D02*
X017827Y007263D01*
X017827Y007262D02*
X019421Y007262D01*
X019421Y007261D02*
X017827Y007261D01*
X017827Y007260D02*
X019421Y007260D01*
X019421Y007259D02*
X017827Y007259D01*
X017827Y007258D02*
X019421Y007258D01*
X019421Y007257D02*
X017827Y007257D01*
X017827Y007256D02*
X019421Y007256D01*
X019421Y007255D02*
X017827Y007255D01*
X017827Y007254D02*
X019421Y007254D01*
X019421Y007253D02*
X017827Y007253D01*
X017827Y007252D02*
X019421Y007252D01*
X019421Y007251D02*
X017827Y007251D01*
X017827Y007250D02*
X019421Y007250D01*
X019421Y007249D02*
X017827Y007249D01*
X017827Y007248D02*
X019421Y007248D01*
X019421Y007247D02*
X017827Y007247D01*
X017827Y007246D02*
X019421Y007246D01*
X019421Y007245D02*
X017827Y007245D01*
X017827Y007244D02*
X019421Y007244D01*
X019421Y007243D02*
X017827Y007243D01*
X017827Y007242D02*
X019421Y007242D01*
X019421Y007241D02*
X017827Y007241D01*
X017827Y007240D02*
X019421Y007240D01*
X019421Y007239D02*
X017827Y007239D01*
X017827Y007238D02*
X019421Y007238D01*
X019421Y007237D02*
X017827Y007237D01*
X017827Y007236D02*
X019421Y007236D01*
X019421Y007235D02*
X017827Y007235D01*
X017827Y007234D02*
X019421Y007234D01*
X019421Y007233D02*
X017827Y007233D01*
X017827Y007232D02*
X019421Y007232D01*
X019421Y007231D02*
X017827Y007231D01*
X017827Y007230D02*
X019421Y007230D01*
X019421Y007229D02*
X017827Y007229D01*
X017827Y007228D02*
X019421Y007228D01*
X019421Y007227D02*
X017827Y007227D01*
X017827Y007226D02*
X019421Y007226D01*
X019421Y007225D02*
X017827Y007225D01*
X017827Y007224D02*
X019421Y007224D01*
X019421Y007223D02*
X017827Y007223D01*
X017827Y007222D02*
X019421Y007222D01*
X019421Y007221D02*
X017827Y007221D01*
X017827Y007220D02*
X019421Y007220D01*
X019421Y007219D02*
X017827Y007219D01*
X017827Y007218D02*
X019421Y007218D01*
X019421Y007217D02*
X017827Y007217D01*
X017827Y007216D02*
X019421Y007216D01*
X019421Y007215D02*
X017827Y007215D01*
X017827Y007214D02*
X019421Y007214D01*
X019421Y007213D02*
X017827Y007213D01*
X017827Y007212D02*
X019421Y007212D01*
X019421Y007211D02*
X017827Y007211D01*
X017827Y007210D02*
X019421Y007210D01*
X019421Y007209D02*
X017827Y007209D01*
X017827Y007208D02*
X019421Y007208D01*
X019421Y007207D02*
X017827Y007207D01*
X017827Y007206D02*
X019421Y007206D01*
X019421Y007205D02*
X017827Y007205D01*
X017827Y007204D02*
X019421Y007204D01*
X019421Y007203D02*
X017827Y007203D01*
X017827Y007202D02*
X019421Y007202D01*
X019421Y007201D02*
X017827Y007201D01*
X017827Y007200D02*
X019421Y007200D01*
X019421Y007199D02*
X017827Y007199D01*
X017827Y007198D02*
X019421Y007198D01*
X019421Y007197D02*
X017827Y007197D01*
X017827Y007196D02*
X019421Y007196D01*
X019421Y007195D02*
X017827Y007195D01*
X017827Y007194D02*
X019421Y007194D01*
X019421Y007193D02*
X017827Y007193D01*
X017827Y007192D02*
X019421Y007192D01*
X019421Y007191D02*
X017827Y007191D01*
X017827Y007190D02*
X019421Y007190D01*
X019421Y007189D02*
X017827Y007189D01*
X017827Y007188D02*
X019421Y007188D01*
X019421Y007187D02*
X017827Y007187D01*
X017827Y007186D02*
X019421Y007186D01*
X019421Y007185D02*
X017827Y007185D01*
X017827Y007184D02*
X019421Y007184D01*
X019421Y007183D02*
X017827Y007183D01*
X017827Y007182D02*
X019421Y007182D01*
X019421Y007181D02*
X017827Y007181D01*
X017827Y007180D02*
X019421Y007180D01*
X019421Y007179D02*
X017827Y007179D01*
X017827Y007178D02*
X019421Y007178D01*
X019421Y007177D02*
X017827Y007177D01*
X017827Y007176D02*
X019421Y007176D01*
X019421Y007175D02*
X017827Y007175D01*
X017827Y007174D02*
X019421Y007174D01*
X019421Y007173D02*
X017827Y007173D01*
X017827Y007172D02*
X019421Y007172D01*
X019421Y007171D02*
X017827Y007171D01*
X017827Y007170D02*
X019421Y007170D01*
X019421Y007169D02*
X017827Y007169D01*
X017827Y007168D02*
X019421Y007168D01*
X019421Y007167D02*
X017827Y007167D01*
X017827Y007166D02*
X019421Y007166D01*
X019421Y007165D02*
X017827Y007165D01*
X017827Y007164D02*
X019421Y007164D01*
X019421Y007163D02*
X017827Y007163D01*
X017827Y007162D02*
X019421Y007162D01*
X019421Y007161D02*
X017827Y007161D01*
X017827Y007160D02*
X019421Y007160D01*
X019421Y007159D02*
X017827Y007159D01*
X017827Y007158D02*
X019421Y007158D01*
X019421Y007157D02*
X017827Y007157D01*
X017827Y007156D02*
X019421Y007156D01*
X019421Y007155D02*
X017827Y007155D01*
X017827Y007154D02*
X019421Y007154D01*
X019421Y007153D02*
X017827Y007153D01*
X017827Y007152D02*
X019421Y007152D01*
X019421Y007151D02*
X017827Y007151D01*
X017827Y007150D02*
X019421Y007150D01*
X019421Y007149D02*
X017827Y007149D01*
X017827Y007148D02*
X019421Y007148D01*
X019421Y007147D02*
X017827Y007147D01*
X017827Y007146D02*
X019421Y007146D01*
X019421Y007145D02*
X017827Y007145D01*
X017827Y007144D02*
X019421Y007144D01*
X019421Y007143D02*
X017827Y007143D01*
X017827Y007142D02*
X019421Y007142D01*
X019421Y007141D02*
X017827Y007141D01*
X017827Y007140D02*
X019421Y007140D01*
X019421Y007139D02*
X017827Y007139D01*
X017827Y007138D02*
X019421Y007138D01*
X019421Y007137D02*
X017827Y007137D01*
X017827Y007136D02*
X019421Y007136D01*
X019421Y007135D02*
X017827Y007135D01*
X017827Y007134D02*
X019421Y007134D01*
X019421Y007133D02*
X017827Y007133D01*
X017827Y007132D02*
X019421Y007132D01*
X019421Y007131D02*
X017827Y007131D01*
X017827Y007130D02*
X019421Y007130D01*
X019421Y007129D02*
X017827Y007129D01*
X017827Y007128D02*
X019421Y007128D01*
X019421Y007127D02*
X017827Y007127D01*
X017827Y007126D02*
X019421Y007126D01*
X019421Y007125D02*
X017827Y007125D01*
X017827Y007124D02*
X019421Y007124D01*
X019421Y007123D02*
X017827Y007123D01*
X017827Y007122D02*
X019421Y007122D01*
X019421Y007121D02*
X017827Y007121D01*
X017827Y007120D02*
X019421Y007120D01*
X019421Y007119D02*
X017827Y007119D01*
X017827Y007118D02*
X019421Y007118D01*
X019421Y007117D02*
X017827Y007117D01*
X017827Y007116D02*
X019421Y007116D01*
X019421Y007115D02*
X017827Y007115D01*
X017827Y007114D02*
X019421Y007114D01*
X019421Y007113D02*
X017827Y007113D01*
X017827Y007112D02*
X019421Y007112D01*
X019421Y007111D02*
X017827Y007111D01*
X017827Y007110D02*
X019421Y007110D01*
X019421Y007109D02*
X017827Y007109D01*
X017827Y007108D02*
X019421Y007108D01*
X019421Y007107D02*
X017827Y007107D01*
X017827Y007106D02*
X019421Y007106D01*
X019421Y007105D02*
X017827Y007105D01*
X017827Y007104D02*
X019421Y007104D01*
X019421Y007103D02*
X017827Y007103D01*
X017827Y007102D02*
X019421Y007102D01*
X019421Y007101D02*
X017827Y007101D01*
X017827Y007100D02*
X019421Y007100D01*
X019421Y007099D02*
X017827Y007099D01*
X017827Y007098D02*
X019421Y007098D01*
X019421Y007097D02*
X017827Y007097D01*
X017827Y007096D02*
X019421Y007096D01*
X019421Y007095D02*
X017827Y007095D01*
X017827Y007094D02*
X019421Y007094D01*
X019421Y007093D02*
X017827Y007093D01*
X017827Y007092D02*
X019421Y007092D01*
X019421Y007091D02*
X017827Y007091D01*
X017827Y007090D02*
X019421Y007090D01*
X019421Y007089D02*
X017827Y007089D01*
X017827Y007088D02*
X019421Y007088D01*
X019421Y007087D02*
X017827Y007087D01*
X017827Y007086D02*
X019421Y007086D01*
X019421Y007085D02*
X017827Y007085D01*
X017827Y007084D02*
X019421Y007084D01*
X019421Y007083D02*
X017827Y007083D01*
X017827Y007082D02*
X019421Y007082D01*
X019421Y007081D02*
X017827Y007081D01*
X017827Y007080D02*
X019421Y007080D01*
X019421Y007079D02*
X017827Y007079D01*
X017827Y007078D02*
X019421Y007078D01*
X019421Y007077D02*
X017827Y007077D01*
X017827Y007076D02*
X019421Y007076D01*
X019421Y007075D02*
X017827Y007075D01*
X017827Y007074D02*
X019421Y007074D01*
X019421Y007073D02*
X017827Y007073D01*
X017827Y007072D02*
X019421Y007072D01*
X019421Y007071D02*
X017827Y007071D01*
X017827Y007070D02*
X019421Y007070D01*
X019421Y007069D02*
X017827Y007069D01*
X017827Y007068D02*
X019421Y007068D01*
X019421Y007067D02*
X017827Y007067D01*
X017827Y007066D02*
X019421Y007066D01*
X019421Y007065D02*
X017827Y007065D01*
X017827Y007064D02*
X019421Y007064D01*
X019421Y007063D02*
X017827Y007063D01*
X017827Y007062D02*
X019421Y007062D01*
X019421Y007061D02*
X017827Y007061D01*
X017827Y007060D02*
X019421Y007060D01*
X019421Y007059D02*
X017827Y007059D01*
X017827Y007058D02*
X019421Y007058D01*
X019421Y007057D02*
X017827Y007057D01*
X017827Y007056D02*
X019421Y007056D01*
X019421Y007055D02*
X017827Y007055D01*
X017827Y007054D02*
X019421Y007054D01*
X019421Y007053D02*
X017827Y007053D01*
X017827Y007052D02*
X019421Y007052D01*
X019421Y007051D02*
X017827Y007051D01*
X017827Y007050D02*
X019421Y007050D01*
X019421Y007049D02*
X017827Y007049D01*
X017827Y007048D02*
X019421Y007048D01*
X019421Y007047D02*
X017827Y007047D01*
X017827Y007046D02*
X019421Y007046D01*
X019421Y007045D02*
X017827Y007045D01*
X017827Y007044D02*
X019421Y007044D01*
X019421Y007043D02*
X017827Y007043D01*
X017827Y007042D02*
X019421Y007042D01*
X019421Y007041D02*
X017827Y007041D01*
X017827Y007040D02*
X019421Y007040D01*
X019421Y007039D02*
X017827Y007039D01*
X017827Y007038D02*
X019421Y007038D01*
X019421Y007037D02*
X017827Y007037D01*
X017827Y007036D02*
X019421Y007036D01*
X019421Y007035D02*
X017827Y007035D01*
X017827Y007034D02*
X019421Y007034D01*
X019421Y007033D02*
X017827Y007033D01*
X017827Y007032D02*
X019421Y007032D01*
X019421Y007031D02*
X017827Y007031D01*
X017827Y007030D02*
X019421Y007030D01*
X019421Y007029D02*
X017827Y007029D01*
X017827Y007028D02*
X019421Y007028D01*
X019421Y007027D02*
X017827Y007027D01*
X017827Y007026D02*
X019421Y007026D01*
X019421Y007025D02*
X017827Y007025D01*
X017827Y007024D02*
X019421Y007024D01*
X019421Y007023D02*
X017827Y007023D01*
X017827Y007022D02*
X019421Y007022D01*
X019421Y007021D02*
X017827Y007021D01*
X017827Y007020D02*
X019421Y007020D01*
X019421Y007019D02*
X017827Y007019D01*
X017827Y007018D02*
X019421Y007018D01*
X019421Y007017D02*
X017827Y007017D01*
X017827Y007016D02*
X019421Y007016D01*
X019421Y007015D02*
X017827Y007015D01*
X017827Y007014D02*
X019421Y007014D01*
X019421Y007013D02*
X017827Y007013D01*
X017827Y007012D02*
X019421Y007012D01*
X019421Y007011D02*
X017827Y007011D01*
X017827Y007010D02*
X019421Y007010D01*
X019421Y007009D02*
X017827Y007009D01*
X017827Y007008D02*
X019421Y007008D01*
X019421Y007007D02*
X017827Y007007D01*
X017827Y007006D02*
X019421Y007006D01*
X019421Y007005D02*
X017827Y007005D01*
X017827Y007004D02*
X019421Y007004D01*
X019421Y007003D02*
X017827Y007003D01*
X017827Y007002D02*
X019421Y007002D01*
X019421Y007001D02*
X017827Y007001D01*
X017827Y007000D02*
X019421Y007000D01*
X019421Y006999D02*
X017827Y006999D01*
X017827Y006998D02*
X019421Y006998D01*
X019421Y006997D02*
X017827Y006997D01*
X017827Y006996D02*
X019421Y006996D01*
X019421Y006995D02*
X017827Y006995D01*
X017827Y006994D02*
X019421Y006994D01*
X019421Y006993D02*
X017827Y006993D01*
X017827Y006992D02*
X019421Y006992D01*
X019421Y006991D02*
X017827Y006991D01*
X017827Y006990D02*
X019421Y006990D01*
X019421Y006989D02*
X017827Y006989D01*
X017827Y006988D02*
X019421Y006988D01*
X019421Y006987D02*
X017827Y006987D01*
X017827Y006986D02*
X019421Y006986D01*
X019421Y006985D02*
X017827Y006985D01*
X017827Y006984D02*
X019421Y006984D01*
X019421Y006983D02*
X017827Y006983D01*
X017827Y006982D02*
X019421Y006982D01*
X019421Y006981D02*
X017827Y006981D01*
X017827Y006980D02*
X019421Y006980D01*
X019421Y006979D02*
X017827Y006979D01*
X017827Y006978D02*
X019421Y006978D01*
X019421Y006977D02*
X017827Y006977D01*
X017827Y006976D02*
X019421Y006976D01*
X019421Y006975D02*
X017827Y006975D01*
X017827Y006974D02*
X019421Y006974D01*
X019421Y006973D02*
X017827Y006973D01*
X017827Y006972D02*
X019421Y006972D01*
X019421Y006971D02*
X017827Y006971D01*
X017827Y006970D02*
X019421Y006970D01*
X019421Y006969D02*
X017827Y006969D01*
X017827Y006968D02*
X019421Y006968D01*
X019421Y006967D02*
X017827Y006967D01*
X017827Y006966D02*
X019421Y006966D01*
X019421Y006965D02*
X017827Y006965D01*
X017827Y006964D02*
X019421Y006964D01*
X019421Y006963D02*
X017827Y006963D01*
X017827Y006962D02*
X019421Y006962D01*
X019421Y006961D02*
X017827Y006961D01*
X017827Y006960D02*
X019421Y006960D01*
X019421Y006959D02*
X017827Y006959D01*
X017827Y006958D02*
X019421Y006958D01*
X019421Y006957D02*
X017827Y006957D01*
X017827Y006956D02*
X019421Y006956D01*
X019421Y006955D02*
X017827Y006955D01*
X017827Y006954D02*
X019421Y006954D01*
X019421Y006953D02*
X017827Y006953D01*
X017827Y006952D02*
X019421Y006952D01*
X019421Y006951D02*
X017827Y006951D01*
X017827Y006950D02*
X019421Y006950D01*
X019421Y006949D02*
X017827Y006949D01*
X017827Y006948D02*
X019421Y006948D01*
X019421Y006947D02*
X017827Y006947D01*
X017827Y006946D02*
X019421Y006946D01*
X019421Y006945D02*
X017827Y006945D01*
X017827Y006944D02*
X019421Y006944D01*
X019421Y006943D02*
X017827Y006943D01*
X017827Y006942D02*
X019421Y006942D01*
X019421Y006941D02*
X017827Y006941D01*
X017827Y006940D02*
X019421Y006940D01*
X019421Y006939D02*
X017827Y006939D01*
X017827Y006938D02*
X019421Y006938D01*
X019421Y006937D02*
X017827Y006937D01*
X017827Y006936D02*
X019421Y006936D01*
X019421Y006935D02*
X017827Y006935D01*
X017827Y006934D02*
X019421Y006934D01*
X019421Y006933D02*
X017827Y006933D01*
X017827Y006932D02*
X019421Y006932D01*
X019421Y006931D02*
X017827Y006931D01*
X017827Y006930D02*
X019421Y006930D01*
X019421Y006929D02*
X017827Y006929D01*
X017827Y006928D02*
X019421Y006928D01*
X019421Y006927D02*
X017827Y006927D01*
X017827Y006926D02*
X019421Y006926D01*
X019421Y006925D02*
X017827Y006925D01*
X017827Y006924D02*
X019421Y006924D01*
X019421Y006923D02*
X017827Y006923D01*
X017827Y006922D02*
X019421Y006922D01*
X019421Y006921D02*
X017827Y006921D01*
X017827Y006920D02*
X019421Y006920D01*
X019421Y006919D02*
X017827Y006919D01*
X017827Y006918D02*
X019421Y006918D01*
X019421Y006917D02*
X017827Y006917D01*
X017827Y006916D02*
X019421Y006916D01*
X019421Y006915D02*
X017827Y006915D01*
X017827Y006914D02*
X019421Y006914D01*
X019421Y006913D02*
X017827Y006913D01*
X017827Y006912D02*
X019421Y006912D01*
X019421Y006911D02*
X017827Y006911D01*
X017827Y006910D02*
X019421Y006910D01*
X019421Y006909D02*
X017827Y006909D01*
X017827Y006908D02*
X019421Y006908D01*
X019421Y006907D02*
X017827Y006907D01*
X017827Y006906D02*
X019421Y006906D01*
X019421Y006905D02*
X017827Y006905D01*
X017827Y006904D02*
X019421Y006904D01*
X019421Y006903D02*
X017827Y006903D01*
X017827Y006902D02*
X019421Y006902D01*
X019421Y006901D02*
X017827Y006901D01*
X017827Y006900D02*
X019421Y006900D01*
X019421Y006899D02*
X017827Y006899D01*
X017827Y006898D02*
X019421Y006898D01*
X019421Y006897D02*
X017827Y006897D01*
X017827Y006896D02*
X019421Y006896D01*
X019421Y006895D02*
X017827Y006895D01*
X017827Y006894D02*
X019421Y006894D01*
X019421Y006893D02*
X017827Y006893D01*
X017827Y006892D02*
X019421Y006892D01*
X019421Y006891D02*
X017827Y006891D01*
X017827Y006890D02*
X019421Y006890D01*
X019421Y006889D02*
X017827Y006889D01*
X017827Y006888D02*
X019421Y006888D01*
X019421Y006887D02*
X017827Y006887D01*
X017827Y006886D02*
X019421Y006886D01*
X019421Y006885D02*
X017827Y006885D01*
X017827Y006884D02*
X019421Y006884D01*
X019421Y006883D02*
X017827Y006883D01*
X017827Y006882D02*
X019421Y006882D01*
X019421Y006881D02*
X017827Y006881D01*
X017827Y006880D02*
X019421Y006880D01*
X019421Y006879D02*
X017827Y006879D01*
X017827Y006878D02*
X019421Y006878D01*
X019421Y006877D02*
X017827Y006877D01*
X017827Y006876D02*
X019421Y006876D01*
X019421Y006875D02*
X017827Y006875D01*
X017827Y006874D02*
X019421Y006874D01*
X019421Y006873D02*
X017827Y006873D01*
X017827Y006872D02*
X019421Y006872D01*
X019421Y006871D02*
X017827Y006871D01*
X017827Y006870D02*
X019421Y006870D01*
X019421Y006869D02*
X017827Y006869D01*
X017827Y006868D02*
X019421Y006868D01*
X019421Y006867D02*
X017827Y006867D01*
X017827Y006866D02*
X019421Y006866D01*
X019421Y006865D02*
X017827Y006865D01*
X017827Y006864D02*
X019421Y006864D01*
X019421Y006863D02*
X017827Y006863D01*
X017827Y006862D02*
X019421Y006862D01*
X019421Y006861D02*
X017827Y006861D01*
X017827Y006860D02*
X019421Y006860D01*
X019421Y006859D02*
X017827Y006859D01*
X017827Y006858D02*
X019421Y006858D01*
X019421Y006857D02*
X017827Y006857D01*
X017827Y006856D02*
X019421Y006856D01*
X019421Y006855D02*
X017827Y006855D01*
X017827Y006854D02*
X019421Y006854D01*
X019421Y006853D02*
X017827Y006853D01*
X017827Y006852D02*
X019421Y006852D01*
X019421Y006851D02*
X017827Y006851D01*
X017827Y006850D02*
X019421Y006850D01*
X019421Y006849D02*
X017827Y006849D01*
X017827Y006848D02*
X019421Y006848D01*
X019421Y006847D02*
X017827Y006847D01*
X017827Y006846D02*
X019421Y006846D01*
X019421Y006845D02*
X017827Y006845D01*
X017827Y006844D02*
X019421Y006844D01*
X019421Y006843D02*
X017827Y006843D01*
X017827Y006842D02*
X019421Y006842D01*
X019421Y006841D02*
X017827Y006841D01*
X017827Y006840D02*
X019421Y006840D01*
X019421Y006839D02*
X017827Y006839D01*
X017827Y006838D02*
X019421Y006838D01*
X019421Y006837D02*
X017827Y006837D01*
X017827Y006836D02*
X019421Y006836D01*
X019421Y006835D02*
X017827Y006835D01*
X017827Y006834D02*
X019421Y006834D01*
X019421Y006833D02*
X017827Y006833D01*
X017827Y006832D02*
X019421Y006832D01*
X019421Y006831D02*
X017827Y006831D01*
X017827Y006830D02*
X019421Y006830D01*
X019421Y006829D02*
X017827Y006829D01*
X017827Y006828D02*
X019421Y006828D01*
X019421Y006827D02*
X017827Y006827D01*
X017827Y006826D02*
X019421Y006826D01*
X019421Y006825D02*
X017827Y006825D01*
X017827Y006824D02*
X019421Y006824D01*
X019421Y006823D02*
X017827Y006823D01*
X017827Y006822D02*
X019421Y006822D01*
X019421Y006821D02*
X017827Y006821D01*
X017827Y006820D02*
X019421Y006820D01*
X019421Y006819D02*
X017827Y006819D01*
X017827Y006818D02*
X019421Y006818D01*
X019421Y006817D02*
X017827Y006817D01*
X017827Y006816D02*
X019421Y006816D01*
X019421Y006815D02*
X017827Y006815D01*
X017827Y006814D02*
X019421Y006814D01*
X019421Y006813D02*
X017827Y006813D01*
X017827Y006812D02*
X019421Y006812D01*
X019421Y006811D02*
X017827Y006811D01*
X017827Y006810D02*
X019421Y006810D01*
X019421Y006809D02*
X017827Y006809D01*
X017827Y006808D02*
X019421Y006808D01*
X019421Y006807D02*
X017827Y006807D01*
X017827Y006806D02*
X019421Y006806D01*
X019421Y006805D02*
X017827Y006805D01*
X017827Y006804D02*
X019421Y006804D01*
X019421Y006803D02*
X017827Y006803D01*
X017827Y006802D02*
X019421Y006802D01*
X019421Y006801D02*
X017827Y006801D01*
X017827Y006800D02*
X019421Y006800D01*
X019421Y006799D02*
X017827Y006799D01*
X017827Y006798D02*
X019421Y006798D01*
X019421Y006797D02*
X017827Y006797D01*
X017827Y006796D02*
X019421Y006796D01*
X019421Y006795D02*
X017827Y006795D01*
X017827Y006794D02*
X019421Y006794D01*
X019421Y006793D02*
X017827Y006793D01*
X017827Y006792D02*
X019421Y006792D01*
X019421Y006791D02*
X017827Y006791D01*
X017827Y006790D02*
X019421Y006790D01*
X019421Y006789D02*
X017827Y006789D01*
X017827Y006788D02*
X019421Y006788D01*
X019421Y006787D02*
X017827Y006787D01*
X017827Y006786D02*
X019421Y006786D01*
X019421Y006785D02*
X017827Y006785D01*
X017827Y006784D02*
X019421Y006784D01*
X019421Y006783D02*
X017827Y006783D01*
X017827Y006782D02*
X019421Y006782D01*
X019421Y006781D02*
X017827Y006781D01*
X017827Y006780D02*
X019421Y006780D01*
X019421Y006779D02*
X017827Y006779D01*
X017827Y006778D02*
X019421Y006778D01*
X019421Y006777D02*
X017827Y006777D01*
X017827Y006776D02*
X019421Y006776D01*
X019421Y006775D02*
X017827Y006775D01*
X017827Y006774D02*
X019421Y006774D01*
X019421Y006773D02*
X017827Y006773D01*
X017827Y006772D02*
X019421Y006772D01*
X019421Y006771D02*
X017827Y006771D01*
X017827Y006770D02*
X019421Y006770D01*
X019421Y006769D02*
X017827Y006769D01*
X017827Y006768D02*
X019421Y006768D01*
X019421Y006767D02*
X017827Y006767D01*
X017827Y006766D02*
X019421Y006766D01*
X019421Y006765D02*
X017827Y006765D01*
X017827Y006764D02*
X019421Y006764D01*
X019421Y006763D02*
X017827Y006763D01*
X017827Y006762D02*
X019421Y006762D01*
X019421Y006761D02*
X017827Y006761D01*
X017827Y006760D02*
X019421Y006760D01*
X019421Y006759D02*
X017827Y006759D01*
X017827Y006758D02*
X019421Y006758D01*
X019421Y006757D02*
X017827Y006757D01*
X017827Y006756D02*
X019421Y006756D01*
X019421Y006755D02*
X017827Y006755D01*
X017827Y006754D02*
X019421Y006754D01*
X019421Y006753D02*
X017827Y006753D01*
X017827Y006752D02*
X019421Y006752D01*
X019421Y006751D02*
X017827Y006751D01*
X017827Y006750D02*
X019421Y006750D01*
X019421Y006749D02*
X017827Y006749D01*
X017827Y006748D02*
X019421Y006748D01*
X019421Y006747D02*
X017827Y006747D01*
X017827Y006746D02*
X019421Y006746D01*
X019421Y006745D02*
X017827Y006745D01*
X017827Y006744D02*
X019421Y006744D01*
X019421Y006743D02*
X017827Y006743D01*
X017827Y006742D02*
X019421Y006742D01*
X019421Y006741D02*
X017827Y006741D01*
X017827Y006740D02*
X019421Y006740D01*
X019421Y006739D02*
X017827Y006739D01*
X017827Y006738D02*
X019421Y006738D01*
X019421Y006737D02*
X017827Y006737D01*
X017827Y006736D02*
X019421Y006736D01*
X019421Y006735D02*
X017827Y006735D01*
X017827Y006734D02*
X019421Y006734D01*
X019421Y006733D02*
X017827Y006733D01*
X017827Y006732D02*
X019421Y006732D01*
X019421Y006731D02*
X017827Y006731D01*
X017827Y006730D02*
X019421Y006730D01*
X019421Y006729D02*
X017827Y006729D01*
X017827Y006728D02*
X019421Y006728D01*
X019421Y006727D02*
X017827Y006727D01*
X017827Y006726D02*
X019421Y006726D01*
X019421Y006725D02*
X017827Y006725D01*
X017827Y006724D02*
X019421Y006724D01*
X019421Y006723D02*
X017827Y006723D01*
X017827Y006722D02*
X019421Y006722D01*
X019421Y006721D02*
X017827Y006721D01*
X017827Y006720D02*
X019421Y006720D01*
X019421Y006719D02*
X017827Y006719D01*
X017827Y006718D02*
X019421Y006718D01*
X019421Y006717D02*
X017827Y006717D01*
X017827Y006716D02*
X019421Y006716D01*
X019421Y006715D02*
X017827Y006715D01*
X017827Y006714D02*
X019421Y006714D01*
X019421Y006713D02*
X017827Y006713D01*
X017827Y006712D02*
X019421Y006712D01*
X019421Y006711D02*
X017827Y006711D01*
X017827Y006710D02*
X019421Y006710D01*
X019421Y006709D02*
X017827Y006709D01*
X017827Y006708D02*
X019421Y006708D01*
X019421Y006707D02*
X017827Y006707D01*
X017827Y006706D02*
X019421Y006706D01*
X019421Y006705D02*
X017827Y006705D01*
X017827Y006704D02*
X019421Y006704D01*
X019421Y006703D02*
X017827Y006703D01*
X017827Y006702D02*
X019421Y006702D01*
X019421Y006701D02*
X017827Y006701D01*
X017827Y006700D02*
X019421Y006700D01*
X019421Y006699D02*
X017827Y006699D01*
X017827Y006698D02*
X019421Y006698D01*
X019421Y006697D02*
X017827Y006697D01*
X017827Y006696D02*
X019421Y006696D01*
X019421Y006695D02*
X017827Y006695D01*
X017827Y006694D02*
X019421Y006694D01*
X019421Y006693D02*
X017827Y006693D01*
X017827Y006692D02*
X019421Y006692D01*
X019421Y006691D02*
X017827Y006691D01*
X017827Y006690D02*
X019421Y006690D01*
X019421Y006689D02*
X017827Y006689D01*
X017827Y006688D02*
X019421Y006688D01*
X019421Y006687D02*
X017827Y006687D01*
X017827Y006686D02*
X019421Y006686D01*
X019421Y006685D02*
X017827Y006685D01*
X017827Y006684D02*
X019421Y006684D01*
X019421Y006683D02*
X017827Y006683D01*
X017827Y006682D02*
X019421Y006682D01*
X019421Y006681D02*
X017827Y006681D01*
X017827Y006680D02*
X019421Y006680D01*
X019421Y006679D02*
X017827Y006679D01*
X017827Y006678D02*
X019421Y006678D01*
X019421Y006677D02*
X017827Y006677D01*
X017827Y006676D02*
X019421Y006676D01*
X019421Y006675D02*
X017827Y006675D01*
X017827Y006674D02*
X019421Y006674D01*
X019421Y006673D02*
X017827Y006673D01*
X019421Y006673D01*
X019421Y006672D02*
X017827Y006672D01*
X017827Y006671D02*
X019421Y006671D01*
X019421Y006670D02*
X017827Y006670D01*
X017827Y006669D02*
X019421Y006669D01*
X019421Y006668D02*
X017827Y006668D01*
X017827Y006667D02*
X019421Y006667D01*
X019421Y006666D02*
X017827Y006666D01*
X017827Y006665D02*
X019421Y006665D01*
X019421Y006664D02*
X017827Y006664D01*
X017827Y006663D02*
X019421Y006663D01*
X019421Y006662D02*
X017827Y006662D01*
X017827Y006661D02*
X019421Y006661D01*
X019421Y006660D02*
X017827Y006660D01*
X017827Y006659D02*
X019421Y006659D01*
X019421Y006658D02*
X017827Y006658D01*
X017827Y006657D02*
X019421Y006657D01*
X019421Y006656D02*
X017827Y006656D01*
X017827Y006655D02*
X019421Y006655D01*
X019421Y006654D02*
X017827Y006654D01*
X017827Y006653D02*
X019421Y006653D01*
X019421Y006652D02*
X017827Y006652D01*
X017827Y006651D02*
X019421Y006651D01*
X019421Y006650D02*
X017827Y006650D01*
X017827Y006649D02*
X019421Y006649D01*
X019421Y006648D02*
X017827Y006648D01*
X017827Y006647D02*
X019421Y006647D01*
X019421Y006646D02*
X017827Y006646D01*
X017827Y006645D02*
X019421Y006645D01*
X019421Y006644D02*
X017827Y006644D01*
X017827Y006643D02*
X019421Y006643D01*
X019421Y006642D02*
X017827Y006642D01*
X017827Y006641D02*
X019421Y006641D01*
X019421Y006640D02*
X017827Y006640D01*
X017827Y006639D02*
X019421Y006639D01*
X019421Y006638D02*
X017827Y006638D01*
X017827Y006637D02*
X019421Y006637D01*
X019421Y006636D02*
X017827Y006636D01*
X017827Y006635D02*
X019421Y006635D01*
X019421Y006634D02*
X017827Y006634D01*
X017827Y006633D02*
X019421Y006633D01*
X019421Y006632D02*
X017827Y006632D01*
X017827Y006631D02*
X019421Y006631D01*
X019421Y006630D02*
X017827Y006630D01*
X017827Y006629D02*
X019421Y006629D01*
X019421Y006628D02*
X017827Y006628D01*
X017827Y006627D02*
X019421Y006627D01*
X019421Y006626D02*
X017827Y006626D01*
X017827Y006625D02*
X019421Y006625D01*
X019421Y006624D02*
X017827Y006624D01*
X017827Y006623D02*
X019421Y006623D01*
X019421Y006622D02*
X017827Y006622D01*
X017827Y006621D02*
X019421Y006621D01*
X019421Y006620D02*
X017827Y006620D01*
X017827Y006619D02*
X019421Y006619D01*
X019421Y006618D02*
X017827Y006618D01*
X017827Y006617D02*
X019421Y006617D01*
X019421Y006616D02*
X017827Y006616D01*
X017827Y006615D02*
X019421Y006615D01*
X019421Y006614D02*
X017827Y006614D01*
X017827Y006613D02*
X019421Y006613D01*
X019421Y006612D02*
X017827Y006612D01*
X017827Y006611D02*
X019421Y006611D01*
X019421Y006610D02*
X017827Y006610D01*
X017827Y006609D02*
X019421Y006609D01*
X019421Y006608D02*
X017827Y006608D01*
X017827Y006607D02*
X019421Y006607D01*
X019421Y006606D02*
X017827Y006606D01*
X017827Y006605D02*
X019421Y006605D01*
X019421Y006604D02*
X017827Y006604D01*
X017827Y006603D02*
X019421Y006603D01*
X019421Y006602D02*
X017827Y006602D01*
X017827Y006601D02*
X019421Y006601D01*
X019421Y006600D02*
X017827Y006600D01*
X017827Y006599D02*
X019421Y006599D01*
X019421Y006598D02*
X017827Y006598D01*
X017827Y006597D02*
X019421Y006597D01*
X019421Y006596D02*
X017827Y006596D01*
X017827Y006595D02*
X019421Y006595D01*
X019421Y006594D02*
X017827Y006594D01*
X017827Y006593D02*
X019421Y006593D01*
X019421Y006592D02*
X017827Y006592D01*
X017827Y006591D02*
X019421Y006591D01*
X019421Y006590D02*
X017827Y006590D01*
X017827Y006589D02*
X019421Y006589D01*
X019421Y006588D02*
X017827Y006588D01*
X017827Y006587D02*
X019421Y006587D01*
X019421Y006586D02*
X017827Y006586D01*
X017827Y006585D02*
X019421Y006585D01*
X019421Y006584D02*
X017827Y006584D01*
X017827Y006583D02*
X019421Y006583D01*
X019421Y006582D02*
X017827Y006582D01*
X017827Y006581D02*
X019421Y006581D01*
X019421Y006580D02*
X017827Y006580D01*
X017827Y006579D02*
X019421Y006579D01*
X019421Y006578D02*
X017827Y006578D01*
X017827Y006577D02*
X019421Y006577D01*
X019421Y006576D02*
X017827Y006576D01*
X017827Y006575D02*
X019421Y006575D01*
X019421Y006574D02*
X017827Y006574D01*
X017827Y006573D02*
X019421Y006573D01*
X019421Y006572D02*
X017827Y006572D01*
X017827Y006571D02*
X019421Y006571D01*
X019421Y006570D02*
X017827Y006570D01*
X017827Y006569D02*
X019421Y006569D01*
X019421Y006568D02*
X017827Y006568D01*
X017827Y006567D02*
X019421Y006567D01*
X019421Y006566D02*
X017827Y006566D01*
X017827Y006565D02*
X019421Y006565D01*
X019421Y006564D02*
X017827Y006564D01*
X017827Y006563D02*
X019421Y006563D01*
X019421Y006562D02*
X017827Y006562D01*
X017827Y006561D02*
X019421Y006561D01*
X019421Y006560D02*
X017827Y006560D01*
X017827Y006559D02*
X019421Y006559D01*
X019421Y006558D02*
X017827Y006558D01*
X017827Y006557D02*
X019421Y006557D01*
X019421Y006556D02*
X017827Y006556D01*
X017827Y006555D02*
X019421Y006555D01*
X019421Y006554D02*
X017827Y006554D01*
X017827Y006553D02*
X019421Y006553D01*
X019421Y006552D02*
X017827Y006552D01*
X017827Y006551D02*
X019421Y006551D01*
X019421Y006550D02*
X017827Y006550D01*
X017827Y006549D02*
X019421Y006549D01*
X019421Y006548D02*
X017827Y006548D01*
X017827Y006547D02*
X019421Y006547D01*
X019421Y006546D02*
X017827Y006546D01*
X017827Y006545D02*
X019421Y006545D01*
X019421Y006544D02*
X017827Y006544D01*
X017827Y006543D02*
X019421Y006543D01*
X019421Y006542D02*
X017827Y006542D01*
X017827Y006541D02*
X019421Y006541D01*
X019421Y006540D02*
X017827Y006540D01*
X017827Y006539D02*
X019421Y006539D01*
X019421Y006538D02*
X017827Y006538D01*
X017827Y006537D02*
X019421Y006537D01*
X019421Y006536D02*
X017827Y006536D01*
X017827Y006535D02*
X019421Y006535D01*
X019421Y006534D02*
X017827Y006534D01*
X017827Y006533D02*
X019421Y006533D01*
X019421Y006532D02*
X017827Y006532D01*
X017827Y006531D02*
X019421Y006531D01*
X019421Y006530D02*
X017827Y006530D01*
X017827Y006529D02*
X019421Y006529D01*
X019421Y006528D02*
X017827Y006528D01*
X017827Y006527D02*
X019421Y006527D01*
X019421Y006526D02*
X017827Y006526D01*
X017827Y006525D02*
X019421Y006525D01*
X019421Y006524D02*
X017827Y006524D01*
X017827Y006523D02*
X019421Y006523D01*
X019421Y006522D02*
X017827Y006522D01*
X017827Y006521D02*
X019421Y006521D01*
X019421Y006520D02*
X017827Y006520D01*
X017827Y006519D02*
X019421Y006519D01*
X019421Y006518D02*
X017827Y006518D01*
X017827Y006517D02*
X019421Y006517D01*
X019421Y006516D02*
X017827Y006516D01*
X017827Y006515D02*
X019421Y006515D01*
X019421Y006514D02*
X017827Y006514D01*
X017827Y006513D02*
X019421Y006513D01*
X019421Y006512D02*
X017827Y006512D01*
X017827Y006511D02*
X019421Y006511D01*
X019421Y006510D02*
X017827Y006510D01*
X017827Y006509D02*
X019421Y006509D01*
X019421Y006508D02*
X017827Y006508D01*
X017827Y006507D02*
X019421Y006507D01*
X019421Y006506D02*
X017827Y006506D01*
X017827Y006505D02*
X019421Y006505D01*
X019421Y006504D02*
X017827Y006504D01*
X017827Y006503D02*
X019421Y006503D01*
X019421Y006502D02*
X017827Y006502D01*
X017827Y006501D02*
X019421Y006501D01*
X019421Y006500D02*
X017827Y006500D01*
X017827Y006499D02*
X019421Y006499D01*
X019421Y006498D02*
X017827Y006498D01*
X017827Y006497D02*
X019421Y006497D01*
X019421Y006496D02*
X017827Y006496D01*
X017827Y006495D02*
X019421Y006495D01*
X019421Y006494D02*
X017827Y006494D01*
X017827Y006493D02*
X019421Y006493D01*
X019421Y006492D02*
X017827Y006492D01*
X017827Y006491D02*
X019421Y006491D01*
X019421Y006490D02*
X017827Y006490D01*
X017827Y006489D02*
X019421Y006489D01*
X019421Y006488D02*
X017827Y006488D01*
X017827Y006487D02*
X019421Y006487D01*
X019421Y006486D02*
X017827Y006486D01*
X017827Y006485D02*
X019421Y006485D01*
X019421Y006484D02*
X017827Y006484D01*
X017827Y006483D02*
X019421Y006483D01*
X019421Y006482D02*
X017827Y006482D01*
X017827Y006481D02*
X019421Y006481D01*
X019421Y006480D02*
X017827Y006480D01*
X017827Y006479D02*
X019421Y006479D01*
X019421Y006478D02*
X017827Y006478D01*
X017827Y006477D02*
X019421Y006477D01*
X019421Y006476D02*
X017827Y006476D01*
X017827Y006475D02*
X019421Y006475D01*
X019421Y006474D02*
X017827Y006474D01*
X017827Y006473D02*
X019421Y006473D01*
X019421Y006472D02*
X017827Y006472D01*
X017827Y006471D02*
X019421Y006471D01*
X019421Y006470D02*
X017827Y006470D01*
X017827Y006469D02*
X019421Y006469D01*
X019421Y006468D02*
X017827Y006468D01*
X017827Y006467D02*
X019421Y006467D01*
X019421Y006466D02*
X017827Y006466D01*
X017827Y006465D02*
X019421Y006465D01*
X019421Y006464D02*
X017827Y006464D01*
X017827Y006463D02*
X019421Y006463D01*
X019421Y006462D02*
X017827Y006462D01*
X017827Y006461D02*
X019421Y006461D01*
X019421Y006460D02*
X017827Y006460D01*
X017827Y006459D02*
X019421Y006459D01*
X019421Y006458D02*
X017827Y006458D01*
X017827Y006457D02*
X019421Y006457D01*
X019421Y006456D02*
X017827Y006456D01*
X017827Y006455D02*
X019421Y006455D01*
X019421Y006454D02*
X017827Y006454D01*
X017827Y006453D02*
X019421Y006453D01*
X019421Y006452D02*
X017827Y006452D01*
X017827Y006451D02*
X019421Y006451D01*
X019421Y006450D02*
X017827Y006450D01*
X017827Y006449D02*
X019421Y006449D01*
X019421Y006448D02*
X017827Y006448D01*
X017827Y006447D02*
X019421Y006447D01*
X019421Y006446D02*
X017827Y006446D01*
X017827Y006445D02*
X019421Y006445D01*
X019421Y006444D02*
X017827Y006444D01*
X017827Y006443D02*
X019421Y006443D01*
X019421Y006442D02*
X017827Y006442D01*
X017827Y006441D02*
X019421Y006441D01*
D30*
X011429Y010196D02*
X011429Y010373D01*
X011429Y010196D02*
X011410Y010196D01*
D31*
X008894Y009393D02*
X008398Y009393D01*
X008063Y009137D01*
X014264Y007995D02*
X014264Y007463D01*
X015099Y007334D02*
X015099Y007963D01*
X015792Y008633D02*
X015969Y008456D01*
X015792Y008633D02*
X015099Y008633D01*
X016168Y008611D02*
X016725Y008054D01*
X016725Y006912D01*
X018634Y006893D01*
X018319Y006971D02*
X018299Y005235D01*
X019244Y004231D01*
X015969Y006629D02*
X015969Y007353D01*
X015969Y007078D01*
X015977Y007070D01*
X015977Y006912D01*
X017315Y007660D02*
X017378Y007723D01*
X017378Y008337D01*
X018217Y008920D02*
X018217Y007684D01*
X018319Y007582D01*
X018319Y006971D01*
X018221Y009586D02*
X018217Y009589D01*
X018221Y009586D02*
X019453Y009586D01*
X019240Y010334D02*
X018217Y010334D01*
X018217Y011003D02*
X018217Y011652D01*
X019240Y010334D02*
X019244Y010337D01*
X019965Y010294D02*
X021307Y010294D01*
X021315Y010302D01*
D32*
X014244Y007463D03*
X015091Y007306D03*
X015957Y006578D03*
X017315Y007660D03*
X019697Y008920D03*
X016252Y009767D03*
X015819Y009767D03*
X015819Y010200D03*
X016233Y010200D03*
X021764Y012424D03*
X024855Y011223D03*
X025504Y011223D03*
X026173Y011204D03*
X026213Y009373D03*
X025583Y009373D03*
X024914Y009393D03*
X016921Y013763D03*
X008063Y009137D03*
X005386Y009471D03*
X004776Y009452D03*
X004166Y009471D03*
X004205Y011302D03*
X004835Y011302D03*
X005425Y011302D03*
D33*
X014244Y007463D02*
X014264Y007463D01*
X015091Y007306D02*
X015099Y007334D01*
X015969Y006629D02*
X015957Y006578D01*
X016173Y008408D02*
X015583Y008448D01*
X015603Y009393D01*
X016193Y009353D01*
X016173Y008408D01*
X016175Y008494D02*
X015584Y008494D01*
X015586Y008613D02*
X016178Y008613D01*
X016180Y008731D02*
X015589Y008731D01*
X015591Y008850D02*
X016183Y008850D01*
X016185Y008968D02*
X015594Y008968D01*
X015596Y009087D02*
X016188Y009087D01*
X016190Y009205D02*
X015599Y009205D01*
X015601Y009324D02*
X016193Y009324D01*
X016423Y009259D02*
X016423Y009064D01*
X016547Y008940D01*
X017311Y008940D01*
X017378Y009007D01*
X015327Y009587D02*
X015187Y009587D01*
X014264Y008664D01*
M02*
