%
M48
M72
T01C0.0236
T02C0.0400
%
T01
X14244Y7463
X15091Y7306
X15957Y6578
X17315Y7660
X19697Y8920
X16252Y9767
X15819Y9767
X15819Y10200
X16233Y10200
X21764Y12424
X24855Y11223
X25504Y11223
X26173Y11204
X26213Y9373
X25583Y9373
X24914Y9393
X16921Y13763
X8063Y9137
X5386Y9471
X4776Y9452
X4166Y9471
X4205Y11302
X4835Y11302
X5425Y11302
T02
X16213Y4070
X19244Y4231
M30
