G75*
G70*
%OFA0B0*%
%FSLAX24Y24*%
%IPPOS*%
%LPD*%
%AMOC8*
5,1,8,0,0,1.08239X$1,22.5*
%
%ADD10C,0.0000*%
%ADD11C,0.0030*%
%ADD12C,0.0040*%
%ADD13C,0.0080*%
%ADD14C,0.0060*%
D10*
X003811Y000180D02*
X003829Y009676D01*
X021678Y009676D01*
X021660Y000180D01*
X003811Y000180D01*
X003851Y004043D02*
X003851Y008443D01*
X021646Y008522D02*
X021646Y004122D01*
D11*
X016437Y004635D02*
X016375Y004573D01*
X016129Y004573D01*
X016067Y004635D01*
X016067Y004758D01*
X016129Y004820D01*
X016129Y004942D02*
X016067Y005003D01*
X016067Y005127D01*
X016129Y005189D01*
X016190Y005189D01*
X016252Y005127D01*
X016314Y005189D01*
X016375Y005189D01*
X016437Y005127D01*
X016437Y005003D01*
X016375Y004942D01*
X016375Y004820D02*
X016437Y004758D01*
X016437Y004635D01*
X016252Y005065D02*
X016252Y005127D01*
X014637Y005189D02*
X014637Y004942D01*
X014390Y005189D01*
X014329Y005189D01*
X014267Y005127D01*
X014267Y005003D01*
X014329Y004942D01*
X014329Y004820D02*
X014267Y004758D01*
X014267Y004635D01*
X014329Y004573D01*
X014575Y004573D01*
X014637Y004635D01*
X014637Y004758D01*
X014575Y004820D01*
X012937Y004758D02*
X012937Y004635D01*
X012875Y004573D01*
X012629Y004573D01*
X012567Y004635D01*
X012567Y004758D01*
X012629Y004820D01*
X012690Y004942D02*
X012567Y005065D01*
X012937Y005065D01*
X012937Y004942D02*
X012937Y005189D01*
X012875Y004820D02*
X012937Y004758D01*
D12*
X016616Y005050D02*
X016616Y005280D01*
X016693Y005357D01*
X016846Y005357D01*
X016923Y005280D01*
X016923Y005050D01*
X017076Y005050D02*
X016616Y005050D01*
X016923Y005203D02*
X017076Y005357D01*
X017076Y005510D02*
X016769Y005817D01*
X016693Y005817D01*
X016616Y005741D01*
X016616Y005587D01*
X016693Y005510D01*
X017076Y005510D02*
X017076Y005817D01*
X015534Y006877D02*
X015457Y006800D01*
X015303Y006800D01*
X015227Y006877D01*
X015073Y006800D02*
X014766Y006800D01*
X014766Y007260D01*
X015227Y007184D02*
X015303Y007260D01*
X015457Y007260D01*
X015534Y007184D01*
X015534Y007107D01*
X015457Y007030D01*
X015534Y006953D01*
X015534Y006877D01*
X015457Y007030D02*
X015380Y007030D01*
X013834Y007107D02*
X013834Y007184D01*
X013757Y007260D01*
X013603Y007260D01*
X013527Y007184D01*
X013834Y007107D02*
X013527Y006800D01*
X013834Y006800D01*
X013373Y006800D02*
X013066Y006800D01*
X013066Y007260D01*
X011734Y006800D02*
X011427Y006800D01*
X011580Y006800D02*
X011580Y007260D01*
X011427Y007107D01*
X010966Y007260D02*
X010966Y006800D01*
X011273Y006800D01*
X010234Y006800D02*
X009927Y006800D01*
X010080Y006800D02*
X010080Y007260D01*
X009927Y007107D01*
X009773Y007184D02*
X009773Y007030D01*
X009696Y006953D01*
X009466Y006953D01*
X009466Y006800D02*
X009466Y007260D01*
X009696Y007260D01*
X009773Y007184D01*
X009620Y006953D02*
X009773Y006800D01*
D13*
X003811Y007759D02*
X003811Y004727D01*
X003811Y004412D02*
X003240Y004412D01*
X003240Y005456D01*
X002394Y005456D01*
X002099Y005160D01*
X000603Y005160D01*
X000603Y005495D01*
X000140Y005495D01*
X000140Y006991D01*
X000603Y006991D01*
X000603Y007326D01*
X002099Y007326D01*
X002394Y007030D01*
X003240Y007030D01*
X003240Y008074D01*
X003811Y008074D01*
X021685Y008152D02*
X022256Y008152D01*
X022256Y007109D01*
X023103Y007109D01*
X023398Y007404D01*
X024894Y007404D01*
X024894Y007070D01*
X025357Y007070D01*
X025357Y005574D01*
X024894Y005574D01*
X024894Y005239D01*
X023398Y005239D01*
X023103Y005534D01*
X022256Y005534D01*
X022256Y004491D01*
X021685Y004491D01*
X021685Y004806D02*
X021685Y007837D01*
D14*
X020350Y003899D02*
X020350Y003045D01*
X020244Y003152D02*
X020457Y003152D01*
X020564Y003258D01*
X020564Y003365D01*
X020457Y003472D01*
X020244Y003472D01*
X020137Y003579D01*
X020137Y003686D01*
X020244Y003792D01*
X020457Y003792D01*
X020564Y003686D01*
X020781Y003686D02*
X020888Y003792D01*
X021102Y003792D01*
X021208Y003686D01*
X021208Y003579D01*
X020781Y003152D01*
X021208Y003152D01*
X020244Y003152D02*
X020137Y003258D01*
X019919Y003152D02*
X019492Y003152D01*
X019492Y003792D01*
X019919Y003792D01*
X019706Y003472D02*
X019492Y003472D01*
X005847Y008773D02*
X005420Y008773D01*
X005633Y008773D02*
X005633Y009414D01*
X005420Y009200D01*
X005202Y009307D02*
X005095Y009414D01*
X004882Y009414D01*
X004775Y009307D01*
X004775Y009200D01*
X004882Y009093D01*
X005095Y009093D01*
X005202Y008987D01*
X005202Y008880D01*
X005095Y008773D01*
X004882Y008773D01*
X004775Y008880D01*
X004558Y008773D02*
X004131Y008773D01*
X004131Y009414D01*
X004558Y009414D01*
X004989Y009520D02*
X004989Y008666D01*
X004344Y009093D02*
X004131Y009093D01*
M02*
