G75*
G70*
%OFA0B0*%
%FSLAX24Y24*%
%IPPOS*%
%LPD*%
%AMOC8*
5,1,8,0,0,1.08239X$1,22.5*
%
%ADD10R,0.2080X0.0980*%
%ADD11R,0.0730X0.0730*%
%ADD12R,0.0476X0.0476*%
D10*
X004861Y004503D03*
X004861Y007983D03*
X020636Y008062D03*
X020636Y004582D03*
D11*
X017896Y003480D03*
X017196Y003480D03*
X016496Y003480D03*
X015796Y003480D03*
X015096Y003480D03*
X014396Y003480D03*
X013696Y003480D03*
X012996Y003480D03*
X012296Y003480D03*
X011596Y003480D03*
D12*
X008339Y005456D03*
X007827Y005456D03*
X007276Y005456D03*
X006803Y005456D03*
X006331Y005456D03*
X006370Y007267D03*
X006882Y007267D03*
X007315Y007267D03*
X007788Y007267D03*
X008299Y007267D03*
X010150Y007345D03*
X010701Y007345D03*
X011252Y007345D03*
X011764Y007345D03*
X012276Y007345D03*
X012827Y007345D03*
X013418Y007345D03*
X014047Y007345D03*
X014559Y007345D03*
X015110Y007345D03*
X017236Y007227D03*
X017748Y007227D03*
X018260Y007227D03*
X018811Y007227D03*
X019284Y007227D03*
X019362Y005416D03*
X018929Y005416D03*
X018457Y005416D03*
M02*
