%
M48
M72
T01C0.0236
T02C0.0433
%
T01
X6331Y5456
X6803Y5456
X7276Y5456
X7827Y5456
X8339Y5456
X8299Y7267
X7788Y7267
X7315Y7267
X6882Y7267
X6370Y7267
X10150Y7345
X10701Y7345
X11252Y7345
X11764Y7345
X12276Y7345
X12827Y7345
X13418Y7345
X14047Y7345
X14559Y7345
X15110Y7345
X17236Y7227
X17748Y7227
X18260Y7227
X18811Y7227
X19284Y7227
X19362Y5416
X18929Y5416
X18457Y5416
T02
X11596Y3480
X12296Y3480
X12996Y3480
X13696Y3480
X14396Y3480
X15096Y3480
X15796Y3480
X16496Y3480
X17196Y3480
X17896Y3480
M30
